<svg width="114" height="29" viewBox="0 0 114 29" fill="none" xmlns="http://www.w3.org/2000/svg">
<path d="M16.9971 13.6336C17.0093 12.6836 17.2616 11.7522 17.7306 10.9259C18.1996 10.0996 18.8699 9.40541 19.6793 8.90782C19.1651 8.17351 18.4868 7.56921 17.6982 7.1429C16.9097 6.71659 16.0326 6.48002 15.1366 6.45199C13.2253 6.25138 11.3724 7.59567 10.3985 7.59567C9.40565 7.59567 7.9061 6.47191 6.29132 6.50513C5.24684 6.53888 4.22891 6.84261 3.33672 7.38672C2.44452 7.93084 1.70849 8.69679 1.20033 9.60994C-1.00092 13.4211 0.641012 19.0221 2.74962 22.1027C3.8046 23.6112 5.03757 25.2962 6.65089 25.2365C8.22961 25.171 8.81924 24.2298 10.7249 24.2298C12.6129 24.2298 13.1661 25.2365 14.8121 25.1985C16.5062 25.171 17.5735 23.6833 18.5914 22.1605C19.3495 21.0857 19.9327 19.8977 20.3197 18.6407C19.3355 18.2244 18.4956 17.5276 17.9048 16.6372C17.3139 15.7469 16.9982 14.7022 16.9971 13.6336Z" fill="white"/>
<path d="M13.888 4.42596C14.8117 3.31714 15.2668 1.89193 15.1566 0.453003C13.7454 0.601218 12.4419 1.27566 11.5058 2.34194C11.048 2.86285 10.6975 3.46886 10.4741 4.12533C10.2508 4.78179 10.159 5.47585 10.204 6.16781C10.9098 6.17508 11.6081 6.02209 12.2463 5.72038C12.8844 5.41866 13.4457 4.97608 13.888 4.42596Z" fill="white"/>
<path d="M36.9534 21.4176H31.5659L30.2722 25.2378H27.9902L33.0932 11.1039H35.464L40.5669 25.2378H38.2461L36.9534 21.4176ZM32.1239 19.6547H36.3944L34.2892 13.4547H34.2303L32.1239 19.6547Z" fill="white"/>
<path d="M51.5877 20.086C51.5877 23.2882 49.8737 25.3456 47.2873 25.3456C46.6321 25.3799 45.9805 25.229 45.407 24.9101C44.8336 24.5913 44.3616 24.1174 44.045 23.5427H43.9961V28.6468H41.8809V14.933H43.9283V16.647H43.9672C44.2983 16.0751 44.7784 15.6036 45.3561 15.2829C45.9339 14.9621 46.5878 14.8039 47.2484 14.8252C49.8637 14.8252 51.5877 16.8926 51.5877 20.086ZM49.4136 20.086C49.4136 17.9997 48.3354 16.6281 46.6904 16.6281C45.0742 16.6281 43.9872 18.0286 43.9872 20.086C43.9872 22.1623 45.0742 23.5528 46.6904 23.5528C48.3354 23.5528 49.4136 22.1912 49.4136 20.086Z" fill="white"/>
<path d="M62.9295 20.086C62.9295 23.2883 61.2155 25.3457 58.6291 25.3457C57.9739 25.3799 57.3222 25.229 56.7488 24.9102C56.1754 24.5913 55.7034 24.1174 55.3868 23.5428H55.3379V28.6468H53.2227V14.9331H55.27V16.647H55.3089C55.6401 16.0751 56.1201 15.6037 56.6979 15.2829C57.2757 14.9621 57.9296 14.804 58.5901 14.8253C61.2055 14.8253 62.9295 16.8927 62.9295 20.086ZM60.7554 20.086C60.7554 17.9997 59.6772 16.6281 58.0322 16.6281C56.416 16.6281 55.329 18.0286 55.329 20.086C55.329 22.1623 56.416 23.5528 58.0322 23.5528C59.6772 23.5528 60.7554 22.1912 60.7554 20.086H60.7554Z" fill="white"/>
<path d="M70.4255 21.2998C70.5822 22.7014 71.9438 23.6217 73.8045 23.6217C75.5873 23.6217 76.87 22.7013 76.87 21.4375C76.87 20.3405 76.0964 19.6836 74.2646 19.2334L72.4329 18.7922C69.8375 18.1653 68.6326 16.9515 68.6326 14.9819C68.6326 12.5433 70.7578 10.8682 73.7756 10.8682C76.7622 10.8682 78.8096 12.5433 78.8785 14.9819H76.7433C76.6155 13.5714 75.4495 12.72 73.7455 12.72C72.0416 12.72 70.8756 13.5814 70.8756 14.8352C70.8756 15.8344 71.6204 16.4224 73.4421 16.8725L74.9993 17.2549C77.8992 17.9407 79.1041 19.1056 79.1041 21.173C79.1041 23.8172 76.9978 25.4734 73.6477 25.4734C70.5133 25.4734 68.397 23.8561 68.2603 21.2997L70.4255 21.2998Z" fill="white"/>
<path d="M83.6689 12.4944V14.9331H85.6285V16.6081H83.6689V22.289C83.6689 23.1716 84.0613 23.5828 84.9227 23.5828C85.1553 23.5788 85.3876 23.5624 85.6185 23.5339V25.1989C85.2312 25.2713 84.8376 25.3041 84.4436 25.2967C82.3573 25.2967 81.5437 24.5131 81.5437 22.5146V16.6081H80.0454V14.9331H81.5437V12.4944H83.6689Z" fill="white"/>
<path d="M86.7632 20.086C86.7632 16.8437 88.6727 14.8063 91.6505 14.8063C94.6382 14.8063 96.5389 16.8437 96.5389 20.086C96.5389 23.3371 94.6482 25.3656 91.6505 25.3656C88.6538 25.3656 86.7632 23.3371 86.7632 20.086ZM94.3837 20.086C94.3837 17.8619 93.3644 16.5492 91.6505 16.5492C89.9365 16.5492 88.9184 17.8719 88.9184 20.086C88.9184 22.319 89.9365 23.6217 91.6505 23.6217C93.3644 23.6217 94.3836 22.319 94.3836 20.086H94.3837Z" fill="white"/>
<path d="M98.2832 14.933H100.301V16.687H100.35C100.486 16.1392 100.807 15.6551 101.258 15.316C101.71 14.977 102.264 14.8037 102.828 14.8252C103.072 14.8244 103.315 14.8508 103.553 14.9041V16.8826C103.245 16.7886 102.924 16.7454 102.603 16.7548C102.295 16.7423 101.989 16.7965 101.705 16.9136C101.42 17.0307 101.164 17.208 100.955 17.4332C100.746 17.6584 100.588 17.9263 100.491 18.2185C100.395 18.5106 100.364 18.8201 100.398 19.1256V25.2378H98.2832L98.2832 14.933Z" fill="white"/>
<path d="M113.305 22.2112C113.02 24.0818 111.198 25.3656 108.868 25.3656C105.87 25.3656 104.009 23.3571 104.009 20.1349C104.009 16.9026 105.88 14.8063 108.779 14.8063C111.63 14.8063 113.423 16.7648 113.423 19.8892V20.614H106.144V20.7418C106.111 21.121 106.158 21.5031 106.284 21.8625C106.409 22.222 106.61 22.5507 106.872 22.8268C107.134 23.1028 107.452 23.32 107.804 23.4637C108.157 23.6075 108.536 23.6746 108.917 23.6606C109.416 23.7074 109.918 23.5917 110.347 23.3305C110.776 23.0694 111.109 22.6768 111.296 22.2112L113.305 22.2112ZM106.154 19.1356H111.306C111.325 18.7947 111.274 18.4534 111.154 18.1333C111.035 17.8133 110.851 17.5213 110.614 17.2757C110.377 17.0301 110.091 16.8363 109.775 16.7063C109.459 16.5763 109.12 16.5129 108.779 16.5203C108.434 16.5182 108.093 16.5844 107.774 16.715C107.455 16.8456 107.166 17.038 106.922 17.2812C106.678 17.5243 106.484 17.8134 106.353 18.1317C106.221 18.45 106.154 18.7912 106.154 19.1357V19.1356Z" fill="white"/>
<path d="M30.6202 3.33624H31.5283C31.6847 3.35571 31.8433 3.34258 31.9943 3.29769C32.1453 3.25279 32.2854 3.1771 32.4057 3.07539C32.526 2.97368 32.6239 2.84816 32.6933 2.70672C32.7627 2.56529 32.802 2.41102 32.8088 2.25364C32.8088 1.62731 32.3375 1.22272 31.5383 1.22272C31.3782 1.20034 31.2152 1.21027 31.0589 1.25194C30.9027 1.29361 30.7563 1.36616 30.6286 1.46531C30.5008 1.56447 30.3943 1.68821 30.3151 1.82924C30.236 1.97027 30.1859 2.12572 30.1679 2.28643H29.1708C29.188 1.99471 29.265 1.70965 29.3971 1.449C29.5292 1.18834 29.7135 0.957667 29.9387 0.771342C30.1638 0.585017 30.4248 0.447027 30.7056 0.365965C30.9863 0.284903 31.2808 0.262505 31.5705 0.300163C32.9077 0.300163 33.8492 1.04876 33.8492 2.12636C33.8523 2.48737 33.7315 2.83853 33.507 3.12123C33.2825 3.40392 32.9678 3.60105 32.6154 3.6797V3.75972C33.0331 3.77825 33.4265 3.9614 33.7096 4.26914C33.9926 4.57688 34.1423 4.98417 34.1259 5.40197C34.095 5.70233 34.0045 5.99349 33.8596 6.2584C33.7147 6.5233 33.5184 6.75661 33.2821 6.94466C33.0459 7.13271 32.7745 7.27171 32.4838 7.35351C32.1932 7.43531 31.8891 7.45826 31.5895 7.42103C31.2892 7.46196 30.9838 7.44202 30.6914 7.3624C30.399 7.28277 30.1256 7.14509 29.8876 6.95755C29.6495 6.77002 29.4517 6.53648 29.3058 6.27085C29.1599 6.00522 29.0691 5.71293 29.0386 5.41143H30.0512C30.1123 6.0611 30.7092 6.48018 31.5895 6.48018C32.4698 6.48018 33.0444 6.00946 33.0444 5.34589C33.0444 4.67287 32.5031 4.25828 31.5572 4.25828H30.6202V3.33624Z" fill="white"/>
<path d="M35.2764 5.80714C35.2764 4.88458 35.9644 4.35273 37.1826 4.27715L38.5709 4.19712V3.75475C38.5709 3.21344 38.2141 2.90778 37.5216 2.90778C36.957 2.90778 36.5668 3.11508 36.4535 3.47743H35.4742C35.5776 2.59711 36.4068 2.03247 37.5694 2.03247C38.8543 2.03247 39.579 2.67213 39.579 3.75475V7.25654H38.6042V6.53629H38.5242C38.3618 6.79465 38.1337 7.00527 37.8632 7.14664C37.5927 7.28802 37.2896 7.35508 36.9848 7.34098C36.7696 7.36336 36.5521 7.34041 36.3464 7.2736C36.1407 7.20679 35.9512 7.09761 35.7903 6.9531C35.6293 6.80858 35.5004 6.63194 35.4119 6.43456C35.3234 6.23719 35.2772 6.02345 35.2764 5.80714ZM38.5709 5.3692V4.94072L37.3193 5.02075C36.6135 5.06798 36.2933 5.30807 36.2933 5.75989C36.2933 6.22116 36.6935 6.48959 37.2437 6.48959C37.4049 6.50592 37.5678 6.48964 37.7226 6.44174C37.8774 6.39384 38.021 6.31528 38.1448 6.21075C38.2686 6.10622 38.3702 5.97784 38.4434 5.83327C38.5166 5.6887 38.5599 5.53087 38.5709 5.3692Z" fill="white"/>
<path d="M42.2634 2.9827V7.25644H41.252V2.13129H44.6265V2.98265L42.2634 2.9827Z" fill="white"/>
<path d="M50.7564 4.69167C50.7564 6.32002 49.9327 7.34094 48.6389 7.34094C48.3213 7.36264 48.0042 7.29313 47.7247 7.14062C47.4453 6.98811 47.2153 6.75893 47.0617 6.48008H46.9817V8.96041H45.9702V2.13132H46.9439V2.97832H47.0195C47.1758 2.68972 47.4088 2.44995 47.6929 2.28548C47.9769 2.12101 48.3008 2.03824 48.6289 2.04632C49.9327 2.04628 50.7564 3.06275 50.7564 4.69167ZM49.716 4.69167C49.716 3.60906 49.2036 2.95494 48.3466 2.95494C47.4953 2.95494 46.9628 3.62295 46.9628 4.69612C46.9628 5.76428 47.4952 6.43285 48.3422 6.43285C49.2036 6.43283 49.716 5.77871 49.716 4.69167Z" fill="white"/>
<path d="M52.1035 9.0921V8.22123C52.213 8.23514 52.3232 8.24145 52.4336 8.24012C52.6491 8.25609 52.8629 8.19191 53.034 8.0599C53.205 7.9279 53.3213 7.73737 53.3606 7.52487L53.4362 7.27533L51.5811 2.13129H52.6826L53.9675 6.20218H54.0475L55.328 2.13129H56.4006L54.4899 7.46819C54.052 8.71529 53.5674 9.11544 52.5226 9.11544C52.4381 9.11543 52.198 9.10599 52.1035 9.0921Z" fill="white"/>
<path d="M57.1885 5.80209H58.1955C58.2944 6.25394 58.7179 6.48955 59.3103 6.48955C59.9839 6.48955 60.3974 6.19278 60.3974 5.73152C60.3974 5.23746 60.0262 5.00182 59.3103 5.00182H58.5434V4.21598H59.297C59.9083 4.21598 60.2196 3.9809 60.2196 3.55242C60.2196 3.17618 59.9183 2.88886 59.297 2.88886C58.7312 2.88886 58.3178 3.12895 58.2522 3.53354H57.2774C57.3503 3.06864 57.6027 2.65091 57.9804 2.37019C58.3581 2.08948 58.8308 1.9682 59.297 2.03245C60.5152 2.03245 61.2121 2.58321 61.2121 3.44907C61.2178 3.69018 61.1406 3.92594 60.9933 4.11693C60.846 4.30792 60.6376 4.44256 60.403 4.49833V4.57836C60.6823 4.61439 60.9387 4.75173 61.1235 4.9643C61.3083 5.17687 61.4087 5.44988 61.4055 5.73154C61.4055 6.70582 60.5763 7.35045 59.3103 7.35045C58.1911 7.35041 57.2819 6.83746 57.1885 5.80209Z" fill="white"/>
<path d="M62.8623 7.25644V2.13129H63.8649V5.65644H63.9449L66.3069 2.1313H67.3094V7.25645H66.3069V3.71243H66.2313L63.8649 7.25646L62.8623 7.25644Z" fill="white"/>
<path d="M72.8323 2.98277H71.2183V7.25651H70.2057V2.98277H68.5918V2.13141H72.8323V2.98277Z" fill="white"/>
<path d="M78.2812 5.87263C78.1434 6.34102 77.8454 6.7461 77.4392 7.01711C77.0331 7.28813 76.5447 7.40785 76.0593 7.35538C75.7216 7.36429 75.3861 7.29962 75.0759 7.16585C74.7658 7.03208 74.4884 6.83242 74.2632 6.58072C74.0379 6.32902 73.8701 6.03132 73.7715 5.70828C73.6728 5.38524 73.6456 5.0446 73.6918 4.70999C73.6468 4.37436 73.6745 4.03298 73.7729 3.70897C73.8714 3.38496 74.0383 3.08589 74.2623 2.83199C74.4864 2.57809 74.7624 2.3753 75.0717 2.23734C75.3809 2.09939 75.7162 2.02949 76.0548 2.03237C77.4809 2.03237 78.3423 3.00666 78.3423 4.61605V4.969H74.7233V5.02568C74.7072 5.2138 74.7308 5.40319 74.7923 5.58168C74.8538 5.76017 74.952 5.92382 75.0806 6.0621C75.2091 6.20038 75.3652 6.31023 75.5387 6.3846C75.7122 6.45897 75.8994 6.49621 76.0882 6.49393C76.33 6.52284 76.5749 6.47921 76.7918 6.36857C77.0087 6.25793 77.1879 6.08529 77.3064 5.8726L78.2812 5.87263ZM74.7232 4.22094H77.3108C77.3236 4.04901 77.3003 3.87632 77.2424 3.71394C77.1844 3.55156 77.0932 3.40309 76.9745 3.27806C76.8558 3.15303 76.7123 3.05421 76.5531 2.98794C76.394 2.92167 76.2227 2.88941 76.0504 2.89325C75.8754 2.89087 75.7017 2.92359 75.5396 2.98947C75.3774 3.05536 75.2302 3.15308 75.1065 3.27685C74.9827 3.40062 74.8851 3.54794 74.8193 3.71009C74.7535 3.87225 74.7208 4.04595 74.7233 4.22094H74.7232Z" fill="white"/>
<path d="M82.5693 2.13129H84.8802C85.8827 2.13129 86.4707 2.63925 86.4707 3.4345C86.4723 3.68685 86.3871 3.93207 86.2295 4.12914C86.0719 4.32621 85.8514 4.46317 85.6049 4.51711V4.59713C85.9042 4.61605 86.1848 4.74919 86.3887 4.96908C86.5927 5.18896 86.7044 5.47878 86.7008 5.77867C86.7008 6.67287 86.0283 7.25642 84.9035 7.25642H82.5693V2.13129ZM83.5719 2.90767V4.23479H84.5745C85.1858 4.23479 85.4782 3.99971 85.4782 3.56623C85.4782 3.16664 85.2236 2.90766 84.6868 2.90766L83.5719 2.90767ZM83.5719 4.97841V6.48006H84.7713C85.3693 6.48006 85.6894 6.21608 85.6894 5.73147C85.6894 5.21851 85.327 4.97842 84.6445 4.97842L83.5719 4.97841Z" fill="white"/>
</svg>
