<svg width="132" height="33" viewBox="0 0 132 33" fill="none" xmlns="http://www.w3.org/2000/svg">
<path d="M66.3974 18.2412C63.6658 18.2412 61.5032 20.29 61.5032 23.1354C61.5032 25.8671 63.6658 28.0296 66.3974 28.0296C69.129 28.0296 71.2916 25.9809 71.2916 23.1354C71.2916 20.1761 69.129 18.2412 66.3974 18.2412ZM66.3974 25.9809C64.9178 25.9809 63.6658 24.7289 63.6658 23.0216C63.6658 21.3143 64.9178 20.0623 66.3974 20.0623C67.877 20.0623 69.1291 21.2005 69.1291 23.0216C69.1291 24.7289 67.877 25.9809 66.3974 25.9809ZM55.8123 18.2412C53.0807 18.2412 50.9181 20.29 50.9181 23.1354C50.9181 25.8671 53.0807 28.0296 55.8123 28.0296C58.544 28.0296 60.7065 25.9809 60.7065 23.1354C60.7065 20.1761 58.544 18.2412 55.8123 18.2412ZM55.8123 25.9809C54.3327 25.9809 53.0807 24.7289 53.0807 23.0216C53.0807 21.3143 54.3327 20.0623 55.8123 20.0623C57.292 20.0623 58.544 21.2005 58.544 23.0216C58.544 24.7289 57.292 25.9809 55.8123 25.9809ZM43.1785 19.7209V21.7696H48.0727C47.9589 22.9078 47.5036 23.8183 46.9345 24.3874C46.2516 25.0703 45.1134 25.8671 43.1785 25.8671C40.1054 25.8671 37.8291 23.4769 37.8291 20.4038C37.8291 17.3307 40.2192 14.9405 43.1785 14.9405C44.772 14.9405 46.024 15.6234 46.9345 16.4201L48.4141 14.9405C47.1621 13.8023 45.5687 12.8918 43.2923 12.8918C39.1949 12.8918 35.6665 16.3063 35.6665 20.4038C35.6665 24.5012 39.1949 27.9158 43.2923 27.9158C45.5687 27.9158 47.1621 27.2329 48.528 25.7532C49.8938 24.3874 50.3491 22.4525 50.3491 20.9729C50.3491 20.5176 50.3491 20.0623 50.2352 19.7209H43.1785ZM94.852 21.3143C94.3967 20.1761 93.2585 18.2412 90.7545 18.2412C88.2505 18.2412 86.2018 20.1761 86.2018 23.1354C86.2018 25.8671 88.2505 28.0296 90.9821 28.0296C93.1447 28.0296 94.5105 26.6638 94.9658 25.8671L93.3723 24.7289C92.8032 25.5256 92.1203 26.0947 90.9821 26.0947C89.844 26.0947 89.161 25.6394 88.592 24.6151L95.0796 21.8834L94.852 21.3143ZM88.2505 22.9078C88.2505 21.0867 89.7301 20.0623 90.7545 20.0623C91.5512 20.0623 92.348 20.5176 92.5756 21.0867L88.2505 22.9078ZM82.9011 27.5743H85.0636V13.3471H82.9011V27.5743ZM79.4865 19.2656C78.9174 18.6965 78.0069 18.1274 76.8687 18.1274C74.4785 18.1274 72.2021 20.29 72.2021 23.0216C72.2021 25.7532 74.3647 27.802 76.8687 27.802C78.0069 27.802 78.9174 27.2329 79.3727 26.6638H79.4865V27.3467C79.4865 29.1678 78.4621 30.1921 76.8687 30.1921C75.6167 30.1921 74.7061 29.2816 74.4785 28.4849L72.6574 29.2816C73.2265 30.5336 74.5923 32.1271 76.9825 32.1271C79.4865 32.1271 81.5352 30.6474 81.5352 27.1191V18.4689H79.4865V19.2656ZM76.9825 25.9809C75.5029 25.9809 74.2509 24.7289 74.2509 23.0216C74.2509 21.3143 75.5029 20.0623 76.9825 20.0623C78.4621 20.0623 79.6003 21.3143 79.6003 23.0216C79.6003 24.7289 78.4621 25.9809 76.9825 25.9809ZM104.754 13.3471H99.6323V27.5743H101.795V22.2249H104.754C107.144 22.2249 109.421 20.5176 109.421 17.786C109.421 15.0543 107.144 13.3471 104.754 13.3471ZM104.868 20.1761H101.795V15.282H104.868C106.461 15.282 107.372 16.6478 107.372 17.6721C107.258 18.9241 106.348 20.1761 104.868 20.1761ZM117.957 18.1274C116.364 18.1274 114.77 18.8103 114.201 20.29L116.136 21.0867C116.591 20.29 117.274 20.0623 118.071 20.0623C119.209 20.0623 120.233 20.7452 120.347 21.8834V21.9972C120.006 21.7696 119.095 21.4281 118.185 21.4281C116.136 21.4281 114.087 22.5663 114.087 24.6151C114.087 26.55 115.795 27.802 117.616 27.802C119.095 27.802 119.778 27.1191 120.347 26.4361H120.461V27.5743H122.51V22.1111C122.282 19.6071 120.347 18.1274 117.957 18.1274ZM117.729 25.9809C117.047 25.9809 116.022 25.6394 116.022 24.7289C116.022 23.5907 117.274 23.2492 118.299 23.2492C119.209 23.2492 119.664 23.4769 120.233 23.7045C120.006 25.0703 118.868 25.9809 117.729 25.9809ZM129.68 18.4689L127.29 24.6151H127.176L124.672 18.4689H122.396L126.152 27.1191L123.989 31.8994H126.152L131.957 18.4689H129.68ZM110.559 27.5743H112.721V13.3471H110.559V27.5743Z" fill="white"/>
<path d="M0.724364 1.96527C0.38291 2.30673 0.155273 2.87582 0.155273 3.55873V28.7125C0.155273 29.3955 0.38291 29.9645 0.724364 30.306L0.838183 30.4198L14.9516 16.3064V16.1925V16.0787L0.724364 1.96527Z" fill="url(#paint0_linear)"/>
<path d="M19.6182 21.0867L14.9517 16.4202V16.1925V16.0787L19.6182 11.4122L19.732 11.526L25.3091 14.7129C26.9026 15.6234 26.9026 17.1031 25.3091 18.0136L19.6182 21.0867Z" fill="url(#paint1_linear)"/>
<path d="M19.7322 20.9729L14.9519 16.1926L0.724609 30.4198C1.2937 30.9889 2.09043 30.9889 3.11479 30.5337L19.7322 20.9729Z" fill="url(#paint2_linear)"/>
<path d="M19.7322 11.4122L3.11479 1.96527C2.09043 1.39618 1.2937 1.51 0.724609 2.07909L14.9519 16.1925L19.7322 11.4122Z" fill="url(#paint3_linear)"/>
<path opacity="0.2" d="M19.6179 20.8591L3.1143 30.1922C2.20376 30.7613 1.40703 30.6474 0.83794 30.1922L0.724121 30.306L0.83794 30.4198C1.40703 30.8751 2.20376 30.9889 3.1143 30.4198L19.6179 20.8591Z" fill="white" fill-opacity="0.78"/>
<path opacity="0.12" d="M0.724315 30.1921C0.382861 29.8507 0.269043 29.2816 0.269043 28.5987V28.7125C0.269043 29.3954 0.496679 29.9645 0.838134 30.306V30.1921H0.724315Z" fill="white" fill-opacity="0.78"/>
<path opacity="0.12" d="M25.3091 17.6722L19.6182 20.8591L19.732 20.9729L25.3091 17.786C26.1058 17.3307 26.4473 16.7617 26.4473 16.1926C26.4473 16.7617 25.992 17.2169 25.3091 17.6722Z" fill="white" fill-opacity="0.78"/>
<path opacity="0.25" d="M3.1145 2.07912L25.309 14.7129C25.992 15.1682 26.4472 15.6235 26.4472 16.1926C26.4472 15.6235 26.1058 15.0544 25.309 14.5991L3.1145 1.96531C1.52104 1.05476 0.269043 1.85149 0.269043 3.67258V3.7864C0.269043 1.96531 1.52104 1.16858 3.1145 2.07912Z" fill="black"/>
<path d="M36.8045 9.70491H36.0078V7.42854H36.6907C37.2598 6.97327 37.6013 6.06272 37.6013 4.81072V1.39618H42.154V7.42854H42.9507V9.70491H42.154V8.22527H36.9184V9.70491H36.8045ZM38.398 4.81072C38.398 5.83509 38.1704 6.74563 37.7151 7.42854H41.1296V2.30672H38.2842V4.81072H38.398Z" fill="white" stroke="white" stroke-width="0.227636" stroke-miterlimit="10"/>
<path d="M49.6662 7.31477C48.9832 7.99768 48.1865 8.33914 47.1622 8.33914C46.1378 8.33914 45.3411 7.99768 44.6582 7.31477C43.9752 6.63187 43.6338 5.83514 43.6338 4.81077C43.6338 3.78641 43.9752 2.98968 44.6582 2.30677C45.3411 1.62386 46.1378 1.28241 47.1622 1.28241C48.1865 1.28241 48.9832 1.62386 49.6662 2.30677C50.3491 2.98968 50.6905 3.78641 50.6905 4.81077C50.6905 5.83514 50.3491 6.63187 49.6662 7.31477ZM45.3411 6.74568C45.7963 7.20096 46.4792 7.54241 47.1622 7.54241C47.8451 7.54241 48.528 7.31477 48.9832 6.74568C49.4385 6.29041 49.78 5.6075 49.78 4.81077C49.78 4.01405 49.5523 3.33114 48.9832 2.87586C48.528 2.42059 47.8451 2.07914 47.1622 2.07914C46.4792 2.07914 45.7963 2.30677 45.3411 2.87586C44.8858 3.33114 44.5443 4.01405 44.5443 4.81077C44.5443 5.6075 44.772 6.29041 45.3411 6.74568Z" fill="white" stroke="white" stroke-width="0.227636" stroke-miterlimit="10"/>
<path d="M55.1294 8.33914C54.1051 8.33914 53.3083 7.99768 52.6254 7.31477C51.9425 6.63187 51.6011 5.83514 51.6011 4.81077C51.6011 3.78641 51.9425 2.98968 52.6254 2.30677C53.3083 1.62386 54.1051 1.28241 55.1294 1.28241C56.1538 1.28241 56.9505 1.62386 57.6334 2.42059L57.0644 2.98968C56.6091 2.42059 55.9262 2.07914 55.1294 2.07914C54.3327 2.07914 53.7636 2.30677 53.1945 2.87586C52.6254 3.33114 52.3978 4.01405 52.3978 4.81077C52.3978 5.6075 52.6254 6.29041 53.1945 6.74568C53.6498 7.20096 54.3327 7.54241 55.1294 7.54241C55.9262 7.54241 56.6091 7.20096 57.1782 6.51805L57.7473 7.08714C57.4058 7.42859 57.0643 7.77005 56.6091 7.99768C56.1538 8.22532 55.6985 8.33914 55.1294 8.33914Z" fill="white" stroke="white" stroke-width="0.227636" stroke-miterlimit="10"/>
<path d="M61.3894 8.22527H60.4789V2.19291H58.5439V1.39618H63.2105V2.19291H61.2756V8.22527H61.3894Z" fill="white" stroke="white" stroke-width="0.227636" stroke-miterlimit="10"/>
<path d="M69.2426 1.39618L66.6248 7.20091C66.2833 7.99763 65.7142 8.45291 65.0313 8.45291C64.8037 8.45291 64.576 8.45291 64.3484 8.33909L64.576 7.54236C64.6898 7.65618 64.9175 7.65618 65.0313 7.65618C65.2589 7.65618 65.3728 7.65618 65.4866 7.54236C65.6004 7.42854 65.7142 7.31472 65.828 7.08709L66.0557 6.518L63.7793 1.51H64.8037L66.5109 5.37982L68.1044 1.51H69.2426V1.39618Z" fill="white" stroke="white" stroke-width="0.227636" stroke-miterlimit="10"/>
<path d="M70.2671 8.22527V1.39618H75.1613V8.22527H74.2507V2.19291H71.0638V8.22527H70.2671Z" fill="white" stroke="white" stroke-width="0.227636" stroke-miterlimit="10"/>
<path d="M76.7549 8.22527V1.39618H77.6654V4.35545H81.08V1.39618H81.9905V8.22527H81.08V5.15218H77.6654V8.22527H76.7549Z" fill="white" stroke="white" stroke-width="0.227636" stroke-miterlimit="10"/>
<path d="M89.1608 7.31477C88.4779 7.99768 87.6811 8.33914 86.6568 8.33914C85.6324 8.33914 84.8357 7.99768 84.1528 7.31477C83.4699 6.63187 83.1284 5.83514 83.1284 4.81077C83.1284 3.78641 83.4699 2.98968 84.1528 2.30677C84.8357 1.62386 85.6324 1.28241 86.6568 1.28241C87.6811 1.28241 88.4779 1.62386 89.1608 2.30677C89.8437 2.98968 90.1851 3.78641 90.1851 4.81077C90.0713 5.83514 89.7299 6.63187 89.1608 7.31477ZM84.7219 6.74568C85.1771 7.20096 85.8601 7.54241 86.543 7.54241C87.2259 7.54241 87.9088 7.31477 88.3641 6.74568C88.8193 6.29041 89.1608 5.6075 89.1608 4.81077C89.1608 4.01405 88.9331 3.33114 88.3641 2.87586C87.9088 2.42059 87.2259 2.07914 86.543 2.07914C85.8601 2.07914 85.1771 2.30677 84.7219 2.87586C84.2666 3.33114 83.9251 4.01405 83.9251 4.81077C83.9251 5.6075 84.2666 6.29041 84.7219 6.74568Z" fill="white" stroke="white" stroke-width="0.227636" stroke-miterlimit="10"/>
<path d="M93.7134 8.22527V1.39618H96.2174C96.7865 1.39618 97.2417 1.62382 97.5832 1.96527C97.9247 2.30672 98.1523 2.762 98.1523 3.33109C98.1523 3.67254 98.0385 3.90018 97.9247 4.24163C97.8108 4.46927 97.5832 4.69691 97.2417 4.81072C97.5832 4.92454 97.8108 5.15218 98.0385 5.37982C98.2661 5.60745 98.3799 5.94891 98.3799 6.40418C98.3799 6.97327 98.1523 7.42854 97.8108 7.77C97.3556 8.11145 96.9003 8.33909 96.3312 8.33909H93.7134V8.22527ZM94.6239 4.35545H96.2174C96.5588 4.35545 96.7865 4.24163 97.0141 4.014C97.2417 3.78636 97.3556 3.55873 97.3556 3.33109C97.3556 3.10345 97.2417 2.87582 97.0141 2.64818C96.7865 2.42054 96.5588 2.30672 96.2174 2.30672H94.6239V4.35545ZM94.6239 7.42854H96.445C96.7865 7.42854 97.0141 7.31472 97.2417 7.08709C97.4694 6.85945 97.5832 6.63181 97.5832 6.29036C97.5832 6.06272 97.4694 5.72127 97.2417 5.49363C97.0141 5.266 96.7865 5.15218 96.445 5.15218H94.7377V7.42854H94.6239Z" fill="white" stroke="white" stroke-width="0.227636" stroke-miterlimit="10"/>
<defs>
<linearGradient id="paint0_linear" x1="13.6993" y1="3.34213" x2="-5.40212" y2="22.4436" gradientUnits="userSpaceOnUse">
<stop stop-color="#00A0FF"/>
<stop offset="0.00657445" stop-color="#00A1FF"/>
<stop offset="0.2601" stop-color="#00BEFF"/>
<stop offset="0.5122" stop-color="#00D2FF"/>
<stop offset="0.7604" stop-color="#00DFFF"/>
<stop offset="1" stop-color="#00E3FF"/>
</linearGradient>
<linearGradient id="paint1_linear" x1="27.397" y1="16.1941" x2="-0.143474" y2="16.1941" gradientUnits="userSpaceOnUse">
<stop stop-color="#FFE000"/>
<stop offset="0.4087" stop-color="#FFBD00"/>
<stop offset="0.7754" stop-color="#FFA500"/>
<stop offset="1" stop-color="#FF9C00"/>
</linearGradient>
<linearGradient id="paint2_linear" x1="17.1452" y1="18.8059" x2="-8.75792" y2="44.709" gradientUnits="userSpaceOnUse">
<stop stop-color="#FF3A44"/>
<stop offset="1" stop-color="#C31162"/>
</linearGradient>
<linearGradient id="paint3_linear" x1="-2.80683" y1="-6.37054" x2="8.76006" y2="5.19623" gradientUnits="userSpaceOnUse">
<stop stop-color="#32A071"/>
<stop offset="0.0685" stop-color="#2DA771"/>
<stop offset="0.4762" stop-color="#15CF74"/>
<stop offset="0.8009" stop-color="#06E775"/>
<stop offset="1" stop-color="#00F076"/>
</linearGradient>
</defs>
</svg>
