<svg width="302" height="208" viewBox="0 0 302 208" fill="none" xmlns="http://www.w3.org/2000/svg">
<g clip-path="url(#clip0)">
<rect width="302" height="208" rx="14" fill="white"/>
<path d="M104.662 170.42C106.636 170.42 108.096 170.807 109.042 171.58C109.989 172.34 110.462 173.38 110.462 174.7C110.462 175.54 110.256 176.3 109.842 176.98C109.429 177.66 108.809 178.2 107.982 178.6C107.156 179 106.136 179.2 104.922 179.2C103.922 179.2 102.956 179.06 102.022 178.78C101.089 178.487 100.302 178.087 99.6623 177.58L100.762 175.56C101.282 175.987 101.902 176.327 102.622 176.58C103.356 176.82 104.109 176.94 104.882 176.94C105.802 176.94 106.522 176.753 107.042 176.38C107.576 175.993 107.842 175.467 107.842 174.8C107.842 174.08 107.556 173.54 106.982 173.18C106.422 172.807 105.456 172.62 104.082 172.62H100.702L101.422 165H109.642V167.18H103.622L103.322 170.42H104.662ZM123.329 179.2C122.209 179.2 121.209 178.92 120.329 178.36C119.449 177.787 118.756 176.96 118.249 175.88C117.743 174.787 117.489 173.493 117.489 172C117.489 170.507 117.743 169.22 118.249 168.14C118.756 167.047 119.449 166.22 120.329 165.66C121.209 165.087 122.209 164.8 123.329 164.8C124.449 164.8 125.449 165.087 126.329 165.66C127.223 166.22 127.923 167.047 128.429 168.14C128.936 169.22 129.189 170.507 129.189 172C129.189 173.493 128.936 174.787 128.429 175.88C127.923 176.96 127.223 177.787 126.329 178.36C125.449 178.92 124.449 179.2 123.329 179.2ZM123.329 176.94C124.329 176.94 125.116 176.527 125.689 175.7C126.276 174.873 126.569 173.64 126.569 172C126.569 170.36 126.276 169.127 125.689 168.3C125.116 167.473 124.329 167.06 123.329 167.06C122.343 167.06 121.556 167.473 120.969 168.3C120.396 169.127 120.109 170.36 120.109 172C120.109 173.64 120.396 174.873 120.969 175.7C121.556 176.527 122.343 176.94 123.329 176.94ZM136.786 179.2C135.666 179.2 134.666 178.92 133.786 178.36C132.906 177.787 132.213 176.96 131.706 175.88C131.2 174.787 130.946 173.493 130.946 172C130.946 170.507 131.2 169.22 131.706 168.14C132.213 167.047 132.906 166.22 133.786 165.66C134.666 165.087 135.666 164.8 136.786 164.8C137.906 164.8 138.906 165.087 139.786 165.66C140.68 166.22 141.38 167.047 141.886 168.14C142.393 169.22 142.646 170.507 142.646 172C142.646 173.493 142.393 174.787 141.886 175.88C141.38 176.96 140.68 177.787 139.786 178.36C138.906 178.92 137.906 179.2 136.786 179.2ZM136.786 176.94C137.786 176.94 138.573 176.527 139.146 175.7C139.733 174.873 140.026 173.64 140.026 172C140.026 170.36 139.733 169.127 139.146 168.3C138.573 167.473 137.786 167.06 136.786 167.06C135.8 167.06 135.013 167.473 134.426 168.3C133.853 169.127 133.566 170.36 133.566 172C133.566 173.64 133.853 174.873 134.426 175.7C135.013 176.527 135.8 176.94 136.786 176.94ZM150.243 179.2C149.123 179.2 148.123 178.92 147.243 178.36C146.363 177.787 145.67 176.96 145.163 175.88C144.657 174.787 144.403 173.493 144.403 172C144.403 170.507 144.657 169.22 145.163 168.14C145.67 167.047 146.363 166.22 147.243 165.66C148.123 165.087 149.123 164.8 150.243 164.8C151.363 164.8 152.363 165.087 153.243 165.66C154.137 166.22 154.837 167.047 155.343 168.14C155.85 169.22 156.103 170.507 156.103 172C156.103 173.493 155.85 174.787 155.343 175.88C154.837 176.96 154.137 177.787 153.243 178.36C152.363 178.92 151.363 179.2 150.243 179.2ZM150.243 176.94C151.243 176.94 152.03 176.527 152.603 175.7C153.19 174.873 153.483 173.64 153.483 172C153.483 170.36 153.19 169.127 152.603 168.3C152.03 167.473 151.243 167.06 150.243 167.06C149.257 167.06 148.47 167.473 147.883 168.3C147.31 169.127 147.023 170.36 147.023 172C147.023 173.64 147.31 174.873 147.883 175.7C148.47 176.527 149.257 176.94 150.243 176.94ZM169.208 173.14L166.988 175.42V179H164.388V165H166.988V172.18L173.908 165H176.828L170.948 171.26L177.188 179H174.148L169.208 173.14ZM188.01 171.84H190.47V177.42C189.75 177.993 188.91 178.433 187.95 178.74C186.99 179.047 186.004 179.2 184.99 179.2C183.564 179.2 182.277 178.893 181.13 178.28C179.984 177.653 179.084 176.793 178.43 175.7C177.777 174.607 177.45 173.373 177.45 172C177.45 170.627 177.777 169.393 178.43 168.3C179.084 167.207 179.984 166.353 181.13 165.74C182.29 165.113 183.59 164.8 185.03 164.8C186.204 164.8 187.27 164.993 188.23 165.38C189.19 165.767 189.997 166.333 190.65 167.08L189.01 168.68C187.944 167.613 186.657 167.08 185.15 167.08C184.164 167.08 183.284 167.287 182.51 167.7C181.75 168.113 181.15 168.693 180.71 169.44C180.284 170.187 180.07 171.04 180.07 172C180.07 172.933 180.284 173.773 180.71 174.52C181.15 175.267 181.75 175.853 182.51 176.28C183.284 176.707 184.157 176.92 185.13 176.92C186.224 176.92 187.184 176.68 188.01 176.2V171.84ZM198.24 179.2C197.16 179.2 196.113 179.047 195.1 178.74C194.1 178.433 193.306 178.027 192.72 177.52L193.62 175.5C194.193 175.953 194.893 176.327 195.72 176.62C196.56 176.9 197.4 177.04 198.24 177.04C199.28 177.04 200.053 176.873 200.56 176.54C201.08 176.207 201.34 175.767 201.34 175.22C201.34 174.82 201.193 174.493 200.9 174.24C200.62 173.973 200.26 173.767 199.82 173.62C199.38 173.473 198.78 173.307 198.02 173.12C196.953 172.867 196.086 172.613 195.42 172.36C194.766 172.107 194.2 171.713 193.72 171.18C193.253 170.633 193.02 169.9 193.02 168.98C193.02 168.207 193.226 167.507 193.64 166.88C194.066 166.24 194.7 165.733 195.54 165.36C196.393 164.987 197.433 164.8 198.66 164.8C199.513 164.8 200.353 164.907 201.18 165.12C202.006 165.333 202.72 165.64 203.32 166.04L202.5 168.06C201.886 167.7 201.246 167.427 200.58 167.24C199.913 167.053 199.266 166.96 198.64 166.96C197.613 166.96 196.846 167.133 196.34 167.48C195.846 167.827 195.6 168.287 195.6 168.86C195.6 169.26 195.74 169.587 196.02 169.84C196.313 170.093 196.68 170.293 197.12 170.44C197.56 170.587 198.16 170.753 198.92 170.94C199.96 171.18 200.813 171.433 201.48 171.7C202.146 171.953 202.713 172.347 203.18 172.88C203.66 173.413 203.9 174.133 203.9 175.04C203.9 175.813 203.686 176.513 203.26 177.14C202.846 177.767 202.213 178.267 201.36 178.64C200.506 179.013 199.466 179.2 198.24 179.2Z" fill="#03153D"/>
<path d="M128.62 131.2L124.266 139.278C123.921 139.922 123.515 140.403 123.048 140.72C122.582 141.037 122.073 141.196 121.522 141.196C121.093 141.196 120.654 141.098 120.206 140.902L120.57 139.782C120.916 139.903 121.224 139.964 121.494 139.964C122.11 139.964 122.619 139.637 123.02 138.984L123.244 138.634L119.296 131.2H120.794L123.972 137.416L127.234 131.2H128.62ZM132.522 141.084C131.766 141.084 131.09 140.921 130.492 140.594C129.904 140.267 129.442 139.819 129.106 139.25C128.77 138.671 128.602 138.018 128.602 137.29C128.602 136.562 128.77 135.913 129.106 135.344C129.442 134.765 129.904 134.317 130.492 134C131.09 133.673 131.766 133.51 132.522 133.51C133.194 133.51 133.792 133.645 134.314 133.916C134.846 134.187 135.257 134.579 135.546 135.092L134.524 135.75C134.291 135.395 134.002 135.129 133.656 134.952C133.311 134.775 132.928 134.686 132.508 134.686C132.023 134.686 131.584 134.793 131.192 135.008C130.81 135.223 130.506 135.531 130.282 135.932C130.068 136.324 129.96 136.777 129.96 137.29C129.96 137.813 130.068 138.275 130.282 138.676C130.506 139.068 130.81 139.371 131.192 139.586C131.584 139.801 132.023 139.908 132.508 139.908C132.928 139.908 133.311 139.819 133.656 139.642C134.002 139.465 134.291 139.199 134.524 138.844L135.546 139.488C135.257 140.001 134.846 140.398 134.314 140.678C133.792 140.949 133.194 141.084 132.522 141.084ZM144.16 133.58V141H142.816V134.756H138.63V141H137.286V133.58H144.16ZM153.467 137.332C153.467 137.435 153.458 137.57 153.439 137.738H147.419C147.503 138.391 147.788 138.919 148.273 139.32C148.768 139.712 149.379 139.908 150.107 139.908C150.994 139.908 151.708 139.609 152.249 139.012L152.991 139.88C152.655 140.272 152.235 140.571 151.731 140.776C151.236 140.981 150.681 141.084 150.065 141.084C149.281 141.084 148.586 140.925 147.979 140.608C147.372 140.281 146.901 139.829 146.565 139.25C146.238 138.671 146.075 138.018 146.075 137.29C146.075 136.571 146.234 135.923 146.551 135.344C146.878 134.765 147.321 134.317 147.881 134C148.45 133.673 149.09 133.51 149.799 133.51C150.508 133.51 151.138 133.673 151.689 134C152.249 134.317 152.683 134.765 152.991 135.344C153.308 135.923 153.467 136.585 153.467 137.332ZM149.799 134.644C149.155 134.644 148.614 134.84 148.175 135.232C147.746 135.624 147.494 136.137 147.419 136.772H152.179C152.104 136.147 151.848 135.638 151.409 135.246C150.98 134.845 150.443 134.644 149.799 134.644ZM166.122 133.58V141H155.552V133.58H156.896V139.824H160.172V133.58H161.516V139.824H164.778V133.58H166.122ZM168.732 133.58H170.076V136.73H174.304V133.58H175.648V141H174.304V137.892H170.076V141H168.732V133.58ZM181.439 141.084C180.702 141.084 180.039 140.921 179.451 140.594C178.863 140.267 178.401 139.819 178.065 139.25C177.738 138.671 177.575 138.018 177.575 137.29C177.575 136.562 177.738 135.913 178.065 135.344C178.401 134.765 178.863 134.317 179.451 134C180.039 133.673 180.702 133.51 181.439 133.51C182.176 133.51 182.834 133.673 183.413 134C184.001 134.317 184.458 134.765 184.785 135.344C185.121 135.913 185.289 136.562 185.289 137.29C185.289 138.018 185.121 138.671 184.785 139.25C184.458 139.819 184.001 140.267 183.413 140.594C182.834 140.921 182.176 141.084 181.439 141.084ZM181.439 139.908C181.915 139.908 182.34 139.801 182.713 139.586C183.096 139.362 183.394 139.054 183.609 138.662C183.824 138.261 183.931 137.803 183.931 137.29C183.931 136.777 183.824 136.324 183.609 135.932C183.394 135.531 183.096 135.223 182.713 135.008C182.34 134.793 181.915 134.686 181.439 134.686C180.963 134.686 180.534 134.793 180.151 135.008C179.778 135.223 179.479 135.531 179.255 135.932C179.04 136.324 178.933 136.777 178.933 137.29C178.933 137.803 179.04 138.261 179.255 138.662C179.479 139.054 179.778 139.362 180.151 139.586C180.534 139.801 180.963 139.908 181.439 139.908Z" fill="#1FBF79"/>
<circle opacity="0.1" cx="152" cy="69" r="50" fill="#1FBF79"/>
<circle cx="152" cy="69" r="40" fill="#1FBF79"/>
<path d="M147.667 75.8726L166.051 57.4864C166.897 56.6403 168.269 56.64 169.115 57.4858C169.962 58.332 169.962 59.7045 169.116 60.551L148.197 81.4696C147.904 81.7625 147.429 81.7625 147.136 81.4696L135.41 69.7431C134.564 68.8971 134.564 67.5255 135.41 66.6795C136.256 65.8335 137.627 65.8335 138.473 66.6795L147.667 75.8726Z" fill="white"/>
</g>
<defs>
<clipPath id="clip0">
<rect width="302" height="208" rx="14" fill="white"/>
</clipPath>
</defs>
</svg>
