<svg width="324" height="146" viewBox="0 0 324 146" fill="none" xmlns="http://www.w3.org/2000/svg">
<g clip-path="url(#clip0)">
<rect x="0.155273" y="-11.8214" width="348.857" height="195.643" fill="url(#paint0_linear)"/>
<path d="M30.9512 89.4213V91.7485H30.0495V90.2649H24.4643L24.4546 91.7485H23.5528L23.5625 89.4213H23.8922C24.3188 89.3954 24.6194 89.0593 24.794 88.4129C24.9685 87.76 25.0752 86.842 25.1139 85.6591L25.1818 83.4774H29.9525V89.4213H30.9512ZM25.9672 85.7463C25.9349 86.7031 25.8573 87.4949 25.7345 88.122C25.6182 88.749 25.4275 89.1821 25.1624 89.4213H28.9925V84.3209H26.0157L25.9672 85.7463ZM34.2092 90.3231C33.6985 90.3231 33.2395 90.2099 32.8323 89.9837C32.425 89.7574 32.105 89.4472 31.8723 89.0528C31.6461 88.652 31.5329 88.1995 31.5329 87.6953C31.5329 87.1911 31.6461 86.7418 31.8723 86.3475C32.105 85.9467 32.425 85.6364 32.8323 85.4167C33.2395 85.1904 33.6985 85.0773 34.2092 85.0773C34.7198 85.0773 35.1756 85.1904 35.5764 85.4167C35.9836 85.6364 36.3004 85.9467 36.5266 86.3475C36.7593 86.7418 36.8757 87.1911 36.8757 87.6953C36.8757 88.1995 36.7593 88.652 36.5266 89.0528C36.3004 89.4472 35.9836 89.7574 35.5764 89.9837C35.1756 90.2099 34.7198 90.3231 34.2092 90.3231ZM34.2092 89.5086C34.5388 89.5086 34.833 89.4342 35.0915 89.2855C35.3566 89.1304 35.5634 88.9171 35.7121 88.6456C35.8608 88.3676 35.9351 88.0509 35.9351 87.6953C35.9351 87.3398 35.8608 87.0263 35.7121 86.7548C35.5634 86.4768 35.3566 86.2635 35.0915 86.1148C34.833 85.9661 34.5388 85.8918 34.2092 85.8918C33.8795 85.8918 33.5821 85.9661 33.3171 86.1148C33.0585 86.2635 32.8517 86.4768 32.6965 86.7548C32.5478 87.0263 32.4735 87.3398 32.4735 87.6953C32.4735 88.0509 32.5478 88.3676 32.6965 88.6456C32.8517 88.9171 33.0585 89.1304 33.3171 89.2855C33.5821 89.4342 33.8795 89.5086 34.2092 89.5086ZM40.4598 90.3231C39.9362 90.3231 39.4675 90.2099 39.0538 89.9837C38.6465 89.7574 38.3265 89.4472 38.0938 89.0528C37.8611 88.652 37.7447 88.1995 37.7447 87.6953C37.7447 87.1911 37.8611 86.7418 38.0938 86.3475C38.3265 85.9467 38.6465 85.6364 39.0538 85.4167C39.4675 85.1904 39.9362 85.0773 40.4598 85.0773C40.9252 85.0773 41.3389 85.171 41.7009 85.3585C42.0694 85.5459 42.3538 85.8174 42.5542 86.173L41.8464 86.6287C41.6848 86.3831 41.4844 86.1988 41.2452 86.076C41.006 85.9532 40.741 85.8918 40.4501 85.8918C40.1139 85.8918 39.8101 85.9661 39.5386 86.1148C39.2736 86.2635 39.0635 86.4768 38.9083 86.7548C38.7596 87.0263 38.6853 87.3398 38.6853 87.6953C38.6853 88.0573 38.7596 88.3773 38.9083 88.6553C39.0635 88.9268 39.2736 89.1369 39.5386 89.2855C39.8101 89.4342 40.1139 89.5086 40.4501 89.5086C40.741 89.5086 41.006 89.4472 41.2452 89.3243C41.4844 89.2015 41.6848 89.0173 41.8464 88.7716L42.5542 89.2177C42.3538 89.5732 42.0694 89.8479 41.7009 90.0419C41.3389 90.2293 40.9252 90.3231 40.4598 90.3231ZM47.5232 85.9403H45.6421V90.2649H44.7112V85.9403H42.8301V85.1258H47.5232V85.9403ZM53.0899 85.1258L50.5979 90.7788C50.3781 91.3024 50.1195 91.6709 49.8222 91.8842C49.5313 92.0975 49.179 92.2042 48.7653 92.2042C48.5131 92.2042 48.2675 92.1622 48.0283 92.0781C47.7956 92.0006 47.6017 91.8842 47.4465 91.7291L47.8441 91.0309C48.1091 91.283 48.4162 91.4091 48.7653 91.4091C48.9915 91.4091 49.179 91.3477 49.3276 91.2248C49.4828 91.1085 49.6218 90.9049 49.7446 90.614L49.9094 90.2552L47.6405 85.1258H48.6101L50.404 89.2371L52.1784 85.1258H53.0899ZM58.8039 85.1258V90.2649H57.8731V85.9403H54.9738V90.2649H54.0429V85.1258H58.8039ZM60.6051 85.1258H61.536V87.3075H64.4643V85.1258H65.3952V90.2649H64.4643V88.1123H61.536V90.2649H60.6051V85.1258ZM69.4063 90.3231C68.8956 90.3231 68.4366 90.2099 68.0294 89.9837C67.6221 89.7574 67.3021 89.4472 67.0694 89.0528C66.8432 88.652 66.73 88.1995 66.73 87.6953C66.73 87.1911 66.8432 86.7418 67.0694 86.3475C67.3021 85.9467 67.6221 85.6364 68.0294 85.4167C68.4366 85.1904 68.8956 85.0773 69.4063 85.0773C69.9169 85.0773 70.3727 85.1904 70.7735 85.4167C71.1807 85.6364 71.4975 85.9467 71.7237 86.3475C71.9564 86.7418 72.0728 87.1911 72.0728 87.6953C72.0728 88.1995 71.9564 88.652 71.7237 89.0528C71.4975 89.4472 71.1807 89.7574 70.7735 89.9837C70.3727 90.2099 69.9169 90.3231 69.4063 90.3231ZM69.4063 89.5086C69.7359 89.5086 70.0301 89.4342 70.2886 89.2855C70.5537 89.1304 70.7605 88.9171 70.9092 88.6456C71.0579 88.3676 71.1322 88.0509 71.1322 87.6953C71.1322 87.3398 71.0579 87.0263 70.9092 86.7548C70.7605 86.4768 70.5537 86.2635 70.2886 86.1148C70.0301 85.9661 69.7359 85.8918 69.4063 85.8918C69.0766 85.8918 68.7792 85.9661 68.5142 86.1148C68.2556 86.2635 68.0487 86.4768 67.8936 86.7548C67.7449 87.0263 67.6706 87.3398 67.6706 87.6953C67.6706 88.0509 67.7449 88.3676 67.8936 88.6456C68.0487 88.9171 68.2556 89.1304 68.5142 89.2855C68.7792 89.4342 69.0766 89.5086 69.4063 89.5086ZM73.6206 86.4057C73.4396 86.4057 73.2844 86.3443 73.1552 86.2215C73.0259 86.0922 72.9612 85.9306 72.9612 85.7366C72.9612 85.5492 73.0259 85.394 73.1552 85.2712C73.2844 85.1419 73.4396 85.0773 73.6206 85.0773C73.8016 85.0773 73.9535 85.1387 74.0763 85.2615C74.1991 85.3843 74.2606 85.5427 74.2606 85.7366C74.2606 85.9306 74.1959 86.0922 74.0666 86.2215C73.9438 86.3443 73.7951 86.4057 73.6206 86.4057ZM73.6206 90.3231C73.4396 90.3231 73.2844 90.2617 73.1552 90.1388C73.0259 90.0096 72.9612 89.8479 72.9612 89.654C72.9612 89.4665 73.0259 89.3114 73.1552 89.1886C73.2844 89.0593 73.4396 88.9947 73.6206 88.9947C73.8016 88.9947 73.9535 89.0561 74.0763 89.1789C74.1991 89.3017 74.2606 89.4601 74.2606 89.654C74.2606 89.8479 74.1959 90.0096 74.0666 90.1388C73.9438 90.2617 73.7951 90.3231 73.6206 90.3231Z" fill="white"/>
<path d="M32.1458 109.731V111.779H23.9387V110.15L28.1276 106.194C28.5724 105.77 28.8723 105.408 29.0274 105.108C29.1826 104.798 29.2602 104.493 29.2602 104.193C29.2602 103.758 29.1102 103.427 28.8102 103.2C28.5206 102.962 28.0914 102.843 27.5226 102.843C27.0468 102.843 26.6175 102.936 26.2349 103.122C25.8522 103.298 25.5315 103.567 25.273 103.929L23.4423 102.75C23.8663 102.119 24.4507 101.628 25.1954 101.276C25.9401 100.914 26.7934 100.733 27.7553 100.733C28.562 100.733 29.2653 100.867 29.8652 101.136C30.4755 101.395 30.9461 101.767 31.277 102.253C31.6183 102.729 31.789 103.293 31.789 103.944C31.789 104.534 31.6649 105.087 31.4167 105.604C31.1684 106.122 30.6875 106.711 29.9738 107.373L27.476 109.731H32.1458ZM42.9761 109.499H41.2074V111.779H38.7562V109.499H32.9073V107.807L38.027 100.919H40.6644L35.917 107.451H38.8337V105.418H41.2074V107.451H42.9761V109.499ZM48.3821 111.965C47.4823 111.965 46.6807 111.743 45.9774 111.298C45.2741 110.853 44.7207 110.212 44.3173 109.374C43.9243 108.526 43.7278 107.518 43.7278 106.349C43.7278 105.18 43.9243 104.177 44.3173 103.339C44.7207 102.491 45.2741 101.845 45.9774 101.4C46.6807 100.955 47.4823 100.733 48.3821 100.733C49.2819 100.733 50.0835 100.955 50.7868 101.4C51.4902 101.845 52.0383 102.491 52.4314 103.339C52.8347 104.177 53.0364 105.18 53.0364 106.349C53.0364 107.518 52.8347 108.526 52.4314 109.374C52.0383 110.212 51.4902 110.853 50.7868 111.298C50.0835 111.743 49.2819 111.965 48.3821 111.965ZM48.3821 109.84C49.0441 109.84 49.5612 109.555 49.9335 108.987C50.3162 108.418 50.5076 107.539 50.5076 106.349C50.5076 105.16 50.3162 104.281 49.9335 103.712C49.5612 103.143 49.0441 102.858 48.3821 102.858C47.7305 102.858 47.2134 103.143 46.8307 103.712C46.4583 104.281 46.2722 105.16 46.2722 106.349C46.2722 107.539 46.4583 108.418 46.8307 108.987C47.2134 109.555 47.7305 109.84 48.3821 109.84ZM55.5034 108.894C55.9378 108.894 56.2947 109.033 56.5739 109.312C56.8532 109.581 56.9928 109.938 56.9928 110.383C56.9928 110.59 56.967 110.797 56.9153 111.003C56.8635 111.21 56.7498 111.521 56.5739 111.934L55.6896 114.168H54.1537L54.8363 111.702C54.5778 111.598 54.3709 111.433 54.2158 111.205C54.071 110.967 53.9986 110.693 53.9986 110.383C53.9986 109.938 54.1382 109.581 54.4174 109.312C54.707 109.033 55.069 108.894 55.5034 108.894ZM63.1524 104.968C63.8454 104.968 64.4763 105.108 65.0451 105.387C65.614 105.667 66.0639 106.065 66.3949 106.582C66.7259 107.089 66.8914 107.678 66.8914 108.35C66.8914 109.075 66.7104 109.711 66.3484 110.259C65.9864 110.807 65.4899 111.231 64.859 111.531C64.2384 111.821 63.5454 111.965 62.7801 111.965C61.2596 111.965 60.0702 111.5 59.2117 110.569C58.3533 109.638 57.9241 108.309 57.9241 106.582C57.9241 105.351 58.1568 104.296 58.6222 103.417C59.0876 102.538 59.7341 101.871 60.5615 101.416C61.3993 100.96 62.3663 100.733 63.4627 100.733C64.0419 100.733 64.5952 100.8 65.1227 100.935C65.6606 101.059 66.1156 101.24 66.488 101.478L65.5571 103.324C65.0193 102.962 64.3418 102.781 63.5247 102.781C62.6042 102.781 61.875 103.05 61.3372 103.588C60.7994 104.125 60.5098 104.906 60.4684 105.93C61.1097 105.289 62.0043 104.968 63.1524 104.968ZM62.6404 110.088C63.1783 110.088 63.6127 109.943 63.9436 109.654C64.2849 109.364 64.4556 108.971 64.4556 108.475C64.4556 107.978 64.2849 107.585 63.9436 107.296C63.6127 106.996 63.1679 106.846 62.6094 106.846C62.0612 106.846 61.6113 107.001 61.2596 107.311C60.908 107.611 60.7322 107.999 60.7322 108.475C60.7322 108.95 60.9028 109.338 61.2441 109.638C61.5854 109.938 62.0509 110.088 62.6404 110.088ZM75.2337 106.07C75.7716 106.339 76.1801 106.69 76.4594 107.125C76.749 107.559 76.8938 108.061 76.8938 108.63C76.8938 109.302 76.7024 109.892 76.3197 110.398C75.937 110.895 75.3992 111.283 74.7062 111.562C74.0133 111.831 73.2117 111.965 72.3015 111.965C71.3913 111.965 70.5898 111.831 69.8968 111.562C69.2141 111.283 68.6815 110.895 68.2988 110.398C67.9265 109.892 67.7403 109.302 67.7403 108.63C67.7403 108.061 67.8799 107.559 68.1592 107.125C68.4488 106.69 68.8573 106.339 69.3848 106.07C68.9814 105.822 68.6711 105.511 68.4539 105.139C68.2367 104.756 68.1281 104.322 68.1281 103.836C68.1281 103.205 68.304 102.657 68.6556 102.191C69.0073 101.726 69.4986 101.369 70.1295 101.121C70.7604 100.862 71.4844 100.733 72.3015 100.733C73.1289 100.733 73.8581 100.862 74.489 101.121C75.1303 101.369 75.6268 101.726 75.9784 102.191C76.3301 102.657 76.5059 103.205 76.5059 103.836C76.5059 104.322 76.3973 104.756 76.1801 105.139C75.9629 105.511 75.6474 105.822 75.2337 106.07ZM72.3015 102.579C71.7947 102.579 71.3862 102.703 71.0759 102.951C70.7759 103.189 70.626 103.52 70.626 103.944C70.626 104.358 70.7759 104.684 71.0759 104.922C71.3758 105.16 71.7844 105.279 72.3015 105.279C72.8187 105.279 73.2324 105.16 73.5427 104.922C73.8529 104.684 74.0081 104.358 74.0081 103.944C74.0081 103.52 73.8529 103.189 73.5427 102.951C73.2324 102.703 72.8187 102.579 72.3015 102.579ZM72.3015 110.119C72.9324 110.119 73.4289 109.98 73.7909 109.7C74.1632 109.411 74.3494 109.028 74.3494 108.552C74.3494 108.076 74.1632 107.699 73.7909 107.42C73.4289 107.14 72.9324 107.001 72.3015 107.001C71.6809 107.001 71.1896 107.14 70.8276 107.42C70.4656 107.699 70.2846 108.076 70.2846 108.552C70.2846 109.038 70.4656 109.421 70.8276 109.7C71.1896 109.98 71.6809 110.119 72.3015 110.119ZM87.0768 107.513L85.6184 109.033V111.779H83.1206V100.919H85.6184V105.992L90.4279 100.919H93.2205L88.7213 105.76L93.4842 111.779H90.552L87.0768 107.513ZM101.549 106.178H103.845V110.585C103.256 111.029 102.573 111.371 101.797 111.609C101.022 111.846 100.241 111.965 99.4548 111.965C98.3274 111.965 97.3138 111.727 96.414 111.252C95.5142 110.766 94.8057 110.098 94.2885 109.25C93.7817 108.392 93.5283 107.425 93.5283 106.349C93.5283 105.273 93.7817 104.312 94.2885 103.463C94.8057 102.605 95.5193 101.938 96.4295 101.462C97.3397 100.976 98.3636 100.733 99.5013 100.733C100.453 100.733 101.317 100.893 102.092 101.214C102.868 101.535 103.52 102 104.047 102.61L102.434 104.1C101.658 103.282 100.722 102.874 99.6255 102.874C98.9325 102.874 98.3171 103.019 97.7793 103.308C97.2414 103.598 96.8225 104.006 96.5226 104.534C96.2226 105.061 96.0727 105.667 96.0727 106.349C96.0727 107.021 96.2226 107.621 96.5226 108.149C96.8225 108.676 97.2363 109.09 97.7637 109.39C98.3016 109.68 98.9118 109.824 99.5944 109.824C100.318 109.824 100.97 109.669 101.549 109.359V106.178ZM109.748 111.965C108.89 111.965 108.057 111.852 107.251 111.624C106.454 111.386 105.813 111.081 105.327 110.709L106.18 108.816C106.645 109.157 107.199 109.431 107.84 109.638C108.481 109.845 109.123 109.948 109.764 109.948C110.478 109.948 111.005 109.845 111.346 109.638C111.688 109.421 111.858 109.137 111.858 108.785C111.858 108.526 111.755 108.314 111.548 108.149C111.351 107.973 111.093 107.833 110.772 107.73C110.462 107.626 110.038 107.513 109.5 107.389C108.673 107.192 107.995 106.996 107.468 106.799C106.94 106.603 106.485 106.287 106.102 105.853C105.73 105.418 105.544 104.839 105.544 104.115C105.544 103.484 105.715 102.915 106.056 102.408C106.397 101.891 106.909 101.483 107.592 101.183C108.285 100.883 109.128 100.733 110.121 100.733C110.814 100.733 111.491 100.816 112.153 100.981C112.815 101.147 113.394 101.385 113.891 101.695L113.115 103.603C112.112 103.034 111.108 102.75 110.105 102.75C109.402 102.75 108.88 102.864 108.538 103.091C108.207 103.319 108.042 103.619 108.042 103.991C108.042 104.363 108.233 104.643 108.616 104.829C109.009 105.005 109.604 105.18 110.4 105.356C111.227 105.553 111.905 105.749 112.432 105.946C112.96 106.142 113.41 106.453 113.782 106.877C114.165 107.301 114.356 107.875 114.356 108.599C114.356 109.219 114.18 109.788 113.829 110.305C113.487 110.812 112.97 111.215 112.277 111.515C111.584 111.815 110.741 111.965 109.748 111.965Z" fill="white"/>
<g filter="url(#filter0_d)">
<path d="M23.2602 37.6307H34.0931C34.6286 37.6307 35.0627 38.0649 35.0627 38.6004C35.0627 39.1359 34.6286 39.57 34.0931 39.57H23.2602L27.7758 44.0857C28.1544 44.4643 28.1544 45.0782 27.7758 45.4568C27.3972 45.8354 26.7833 45.8354 26.4047 45.4568L20.234 39.286C19.8553 38.9074 19.8553 38.2934 20.234 37.9148L26.4047 31.744C26.7833 31.3654 27.3972 31.3654 27.7758 31.744C28.1544 32.1226 28.1544 32.7365 27.7758 33.1151L23.2602 37.6307Z" fill="white"/>
<path d="M67.736 39.3272H65.7191V43.9039H63.7333V33.0439H65.7191V37.5896H67.7981L70.9165 33.0439H73.0574L69.3495 38.3032L73.1971 43.9039H70.9165L67.736 39.3272ZM77.9353 44.0125C77.0975 44.0125 76.3424 43.8315 75.6702 43.4695C74.9979 43.1075 74.4704 42.6059 74.0877 41.9646C73.7153 41.313 73.5292 40.5787 73.5292 39.7616C73.5292 38.9445 73.7153 38.2153 74.0877 37.5741C74.4704 36.9328 74.9979 36.4312 75.6702 36.0692C76.3424 35.7072 77.0975 35.5262 77.9353 35.5262C78.7834 35.5262 79.5436 35.7072 80.2159 36.0692C80.8882 36.4312 81.4105 36.9328 81.7828 37.5741C82.1655 38.2153 82.3568 38.9445 82.3568 39.7616C82.3568 40.5787 82.1655 41.313 81.7828 41.9646C81.4105 42.6059 80.8882 43.1075 80.2159 43.4695C79.5436 43.8315 78.7834 44.0125 77.9353 44.0125ZM77.9353 42.3525C78.6489 42.3525 79.2385 42.1146 79.7039 41.6388C80.1693 41.1631 80.402 40.5373 80.402 39.7616C80.402 38.9859 80.1693 38.3601 79.7039 37.8844C79.2385 37.4086 78.6489 37.1707 77.9353 37.1707C77.2216 37.1707 76.632 37.4086 76.1666 37.8844C75.7115 38.3601 75.484 38.9859 75.484 39.7616C75.484 40.5373 75.7115 41.1631 76.1666 41.6388C76.632 42.1146 77.2216 42.3525 77.9353 42.3525ZM96.4824 35.6193V43.9039H84.2726V35.6193H86.2119V42.2594H89.4234V35.6193H91.3627V42.2594H94.5431V35.6193H96.4824ZM106.847 39.8081C106.847 39.9426 106.837 40.1339 106.816 40.3822H100.316C100.429 40.9924 100.724 41.4785 101.2 41.8405C101.686 42.1922 102.286 42.368 103 42.368C103.91 42.368 104.66 42.0681 105.249 41.4682L106.289 42.6628C105.916 43.1075 105.446 43.4437 104.877 43.6712C104.308 43.8988 103.667 44.0125 102.953 44.0125C102.043 44.0125 101.241 43.8315 100.548 43.4695C99.8554 43.1075 99.3176 42.6059 98.9349 41.9646C98.5626 41.313 98.3764 40.5787 98.3764 39.7616C98.3764 38.9548 98.5574 38.2308 98.9194 37.5896C99.2918 36.938 99.8037 36.4312 100.455 36.0692C101.107 35.7072 101.841 35.5262 102.658 35.5262C103.465 35.5262 104.184 35.7072 104.815 36.0692C105.456 36.4208 105.953 36.9225 106.304 37.5741C106.666 38.2153 106.847 38.96 106.847 39.8081ZM102.658 37.0776C102.038 37.0776 101.51 37.2638 101.076 37.6361C100.652 37.9981 100.393 38.4842 100.3 39.0945H105.001C104.918 38.4946 104.665 38.0085 104.241 37.6361C103.817 37.2638 103.289 37.0776 102.658 37.0776ZM116.371 35.6193V43.9039H114.432V37.2638H111.329L111.252 38.9083C111.2 40.0047 111.096 40.9252 110.941 41.6699C110.796 42.4042 110.543 42.9886 110.181 43.423C109.829 43.847 109.343 44.0591 108.723 44.0591C108.433 44.0591 108.076 44.0022 107.652 43.8884L107.745 42.2594C107.89 42.2904 108.014 42.306 108.118 42.306C108.511 42.306 108.805 42.1508 109.002 41.8405C109.198 41.5199 109.323 41.1424 109.374 40.708C109.436 40.2632 109.488 39.6323 109.529 38.8152L109.669 35.6193H116.371ZM126.74 39.8081C126.74 39.9426 126.73 40.1339 126.709 40.3822H120.209C120.322 40.9924 120.617 41.4785 121.093 41.8405C121.579 42.1922 122.179 42.368 122.893 42.368C123.803 42.368 124.553 42.0681 125.142 41.4682L126.182 42.6628C125.809 43.1075 125.339 43.4437 124.77 43.6712C124.201 43.8988 123.56 44.0125 122.846 44.0125C121.936 44.0125 121.134 43.8315 120.441 43.4695C119.748 43.1075 119.211 42.6059 118.828 41.9646C118.456 41.313 118.269 40.5787 118.269 39.7616C118.269 38.9548 118.45 38.2308 118.812 37.5896C119.185 36.938 119.697 36.4312 120.348 36.0692C121 35.7072 121.734 35.5262 122.551 35.5262C123.358 35.5262 124.077 35.7072 124.708 36.0692C125.349 36.4208 125.846 36.9225 126.197 37.5741C126.559 38.2153 126.74 38.96 126.74 39.8081ZM122.551 37.0776C121.931 37.0776 121.403 37.2638 120.969 37.6361C120.545 37.9981 120.286 38.4842 120.193 39.0945H124.894C124.811 38.4946 124.558 38.0085 124.134 37.6361C123.71 37.2638 123.182 37.0776 122.551 37.0776ZM121 34.316C120.731 34.316 120.509 34.2281 120.333 34.0523C120.157 33.8765 120.069 33.6541 120.069 33.3852C120.069 33.1059 120.157 32.8784 120.333 32.7026C120.509 32.5267 120.731 32.4388 121 32.4388C121.269 32.4388 121.491 32.5267 121.667 32.7026C121.843 32.8784 121.931 33.1059 121.931 33.3852C121.931 33.6541 121.843 33.8765 121.667 34.0523C121.491 34.2281 121.269 34.316 121 34.316ZM124.01 34.316C123.741 34.316 123.518 34.2281 123.343 34.0523C123.167 33.8765 123.079 33.6541 123.079 33.3852C123.079 33.1059 123.167 32.8784 123.343 32.7026C123.518 32.5267 123.741 32.4388 124.01 32.4388C124.279 32.4388 124.501 32.5267 124.677 32.7026C124.853 32.8784 124.941 33.1059 124.941 33.3852C124.941 33.6541 124.853 33.8765 124.677 34.0523C124.501 34.2281 124.279 34.316 124.01 34.316ZM132.305 40.5839H130.801V43.9039H128.861V35.6193H130.801V38.9704H132.352L134.803 35.6193H136.882L133.872 39.6065L137.084 43.9039H134.803L132.305 40.5839ZM148.743 39.5909C149.767 39.9012 150.279 40.5632 150.279 41.5768C150.279 42.3215 150 42.8955 149.442 43.2989C148.883 43.7022 148.056 43.9039 146.959 43.9039H142.739V35.6193H146.789C147.802 35.6193 148.593 35.8054 149.162 36.1778C149.731 36.5501 150.016 37.0776 150.016 37.7602C150.016 38.1843 149.902 38.5515 149.674 38.8618C149.457 39.172 149.147 39.4151 148.743 39.5909ZM144.586 39.079H146.618C147.621 39.079 148.123 38.7325 148.123 38.0395C148.123 37.3672 147.621 37.0311 146.618 37.0311H144.586V39.079ZM146.804 42.4921C147.869 42.4921 148.402 42.1456 148.402 41.4527C148.402 41.0907 148.278 40.8217 148.03 40.6459C147.782 40.4597 147.394 40.3667 146.866 40.3667H144.586V42.4921H146.804ZM156.937 35.5262C157.744 35.5262 158.463 35.702 159.094 36.0537C159.735 36.4053 160.237 36.9018 160.599 37.543C160.961 38.1843 161.142 38.9238 161.142 39.7616C161.142 40.5994 160.961 41.3441 160.599 41.9957C160.237 42.6369 159.735 43.1334 159.094 43.485C158.463 43.8367 157.744 44.0125 156.937 44.0125C155.82 44.0125 154.936 43.6402 154.284 42.8955V46.9137H152.345V35.6193H154.191V36.7053C154.512 36.3122 154.905 36.0175 155.37 35.8209C155.846 35.6244 156.368 35.5262 156.937 35.5262ZM156.72 42.3525C157.434 42.3525 158.018 42.1146 158.473 41.6388C158.939 41.1631 159.171 40.5373 159.171 39.7616C159.171 38.9859 158.939 38.3601 158.473 37.8844C158.018 37.4086 157.434 37.1707 156.72 37.1707C156.255 37.1707 155.836 37.2793 155.463 37.4965C155.091 37.7034 154.796 38.0033 154.579 38.3963C154.362 38.7894 154.253 39.2444 154.253 39.7616C154.253 40.2787 154.362 40.7338 154.579 41.1269C154.796 41.5199 155.091 41.825 155.463 42.0422C155.836 42.2491 156.255 42.3525 156.72 42.3525ZM170.829 39.8081C170.829 39.9426 170.819 40.1339 170.798 40.3822H164.297C164.411 40.9924 164.706 41.4785 165.182 41.8405C165.668 42.1922 166.268 42.368 166.981 42.368C167.891 42.368 168.641 42.0681 169.231 41.4682L170.27 42.6628C169.898 43.1075 169.427 43.4437 168.859 43.6712C168.29 43.8988 167.648 44.0125 166.935 44.0125C166.025 44.0125 165.223 43.8315 164.53 43.4695C163.837 43.1075 163.299 42.6059 162.917 41.9646C162.544 41.313 162.358 40.5787 162.358 39.7616C162.358 38.9548 162.539 38.2308 162.901 37.5896C163.273 36.938 163.785 36.4312 164.437 36.0692C165.089 35.7072 165.823 35.5262 166.64 35.5262C167.447 35.5262 168.166 35.7072 168.796 36.0692C169.438 36.4208 169.934 36.9225 170.286 37.5741C170.648 38.2153 170.829 38.96 170.829 39.8081ZM166.64 37.0776C166.019 37.0776 165.492 37.2638 165.058 37.6361C164.633 37.9981 164.375 38.4842 164.282 39.0945H168.983C168.9 38.4946 168.647 38.0085 168.222 37.6361C167.798 37.2638 167.271 37.0776 166.64 37.0776ZM181.095 43.9039V38.4118L178.302 43.0351H177.465L174.719 38.3963V43.9039H172.95V35.6193H174.982L177.93 40.8011L181.017 35.6193H182.833L182.848 43.9039H181.095ZM193.207 39.8081C193.207 39.9426 193.196 40.1339 193.176 40.3822H186.675C186.789 40.9924 187.084 41.4785 187.559 41.8405C188.045 42.1922 188.645 42.368 189.359 42.368C190.269 42.368 191.019 42.0681 191.609 41.4682L192.648 42.6628C192.276 43.1075 191.805 43.4437 191.236 43.6712C190.667 43.8988 190.026 44.0125 189.312 44.0125C188.402 44.0125 187.601 43.8315 186.908 43.4695C186.215 43.1075 185.677 42.6059 185.294 41.9646C184.922 41.313 184.736 40.5787 184.736 39.7616C184.736 38.9548 184.917 38.2308 185.279 37.5896C185.651 36.938 186.163 36.4312 186.815 36.0692C187.466 35.7072 188.201 35.5262 189.018 35.5262C189.824 35.5262 190.543 35.7072 191.174 36.0692C191.815 36.4208 192.312 36.9225 192.664 37.5741C193.026 38.2153 193.207 38.96 193.207 39.8081ZM189.018 37.0776C188.397 37.0776 187.87 37.2638 187.435 37.6361C187.011 37.9981 186.753 38.4842 186.659 39.0945H191.36C191.278 38.4946 191.024 38.0085 190.6 37.6361C190.176 37.2638 189.649 37.0776 189.018 37.0776ZM195.328 35.6193H197.267V38.9859H201.44V35.6193H203.38V43.9039H201.44V40.6304H197.267V43.9039H195.328V35.6193ZM205.979 35.6193H207.918V41.0803L212.495 35.6193H214.263V43.9039H212.324V38.4429L207.763 43.9039H205.979V35.6193Z" fill="white"/>
</g>
</g>
<defs>
<filter id="filter0_d" x="-7.60191" y="5.63218" width="364.588" height="69.8147" filterUnits="userSpaceOnUse" color-interpolation-filters="sRGB">
<feFlood flood-opacity="0" result="BackgroundImageFix"/>
<feColorMatrix in="SourceAlpha" type="matrix" values="0 0 0 0 0 0 0 0 0 0 0 0 0 0 0 0 0 0 127 0" result="hardAlpha"/>
<feOffset dy="1.9393"/>
<feGaussianBlur stdDeviation="3.87859"/>
<feColorMatrix type="matrix" values="0 0 0 0 0.0117647 0 0 0 0 0.0823529 0 0 0 0 0.239216 0 0 0 0.1 0"/>
<feBlend mode="normal" in2="BackgroundImageFix" result="effect1_dropShadow"/>
<feBlend mode="normal" in="SourceGraphic" in2="effect1_dropShadow" result="shape"/>
</filter>
<linearGradient id="paint0_linear" x1="174.584" y1="-11.8214" x2="174.584" y2="183.821" gradientUnits="userSpaceOnUse">
<stop stop-color="#0029D3"/>
<stop offset="1" stop-color="#0068FF"/>
</linearGradient>
<clipPath id="clip0">
<rect width="324" height="146" rx="14" fill="white"/>
</clipPath>
</defs>
</svg>
