<svg width="376" height="781" viewBox="0 0 376 781" fill="none" xmlns="http://www.w3.org/2000/svg">
<g filter="url(#filter0_ii)">
<rect x="0.155273" width="375.659" height="781" rx="46.3777" fill="#F3F5F7"/>
</g>
<mask id="mask0" mask-type="alpha" maskUnits="userSpaceOnUse" x="14" y="13" width="348" height="755">
<rect x="14.1553" y="13.9135" width="347.833" height="753.173" rx="37.1021" fill="#0000FF"/>
</mask>
<g mask="url(#mask0)">
<rect width="348" height="753" transform="translate(14.1553 14)" fill="white"/>
<path d="M45.0889 121.533L60.5555 137V106.067L45.0889 121.533Z" fill="#FFC200"/>
<path d="M29.6221 106.067V137L60.5554 106.067H29.6221Z" fill="#0068FF"/>
<path d="M60.5554 137H29.6221L45.0887 121.533L60.5554 137Z" fill="#0029D3"/>
<path d="M101.63 106.067H93.2565L82.9335 118.838V106.067H76.022V137H82.9335V123.787L94.4084 137H102.738V136.602L89.0475 121.091L101.63 106.243V106.067Z" fill="black"/>
<path d="M131.441 106.067H123.067L112.744 118.838V106.067H105.832V137H112.744V123.787L124.219 137H132.548V136.602L118.858 121.091L131.441 106.243V106.067Z" fill="black"/>
<path d="M142.422 123.831C145.168 123.831 148.093 123.831 150.839 123.831C153.896 123.831 155.491 125.29 155.491 127.455C155.491 129.62 154.029 130.99 150.928 130.99H142.422V123.831ZM142.422 112.032H150.928C153.542 112.032 154.871 113.358 154.871 115.17C154.871 116.982 153.542 118.086 150.839 118.086H142.422V112.032ZM135.643 106.067V137C140.694 137 146.187 137 151.194 137C157.396 137 161.561 134.746 162.492 129.753C163.156 126.173 161.517 122.196 157.574 120.782C160.542 119.412 161.694 117.026 161.694 114.463C161.694 108.718 156.821 106.067 150.928 106.067H135.643Z" fill="black"/>
<rect x="29.6221" y="701" width="317.067" height="38.6667" rx="3.86667" fill="#0068FF"/>
<path d="M173.407 720.204C174.048 720.357 174.53 720.632 174.855 721.029C175.189 721.417 175.356 721.918 175.356 722.532C175.356 723.353 175.054 723.989 174.449 724.44C173.854 724.891 172.983 725.116 171.837 725.116H167.507V715.643H171.58C172.618 715.643 173.425 715.855 174.003 716.279C174.589 716.694 174.882 717.294 174.882 718.079C174.882 718.593 174.751 719.031 174.49 719.392C174.237 719.753 173.876 720.023 173.407 720.204ZM168.846 719.811H171.485C172.144 719.811 172.645 719.681 172.988 719.419C173.339 719.157 173.515 718.774 173.515 718.269C173.515 717.763 173.339 717.38 172.988 717.118C172.636 716.848 172.135 716.712 171.485 716.712H168.846V719.811ZM171.81 724.047C173.263 724.047 173.989 723.506 173.989 722.423C173.989 721.882 173.804 721.485 173.434 721.232C173.073 720.971 172.532 720.84 171.81 720.84H168.846V724.047H171.81ZM180.472 725.198C179.76 725.198 179.119 725.04 178.551 724.724C177.982 724.408 177.536 723.975 177.211 723.425C176.895 722.865 176.737 722.234 176.737 721.53C176.737 720.826 176.895 720.199 177.211 719.649C177.536 719.09 177.982 718.657 178.551 718.35C179.119 718.034 179.76 717.876 180.472 717.876C181.185 717.876 181.821 718.034 182.381 718.35C182.949 718.657 183.391 719.09 183.707 719.649C184.032 720.199 184.194 720.826 184.194 721.53C184.194 722.234 184.032 722.865 183.707 723.425C183.391 723.975 182.949 724.408 182.381 724.724C181.821 725.04 181.185 725.198 180.472 725.198ZM180.472 724.061C180.933 724.061 181.343 723.957 181.704 723.75C182.074 723.533 182.363 723.235 182.57 722.856C182.778 722.468 182.881 722.026 182.881 721.53C182.881 721.034 182.778 720.596 182.57 720.217C182.363 719.829 182.074 719.532 181.704 719.324C181.343 719.117 180.933 719.013 180.472 719.013C180.012 719.013 179.597 719.117 179.227 719.324C178.866 719.532 178.578 719.829 178.361 720.217C178.154 720.596 178.05 721.034 178.05 721.53C178.05 722.026 178.154 722.468 178.361 722.856C178.578 723.235 178.866 723.533 179.227 723.75C179.597 723.957 180.012 724.061 180.472 724.061ZM186.07 717.944H187.369V723.168L191.768 717.944H192.945V725.116H191.646V719.893L187.261 725.116H186.07V717.944ZM189.426 717.01C188.759 717.01 188.24 716.852 187.87 716.536C187.5 716.212 187.311 715.747 187.302 715.142H188.181C188.19 715.476 188.303 715.747 188.52 715.954C188.745 716.153 189.043 716.252 189.413 716.252C189.783 716.252 190.081 716.153 190.306 715.954C190.532 715.747 190.649 715.476 190.658 715.142H191.565C191.556 715.747 191.362 716.212 190.983 716.536C190.604 716.852 190.085 717.01 189.426 717.01ZM200.812 719.081H198.187V725.116H196.888V719.081H194.262V717.944H200.812V719.081ZM202.141 717.944H203.44V723.168L207.838 717.944H209.016V725.116H207.717V719.893L203.332 725.116H202.141V717.944Z" fill="white"/>
<rect x="134.989" y="278.133" width="211.7" height="46.4" rx="3.86667" fill="#F1F2F8"/>
<path opacity="0.5" d="M153.352 309.225C152.837 308.395 152.44 307.443 152.161 306.37C151.881 305.287 151.741 304.128 151.741 302.892C151.741 301.656 151.881 300.496 152.161 299.414C152.44 298.322 152.837 297.37 153.352 296.558H154.583C154.042 297.505 153.645 298.498 153.392 299.535C153.14 300.573 153.013 301.692 153.013 302.892C153.013 304.092 153.14 305.21 153.392 306.248C153.645 307.286 154.042 308.278 154.583 309.225H153.352ZM159.535 306.708C158.786 306.708 158.119 306.519 157.532 306.14C156.955 305.752 156.499 305.192 156.165 304.462C155.832 303.731 155.665 302.865 155.665 301.863C155.665 300.862 155.832 299.996 156.165 299.265C156.499 298.534 156.955 297.979 157.532 297.6C158.119 297.212 158.786 297.018 159.535 297.018C160.275 297.018 160.934 297.212 161.511 297.6C162.098 297.979 162.558 298.534 162.892 299.265C163.225 299.996 163.392 300.862 163.392 301.863C163.392 302.865 163.225 303.731 162.892 304.462C162.558 305.192 162.098 305.752 161.511 306.14C160.934 306.519 160.275 306.708 159.535 306.708ZM159.535 305.504C160.293 305.504 160.898 305.192 161.349 304.57C161.809 303.947 162.039 303.045 162.039 301.863C162.039 300.681 161.809 299.779 161.349 299.157C160.898 298.534 160.293 298.223 159.535 298.223C158.768 298.223 158.155 298.534 157.695 299.157C157.244 299.779 157.018 300.681 157.018 301.863C157.018 303.045 157.244 303.947 157.695 304.57C158.155 305.192 158.768 305.504 159.535 305.504ZM168.562 306.708C167.813 306.708 167.145 306.519 166.559 306.14C165.982 305.752 165.526 305.192 165.192 304.462C164.858 303.731 164.691 302.865 164.691 301.863C164.691 300.862 164.858 299.996 165.192 299.265C165.526 298.534 165.982 297.979 166.559 297.6C167.145 297.212 167.813 297.018 168.562 297.018C169.302 297.018 169.96 297.212 170.538 297.6C171.124 297.979 171.584 298.534 171.918 299.265C172.252 299.996 172.419 300.862 172.419 301.863C172.419 302.865 172.252 303.731 171.918 304.462C171.584 305.192 171.124 305.752 170.538 306.14C169.96 306.519 169.302 306.708 168.562 306.708ZM168.562 305.504C169.32 305.504 169.924 305.192 170.375 304.57C170.835 303.947 171.066 303.045 171.066 301.863C171.066 300.681 170.835 299.779 170.375 299.157C169.924 298.534 169.32 298.223 168.562 298.223C167.795 298.223 167.181 298.534 166.721 299.157C166.27 299.779 166.045 300.681 166.045 301.863C166.045 303.045 166.27 303.947 166.721 304.57C167.181 305.192 167.795 305.504 168.562 305.504ZM177.589 306.708C176.84 306.708 176.172 306.519 175.586 306.14C175.008 305.752 174.553 305.192 174.219 304.462C173.885 303.731 173.718 302.865 173.718 301.863C173.718 300.862 173.885 299.996 174.219 299.265C174.553 298.534 175.008 297.979 175.586 297.6C176.172 297.212 176.84 297.018 177.589 297.018C178.328 297.018 178.987 297.212 179.564 297.6C180.151 297.979 180.611 298.534 180.945 299.265C181.279 299.996 181.446 300.862 181.446 301.863C181.446 302.865 181.279 303.731 180.945 304.462C180.611 305.192 180.151 305.752 179.564 306.14C178.987 306.519 178.328 306.708 177.589 306.708ZM177.589 305.504C178.346 305.504 178.951 305.192 179.402 304.57C179.862 303.947 180.092 303.045 180.092 301.863C180.092 300.681 179.862 299.779 179.402 299.157C178.951 298.534 178.346 298.223 177.589 298.223C176.822 298.223 176.208 298.534 175.748 299.157C175.297 299.779 175.071 300.681 175.071 301.863C175.071 303.045 175.297 303.947 175.748 304.57C176.208 305.192 176.822 305.504 177.589 305.504ZM182.528 309.225C183.069 308.278 183.466 307.286 183.719 306.248C183.981 305.21 184.111 304.092 184.111 302.892C184.111 301.692 183.981 300.573 183.719 299.535C183.466 298.498 183.069 297.505 182.528 296.558H183.76C184.283 297.37 184.684 298.317 184.964 299.4C185.244 300.483 185.384 301.647 185.384 302.892C185.384 304.128 185.244 305.287 184.964 306.37C184.684 307.452 184.283 308.404 183.76 309.225H182.528ZM194.822 306.708C194.074 306.708 193.406 306.519 192.819 306.14C192.242 305.752 191.786 305.192 191.453 304.462C191.119 303.731 190.952 302.865 190.952 301.863C190.952 300.862 191.119 299.996 191.453 299.265C191.786 298.534 192.242 297.979 192.819 297.6C193.406 297.212 194.074 297.018 194.822 297.018C195.562 297.018 196.221 297.212 196.798 297.6C197.385 297.979 197.845 298.534 198.179 299.265C198.512 299.996 198.679 300.862 198.679 301.863C198.679 302.865 198.512 303.731 198.179 304.462C197.845 305.192 197.385 305.752 196.798 306.14C196.221 306.519 195.562 306.708 194.822 306.708ZM194.822 305.504C195.58 305.504 196.185 305.192 196.636 304.57C197.096 303.947 197.326 303.045 197.326 301.863C197.326 300.681 197.096 299.779 196.636 299.157C196.185 298.534 195.58 298.223 194.822 298.223C194.055 298.223 193.442 298.534 192.982 299.157C192.531 299.779 192.305 300.681 192.305 301.863C192.305 303.045 192.531 303.947 192.982 304.57C193.442 305.192 194.055 305.504 194.822 305.504ZM203.849 306.708C203.1 306.708 202.433 306.519 201.846 306.14C201.269 305.752 200.813 305.192 200.479 304.462C200.145 303.731 199.978 302.865 199.978 301.863C199.978 300.862 200.145 299.996 200.479 299.265C200.813 298.534 201.269 297.979 201.846 297.6C202.433 297.212 203.1 297.018 203.849 297.018C204.589 297.018 205.247 297.212 205.825 297.6C206.411 297.979 206.871 298.534 207.205 299.265C207.539 299.996 207.706 300.862 207.706 301.863C207.706 302.865 207.539 303.731 207.205 304.462C206.871 305.192 206.411 305.752 205.825 306.14C205.247 306.519 204.589 306.708 203.849 306.708ZM203.849 305.504C204.607 305.504 205.211 305.192 205.662 304.57C206.123 303.947 206.353 303.045 206.353 301.863C206.353 300.681 206.123 299.779 205.662 299.157C205.211 298.534 204.607 298.223 203.849 298.223C203.082 298.223 202.469 298.534 202.008 299.157C201.557 299.779 201.332 300.681 201.332 301.863C201.332 303.045 201.557 303.947 202.008 304.57C202.469 305.192 203.082 305.504 203.849 305.504ZM212.876 306.708C212.127 306.708 211.459 306.519 210.873 306.14C210.295 305.752 209.84 305.192 209.506 304.462C209.172 303.731 209.005 302.865 209.005 301.863C209.005 300.862 209.172 299.996 209.506 299.265C209.84 298.534 210.295 297.979 210.873 297.6C211.459 297.212 212.127 297.018 212.876 297.018C213.615 297.018 214.274 297.212 214.851 297.6C215.438 297.979 215.898 298.534 216.232 299.265C216.566 299.996 216.733 300.862 216.733 301.863C216.733 302.865 216.566 303.731 216.232 304.462C215.898 305.192 215.438 305.752 214.851 306.14C214.274 306.519 213.615 306.708 212.876 306.708ZM212.876 305.504C213.633 305.504 214.238 305.192 214.689 304.57C215.149 303.947 215.379 303.045 215.379 301.863C215.379 300.681 215.149 299.779 214.689 299.157C214.238 298.534 213.633 298.223 212.876 298.223C212.109 298.223 211.495 298.534 211.035 299.157C210.584 299.779 210.358 300.681 210.358 301.863C210.358 303.045 210.584 303.947 211.035 304.57C211.495 305.192 212.109 305.504 212.876 305.504ZM218.246 302.323H221.887V303.447H218.246V302.323ZM227.268 306.708C226.519 306.708 225.852 306.519 225.265 306.14C224.688 305.752 224.232 305.192 223.898 304.462C223.564 303.731 223.397 302.865 223.397 301.863C223.397 300.862 223.564 299.996 223.898 299.265C224.232 298.534 224.688 297.979 225.265 297.6C225.852 297.212 226.519 297.018 227.268 297.018C228.008 297.018 228.666 297.212 229.244 297.6C229.83 297.979 230.29 298.534 230.624 299.265C230.958 299.996 231.125 300.862 231.125 301.863C231.125 302.865 230.958 303.731 230.624 304.462C230.29 305.192 229.83 305.752 229.244 306.14C228.666 306.519 228.008 306.708 227.268 306.708ZM227.268 305.504C228.026 305.504 228.63 305.192 229.081 304.57C229.542 303.947 229.772 303.045 229.772 301.863C229.772 300.681 229.542 299.779 229.081 299.157C228.63 298.534 228.026 298.223 227.268 298.223C226.501 298.223 225.888 298.534 225.427 299.157C224.976 299.779 224.751 300.681 224.751 301.863C224.751 303.045 224.976 303.947 225.427 304.57C225.888 305.192 226.501 305.504 227.268 305.504ZM236.295 306.708C235.546 306.708 234.878 306.519 234.292 306.14C233.714 305.752 233.259 305.192 232.925 304.462C232.591 303.731 232.424 302.865 232.424 301.863C232.424 300.862 232.591 299.996 232.925 299.265C233.259 298.534 233.714 297.979 234.292 297.6C234.878 297.212 235.546 297.018 236.295 297.018C237.034 297.018 237.693 297.212 238.271 297.6C238.857 297.979 239.317 298.534 239.651 299.265C239.985 299.996 240.152 300.862 240.152 301.863C240.152 302.865 239.985 303.731 239.651 304.462C239.317 305.192 238.857 305.752 238.271 306.14C237.693 306.519 237.034 306.708 236.295 306.708ZM236.295 305.504C237.053 305.504 237.657 305.192 238.108 304.57C238.568 303.947 238.798 303.045 238.798 301.863C238.798 300.681 238.568 299.779 238.108 299.157C237.657 298.534 237.053 298.223 236.295 298.223C235.528 298.223 234.914 298.534 234.454 299.157C234.003 299.779 233.777 300.681 233.777 301.863C233.777 303.045 234.003 303.947 234.454 304.57C234.914 305.192 235.528 305.504 236.295 305.504ZM241.665 302.323H245.306V303.447H241.665V302.323ZM250.687 306.708C249.938 306.708 249.271 306.519 248.684 306.14C248.107 305.752 247.651 305.192 247.317 304.462C246.983 303.731 246.816 302.865 246.816 301.863C246.816 300.862 246.983 299.996 247.317 299.265C247.651 298.534 248.107 297.979 248.684 297.6C249.271 297.212 249.938 297.018 250.687 297.018C251.427 297.018 252.085 297.212 252.663 297.6C253.249 297.979 253.709 298.534 254.043 299.265C254.377 299.996 254.544 300.862 254.544 301.863C254.544 302.865 254.377 303.731 254.043 304.462C253.709 305.192 253.249 305.752 252.663 306.14C252.085 306.519 251.427 306.708 250.687 306.708ZM250.687 305.504C251.445 305.504 252.049 305.192 252.5 304.57C252.961 303.947 253.191 303.045 253.191 301.863C253.191 300.681 252.961 299.779 252.5 299.157C252.049 298.534 251.445 298.223 250.687 298.223C249.92 298.223 249.307 298.534 248.846 299.157C248.395 299.779 248.17 300.681 248.17 301.863C248.17 303.045 248.395 303.947 248.846 304.57C249.307 305.192 249.92 305.504 250.687 305.504ZM259.714 306.708C258.965 306.708 258.297 306.519 257.711 306.14C257.133 305.752 256.678 305.192 256.344 304.462C256.01 303.731 255.843 302.865 255.843 301.863C255.843 300.862 256.01 299.996 256.344 299.265C256.678 298.534 257.133 297.979 257.711 297.6C258.297 297.212 258.965 297.018 259.714 297.018C260.453 297.018 261.112 297.212 261.69 297.6C262.276 297.979 262.736 298.534 263.07 299.265C263.404 299.996 263.571 300.862 263.571 301.863C263.571 302.865 263.404 303.731 263.07 304.462C262.736 305.192 262.276 305.752 261.69 306.14C261.112 306.519 260.453 306.708 259.714 306.708ZM259.714 305.504C260.472 305.504 261.076 305.192 261.527 304.57C261.987 303.947 262.217 303.045 262.217 301.863C262.217 300.681 261.987 299.779 261.527 299.157C261.076 298.534 260.472 298.223 259.714 298.223C258.947 298.223 258.333 298.534 257.873 299.157C257.422 299.779 257.196 300.681 257.196 301.863C257.196 303.045 257.422 303.947 257.873 304.57C258.333 305.192 258.947 305.504 259.714 305.504Z" fill="#03153D"/>
<rect x="29.6221" y="340" width="317.067" height="46.4" rx="3.86667" fill="#F1F2F8"/>
<path opacity="0.5" d="M54.7246 358.993V368.467H53.3983V360.171H47.9038V368.467H46.564V358.993H54.7246ZM60.02 361.226C61.0125 361.226 61.7704 361.47 62.2936 361.957C62.826 362.444 63.0921 363.171 63.0921 364.136V368.467H61.8606V367.519C61.644 367.853 61.3328 368.11 60.9268 368.291C60.5298 368.462 60.0561 368.548 59.5058 368.548C58.7028 368.548 58.0577 368.354 57.5705 367.966C57.0923 367.578 56.8532 367.068 56.8532 366.437C56.8532 365.805 57.0833 365.3 57.5434 364.921C58.0036 364.533 58.7344 364.339 59.7358 364.339H61.7929V364.082C61.7929 363.522 61.6305 363.094 61.3057 362.796C60.9809 362.498 60.5027 362.349 59.8712 362.349C59.4471 362.349 59.0321 362.422 58.6261 362.566C58.2201 362.701 57.8773 362.886 57.5976 363.121L57.0562 362.146C57.4262 361.849 57.8682 361.623 58.3825 361.47C58.8968 361.307 59.4426 361.226 60.02 361.226ZM59.7223 367.546C60.2185 367.546 60.6471 367.438 61.008 367.221C61.3689 366.996 61.6305 366.68 61.7929 366.274V365.273H59.79C58.6893 365.273 58.1389 365.643 58.1389 366.382C58.1389 366.743 58.2788 367.028 58.5584 367.235C58.8381 367.443 59.2261 367.546 59.7223 367.546ZM69.2344 361.226C69.9292 361.226 70.5517 361.38 71.102 361.686C71.6524 361.993 72.081 362.422 72.3877 362.972C72.7035 363.522 72.8614 364.158 72.8614 364.88C72.8614 365.602 72.7035 366.243 72.3877 366.802C72.081 367.352 71.6524 367.781 71.102 368.088C70.5517 368.394 69.9292 368.548 69.2344 368.548C68.7202 368.548 68.2465 368.449 67.8134 368.25C67.3894 368.052 67.0285 367.763 66.7308 367.384V371.092H65.4316V361.294H66.6766V362.431C66.9654 362.034 67.3308 361.736 67.7728 361.537C68.2149 361.33 68.7021 361.226 69.2344 361.226ZM69.1262 367.411C69.5863 367.411 69.9968 367.307 70.3577 367.1C70.7276 366.883 71.0163 366.585 71.2238 366.206C71.4404 365.819 71.5486 365.376 71.5486 364.88C71.5486 364.384 71.4404 363.946 71.2238 363.567C71.0163 363.18 70.7276 362.882 70.3577 362.674C69.9968 362.467 69.5863 362.363 69.1262 362.363C68.6751 362.363 68.2646 362.471 67.8946 362.688C67.5338 362.895 67.245 363.189 67.0285 363.567C66.821 363.946 66.7172 364.384 66.7172 364.88C66.7172 365.376 66.821 365.819 67.0285 366.206C67.236 366.585 67.5247 366.883 67.8946 367.1C68.2646 367.307 68.6751 367.411 69.1262 367.411ZM77.821 368.548C77.1083 368.548 76.4677 368.39 75.8993 368.074C75.3309 367.758 74.8843 367.325 74.5595 366.775C74.2437 366.216 74.0858 365.584 74.0858 364.88C74.0858 364.176 74.2437 363.549 74.5595 362.999C74.8843 362.44 75.3309 362.007 75.8993 361.7C76.4677 361.384 77.1083 361.226 77.821 361.226C78.5338 361.226 79.1699 361.384 79.7292 361.7C80.2976 362.007 80.7397 362.44 81.0555 362.999C81.3803 363.549 81.5427 364.176 81.5427 364.88C81.5427 365.584 81.3803 366.216 81.0555 366.775C80.7397 367.325 80.2976 367.758 79.7292 368.074C79.1699 368.39 78.5338 368.548 77.821 368.548ZM77.821 367.411C78.2812 367.411 78.6917 367.307 79.0526 367.1C79.4225 366.883 79.7112 366.585 79.9187 366.206C80.1262 365.819 80.23 365.376 80.23 364.88C80.23 364.384 80.1262 363.946 79.9187 363.567C79.7112 363.18 79.4225 362.882 79.0526 362.674C78.6917 362.467 78.2812 362.363 77.821 362.363C77.3609 362.363 76.9459 362.467 76.576 362.674C76.2151 362.882 75.9264 363.18 75.7098 363.567C75.5023 363.946 75.3986 364.384 75.3986 364.88C75.3986 365.376 75.5023 365.819 75.7098 366.206C75.9264 366.585 76.2151 366.883 76.576 367.1C76.9459 367.307 77.3609 367.411 77.821 367.411ZM89.5236 361.294V368.467H88.2244V362.431H85.1388L85.0576 364.028C85.0124 364.993 84.9267 365.8 84.8004 366.45C84.6741 367.091 84.4666 367.605 84.1779 367.993C83.8892 368.381 83.4877 368.575 82.9734 368.575C82.7388 368.575 82.4727 368.534 82.175 368.453L82.2562 367.357C82.3734 367.384 82.4817 367.397 82.581 367.397C82.9418 367.397 83.2125 367.24 83.393 366.924C83.5734 366.608 83.6907 366.234 83.7448 365.8C83.799 365.367 83.8486 364.749 83.8937 363.946L84.0155 361.294H89.5236ZM95.3514 363.73C96.2626 363.739 96.9573 363.946 97.4355 364.352C97.9137 364.758 98.1528 365.331 98.1528 366.071C98.1528 366.847 97.8911 367.447 97.3678 367.871C96.8536 368.286 96.1137 368.489 95.1484 368.48L92.0357 368.467V361.294H93.3349V363.716L95.3514 363.73ZM95.0401 367.492C95.6265 367.501 96.0686 367.384 96.3664 367.14C96.6731 366.897 96.8265 366.536 96.8265 366.058C96.8265 365.588 96.6776 365.246 96.3799 365.029C96.0912 364.813 95.6446 364.7 95.0401 364.691L93.3349 364.664V367.479L95.0401 367.492Z" fill="#03153D"/>
<rect x="29.6221" y="278.133" width="97.6333" height="46.4" rx="3.86667" fill="#F1F2F8"/>
<g clip-path="url(#clip0)">
<path d="M66.5514 308.933H46.8264C45.8667 308.933 45.0889 308.155 45.0889 307.196V295.471C45.0889 294.511 45.8667 293.733 46.8264 293.733H66.5514C67.5109 293.733 68.2889 294.511 68.2889 295.471V307.196C68.2889 308.155 67.511 308.933 66.5514 308.933Z" fill="#FF4B55"/>
<path d="M60.92 302.526C60.92 302.526 60.1231 302.393 59.5328 301.904C59.3587 301.759 59.106 301.649 58.8598 301.567C59.0577 301.559 59.2676 301.564 59.4659 301.604C60.2876 301.77 61.0842 301.371 61.0842 301.371C61.0842 301.371 60.2804 301.453 59.5823 301.135C59.3935 301.049 59.1486 301.009 58.9096 300.992C59.0815 300.943 59.2639 300.904 59.4441 300.894C60.281 300.847 60.9514 300.261 60.9514 300.261C60.9514 300.261 60.194 300.542 59.4385 300.411C59.2184 300.373 58.9483 300.401 58.697 300.452C58.8623 300.348 59.0444 300.251 59.2333 300.188C60.0291 299.925 60.523 299.184 60.523 299.184C60.523 299.184 59.8653 299.653 59.1017 299.723C58.875 299.744 58.6167 299.846 58.3837 299.963C58.5181 299.816 58.6716 299.67 58.8415 299.557C59.5399 299.094 59.8213 298.249 59.8213 298.249C59.8213 298.249 59.3103 298.874 58.5922 299.144C58.3965 299.217 58.1936 299.364 58.0114 299.522C58.0985 299.364 58.2009 299.206 58.3225 299.07C58.8811 298.445 58.9397 297.556 58.9397 297.556C58.9397 297.556 58.6034 298.29 57.9767 298.732C57.794 298.861 57.6233 299.073 57.4813 299.286C57.5247 299.096 57.5846 298.898 57.674 298.72C58.0501 297.971 57.8745 297.097 57.8745 297.097C57.8745 297.097 57.7416 297.894 57.2521 298.485C57.1077 298.659 56.9974 298.911 56.9158 299.158C56.907 298.96 56.9125 298.75 56.9526 298.552C57.1188 297.73 56.72 296.933 56.72 296.933C56.72 296.933 56.8011 297.737 56.4837 298.435C56.3979 298.624 56.3575 298.869 56.3404 299.108C56.291 298.936 56.2523 298.754 56.2423 298.573C56.1959 297.737 55.6092 297.066 55.6092 297.066C55.6092 297.066 55.8903 297.824 55.7592 298.579C55.721 298.799 55.7496 299.069 55.8001 299.321C55.6963 299.155 55.5992 298.973 55.5367 298.784C55.2734 297.988 54.532 297.495 54.532 297.495C54.532 297.495 55.0011 298.152 55.0718 298.916C55.0928 299.143 55.1946 299.401 55.3119 299.634C55.1645 299.499 55.0186 299.346 54.9058 299.176C54.4423 298.478 53.597 298.196 53.597 298.196C53.597 298.196 54.2227 298.707 54.4919 299.425C54.5654 299.621 54.7123 299.824 54.8708 300.006C54.7124 299.919 54.5541 299.817 54.418 299.695C53.7931 299.136 52.9042 299.078 52.9042 299.078C52.9042 299.078 53.6387 299.414 54.0806 300.041C54.2094 300.224 54.421 300.394 54.6347 300.536C54.4441 300.493 54.2465 300.433 54.0684 300.344C53.3193 299.968 52.4459 300.143 52.4459 300.143C52.4459 300.143 53.2427 300.276 53.833 300.766C54.0071 300.91 54.2599 301.02 54.5061 301.102C54.3082 301.111 54.0983 301.105 53.9 301.065C53.0784 300.899 52.2817 301.298 52.2817 301.298C52.2817 301.298 53.0855 301.217 53.7836 301.534C53.9724 301.62 54.2173 301.66 54.4563 301.677C54.2844 301.727 54.102 301.765 53.9219 301.775C53.0849 301.822 52.4145 302.408 52.4145 302.408C52.4145 302.408 53.1719 302.127 53.9274 302.258C54.1475 302.297 54.4176 302.268 54.669 302.218C54.5036 302.321 54.3216 302.418 54.1326 302.481C53.3368 302.744 52.8429 303.486 52.8429 303.486C52.8429 303.486 53.5006 303.017 54.2642 302.946C54.4909 302.925 54.7493 302.823 54.9823 302.706C54.8478 302.853 54.6944 302.999 54.5244 303.112C53.826 303.575 53.5446 304.421 53.5446 304.421C53.5446 304.421 54.0556 303.795 54.7737 303.526C54.9694 303.452 55.1723 303.305 55.3545 303.147C55.2674 303.305 55.165 303.464 55.0435 303.6C54.4848 304.224 54.4262 305.113 54.4262 305.113C54.4262 305.113 54.7626 304.379 55.3893 303.937C55.572 303.808 55.7428 303.597 55.8848 303.383C55.8414 303.573 55.7814 303.771 55.692 303.949C55.316 304.698 55.4915 305.572 55.4915 305.572C55.4915 305.572 55.6244 304.775 56.1139 304.185C56.2583 304.01 56.3687 303.758 56.4502 303.511C56.459 303.709 56.4535 303.919 56.4134 304.118C56.2473 304.939 56.6461 305.736 56.6461 305.736C56.6461 305.736 56.5649 304.932 56.8823 304.234C56.9681 304.045 57.0086 303.8 57.0256 303.561C57.075 303.733 57.1137 303.916 57.1237 304.096C57.1701 304.933 57.7568 305.603 57.7568 305.603C57.7568 305.603 57.4757 304.846 57.6068 304.09C57.645 303.87 57.6164 303.6 57.5659 303.349C57.6698 303.514 57.7668 303.696 57.8293 303.885C58.0926 304.681 58.8341 305.175 58.8341 305.175C58.8341 305.175 58.3649 304.517 58.2942 303.753C58.2732 303.527 58.1714 303.268 58.0541 303.035C58.2015 303.17 58.3475 303.323 58.4602 303.493C58.9237 304.192 59.769 304.473 59.769 304.473C59.769 304.473 59.1433 303.962 58.8741 303.244C58.8007 303.048 58.6537 302.845 58.4953 302.663C58.6535 302.75 58.8119 302.853 58.9479 302.974C59.5728 303.533 60.4618 303.591 60.4618 303.591C60.4618 303.591 59.7273 303.255 59.2853 302.628C59.1565 302.446 58.9449 302.275 58.7312 302.133C58.9217 302.176 59.1193 302.236 59.2975 302.326C60.0466 302.702 60.92 302.526 60.92 302.526ZM56.6881 303.364C55.5664 303.364 54.6572 302.455 54.6572 301.333C54.6572 300.212 55.5664 299.302 56.6881 299.302C57.8097 299.302 58.7189 300.212 58.7189 301.333C58.7189 302.455 57.8097 303.364 56.6881 303.364Z" fill="#FFE15A"/>
<path d="M56.044 300.511C56.0874 300.478 56.1304 300.444 56.1742 300.414C55.8865 300.283 55.6275 300.22 55.4458 300.192C55.4169 300.223 55.3908 300.257 55.3643 300.29C55.5427 300.325 55.7824 300.391 56.044 300.511Z" fill="#FFE15A"/>
<path d="M55.5332 300.102C55.7285 300.124 56.0111 300.182 56.3247 300.317C56.3773 300.286 56.4296 300.258 56.482 300.231C56.1433 300.092 55.8377 300.041 55.6273 300.025C55.5956 300.05 55.5628 300.074 55.5332 300.102Z" fill="#FFE15A"/>
<path d="M56.5499 301.043C56.5094 301.005 56.4684 300.969 56.427 300.935C56.0468 301.297 55.7141 301.824 55.564 302.59C55.6186 302.639 55.6728 302.688 55.7333 302.73C55.8437 301.951 56.1671 301.414 56.5499 301.043Z" fill="#FFE15A"/>
<path d="M56.4023 300.707C56.4454 300.673 56.4885 300.638 56.5321 300.607C56.4789 300.573 56.4259 300.543 56.3731 300.514C56.3278 300.545 56.2825 300.575 56.2378 300.61C56.2925 300.64 56.3473 300.672 56.4023 300.707Z" fill="#FFE15A"/>
<path d="M57.4531 300.609C57.7791 300.895 58.0771 301.298 58.2891 301.857C58.3435 301.691 58.3803 301.517 58.3803 301.333C58.3803 300.984 58.2741 300.659 58.0924 300.389C57.9243 300.423 57.6986 300.488 57.4531 300.609Z" fill="#FFE15A"/>
<path d="M56.562 300.816C56.6045 300.847 56.6461 300.883 56.6878 300.918C56.7296 300.883 56.7712 300.847 56.8137 300.816C56.7719 300.781 56.7302 300.747 56.6878 300.715C56.6455 300.747 56.6038 300.781 56.562 300.816Z" fill="#FFE15A"/>
<path d="M56.6881 300.326C56.635 300.353 56.5818 300.383 56.5283 300.415C56.5815 300.443 56.6346 300.473 56.6881 300.506C56.7417 300.473 56.7948 300.443 56.848 300.415C56.7945 300.383 56.7413 300.353 56.6881 300.326Z" fill="#FFE15A"/>
<path d="M55.3796 302.395C55.5586 301.663 55.8961 301.163 56.2738 300.818C56.221 300.781 56.1684 300.746 56.1157 300.715C55.7522 301.034 55.4233 301.496 55.2207 302.162C55.2674 302.244 55.3202 302.321 55.3796 302.395Z" fill="#FFE15A"/>
<path d="M55.9228 300.609C55.6774 300.488 55.4517 300.423 55.2835 300.389C55.1019 300.659 54.9956 300.983 54.9956 301.333C54.9956 301.517 55.0324 301.691 55.0868 301.857C55.2989 301.298 55.5968 300.895 55.9228 300.609Z" fill="#FFE15A"/>
<path d="M56.6882 300.136C57.0482 299.987 57.3804 299.934 57.6166 299.92C57.3498 299.745 57.0314 299.641 56.6882 299.641C56.3449 299.641 56.0265 299.745 55.7598 299.92C55.996 299.934 56.3281 299.987 56.6882 300.136Z" fill="#FFE15A"/>
<path d="M56.688 301.187C56.3504 301.561 56.0718 302.098 55.9814 302.867C56.197 302.966 56.4349 303.026 56.688 303.026C56.9411 303.026 57.1789 302.966 57.3945 302.867C57.3041 302.098 57.0255 301.561 56.688 301.187Z" fill="#FFE15A"/>
<path d="M57.2602 300.715C57.2075 300.747 57.1549 300.781 57.1021 300.818C57.4797 301.162 57.8172 301.663 57.9962 302.395C58.0557 302.321 58.1084 302.244 58.1552 302.162C57.9526 301.496 57.6236 301.034 57.2602 300.715Z" fill="#FFE15A"/>
<path d="M57.8121 302.59C57.6619 301.824 57.3293 301.297 56.9491 300.935C56.9076 300.969 56.8667 301.005 56.8262 301.043C57.209 301.414 57.5324 301.951 57.6427 302.73C57.7033 302.688 57.7575 302.639 57.8121 302.59Z" fill="#FFE15A"/>
<path d="M56.894 300.231C56.9464 300.258 56.9988 300.286 57.0513 300.317C57.3649 300.182 57.6475 300.124 57.8428 300.102C57.8132 300.074 57.7804 300.05 57.7487 300.024C57.5383 300.04 57.2327 300.092 56.894 300.231Z" fill="#FFE15A"/>
<path d="M56.9736 300.707C57.0286 300.672 57.0834 300.64 57.1381 300.61C57.0934 300.575 57.0481 300.545 57.0028 300.514C56.95 300.543 56.897 300.573 56.8438 300.607C56.8874 300.638 56.9305 300.673 56.9736 300.707Z" fill="#FFE15A"/>
<path d="M57.3319 300.511C57.5935 300.391 57.8333 300.325 58.0116 300.291C57.9851 300.257 57.9591 300.223 57.9301 300.192C57.7484 300.22 57.4894 300.283 57.2017 300.414C57.2455 300.444 57.2887 300.478 57.3319 300.511Z" fill="#FFE15A"/>
</g>
<path d="M84.9252 302.405H82.4622V304.827H81.3254V302.405H78.8623V301.335H81.3254V298.899H82.4622V301.335H84.9252V302.405ZM89.5541 297.018C90.8262 297.018 91.8051 297.429 92.4908 298.25C93.1855 299.071 93.5329 300.235 93.5329 301.741C93.5329 302.797 93.3434 303.699 92.9645 304.448C92.5945 305.188 92.0713 305.752 91.3946 306.14C90.7269 306.519 89.9465 306.708 89.0533 306.708C88.5932 306.708 88.1601 306.663 87.7541 306.573C87.3481 306.474 86.9963 306.334 86.6985 306.153L87.2128 305.098C87.6729 305.395 88.2819 305.544 89.0398 305.544C90.0232 305.544 90.7901 305.242 91.3405 304.638C91.8998 304.024 92.1795 303.135 92.1795 301.971V301.633C91.9089 302.039 91.5344 302.35 91.0563 302.567C90.5781 302.774 90.0413 302.878 89.4458 302.878C88.8233 302.878 88.2639 302.761 87.7677 302.526C87.2805 302.292 86.897 301.958 86.6173 301.525C86.3467 301.083 86.2113 300.578 86.2113 300.009C86.2113 299.414 86.3557 298.89 86.6444 298.439C86.9421 297.988 87.3436 297.641 87.8489 297.397C88.3541 297.145 88.9225 297.018 89.5541 297.018ZM89.6759 301.782C90.0999 301.782 90.4788 301.701 90.8127 301.538C91.1465 301.376 91.4036 301.155 91.5841 300.875C91.7735 300.596 91.8683 300.284 91.8683 299.941C91.8683 299.608 91.778 299.305 91.5976 299.035C91.4262 298.755 91.169 298.534 90.8262 298.372C90.4924 298.2 90.0864 298.114 89.6082 298.114C88.9857 298.114 88.4804 298.281 88.0925 298.615C87.7135 298.949 87.5241 299.396 87.5241 299.955C87.5241 300.514 87.718 300.961 88.106 301.295C88.4939 301.62 89.0172 301.782 89.6759 301.782ZM97.9067 297.018C99.1788 297.018 100.158 297.429 100.843 298.25C101.538 299.071 101.885 300.235 101.885 301.741C101.885 302.797 101.696 303.699 101.317 304.448C100.947 305.188 100.424 305.752 99.7472 306.14C99.0795 306.519 98.2991 306.708 97.4059 306.708C96.9458 306.708 96.5127 306.663 96.1067 306.573C95.7007 306.474 95.3489 306.334 95.0511 306.153L95.5654 305.098C96.0255 305.395 96.6345 305.544 97.3924 305.544C98.3758 305.544 99.1427 305.242 99.6931 304.638C100.252 304.024 100.532 303.135 100.532 301.971V301.633C100.261 302.039 99.887 302.35 99.4089 302.567C98.9307 302.774 98.3939 302.878 97.7984 302.878C97.1759 302.878 96.6165 302.761 96.1203 302.526C95.6331 302.292 95.2496 301.958 94.9699 301.525C94.6993 301.083 94.5639 300.578 94.5639 300.009C94.5639 299.414 94.7083 298.89 94.997 298.439C95.2947 297.988 95.6962 297.641 96.2015 297.397C96.7067 297.145 97.2751 297.018 97.9067 297.018ZM98.0285 301.782C98.4525 301.782 98.8314 301.701 99.1653 301.538C99.4991 301.376 99.7562 301.155 99.9367 300.875C100.126 300.596 100.221 300.284 100.221 299.941C100.221 299.608 100.131 299.305 99.9502 299.035C99.7788 298.755 99.5216 298.534 99.1788 298.372C98.845 298.2 98.439 298.114 97.9608 298.114C97.3383 298.114 96.833 298.281 96.4451 298.615C96.0661 298.949 95.8767 299.396 95.8767 299.955C95.8767 300.514 96.0706 300.961 96.4586 301.295C96.8465 301.62 97.3698 301.782 98.0285 301.782ZM107.274 300.848C107.897 300.848 108.452 300.965 108.939 301.2C109.435 301.435 109.823 301.773 110.103 302.215C110.382 302.648 110.522 303.149 110.522 303.717C110.522 304.313 110.373 304.836 110.076 305.287C109.787 305.738 109.385 306.09 108.871 306.343C108.366 306.586 107.798 306.708 107.166 306.708C105.894 306.708 104.91 306.298 104.216 305.477C103.53 304.656 103.187 303.492 103.187 301.985C103.187 300.929 103.372 300.032 103.742 299.292C104.121 298.543 104.644 297.979 105.312 297.6C105.989 297.212 106.774 297.018 107.667 297.018C108.127 297.018 108.56 297.068 108.966 297.167C109.372 297.257 109.724 297.393 110.022 297.573L109.507 298.629C109.056 298.331 108.452 298.182 107.694 298.182C106.71 298.182 105.939 298.489 105.38 299.102C104.82 299.707 104.541 300.591 104.541 301.755C104.541 301.899 104.545 302.012 104.554 302.093C104.825 301.687 105.195 301.38 105.664 301.173C106.142 300.956 106.679 300.848 107.274 300.848ZM107.112 305.612C107.734 305.612 108.24 305.445 108.628 305.111C109.016 304.777 109.21 304.331 109.21 303.771C109.21 303.212 109.011 302.77 108.614 302.445C108.226 302.111 107.703 301.944 107.044 301.944C106.62 301.944 106.241 302.026 105.907 302.188C105.583 302.35 105.325 302.571 105.136 302.851C104.956 303.131 104.865 303.442 104.865 303.785C104.865 304.119 104.951 304.425 105.122 304.705C105.303 304.976 105.56 305.197 105.894 305.368C106.237 305.531 106.643 305.612 107.112 305.612Z" fill="#03153D"/>
<path d="M44.9341 200.273V205.281H42.6141V202.4H32.2321V205.281H29.8927L29.9121 200.273H30.4921C31.3427 200.235 31.9356 199.609 32.2707 198.398C32.6187 197.173 32.8314 195.427 32.9087 193.159L33.0634 188.867H42.9814V200.273H44.9341ZM35.1127 193.391C35.0483 195.143 34.9065 196.606 34.6874 197.779C34.4683 198.939 34.1203 199.771 33.6434 200.273H40.5067V190.993H35.2094L35.1127 193.391ZM51.4425 202.535C50.3985 202.535 49.4576 202.31 48.6198 201.859C47.782 201.407 47.1247 200.782 46.6478 199.983C46.1838 199.171 45.9518 198.256 45.9518 197.238C45.9518 196.22 46.1838 195.311 46.6478 194.512C47.1247 193.713 47.782 193.088 48.6198 192.637C49.4576 192.185 50.3985 191.96 51.4425 191.96C52.4993 191.96 53.4467 192.185 54.2845 192.637C55.1222 193.088 55.7731 193.713 56.2371 194.512C56.714 195.311 56.9525 196.22 56.9525 197.238C56.9525 198.256 56.714 199.171 56.2371 199.983C55.7731 200.782 55.1222 201.407 54.2845 201.859C53.4467 202.31 52.4993 202.535 51.4425 202.535ZM51.4425 200.467C52.3318 200.467 53.0665 200.17 53.6465 199.577C54.2265 198.984 54.5165 198.205 54.5165 197.238C54.5165 196.271 54.2265 195.491 53.6465 194.899C53.0665 194.306 52.3318 194.009 51.4425 194.009C50.5531 194.009 49.8185 194.306 49.2385 194.899C48.6713 195.491 48.3878 196.271 48.3878 197.238C48.3878 198.205 48.6713 198.984 49.2385 199.577C49.8185 200.17 50.5531 200.467 51.4425 200.467ZM64.9272 192.579C65.9067 192.579 66.7703 192.791 67.5178 193.217C68.2654 193.629 68.8454 194.209 69.2578 194.957C69.6832 195.704 69.8958 196.561 69.8958 197.528C69.8958 198.52 69.6638 199.403 69.1998 200.177C68.7358 200.937 68.0849 201.53 67.2472 201.955C66.4094 202.381 65.4556 202.593 64.3858 202.593C62.5943 202.593 61.2087 202 60.2292 200.815C59.2496 199.629 58.7598 197.921 58.7598 195.691C58.7598 193.616 59.2045 191.973 60.0938 190.761C60.9832 189.55 62.3429 188.751 64.1732 188.364L68.9678 187.339L69.3158 189.505L64.9658 190.394C63.7156 190.652 62.7812 191.09 62.1625 191.709C61.5438 192.327 61.1829 193.197 61.0798 194.319C61.5438 193.764 62.1045 193.339 62.7618 193.043C63.4192 192.733 64.1409 192.579 64.9272 192.579ZM64.4438 200.641C65.3332 200.641 66.0485 200.357 66.5898 199.79C67.144 199.21 67.4212 198.475 67.4212 197.586C67.4212 196.697 67.144 195.981 66.5898 195.44C66.0485 194.899 65.3332 194.628 64.4438 194.628C63.5416 194.628 62.8134 194.899 62.2592 195.44C61.7049 195.981 61.4278 196.697 61.4278 197.586C61.4278 198.488 61.7049 199.223 62.2592 199.79C62.8263 200.357 63.5545 200.641 64.4438 200.641ZM77.9577 191.96C78.963 191.96 79.8588 192.179 80.645 192.617C81.4441 193.055 82.0692 193.674 82.5203 194.473C82.9714 195.272 83.197 196.194 83.197 197.238C83.197 198.282 82.9714 199.21 82.5203 200.022C82.0692 200.821 81.4441 201.44 80.645 201.878C79.8588 202.316 78.963 202.535 77.9577 202.535C76.5657 202.535 75.4637 202.071 74.6517 201.143V206.151H72.235V192.076H74.5357V193.429C74.9352 192.939 75.425 192.572 76.005 192.327C76.5979 192.082 77.2488 191.96 77.9577 191.96ZM77.687 200.467C78.5763 200.467 79.3046 200.17 79.8717 199.577C80.4517 198.984 80.7417 198.205 80.7417 197.238C80.7417 196.271 80.4517 195.491 79.8717 194.899C79.3046 194.306 78.5763 194.009 77.687 194.009C77.107 194.009 76.585 194.145 76.121 194.415C75.657 194.673 75.2897 195.047 75.019 195.537C74.7483 196.026 74.613 196.593 74.613 197.238C74.613 197.882 74.7483 198.449 75.019 198.939C75.2897 199.429 75.657 199.809 76.121 200.08C76.585 200.338 77.107 200.467 77.687 200.467ZM90.2035 202.535C89.1595 202.535 88.2186 202.31 87.3809 201.859C86.5431 201.407 85.8857 200.782 85.4089 199.983C84.9449 199.171 84.7129 198.256 84.7129 197.238C84.7129 196.22 84.9449 195.311 85.4089 194.512C85.8857 193.713 86.5431 193.088 87.3809 192.637C88.2186 192.185 89.1595 191.96 90.2035 191.96C91.2604 191.96 92.2077 192.185 93.0455 192.637C93.8833 193.088 94.5342 193.713 94.9982 194.512C95.4751 195.311 95.7135 196.22 95.7135 197.238C95.7135 198.256 95.4751 199.171 94.9982 199.983C94.5342 200.782 93.8833 201.407 93.0455 201.859C92.2077 202.31 91.2604 202.535 90.2035 202.535ZM90.2035 200.467C91.0929 200.467 91.8275 200.17 92.4075 199.577C92.9875 198.984 93.2775 198.205 93.2775 197.238C93.2775 196.271 92.9875 195.491 92.4075 194.899C91.8275 194.306 91.0929 194.009 90.2035 194.009C89.3142 194.009 88.5795 194.306 87.9995 194.899C87.4324 195.491 87.1489 196.271 87.1489 197.238C87.1489 198.205 87.4324 198.984 87.9995 199.577C88.5795 200.17 89.3142 200.467 90.2035 200.467ZM113.343 192.076V202.4H110.945V194.125H105.861V202.4H103.444V192.076H113.343ZM121.205 202.535C120.161 202.535 119.22 202.31 118.382 201.859C117.544 201.407 116.887 200.782 116.41 199.983C115.946 199.171 115.714 198.256 115.714 197.238C115.714 196.22 115.946 195.311 116.41 194.512C116.887 193.713 117.544 193.088 118.382 192.637C119.22 192.185 120.161 191.96 121.205 191.96C122.262 191.96 123.209 192.185 124.047 192.637C124.885 193.088 125.535 193.713 125.999 194.512C126.476 195.311 126.715 196.22 126.715 197.238C126.715 198.256 126.476 199.171 125.999 199.983C125.535 200.782 124.885 201.407 124.047 201.859C123.209 202.31 122.262 202.535 121.205 202.535ZM121.205 200.467C122.094 200.467 122.829 200.17 123.409 199.577C123.989 198.984 124.279 198.205 124.279 197.238C124.279 196.271 123.989 195.491 123.409 194.899C122.829 194.306 122.094 194.009 121.205 194.009C120.315 194.009 119.581 194.306 119.001 194.899C118.434 195.491 118.15 196.271 118.15 197.238C118.15 198.205 118.434 198.984 119.001 199.577C119.581 200.17 120.315 200.467 121.205 200.467ZM138.564 198.263H136.824V202.4H134.427V198.263H132.687L130.174 202.4H127.312L130.696 197.064L127.564 192.076H130.135L132.648 196.252H134.427V192.076H136.824V196.252H138.584L141.116 192.076H143.688L140.556 197.064L143.958 202.4H141.078L138.564 198.263ZM149.413 191.96C150.934 191.96 152.094 192.327 152.893 193.062C153.705 193.784 154.111 194.879 154.111 196.349V202.4H151.83V201.143C151.533 201.594 151.108 201.942 150.554 202.187C150.012 202.419 149.355 202.535 148.582 202.535C147.808 202.535 147.132 202.406 146.552 202.149C145.972 201.878 145.521 201.511 145.198 201.047C144.889 200.57 144.734 200.035 144.734 199.442C144.734 198.514 145.076 197.773 145.759 197.219C146.455 196.651 147.544 196.368 149.026 196.368H151.694V196.213C151.694 195.491 151.475 194.937 151.037 194.551C150.612 194.164 149.974 193.971 149.123 193.971C148.543 193.971 147.97 194.061 147.402 194.241C146.848 194.422 146.378 194.673 145.991 194.995L145.044 193.236C145.585 192.823 146.236 192.508 146.996 192.289C147.757 192.069 148.562 191.96 149.413 191.96ZM149.084 200.776C149.69 200.776 150.225 200.641 150.689 200.37C151.166 200.086 151.501 199.687 151.694 199.171V197.973H149.2C147.808 197.973 147.112 198.43 147.112 199.345C147.112 199.783 147.286 200.131 147.634 200.389C147.982 200.647 148.466 200.776 149.084 200.776ZM166.459 192.076V202.4H164.042V194.125H160.176L160.079 196.175C160.014 197.541 159.886 198.688 159.692 199.616C159.512 200.531 159.196 201.259 158.745 201.801C158.307 202.329 157.701 202.593 156.928 202.593C156.567 202.593 156.122 202.522 155.594 202.381L155.71 200.351C155.89 200.389 156.045 200.409 156.174 200.409C156.663 200.409 157.031 200.215 157.276 199.829C157.52 199.429 157.675 198.959 157.74 198.417C157.817 197.863 157.881 197.077 157.933 196.059L158.107 192.076H166.459ZM174.315 202.535C173.271 202.535 172.33 202.31 171.492 201.859C170.654 201.407 169.997 200.782 169.52 199.983C169.056 199.171 168.824 198.256 168.824 197.238C168.824 196.22 169.056 195.311 169.52 194.512C169.997 193.713 170.654 193.088 171.492 192.637C172.33 192.185 173.271 191.96 174.315 191.96C175.372 191.96 176.319 192.185 177.157 192.637C177.995 193.088 178.646 193.713 179.11 194.512C179.586 195.311 179.825 196.22 179.825 197.238C179.825 198.256 179.586 199.171 179.11 199.983C178.646 200.782 177.995 201.407 177.157 201.859C176.319 202.31 175.372 202.535 174.315 202.535ZM174.315 200.467C175.204 200.467 175.939 200.17 176.519 199.577C177.099 198.984 177.389 198.205 177.389 197.238C177.389 196.271 177.099 195.491 176.519 194.899C175.939 194.306 175.204 194.009 174.315 194.009C173.426 194.009 172.691 194.306 172.111 194.899C171.544 195.491 171.26 196.271 171.26 197.238C171.26 198.205 171.544 198.984 172.111 199.577C172.691 200.17 173.426 200.467 174.315 200.467ZM189.694 197.025C190.97 197.412 191.608 198.237 191.608 199.5C191.608 200.428 191.26 201.143 190.564 201.646C189.868 202.149 188.837 202.4 187.471 202.4H182.212V192.076H187.258C188.521 192.076 189.507 192.308 190.216 192.772C190.925 193.236 191.28 193.893 191.28 194.744C191.28 195.272 191.138 195.73 190.854 196.117C190.584 196.503 190.197 196.806 189.694 197.025ZM184.513 196.387H187.046C188.296 196.387 188.921 195.955 188.921 195.092C188.921 194.254 188.296 193.835 187.046 193.835H184.513V196.387ZM187.278 200.641C188.605 200.641 189.269 200.209 189.269 199.345C189.269 198.894 189.114 198.559 188.805 198.34C188.496 198.108 188.012 197.992 187.355 197.992H184.513V200.641H187.278ZM198.03 191.96C199.55 191.96 200.71 192.327 201.51 193.062C202.322 193.784 202.728 194.879 202.728 196.349V202.4H200.446V201.143C200.15 201.594 199.724 201.942 199.17 202.187C198.629 202.419 197.972 202.535 197.198 202.535C196.425 202.535 195.748 202.406 195.168 202.149C194.588 201.878 194.137 201.511 193.815 201.047C193.506 200.57 193.351 200.035 193.351 199.442C193.351 198.514 193.692 197.773 194.376 197.219C195.072 196.651 196.161 196.368 197.643 196.368H200.311V196.213C200.311 195.491 200.092 194.937 199.654 194.551C199.228 194.164 198.59 193.971 197.74 193.971C197.16 193.971 196.586 194.061 196.019 194.241C195.465 194.422 194.994 194.673 194.608 194.995L193.66 193.236C194.202 192.823 194.852 192.508 195.613 192.289C196.373 192.069 197.179 191.96 198.03 191.96ZM197.701 200.776C198.307 200.776 198.842 200.641 199.306 200.37C199.782 200.086 200.118 199.687 200.311 199.171V197.973H197.817C196.425 197.973 195.729 198.43 195.729 199.345C195.729 199.783 195.903 200.131 196.251 200.389C196.599 200.647 197.082 200.776 197.701 200.776ZM213.896 194.125H210.281V202.4H207.864V194.125H204.229V192.076H213.896V194.125ZM220.83 195.479C222.145 195.479 223.15 195.775 223.846 196.368C224.555 196.961 224.91 197.799 224.91 198.881C224.91 200.015 224.523 200.892 223.75 201.511C222.976 202.129 221.887 202.432 220.482 202.419L215.649 202.4V192.076H218.066V195.459L220.83 195.479ZM220.27 200.641C220.979 200.653 221.52 200.505 221.894 200.196C222.268 199.887 222.454 199.435 222.454 198.843C222.454 198.263 222.274 197.837 221.913 197.567C221.552 197.296 221.004 197.154 220.27 197.141L218.066 197.122V200.621L220.27 200.641ZM226.686 188.867H229.547L229.064 197.915H227.15L226.686 188.867ZM228.117 202.535C227.665 202.535 227.292 202.393 226.995 202.11C226.699 201.813 226.551 201.453 226.551 201.027C226.551 200.602 226.699 200.247 226.995 199.964C227.292 199.68 227.665 199.539 228.117 199.539C228.555 199.539 228.916 199.68 229.199 199.964C229.496 200.247 229.644 200.602 229.644 201.027C229.644 201.453 229.496 201.813 229.199 202.11C228.916 202.393 228.555 202.535 228.117 202.535Z" fill="#070707"/>
<path opacity="0.5" d="M36.8353 226.381C37.494 226.516 37.9947 226.783 38.3375 227.18C38.6804 227.567 38.8518 228.077 38.8518 228.709C38.8518 229.53 38.5586 230.161 37.9721 230.603C37.3947 231.046 36.5421 231.267 35.4143 231.267H31.219V221.793H35.1572C36.1677 221.793 36.9571 222.001 37.5255 222.416C38.0939 222.831 38.3781 223.431 38.3781 224.216C38.3781 224.748 38.2428 225.199 37.9721 225.569C37.7015 225.93 37.3225 226.201 36.8353 226.381ZM32.2069 226.083H35.1031C35.8339 226.083 36.3932 225.934 36.7812 225.637C37.1782 225.339 37.3767 224.906 37.3767 224.338C37.3767 223.769 37.1782 223.336 36.7812 223.038C36.3932 222.741 35.8339 222.592 35.1031 222.592H32.2069V226.083ZM35.4143 230.468C37.0474 230.468 37.8639 229.859 37.8639 228.641C37.8639 227.45 37.0474 226.855 35.4143 226.855H32.2069V230.468H35.4143ZM45.6594 227.586C46.6248 227.811 47.1075 228.393 47.1075 229.331C47.1075 229.954 46.8774 230.432 46.4173 230.766C45.9571 231.1 45.2714 231.267 44.3602 231.267H41.1257V224.148H44.2655C45.0775 224.148 45.7135 224.306 46.1737 224.622C46.6338 224.938 46.8639 225.389 46.8639 225.975C46.8639 226.363 46.7556 226.697 46.5391 226.977C46.3315 227.247 46.0383 227.45 45.6594 227.586ZM42.0595 227.315H44.1978C44.7481 227.315 45.1677 227.211 45.4564 227.004C45.7541 226.796 45.903 226.494 45.903 226.097C45.903 225.7 45.7541 225.402 45.4564 225.204C45.1677 225.005 44.7481 224.906 44.1978 224.906H42.0595V227.315ZM44.3196 230.509C44.9331 230.509 45.3932 230.409 45.7 230.211C46.0067 230.013 46.1601 229.701 46.1601 229.277C46.1601 228.853 46.0203 228.542 45.7406 228.343C45.4609 228.136 45.0188 228.032 44.4143 228.032H42.0595V230.509H44.3196ZM55.5847 228.005H49.63C49.6842 228.745 49.9684 229.345 50.4826 229.805C50.9969 230.256 51.6465 230.482 52.4314 230.482C52.8735 230.482 53.2795 230.405 53.6494 230.252C54.0194 230.089 54.3396 229.855 54.6103 229.548L55.1516 230.17C54.8359 230.549 54.4389 230.838 53.9607 231.037C53.4916 231.235 52.9728 231.334 52.4044 231.334C51.6736 231.334 51.024 231.181 50.4556 230.874C49.8962 230.558 49.4586 230.125 49.1428 229.575C48.8271 229.025 48.6692 228.402 48.6692 227.707C48.6692 227.013 48.818 226.39 49.1158 225.84C49.4225 225.289 49.8376 224.861 50.3608 224.554C50.8932 224.247 51.4886 224.094 52.1472 224.094C52.8059 224.094 53.3968 224.247 53.9201 224.554C54.4434 224.861 54.8539 225.289 55.1516 225.84C55.4494 226.381 55.5982 227.004 55.5982 227.707L55.5847 228.005ZM52.1472 224.919C51.4616 224.919 50.8841 225.141 50.415 225.583C49.9548 226.016 49.6932 226.584 49.63 227.288H54.678C54.6148 226.584 54.3487 226.016 53.8795 225.583C53.4194 225.141 52.842 224.919 52.1472 224.919ZM64.5224 230.428V232.985H63.6157V231.267H57.2415V232.985H56.3348V230.428H56.7408C57.2189 230.4 57.5437 230.049 57.7152 229.372C57.8866 228.695 58.0039 227.748 58.067 226.53L58.1618 224.148H63.4127V230.428H64.5224ZM58.9467 226.584C58.9016 227.595 58.8159 228.429 58.6896 229.088C58.5632 229.737 58.3377 230.184 58.0129 230.428H62.4518V225.001H59.0279L58.9467 226.584ZM66.395 224.148H67.3559V229.805L72.1061 224.148H72.9587V231.267H71.9978V225.61L67.2611 231.267H66.395V224.148ZM80.7197 225.001H78.0266V231.267H77.0657V225.001H74.3726V224.148H80.7197V225.001ZM88.0039 228.005H82.0493C82.1034 228.745 82.3876 229.345 82.9019 229.805C83.4161 230.256 84.0657 230.482 84.8507 230.482C85.2927 230.482 85.6987 230.405 86.0687 230.252C86.4386 230.089 86.7589 229.855 87.0295 229.548L87.5709 230.17C87.2551 230.549 86.8581 230.838 86.3799 231.037C85.9108 231.235 85.392 231.334 84.8236 231.334C84.0928 231.334 83.4432 231.181 82.8748 230.874C82.3154 230.558 81.8778 230.125 81.5621 229.575C81.2463 229.025 81.0884 228.402 81.0884 227.707C81.0884 227.013 81.2373 226.39 81.535 225.84C81.8417 225.289 82.2568 224.861 82.7801 224.554C83.3124 224.247 83.9078 224.094 84.5665 224.094C85.2251 224.094 85.816 224.247 86.3393 224.554C86.8626 224.861 87.2731 225.289 87.5709 225.84C87.8686 226.381 88.0175 227.004 88.0175 227.707L88.0039 228.005ZM84.5665 224.919C83.8808 224.919 83.3033 225.141 82.8342 225.583C82.3741 226.016 82.1124 226.584 82.0493 227.288H87.0972C87.034 226.584 86.7679 226.016 86.2987 225.583C85.8386 225.141 85.2612 224.919 84.5665 224.919ZM93.6863 224.148H94.6472V227.301H99.1267V224.148H100.088V231.267H99.1267V228.127H94.6472V231.267H93.6863V224.148ZM105.755 231.334C105.07 231.334 104.452 231.181 103.901 230.874C103.351 230.558 102.918 230.125 102.602 229.575C102.286 229.025 102.128 228.402 102.128 227.707C102.128 227.013 102.286 226.39 102.602 225.84C102.918 225.289 103.351 224.861 103.901 224.554C104.452 224.247 105.07 224.094 105.755 224.094C106.441 224.094 107.059 224.247 107.609 224.554C108.16 224.861 108.588 225.289 108.895 225.84C109.211 226.39 109.369 227.013 109.369 227.707C109.369 228.402 109.211 229.025 108.895 229.575C108.588 230.125 108.16 230.558 107.609 230.874C107.059 231.181 106.441 231.334 105.755 231.334ZM105.755 230.482C106.261 230.482 106.712 230.369 107.109 230.143C107.515 229.909 107.831 229.579 108.056 229.155C108.282 228.731 108.394 228.249 108.394 227.707C108.394 227.166 108.282 226.683 108.056 226.259C107.831 225.835 107.515 225.51 107.109 225.285C106.712 225.05 106.261 224.933 105.755 224.933C105.25 224.933 104.795 225.05 104.389 225.285C103.992 225.51 103.676 225.835 103.441 226.259C103.216 226.683 103.103 227.166 103.103 227.707C103.103 228.249 103.216 228.731 103.441 229.155C103.676 229.579 103.992 229.909 104.389 230.143C104.795 230.369 105.25 230.482 105.755 230.482ZM119.38 224.148V231.267H118.5V225.637L115.618 230.4H115.185L112.302 225.623V231.267H111.422V224.148H112.397L115.415 229.277L118.487 224.148H119.38ZM128.34 228.005H122.385C122.439 228.745 122.723 229.345 123.238 229.805C123.752 230.256 124.401 230.482 125.186 230.482C125.628 230.482 126.034 230.405 126.404 230.252C126.774 230.089 127.095 229.855 127.365 229.548L127.907 230.17C127.591 230.549 127.194 230.838 126.716 231.037C126.246 231.235 125.728 231.334 125.159 231.334C124.428 231.334 123.779 231.181 123.21 230.874C122.651 230.558 122.214 230.125 121.898 229.575C121.582 229.025 121.424 228.402 121.424 227.707C121.424 227.013 121.573 226.39 121.871 225.84C122.177 225.289 122.592 224.861 123.116 224.554C123.648 224.247 124.244 224.094 124.902 224.094C125.561 224.094 126.152 224.247 126.675 224.554C127.198 224.861 127.609 225.289 127.907 225.84C128.204 226.381 128.353 227.004 128.353 227.707L128.34 228.005ZM124.902 224.919C124.216 224.919 123.639 225.141 123.17 225.583C122.71 226.016 122.448 226.584 122.385 227.288H127.433C127.37 226.584 127.104 226.016 126.634 225.583C126.174 225.141 125.597 224.919 124.902 224.919ZM134.148 224.094C134.815 224.094 135.42 224.247 135.961 224.554C136.502 224.852 136.926 225.276 137.233 225.826C137.54 226.377 137.693 227.004 137.693 227.707C137.693 228.42 137.54 229.052 137.233 229.602C136.926 230.152 136.502 230.581 135.961 230.888C135.429 231.185 134.824 231.334 134.148 231.334C133.57 231.334 133.047 231.217 132.578 230.982C132.118 230.739 131.739 230.387 131.441 229.927V233.892H130.48V224.148H131.4V225.556C131.689 225.086 132.068 224.725 132.537 224.473C133.015 224.22 133.552 224.094 134.148 224.094ZM134.08 230.482C134.576 230.482 135.027 230.369 135.433 230.143C135.839 229.909 136.155 229.579 136.381 229.155C136.615 228.731 136.732 228.249 136.732 227.707C136.732 227.166 136.615 226.688 136.381 226.273C136.155 225.849 135.839 225.519 135.433 225.285C135.027 225.05 134.576 224.933 134.08 224.933C133.575 224.933 133.119 225.05 132.713 225.285C132.316 225.519 132 225.849 131.766 226.273C131.54 226.688 131.427 227.166 131.427 227.707C131.427 228.249 131.54 228.731 131.766 229.155C132 229.579 132.316 229.909 132.713 230.143C133.119 230.369 133.575 230.482 134.08 230.482ZM148.307 225.001H145.614V231.267H144.653V225.001H141.96V224.148H148.307V225.001ZM155.591 228.005H149.637C149.691 228.745 149.975 229.345 150.489 229.805C151.003 230.256 151.653 230.482 152.438 230.482C152.88 230.482 153.286 230.405 153.656 230.252C154.026 230.089 154.346 229.855 154.617 229.548L155.158 230.17C154.842 230.549 154.445 230.838 153.967 231.037C153.498 231.235 152.979 231.334 152.411 231.334C151.68 231.334 151.031 231.181 150.462 230.874C149.903 230.558 149.465 230.125 149.149 229.575C148.834 229.025 148.676 228.402 148.676 227.707C148.676 227.013 148.825 226.39 149.122 225.84C149.429 225.289 149.844 224.861 150.367 224.554C150.9 224.247 151.495 224.094 152.154 224.094C152.812 224.094 153.403 224.247 153.927 224.554C154.45 224.861 154.86 225.289 155.158 225.84C155.456 226.381 155.605 227.004 155.605 227.707L155.591 228.005ZM152.154 224.919C151.468 224.919 150.891 225.141 150.422 225.583C149.961 226.016 149.7 226.584 149.637 227.288H154.685C154.621 226.584 154.355 226.016 153.886 225.583C153.426 225.141 152.849 224.919 152.154 224.919ZM163.406 224.148V231.267H162.445V225.001H159.034L158.94 226.76C158.868 228.24 158.696 229.376 158.425 230.17C158.155 230.964 157.672 231.361 156.977 231.361C156.788 231.361 156.558 231.325 156.287 231.253L156.355 230.428C156.517 230.464 156.63 230.482 156.693 230.482C157.063 230.482 157.343 230.31 157.532 229.967C157.722 229.625 157.848 229.201 157.911 228.695C157.974 228.19 158.028 227.522 158.074 226.692L158.195 224.148H163.406ZM172.363 228.005H166.408C166.462 228.745 166.746 229.345 167.261 229.805C167.775 230.256 168.424 230.482 169.209 230.482C169.651 230.482 170.057 230.405 170.427 230.252C170.797 230.089 171.118 229.855 171.388 229.548L171.93 230.17C171.614 230.549 171.217 230.838 170.739 231.037C170.269 231.235 169.751 231.334 169.182 231.334C168.451 231.334 167.802 231.181 167.233 230.874C166.674 230.558 166.236 230.125 165.921 229.575C165.605 229.025 165.447 228.402 165.447 227.707C165.447 227.013 165.596 226.39 165.894 225.84C166.2 225.289 166.615 224.861 167.139 224.554C167.671 224.247 168.266 224.094 168.925 224.094C169.584 224.094 170.175 224.247 170.698 224.554C171.221 224.861 171.632 225.289 171.93 225.84C172.227 226.381 172.376 227.004 172.376 227.707L172.363 228.005ZM168.925 224.919C168.239 224.919 167.662 225.141 167.193 225.583C166.733 226.016 166.471 226.584 166.408 227.288H171.456C171.393 226.584 171.127 226.016 170.657 225.583C170.197 225.141 169.62 224.919 168.925 224.919ZM183.097 227.694C183.097 228.804 182.731 229.674 182.001 230.306C181.27 230.937 180.237 231.28 178.901 231.334V233.892H177.968V231.348C176.641 231.294 175.613 230.951 174.882 230.319C174.16 229.679 173.799 228.804 173.799 227.694C173.799 226.593 174.16 225.731 174.882 225.109C175.613 224.486 176.641 224.148 177.968 224.094V221.225H178.901V224.094C180.237 224.157 181.27 224.5 182.001 225.122C182.731 225.745 183.097 226.602 183.097 227.694ZM174.747 227.694C174.747 228.542 175.017 229.205 175.559 229.683C176.109 230.161 176.912 230.432 177.968 230.495V224.947C176.921 225.001 176.123 225.267 175.572 225.745C175.022 226.214 174.747 226.864 174.747 227.694ZM178.901 230.495C179.957 230.441 180.76 230.175 181.31 229.697C181.87 229.219 182.149 228.551 182.149 227.694C182.149 226.855 181.87 226.201 181.31 225.731C180.76 225.262 179.957 225.001 178.901 224.947V230.495ZM188.066 231.334C187.38 231.334 186.762 231.181 186.212 230.874C185.661 230.558 185.228 230.125 184.912 229.575C184.597 229.025 184.439 228.402 184.439 227.707C184.439 227.013 184.597 226.39 184.912 225.84C185.228 225.289 185.661 224.861 186.212 224.554C186.762 224.247 187.38 224.094 188.066 224.094C188.751 224.094 189.369 224.247 189.92 224.554C190.47 224.861 190.899 225.289 191.205 225.84C191.521 226.39 191.679 227.013 191.679 227.707C191.679 228.402 191.521 229.025 191.205 229.575C190.899 230.125 190.47 230.558 189.92 230.874C189.369 231.181 188.751 231.334 188.066 231.334ZM188.066 230.482C188.571 230.482 189.022 230.369 189.419 230.143C189.825 229.909 190.141 229.579 190.366 229.155C190.592 228.731 190.705 228.249 190.705 227.707C190.705 227.166 190.592 226.683 190.366 226.259C190.141 225.835 189.825 225.51 189.419 225.285C189.022 225.05 188.571 224.933 188.066 224.933C187.56 224.933 187.105 225.05 186.699 225.285C186.302 225.51 185.986 225.835 185.751 226.259C185.526 226.683 185.413 227.166 185.413 227.707C185.413 228.249 185.526 228.731 185.751 229.155C185.986 229.579 186.302 229.909 186.699 230.143C187.105 230.369 187.56 230.482 188.066 230.482ZM193.733 224.148H194.693V227.301H199.173V224.148H200.134V231.267H199.173V228.127H194.693V231.267H193.733V224.148ZM205.314 224.094C206.244 224.094 206.956 224.329 207.453 224.798C207.949 225.258 208.197 225.943 208.197 226.855V231.267H207.277V230.157C207.06 230.527 206.74 230.815 206.316 231.023C205.901 231.231 205.405 231.334 204.827 231.334C204.033 231.334 203.402 231.145 202.933 230.766C202.463 230.387 202.229 229.886 202.229 229.264C202.229 228.659 202.445 228.172 202.878 227.802C203.321 227.432 204.02 227.247 204.976 227.247H207.236V226.814C207.236 226.201 207.065 225.736 206.722 225.42C206.379 225.095 205.878 224.933 205.22 224.933C204.769 224.933 204.336 225.01 203.921 225.163C203.505 225.307 203.149 225.51 202.851 225.772L202.418 225.055C202.779 224.748 203.212 224.513 203.718 224.351C204.223 224.18 204.755 224.094 205.314 224.094ZM204.976 230.576C205.517 230.576 205.982 230.455 206.37 230.211C206.758 229.958 207.047 229.597 207.236 229.128V227.964H205.003C203.785 227.964 203.176 228.389 203.176 229.237C203.176 229.652 203.334 229.981 203.65 230.225C203.966 230.459 204.408 230.576 204.976 230.576ZM221.239 230.428V232.985H220.333V231.267H213.959V232.985H213.052V230.428H213.458C213.936 230.4 214.261 230.049 214.432 229.372C214.604 228.695 214.721 227.748 214.784 226.53L214.879 224.148H220.13V230.428H221.239ZM215.664 226.584C215.619 227.595 215.533 228.429 215.407 229.088C215.28 229.737 215.055 230.184 214.73 230.428H219.169V225.001H215.745L215.664 226.584ZM228.931 224.148V231.267H227.971V225.001H224.56L224.465 226.76C224.393 228.24 224.222 229.376 223.951 230.17C223.68 230.964 223.198 231.361 222.503 231.361C222.314 231.361 222.084 231.325 221.813 231.253L221.881 230.428C222.043 230.464 222.156 230.482 222.219 230.482C222.589 230.482 222.868 230.31 223.058 229.967C223.247 229.625 223.374 229.201 223.437 228.695C223.5 228.19 223.554 227.522 223.599 226.692L223.721 224.148H228.931ZM237.13 224.148V231.267H236.251V228.912H234.018H233.747L232.096 231.267H231.054L232.827 228.776C232.276 228.623 231.852 228.361 231.555 227.992C231.257 227.622 231.108 227.152 231.108 226.584C231.108 225.79 231.379 225.186 231.92 224.771C232.461 224.356 233.201 224.148 234.139 224.148H237.13ZM232.082 226.611C232.082 227.667 232.755 228.195 234.099 228.195H236.251V225.001H234.167C232.777 225.001 232.082 225.537 232.082 226.611ZM34.6565 243.094C35.3241 243.094 35.9286 243.247 36.4699 243.554C37.0113 243.852 37.4353 244.276 37.7421 244.826C38.0488 245.377 38.2022 246.004 38.2022 246.707C38.2022 247.42 38.0488 248.052 37.7421 248.602C37.4353 249.152 37.0113 249.581 36.4699 249.888C35.9376 250.185 35.3331 250.334 34.6565 250.334C34.079 250.334 33.5558 250.217 33.0866 249.982C32.6265 249.739 32.2475 249.387 31.9498 248.927V252.892H30.9889V243.148H31.9092V244.556C32.1979 244.086 32.5768 243.725 33.046 243.473C33.5242 243.22 34.061 243.094 34.6565 243.094ZM34.5888 249.482C35.085 249.482 35.5361 249.369 35.9421 249.143C36.3481 248.909 36.6639 248.579 36.8895 248.155C37.124 247.731 37.2413 247.249 37.2413 246.707C37.2413 246.166 37.124 245.688 36.8895 245.273C36.6639 244.849 36.3481 244.519 35.9421 244.285C35.5361 244.05 35.085 243.933 34.5888 243.933C34.0836 243.933 33.6279 244.05 33.2219 244.285C32.825 244.519 32.5092 244.849 32.2746 245.273C32.049 245.688 31.9363 246.166 31.9363 246.707C31.9363 247.249 32.049 247.731 32.2746 248.155C32.5092 248.579 32.825 248.909 33.2219 249.143C33.6279 249.369 34.0836 249.482 34.5888 249.482ZM46.492 247.005H40.5373C40.5915 247.745 40.8757 248.345 41.3899 248.805C41.9042 249.256 42.5538 249.482 43.3387 249.482C43.7808 249.482 44.1868 249.405 44.5567 249.252C44.9266 249.089 45.2469 248.855 45.5176 248.548L46.0589 249.17C45.7432 249.549 45.3462 249.838 44.868 250.037C44.3988 250.235 43.8801 250.334 43.3117 250.334C42.5809 250.334 41.9313 250.181 41.3629 249.874C40.8035 249.558 40.3659 249.125 40.0501 248.575C39.7344 248.025 39.5765 247.402 39.5765 246.707C39.5765 246.013 39.7253 245.39 40.0231 244.84C40.3298 244.289 40.7448 243.861 41.2681 243.554C41.8004 243.247 42.3959 243.094 43.0545 243.094C43.7132 243.094 44.3041 243.247 44.8274 243.554C45.3507 243.861 45.7612 244.289 46.0589 244.84C46.3567 245.381 46.5055 246.004 46.5055 246.707L46.492 247.005ZM43.0545 243.919C42.3688 243.919 41.7914 244.141 41.3223 244.583C40.8621 245.016 40.6005 245.584 40.5373 246.288H45.5853C45.5221 245.584 45.256 245.016 44.7868 244.583C44.3267 244.141 43.7492 243.919 43.0545 243.919ZM53.6669 244.001H49.5934V250.267H48.6325V243.148H53.6669V244.001ZM55.0555 243.148H56.0164V248.805L60.7666 243.148H61.6192V250.267H60.6583V244.61L55.9217 250.267H55.0555V243.148ZM67.3503 250.334C66.6465 250.334 66.015 250.181 65.4556 249.874C64.9052 249.567 64.4722 249.139 64.1564 248.588C63.8406 248.029 63.6827 247.402 63.6827 246.707C63.6827 246.013 63.8406 245.39 64.1564 244.84C64.4722 244.289 64.9052 243.861 65.4556 243.554C66.015 243.247 66.6465 243.094 67.3503 243.094C67.9638 243.094 68.5096 243.216 68.9878 243.459C69.475 243.694 69.8584 244.041 70.1381 244.501L69.4209 244.989C69.1863 244.637 68.8885 244.375 68.5277 244.204C68.1668 244.023 67.7743 243.933 67.3503 243.933C66.836 243.933 66.3713 244.05 65.9563 244.285C65.5503 244.51 65.23 244.835 64.9955 245.259C64.7699 245.683 64.6571 246.166 64.6571 246.707C64.6571 247.258 64.7699 247.745 64.9955 248.169C65.23 248.584 65.5503 248.909 65.9563 249.143C66.3713 249.369 66.836 249.482 67.3503 249.482C67.7743 249.482 68.1668 249.396 68.5277 249.225C68.8885 249.053 69.1863 248.791 69.4209 248.44L70.1381 248.927C69.8584 249.387 69.475 249.739 68.9878 249.982C68.5006 250.217 67.9547 250.334 67.3503 250.334ZM76.8738 244.001H74.1807V250.267H73.2198V244.001H70.5267V243.148H76.8738V244.001ZM81.9306 243.094C82.5983 243.094 83.2028 243.247 83.7441 243.554C84.2854 243.852 84.7095 244.276 85.0162 244.826C85.323 245.377 85.4764 246.004 85.4764 246.707C85.4764 247.42 85.323 248.052 85.0162 248.602C84.7095 249.152 84.2854 249.581 83.7441 249.888C83.2118 250.185 82.6073 250.334 81.9306 250.334C81.3532 250.334 80.8299 250.217 80.3608 249.982C79.9006 249.739 79.5217 249.387 79.224 248.927V252.892H78.2631V243.148H79.1834V244.556C79.4721 244.086 79.851 243.725 80.3202 243.473C80.7983 243.22 81.3352 243.094 81.9306 243.094ZM81.863 249.482C82.3592 249.482 82.8103 249.369 83.2163 249.143C83.6223 248.909 83.9381 248.579 84.1636 248.155C84.3982 247.731 84.5155 247.249 84.5155 246.707C84.5155 246.166 84.3982 245.688 84.1636 245.273C83.9381 244.849 83.6223 244.519 83.2163 244.285C82.8103 244.05 82.3592 243.933 81.863 243.933C81.3577 243.933 80.9021 244.05 80.4961 244.285C80.0991 244.519 79.7833 244.849 79.5488 245.273C79.3232 245.688 79.2104 246.166 79.2104 246.707C79.2104 247.249 79.3232 247.731 79.5488 248.155C79.7833 248.579 80.0991 248.909 80.4961 249.143C80.9021 249.369 81.3577 249.482 81.863 249.482ZM89.9507 243.094C90.88 243.094 91.5928 243.329 92.089 243.798C92.5852 244.258 92.8333 244.943 92.8333 245.855V250.267H91.913V249.157C91.6965 249.527 91.3762 249.815 90.9522 250.023C90.5372 250.231 90.0409 250.334 89.4635 250.334C88.6696 250.334 88.038 250.145 87.5688 249.766C87.0997 249.387 86.8651 248.886 86.8651 248.264C86.8651 247.659 87.0816 247.172 87.5147 246.802C87.9568 246.432 88.656 246.247 89.6124 246.247H91.8724V245.814C91.8724 245.201 91.701 244.736 91.3582 244.42C91.0153 244.095 90.5146 243.933 89.856 243.933C89.4049 243.933 88.9718 244.01 88.5568 244.163C88.1418 244.307 87.7854 244.51 87.4876 244.772L87.0546 244.055C87.4155 243.748 87.8485 243.513 88.3538 243.351C88.859 243.18 89.3913 243.094 89.9507 243.094ZM89.6124 249.576C90.1537 249.576 90.6184 249.455 91.0063 249.211C91.3943 248.958 91.683 248.597 91.8724 248.128V246.964H89.6394C88.4214 246.964 87.8124 247.389 87.8124 248.237C87.8124 248.652 87.9703 248.981 88.2861 249.225C88.6019 249.459 89.044 249.576 89.6124 249.576ZM102.807 249.428V252.053H101.901V250.267H95.3912V243.148H96.3521V249.428H100.696V243.148H101.657V249.428H102.807ZM104.643 243.148H105.603V248.805L110.354 243.148H111.206V250.267H110.245V244.61L105.509 250.267H104.643V243.148ZM113.96 243.148H114.921V248.805L119.671 243.148H120.524V250.267H119.563V244.61L114.826 250.267H113.96V243.148ZM126.819 243.148H127.78V248.805L132.53 243.148H133.383V250.267H132.422V244.61L127.685 250.267H126.819V243.148ZM141.956 243.148V250.267H140.995V244.001H137.585L137.49 245.76C137.418 247.24 137.246 248.376 136.976 249.17C136.705 249.964 136.222 250.361 135.528 250.361C135.338 250.361 135.108 250.325 134.837 250.253L134.905 249.428C135.067 249.464 135.18 249.482 135.243 249.482C135.613 249.482 135.893 249.31 136.082 248.967C136.272 248.625 136.398 248.201 136.461 247.695C136.525 247.19 136.579 246.522 136.624 245.692L136.746 243.148H141.956ZM144.687 243.148H145.648V248.805L150.399 243.148H151.251V250.267H150.29V244.61L145.554 250.267H144.687V243.148ZM162.08 246.586C163.046 246.811 163.528 247.393 163.528 248.331C163.528 248.954 163.298 249.432 162.838 249.766C162.378 250.1 161.692 250.267 160.781 250.267H157.547V243.148H160.686C161.498 243.148 162.135 243.306 162.595 243.622C163.055 243.938 163.285 244.389 163.285 244.975C163.285 245.363 163.177 245.697 162.96 245.977C162.753 246.247 162.459 246.45 162.08 246.586ZM158.481 246.315H160.619C161.169 246.315 161.589 246.211 161.877 246.004C162.175 245.796 162.324 245.494 162.324 245.097C162.324 244.7 162.175 244.402 161.877 244.204C161.589 244.005 161.169 243.906 160.619 243.906H158.481V246.315ZM160.741 249.509C161.354 249.509 161.814 249.409 162.121 249.211C162.428 249.013 162.581 248.701 162.581 248.277C162.581 247.853 162.441 247.542 162.162 247.343C161.882 247.136 161.44 247.032 160.835 247.032H158.481V249.509H160.741ZM170.233 250.267L167.973 247.289L165.699 250.267H164.617L167.431 246.613L164.752 243.148H165.835L167.973 245.936L170.111 243.148H171.167L168.487 246.613L171.329 250.267H170.233ZM175.59 250.334C174.904 250.334 174.286 250.181 173.735 249.874C173.185 249.558 172.752 249.125 172.436 248.575C172.12 248.025 171.963 247.402 171.963 246.707C171.963 246.013 172.12 245.39 172.436 244.84C172.752 244.289 173.185 243.861 173.735 243.554C174.286 243.247 174.904 243.094 175.59 243.094C176.275 243.094 176.893 243.247 177.444 243.554C177.994 243.861 178.423 244.289 178.729 244.84C179.045 245.39 179.203 246.013 179.203 246.707C179.203 247.402 179.045 248.025 178.729 248.575C178.423 249.125 177.994 249.558 177.444 249.874C176.893 250.181 176.275 250.334 175.59 250.334ZM175.59 249.482C176.095 249.482 176.546 249.369 176.943 249.143C177.349 248.909 177.665 248.579 177.89 248.155C178.116 247.731 178.229 247.249 178.229 246.707C178.229 246.166 178.116 245.683 177.89 245.259C177.665 244.835 177.349 244.51 176.943 244.285C176.546 244.05 176.095 243.933 175.59 243.933C175.084 243.933 174.629 244.05 174.223 244.285C173.826 244.51 173.51 244.835 173.275 245.259C173.05 245.683 172.937 246.166 172.937 246.707C172.937 247.249 173.05 247.731 173.275 248.155C173.51 248.579 173.826 248.909 174.223 249.143C174.629 249.369 175.084 249.482 175.59 249.482ZM188.159 249.428V251.985H187.253V250.267H180.879V251.985H179.972V249.428H180.378C180.856 249.4 181.181 249.049 181.352 248.372C181.524 247.695 181.641 246.748 181.704 245.53L181.799 243.148H187.05V249.428H188.159ZM182.584 245.584C182.539 246.595 182.453 247.429 182.327 248.088C182.2 248.737 181.975 249.184 181.65 249.428H186.089V244.001H182.665L182.584 245.584ZM192.482 243.094C193.411 243.094 194.124 243.329 194.62 243.798C195.116 244.258 195.364 244.943 195.364 245.855V250.267H194.444V249.157C194.227 249.527 193.907 249.815 193.483 250.023C193.068 250.231 192.572 250.334 191.994 250.334C191.2 250.334 190.569 250.145 190.1 249.766C189.631 249.387 189.396 248.886 189.396 248.264C189.396 247.659 189.612 247.172 190.046 246.802C190.488 246.432 191.187 246.247 192.143 246.247H194.403V245.814C194.403 245.201 194.232 244.736 193.889 244.42C193.546 244.095 193.045 243.933 192.387 243.933C191.936 243.933 191.503 244.01 191.088 244.163C190.673 244.307 190.316 244.51 190.018 244.772L189.585 244.055C189.946 243.748 190.379 243.513 190.885 243.351C191.39 243.18 191.922 243.094 192.482 243.094ZM192.143 249.576C192.685 249.576 193.149 249.455 193.537 249.211C193.925 248.958 194.214 248.597 194.403 248.128V246.964H192.17C190.952 246.964 190.343 247.389 190.343 248.237C190.343 248.652 190.501 248.981 190.817 249.225C191.133 249.459 191.575 249.576 192.143 249.576Z" fill="#03153D"/>
<path d="M50.2393 404.766C50.7497 404.905 51.1479 405.149 51.4341 405.497C51.7202 405.837 51.8633 406.247 51.8633 406.726C51.8633 407.206 51.7086 407.627 51.3993 407.991C51.0977 408.347 50.6917 408.621 50.1813 408.814C49.6786 409 49.1295 409.093 48.5341 409.093C47.9927 409.093 47.4553 409.012 46.9217 408.849C46.3881 408.687 45.9009 408.443 45.4601 408.118L45.8661 407.26C46.2218 407.538 46.6201 407.747 47.0609 407.886C47.5017 408.026 47.9463 408.095 48.3949 408.095C49.0445 408.095 49.5897 407.96 50.0305 407.689C50.4713 407.411 50.6917 407.032 50.6917 406.552C50.6917 406.143 50.5254 405.829 50.1929 405.613C49.8603 405.389 49.3925 405.276 48.7893 405.276H46.9797V404.337H48.7081C49.2262 404.337 49.6283 404.232 49.9145 404.024C50.2083 403.807 50.3553 403.509 50.3553 403.13C50.3553 402.705 50.1658 402.369 49.7869 402.121C49.4079 401.874 48.9285 401.75 48.3485 401.75C47.9695 401.75 47.5829 401.804 47.1885 401.912C46.8018 402.021 46.4345 402.183 46.0865 402.4L45.7153 401.448C46.1251 401.216 46.5582 401.042 47.0145 400.926C47.4707 400.81 47.927 400.752 48.3833 400.752C48.9555 400.752 49.4814 400.841 49.9609 401.019C50.4403 401.197 50.8193 401.456 51.0977 401.796C51.3838 402.137 51.5269 402.535 51.5269 402.991C51.5269 403.401 51.4109 403.761 51.1789 404.07C50.9546 404.379 50.6414 404.611 50.2393 404.766ZM55.8026 402.794C56.6533 402.794 57.3029 403.003 57.7514 403.42C58.2077 403.838 58.4358 404.461 58.4358 405.288V409H57.3802V408.188C57.1946 408.474 56.9278 408.695 56.5798 408.849C56.2396 408.996 55.8336 409.07 55.3618 409.07C54.6736 409.07 54.1206 408.903 53.703 408.571C53.2932 408.238 53.0882 407.801 53.0882 407.26C53.0882 406.719 53.2854 406.286 53.6798 405.961C54.0742 405.628 54.7006 405.462 55.559 405.462H57.3222V405.242C57.3222 404.762 57.183 404.395 56.9046 404.14C56.6262 403.884 56.2164 403.757 55.675 403.757C55.3116 403.757 54.9558 403.819 54.6078 403.942C54.2598 404.058 53.966 404.217 53.7262 404.418L53.2622 403.583C53.5793 403.328 53.9582 403.134 54.399 403.003C54.8398 402.864 55.3077 402.794 55.8026 402.794ZM55.5474 408.211C55.9728 408.211 56.3401 408.118 56.6494 407.933C56.9588 407.739 57.183 407.469 57.3222 407.121V406.262H55.6054C54.662 406.262 54.1902 406.579 54.1902 407.214C54.1902 407.523 54.3101 407.767 54.5498 407.944C54.7896 408.122 55.1221 408.211 55.5474 408.211ZM63.5731 403.061C64.1454 403.061 64.6558 403.188 65.1043 403.444C65.5528 403.699 65.9008 404.055 66.1483 404.511C66.4035 404.959 66.5311 405.474 66.5311 406.054C66.5311 406.649 66.3958 407.179 66.1251 407.643C65.8622 408.099 65.4871 408.455 64.9999 408.71C64.5204 408.965 63.9714 409.093 63.3527 409.093C62.3087 409.093 61.5006 408.737 60.9283 408.026C60.3638 407.306 60.0815 406.297 60.0815 404.998C60.0815 403.737 60.3406 402.751 60.8587 402.04C61.3768 401.321 62.1695 400.845 63.2367 400.613L66.0439 399.987L66.2063 401.008L63.6195 401.564C62.8152 401.742 62.2159 402.044 61.8215 402.469C61.4271 402.895 61.2028 403.505 61.1487 404.302C61.4116 403.908 61.7519 403.602 62.1695 403.386C62.5871 403.169 63.055 403.061 63.5731 403.061ZM63.3759 408.165C63.7703 408.165 64.1183 408.076 64.4199 407.898C64.7292 407.72 64.969 407.477 65.1391 407.167C65.3092 406.85 65.3943 406.491 65.3943 406.088C65.3943 405.477 65.2087 404.986 64.8375 404.615C64.4663 404.244 63.9791 404.058 63.3759 404.058C62.7727 404.058 62.2816 404.244 61.9027 404.615C61.5315 404.986 61.3459 405.477 61.3459 406.088C61.3459 406.491 61.431 406.85 61.6011 407.167C61.779 407.477 62.0226 407.72 62.3319 407.898C62.6412 408.076 62.9892 408.165 63.3759 408.165ZM70.894 404.94C71.6673 404.948 72.2589 405.126 72.6688 405.474C73.0786 405.822 73.2836 406.313 73.2836 406.947C73.2836 407.612 73.0593 408.126 72.6108 408.49C72.17 408.845 71.5358 409.019 70.7084 409.012L68.1216 409V402.852H69.2352V404.928L70.894 404.94ZM74.2 402.852H75.3136V409H74.2V402.852ZM70.6272 408.165C71.1298 408.173 71.5088 408.072 71.764 407.863C72.0269 407.654 72.1584 407.345 72.1584 406.935C72.1584 406.533 72.0308 406.239 71.7756 406.054C71.5204 405.868 71.1376 405.771 70.6272 405.764L69.2352 405.74V408.153L70.6272 408.165ZM82.7566 402.852V409H81.643V403.826H78.9982L78.9286 405.195C78.8899 406.023 78.8165 406.715 78.7082 407.272C78.5999 407.821 78.4221 408.261 78.1746 408.594C77.9271 408.927 77.583 409.093 77.1422 409.093C76.9411 409.093 76.713 409.058 76.4578 408.988L76.5274 408.049C76.6279 408.072 76.7207 408.084 76.8058 408.084C77.1151 408.084 77.3471 407.948 77.5018 407.678C77.6565 407.407 77.757 407.086 77.8034 406.715C77.8498 406.344 77.8923 405.814 77.931 405.126L78.0354 402.852H82.7566ZM84.9099 402.852H86.0235V407.33L89.7935 402.852H90.8027V409H89.6891V404.522L85.9307 409H84.9099V402.852ZM101.775 402.852V409H100.661V403.826H97.193V409H96.0794V402.852H101.775ZM106.122 402.794C106.973 402.794 107.622 403.003 108.071 403.42C108.527 403.838 108.755 404.461 108.755 405.288V409H107.7V408.188C107.514 408.474 107.247 408.695 106.899 408.849C106.559 408.996 106.153 409.07 105.681 409.07C104.993 409.07 104.44 408.903 104.023 408.571C103.613 408.238 103.408 407.801 103.408 407.26C103.408 406.719 103.605 406.286 103.999 405.961C104.394 405.628 105.02 405.462 105.879 405.462H107.642V405.242C107.642 404.762 107.503 404.395 107.224 404.14C106.946 403.884 106.536 403.757 105.995 403.757C105.631 403.757 105.275 403.819 104.927 403.942C104.579 404.058 104.286 404.217 104.046 404.418L103.582 403.583C103.899 403.328 104.278 403.134 104.719 403.003C105.159 402.864 105.627 402.794 106.122 402.794ZM105.867 408.211C106.292 408.211 106.66 408.118 106.969 407.933C107.278 407.739 107.503 407.469 107.642 407.121V406.262H105.925C104.982 406.262 104.51 406.579 104.51 407.214C104.51 407.523 104.63 407.767 104.869 407.944C105.109 408.122 105.442 408.211 105.867 408.211ZM114.02 402.794C114.616 402.794 115.149 402.925 115.621 403.188C116.093 403.451 116.46 403.819 116.723 404.29C116.994 404.762 117.129 405.307 117.129 405.926C117.129 406.545 116.994 407.094 116.723 407.573C116.46 408.045 116.093 408.412 115.621 408.675C115.149 408.938 114.616 409.07 114.02 409.07C113.579 409.07 113.173 408.985 112.802 408.814C112.439 408.644 112.129 408.397 111.874 408.072V411.25H110.761V402.852H111.828V403.826C112.075 403.486 112.388 403.231 112.767 403.061C113.146 402.883 113.564 402.794 114.02 402.794ZM113.927 408.095C114.322 408.095 114.674 408.006 114.983 407.828C115.3 407.643 115.548 407.388 115.725 407.063C115.911 406.73 116.004 406.351 116.004 405.926C116.004 405.501 115.911 405.126 115.725 404.801C115.548 404.468 115.3 404.213 114.983 404.035C114.674 403.857 114.322 403.768 113.927 403.768C113.541 403.768 113.189 403.861 112.872 404.047C112.562 404.225 112.315 404.476 112.129 404.801C111.952 405.126 111.863 405.501 111.863 405.926C111.863 406.351 111.952 406.73 112.129 407.063C112.307 407.388 112.555 407.643 112.872 407.828C113.189 408.006 113.541 408.095 113.927 408.095ZM121.38 409.07C120.769 409.07 120.22 408.934 119.733 408.664C119.246 408.393 118.863 408.022 118.585 407.55C118.314 407.071 118.179 406.529 118.179 405.926C118.179 405.323 118.314 404.785 118.585 404.314C118.863 403.834 119.246 403.463 119.733 403.2C120.22 402.929 120.769 402.794 121.38 402.794C121.991 402.794 122.536 402.929 123.016 403.2C123.503 403.463 123.882 403.834 124.153 404.314C124.431 404.785 124.57 405.323 124.57 405.926C124.57 406.529 124.431 407.071 124.153 407.55C123.882 408.022 123.503 408.393 123.016 408.664C122.536 408.934 121.991 409.07 121.38 409.07ZM121.38 408.095C121.775 408.095 122.126 408.006 122.436 407.828C122.753 407.643 123 407.388 123.178 407.063C123.356 406.73 123.445 406.351 123.445 405.926C123.445 405.501 123.356 405.126 123.178 404.801C123 404.468 122.753 404.213 122.436 404.035C122.126 403.857 121.775 403.768 121.38 403.768C120.986 403.768 120.63 403.857 120.313 404.035C120.004 404.213 119.756 404.468 119.571 404.801C119.393 405.126 119.304 405.501 119.304 405.926C119.304 406.351 119.393 406.73 119.571 407.063C119.756 407.388 120.004 407.643 120.313 407.828C120.63 408.006 120.986 408.095 121.38 408.095ZM131.411 402.852V409H130.297V403.826H127.652L127.583 405.195C127.544 406.023 127.471 406.715 127.363 407.272C127.254 407.821 127.076 408.261 126.829 408.594C126.581 408.927 126.237 409.093 125.797 409.093C125.595 409.093 125.367 409.058 125.112 408.988L125.182 408.049C125.282 408.072 125.375 408.084 125.46 408.084C125.769 408.084 126.001 407.948 126.156 407.678C126.311 407.407 126.411 407.086 126.458 406.715C126.504 406.344 126.547 405.814 126.585 405.126L126.69 402.852H131.411ZM136.406 404.94C137.187 404.948 137.783 405.126 138.193 405.474C138.602 405.822 138.807 406.313 138.807 406.947C138.807 407.612 138.583 408.126 138.135 408.49C137.694 408.845 137.06 409.019 136.232 409.012L133.564 409V402.852H134.678V404.928L136.406 404.94ZM136.139 408.165C136.642 408.173 137.021 408.072 137.276 407.863C137.539 407.654 137.671 407.345 137.671 406.935C137.671 406.533 137.543 406.239 137.288 406.054C137.04 405.868 136.657 405.771 136.139 405.764L134.678 405.74V408.153L136.139 408.165ZM141.304 406.436C141.304 406.127 141.354 405.856 141.455 405.624C141.563 405.385 141.691 405.184 141.838 405.021C141.992 404.859 142.193 404.665 142.441 404.441C142.75 404.171 142.978 403.939 143.125 403.745C143.272 403.544 143.346 403.304 143.346 403.026C143.346 402.647 143.199 402.345 142.905 402.121C142.611 401.889 142.205 401.773 141.687 401.773C140.782 401.773 140.09 402.079 139.61 402.69L138.764 402.086C139.088 401.669 139.502 401.348 140.005 401.124C140.515 400.899 141.103 400.787 141.768 400.787C142.611 400.787 143.28 400.973 143.775 401.344C144.27 401.707 144.517 402.21 144.517 402.852C144.517 403.169 144.463 403.451 144.355 403.699C144.254 403.939 144.131 404.14 143.984 404.302C143.837 404.464 143.639 404.658 143.392 404.882C143.075 405.168 142.839 405.419 142.684 405.636C142.537 405.853 142.464 406.119 142.464 406.436H141.304ZM141.896 409.07C141.679 409.07 141.497 409 141.35 408.861C141.211 408.714 141.142 408.536 141.142 408.327C141.142 408.118 141.211 407.944 141.35 407.805C141.497 407.658 141.679 407.585 141.896 407.585C142.112 407.585 142.29 407.658 142.429 407.805C142.568 407.944 142.638 408.118 142.638 408.327C142.638 408.536 142.565 408.714 142.418 408.861C142.278 409 142.104 409.07 141.896 409.07Z" fill="#0068FF"/>
<rect width="348" height="23.2" transform="translate(3.15527 21)" fill="white"/>
<g opacity="0.9">
<path d="M314.128 37.8667H312.529V30.1419L310.17 30.948V29.5934L313.923 28.2123H314.128V37.8667ZM323.941 37.8667H317.472V36.7632L320.677 33.2675C321.139 32.7521 321.467 32.3225 321.661 31.9789C321.859 31.6309 321.959 31.2829 321.959 30.9348C321.959 30.4767 321.829 30.1066 321.569 29.8247C321.313 29.5427 320.967 29.4018 320.531 29.4018C320.011 29.4018 319.608 29.5604 319.322 29.8775C319.036 30.1947 318.892 30.6287 318.892 31.1793H317.287C317.287 30.5934 317.419 30.067 317.683 29.6C317.952 29.1286 318.333 28.763 318.826 28.5031C319.324 28.2431 319.897 28.1132 320.544 28.1132C321.478 28.1132 322.214 28.3489 322.752 28.8202C323.293 29.2872 323.564 29.9348 323.564 30.763C323.564 31.2432 323.428 31.7476 323.155 32.2763C322.886 32.8005 322.443 33.3974 321.826 34.0671L319.474 36.5847H323.941V37.8667ZM326.234 36.175C326.534 36.175 326.765 36.2609 326.928 36.4327C327.091 36.6002 327.172 36.8116 327.172 37.0671C327.172 37.3182 327.091 37.5275 326.928 37.6949C326.765 37.8579 326.534 37.9394 326.234 37.9394C325.948 37.9394 325.721 37.8579 325.553 37.6949C325.386 37.5319 325.302 37.3226 325.302 37.0671C325.302 36.8116 325.384 36.6002 325.547 36.4327C325.71 36.2609 325.939 36.175 326.234 36.175ZM326.234 30.5648C326.534 30.5648 326.765 30.6507 326.928 30.8225C327.091 30.9899 327.172 31.2014 327.172 31.4569C327.172 31.708 327.091 31.9172 326.928 32.0846C326.765 32.2476 326.534 32.3291 326.234 32.3291C325.948 32.3291 325.721 32.2476 325.553 32.0846C325.386 31.9216 325.302 31.7124 325.302 31.4569C325.302 31.2014 325.384 30.9899 325.547 30.8225C325.71 30.6507 325.939 30.5648 326.234 30.5648ZM330.615 32.3225H331.593C332.087 32.3181 332.476 32.1904 332.763 31.9393C333.054 31.6882 333.199 31.3247 333.199 30.8489C333.199 30.3908 333.078 30.0361 332.835 29.785C332.598 29.5295 332.232 29.4018 331.739 29.4018C331.307 29.4018 330.952 29.5273 330.675 29.7784C330.397 30.0251 330.258 30.3489 330.258 30.7498H328.653C328.653 30.2564 328.783 29.8071 329.042 29.4018C329.307 28.9965 329.672 28.6815 330.139 28.4568C330.611 28.2277 331.137 28.1132 331.719 28.1132C332.679 28.1132 333.432 28.3555 333.979 28.8401C334.529 29.3203 334.805 29.9899 334.805 30.8489C334.805 31.2807 334.666 31.6882 334.388 32.0714C334.115 32.4503 333.761 32.7366 333.324 32.9305C333.853 33.1111 334.254 33.3952 334.527 33.7829C334.805 34.1706 334.943 34.6331 334.943 35.1706C334.943 36.0341 334.646 36.7213 334.051 37.2323C333.461 37.7433 332.683 37.9989 331.719 37.9989C330.794 37.9989 330.036 37.7522 329.446 37.2588C328.855 36.7654 328.56 36.109 328.56 35.2896H330.166C330.166 35.7125 330.307 36.0561 330.589 36.3204C330.875 36.5847 331.258 36.7169 331.739 36.7169C332.236 36.7169 332.628 36.5847 332.915 36.3204C333.201 36.0561 333.344 35.6728 333.344 35.1706C333.344 34.664 333.194 34.2741 332.895 34.001C332.595 33.7278 332.15 33.5913 331.56 33.5913H330.615V32.3225ZM342.721 33.816C342.721 35.1992 342.461 36.2433 341.941 36.9482C341.426 37.6486 340.64 37.9989 339.582 37.9989C338.543 37.9989 337.758 37.6574 337.23 36.9746C336.706 36.2874 336.437 35.2719 336.424 33.9283V32.2631C336.424 30.8798 336.681 29.8423 337.197 29.1507C337.717 28.459 338.507 28.1132 339.569 28.1132C340.622 28.1132 341.406 28.4502 341.922 29.1242C342.441 29.7982 342.708 30.8071 342.721 32.1507V33.816ZM341.115 32.0186C341.115 31.1155 340.992 30.4546 340.745 30.0361C340.499 29.6132 340.107 29.4018 339.569 29.4018C339.045 29.4018 338.659 29.6022 338.413 30.0031C338.166 30.3996 338.036 31.0207 338.023 31.8666V34.0472C338.023 34.9459 338.148 35.6155 338.399 36.0561C338.651 36.4966 339.045 36.7169 339.582 36.7169C340.098 36.7169 340.479 36.5142 340.725 36.109C340.972 35.6993 341.102 35.0605 341.115 34.1926V32.0186Z" fill="black"/>
</g>
<path fill-rule="evenodd" clip-rule="evenodd" d="M298.955 26.6791V25.8333L296.055 25.8333V26.6791H293.155V39.3666H301.855V26.6791H298.955Z" fill="black"/>
<path fill-rule="evenodd" clip-rule="evenodd" d="M270.922 39.3666H284.455V25.8333L270.922 39.3666Z" fill="black"/>
<path fill-rule="evenodd" clip-rule="evenodd" d="M251.566 28.7486L260.288 39.3666L269.01 28.7487C266.583 26.9184 263.562 25.8333 260.288 25.8333C257.014 25.8333 253.994 26.9184 251.566 28.7486Z" fill="black"/>
</g>
<defs>
<filter id="filter0_ii" x="-4.5482" y="-12.0946" width="389.638" height="794.95" filterUnits="userSpaceOnUse" color-interpolation-filters="sRGB">
<feFlood flood-opacity="0" result="BackgroundImageFix"/>
<feBlend mode="normal" in="SourceGraphic" in2="BackgroundImageFix" result="shape"/>
<feColorMatrix in="SourceAlpha" type="matrix" values="0 0 0 0 0 0 0 0 0 0 0 0 0 0 0 0 0 0 127 0" result="hardAlpha"/>
<feOffset dx="9.27553" dy="1.85511"/>
<feGaussianBlur stdDeviation="9.27553"/>
<feComposite in2="hardAlpha" operator="arithmetic" k2="-1" k3="1"/>
<feColorMatrix type="matrix" values="0 0 0 0 1 0 0 0 0 1 0 0 0 0 1 0 0 0 1 0"/>
<feBlend mode="normal" in2="shape" result="effect1_innerShadow"/>
<feColorMatrix in="SourceAlpha" type="matrix" values="0 0 0 0 0 0 0 0 0 0 0 0 0 0 0 0 0 0 127 0" result="hardAlpha"/>
<feOffset dx="-4.70347" dy="-12.0946"/>
<feGaussianBlur stdDeviation="9.27553"/>
<feComposite in2="hardAlpha" operator="arithmetic" k2="-1" k3="1"/>
<feColorMatrix type="matrix" values="0 0 0 0 0.399479 0 0 0 0 0.514406 0 0 0 0 0.7375 0 0 0 0.25 0"/>
<feBlend mode="normal" in2="effect1_innerShadow" result="effect2_innerShadow"/>
</filter>
<clipPath id="clip0">
<rect width="23.2" height="15.4667" fill="white" transform="translate(45.0889 293.6)"/>
</clipPath>
</defs>
</svg>
