<svg width="371" height="236" viewBox="0 0 371 236" fill="none" xmlns="http://www.w3.org/2000/svg">
<rect x="370.129" width="236" height="370.129" rx="10.187" transform="rotate(90 370.129 0)" fill="url(#paint0_linear)"/>
<mask id="mask0" mask-type="alpha" maskUnits="userSpaceOnUse" x="0" y="0" width="371" height="236">
<rect x="370.129" width="236" height="370.129" rx="10.187" transform="rotate(90 370.129 0)" fill="url(#paint1_linear)"/>
</mask>
<g mask="url(#mask0)">
<path fill-rule="evenodd" clip-rule="evenodd" d="M286.896 194.613C285.3 198.93 283.872 202.225 283.721 201.934C283.571 201.644 282.919 198.637 282.273 195.252C281.626 191.867 280.83 188.667 280.504 188.142C279.935 187.225 279.681 187.188 274.085 187.209L268.259 187.231L270.806 188.21C272.206 188.749 273.669 189.326 274.056 189.492C274.468 189.669 275.05 190.885 275.458 192.417C275.842 193.86 277.074 198.478 278.198 202.68L280.24 210.32L283.385 210.442L286.53 210.565L291.067 199.406C293.562 193.27 295.727 187.914 295.878 187.505C296.123 186.84 295.822 186.763 292.975 186.763H289.797L286.896 194.613ZM298.404 188.142C298.271 188.901 297.501 193.628 296.693 198.647C295.884 203.667 295.117 208.394 294.986 209.153L294.749 210.532H297.732C300.476 210.532 300.731 210.456 300.934 209.577C301.213 208.364 304.55 187.668 304.55 187.149C304.55 186.937 303.222 186.763 301.598 186.763H298.646L298.404 188.142ZM312.456 187.386C308.987 188.623 306.668 192.196 307.266 195.385C307.597 197.15 309.892 199.387 312.971 200.948C315.925 202.444 316.459 204.117 314.334 205.216C312.645 206.089 310.094 206.031 307.545 205.062L305.437 204.261L305.17 206.23C305.023 207.312 304.818 208.508 304.715 208.887C304.459 209.825 307.362 210.532 311.466 210.532C316.626 210.532 319.684 208.961 321.202 205.528C322.918 201.649 321.505 198.945 316.223 196.002C313.275 194.36 312.764 193.183 314.504 192.043C315.592 191.33 318.633 191.343 320.957 192.072C321.945 192.382 322.074 192.152 322.572 189.2C322.816 187.759 322.735 187.565 321.733 187.184C320.131 186.575 314.379 186.701 312.456 187.386ZM332.715 187.047C332.214 187.15 331.516 187.558 331.163 187.954C330.689 188.485 324.027 203.919 321.645 210.002C321.49 210.398 322.248 210.532 324.631 210.532H327.825L328.425 208.728L329.025 206.924L332.905 206.803L336.785 206.681L337.049 207.864C337.668 210.642 337.529 210.532 340.435 210.532H343.155L342.88 209.153C342.729 208.394 341.635 203.094 340.45 197.374L338.295 186.975L335.96 186.918C334.676 186.886 333.216 186.944 332.715 187.047ZM335.051 198.117L335.85 202.043H333.313C331.066 202.043 330.81 201.958 331.075 201.3C331.239 200.892 331.965 198.95 332.688 196.985C333.411 195.02 334.059 193.587 334.127 193.801C334.195 194.015 334.61 195.958 335.051 198.117Z" fill="white"/>
</g>
<rect x="31.5" y="72.5" width="44.9988" height="33.963" rx="3.5" fill="url(#paint2_linear)" stroke="#666666"/>
<path fill-rule="evenodd" clip-rule="evenodd" d="M46.2337 94.6631C46.2643 99.0052 50.3585 104.182 53.1784 105.855C53.2328 105.883 53.2807 105.922 53.3188 105.97C53.357 106.018 53.3846 106.074 53.3998 106.133C53.4151 106.192 53.4177 106.254 53.4075 106.315C53.3972 106.375 53.3744 106.433 53.3404 106.484C53.2991 106.552 53.2408 106.609 53.171 106.649C53.1012 106.689 53.0223 106.71 52.9419 106.711C52.86 106.711 52.7796 106.688 52.7099 106.645C49.7017 104.876 45.5856 99.7041 45.3229 95.0737H31.4598C31.345 95.0625 31.2385 95.0092 31.161 94.924C31.0836 94.8388 31.0407 94.7279 31.0407 94.6128C31.0407 94.4978 31.0836 94.3869 31.161 94.3017C31.2385 94.2165 31.345 94.1632 31.4598 94.152H45.4105C46.2842 91.0969 46.2842 87.8589 45.4105 84.8039H31.4598C31.3378 84.8039 31.2209 84.7555 31.1347 84.6695C31.0484 84.5835 31 84.4668 31 84.3452C31 84.2235 31.0484 84.1069 31.1347 84.0209C31.2209 83.9348 31.3378 83.8865 31.4598 83.8865H45.3229C45.5856 79.2387 49.7192 74.0841 52.7099 72.3149C52.8173 72.2529 52.945 72.2361 53.0649 72.268C53.1848 72.3 53.287 72.3781 53.3492 72.4853C53.4113 72.5924 53.4282 72.7198 53.3962 72.8394C53.3642 72.9591 53.2858 73.0611 53.1784 73.123C50.3585 74.7743 46.2643 79.9551 46.2337 84.3015C47.2366 87.6829 47.2366 91.2817 46.2337 94.6631ZM60.4646 79.6755C58.8927 76.5434 56.423 74.0841 54.7985 73.123C54.6911 73.0611 54.6128 72.9591 54.5807 72.8394C54.5487 72.7198 54.5656 72.5924 54.6278 72.4853C54.6899 72.3781 54.7921 72.3 54.912 72.268C55.0319 72.2361 55.1596 72.2529 55.2671 72.3149C57.3951 73.5599 59.8691 76.4167 61.2878 79.2387C61.322 79.2927 61.3439 79.3535 61.3519 79.4169C61.3599 79.4803 61.3539 79.5447 61.3343 79.6055C61.3146 79.6663 61.2819 79.7221 61.2383 79.7689C61.1947 79.8157 61.1414 79.8524 61.082 79.8764C61.0188 79.9105 60.9481 79.9285 60.8762 79.9288C60.7908 79.9289 60.707 79.9053 60.6343 79.8605C60.5616 79.8158 60.5029 79.7517 60.4646 79.6755ZM76.5391 94.152H62.5621C61.6883 91.0969 61.6883 87.8589 62.5621 84.8039H76.5391C76.661 84.8039 76.7779 84.7555 76.8642 84.6695C76.9504 84.5835 76.9988 84.4668 76.9988 84.3452C76.9988 84.2235 76.9504 84.1069 76.8642 84.0209C76.7779 83.9348 76.661 83.8865 76.5391 83.8865H62.2074C62.1077 83.8876 62.0111 83.9211 61.9321 83.9817C61.8532 84.0424 61.7961 84.127 61.7695 84.2229C60.7515 87.6288 60.7515 91.2571 61.7695 94.6631C61.7389 99.0052 57.6447 104.182 54.8248 105.855C54.7689 105.881 54.7194 105.92 54.6795 105.967C54.6395 106.014 54.6101 106.069 54.5931 106.129C54.5762 106.188 54.572 106.251 54.581 106.312C54.59 106.373 54.6119 106.432 54.6453 106.484C54.6866 106.552 54.7449 106.609 54.8147 106.649C54.8845 106.689 54.9634 106.71 55.0437 106.711C55.1257 106.711 55.2061 106.688 55.2758 106.645C58.2665 104.898 62.4001 99.7041 62.6628 95.0737H76.5391C76.6538 95.0625 76.7603 95.0092 76.8378 94.924C76.9153 94.8388 76.9582 94.7279 76.9582 94.6128C76.9582 94.4978 76.9153 94.3869 76.8378 94.3017C76.7603 94.2165 76.6538 94.1632 76.5391 94.152ZM53.5311 74.8166C53.6665 74.7263 53.8257 74.6782 53.9885 74.6782C54.2068 74.6782 54.4162 74.7647 54.5706 74.9187C54.7249 75.0727 54.8117 75.2816 54.8117 75.4994C54.8117 75.6618 54.7634 75.8206 54.6729 75.9557C54.5825 76.0907 54.4539 76.196 54.3035 76.2581C54.1531 76.3203 53.9876 76.3366 53.8279 76.3049C53.6682 76.2732 53.5215 76.195 53.4064 76.0801C53.2912 75.9653 53.2128 75.8189 53.1811 75.6596C53.1493 75.5003 53.1656 75.3352 53.2279 75.1851C53.2902 75.0351 53.3957 74.9068 53.5311 74.8166Z" fill="#666666"/>
<path d="M303.572 43.2815C303.916 43.7117 304.174 44.228 304.347 44.7443C304.519 45.2606 304.605 45.8629 304.605 46.4652C304.605 47.0675 304.519 47.6699 304.347 48.1861C304.174 48.7024 303.916 49.2187 303.572 49.6489C303.142 50.2513 303.228 51.1117 303.83 51.542C304.433 51.9722 305.293 51.8861 305.723 51.2838C306.24 50.5954 306.584 49.9071 306.928 49.0466C307.272 48.1861 307.358 47.3257 307.358 46.4652C307.358 45.6047 307.186 44.7443 306.928 43.8838C306.67 43.1094 306.24 42.335 305.723 41.6466C305.293 41.0443 304.433 40.9582 303.83 41.3885C303.228 41.8187 303.142 42.6792 303.572 43.2815Z" fill="white"/>
<path d="M308.305 40.7861C309.337 42.421 309.94 44.4001 309.94 46.4652C309.94 48.5303 309.337 50.5094 308.305 52.1443C307.874 52.7466 308.133 53.6071 308.735 54.0373C309.423 54.4675 310.198 54.2094 310.628 53.6071C311.919 51.5419 312.693 49.1326 312.693 46.4652C312.693 43.8838 311.919 41.3885 310.628 39.3233C310.198 38.721 309.337 38.4629 308.735 38.8931C308.133 39.3233 307.874 40.0978 308.305 40.7861Z" fill="white"/>
<path d="M313.295 38.2047C314.758 40.614 315.533 43.4536 315.533 46.4652C315.533 49.4768 314.672 52.3164 313.295 54.7257C312.951 55.414 313.123 56.1885 313.812 56.6187C314.5 56.9629 315.274 56.7908 315.705 56.1024C317.426 53.2629 318.372 49.9931 318.372 46.4652C318.372 42.9373 317.426 39.6675 315.705 36.828C315.36 36.1396 314.5 35.9675 313.812 36.3117C313.123 36.7419 312.951 37.5164 313.295 38.2047Z" fill="white"/>
<path d="M318.286 35.6233C320.093 38.8071 321.212 42.5071 321.212 46.4652C321.212 50.4233 320.179 54.1233 318.286 57.3071C317.942 57.9954 318.114 58.7699 318.802 59.2001C319.491 59.5443 320.265 59.3722 320.695 58.6838C322.76 55.0699 323.965 50.9396 323.965 46.4652C323.965 41.9908 322.76 37.8606 320.695 34.2466C320.351 33.5582 319.491 33.3861 318.802 33.7303C318.114 34.0745 317.942 34.935 318.286 35.6233Z" fill="white"/>
<g filter="url(#filter0_d)">
<path d="M34.3876 182.092V189.32H33.2828L29.2971 184.425V189.32H27.9651V182.092H29.0699L33.0556 186.986V182.092H34.3876Z" fill="white"/>
<path d="M36.2813 182.092H37.6237V189.32H36.2813V182.092Z" fill="white"/>
<path d="M42.8811 189.423C42.1515 189.423 41.4906 189.264 40.8986 188.948C40.3135 188.624 39.8523 188.18 39.515 187.616C39.1846 187.051 39.0194 186.415 39.0194 185.706C39.0194 184.997 39.188 184.36 39.5253 183.795C39.8626 183.231 40.3238 182.79 40.909 182.474C41.501 182.15 42.1618 181.988 42.8915 181.988C43.4835 181.988 44.0238 182.092 44.5126 182.298C45.0013 182.505 45.4144 182.804 45.7517 183.196L44.8843 184.012C44.3611 183.448 43.7175 183.166 42.9534 183.166C42.4578 183.166 42.0138 183.276 41.6214 183.496C41.229 183.709 40.9227 184.009 40.7024 184.394C40.4822 184.78 40.372 185.217 40.372 185.706C40.372 186.194 40.4822 186.631 40.7024 187.017C40.9227 187.402 41.229 187.705 41.6214 187.926C42.0138 188.139 42.4578 188.246 42.9534 188.246C43.7175 188.246 44.3611 187.96 44.8843 187.389L45.7517 188.215C45.4144 188.607 44.9979 188.907 44.5023 189.113C44.0135 189.32 43.4731 189.423 42.8811 189.423Z" fill="white"/>
<path d="M49.4833 186.294L48.3371 187.471V189.32H46.9948V182.092H48.3371V185.799L51.9098 182.092H53.4173L50.3816 185.324L53.6032 189.32H52.0337L49.4833 186.294Z" fill="white"/>
<path d="M60.6612 189.423C59.9247 189.423 59.2604 189.264 58.6684 188.948C58.0764 188.624 57.6117 188.18 57.2744 187.616C56.9371 187.044 56.7685 186.408 56.7685 185.706C56.7685 185.003 56.9371 184.37 57.2744 183.806C57.6117 183.234 58.0764 182.79 58.6684 182.474C59.2604 182.15 59.9247 181.988 60.6612 181.988C61.3978 181.988 62.0621 182.15 62.6541 182.474C63.2461 182.79 63.7107 183.231 64.048 183.795C64.3853 184.36 64.554 184.997 64.554 185.706C64.554 186.415 64.3853 187.051 64.048 187.616C63.7107 188.18 63.2461 188.624 62.6541 188.948C62.0621 189.264 61.3978 189.423 60.6612 189.423ZM60.6612 188.246C61.1431 188.246 61.5768 188.139 61.9623 187.926C62.3477 187.705 62.6506 187.402 62.8709 187.017C63.0912 186.625 63.2013 186.187 63.2013 185.706C63.2013 185.224 63.0912 184.79 62.8709 184.405C62.6506 184.012 62.3477 183.709 61.9623 183.496C61.5768 183.276 61.1431 183.166 60.6612 183.166C60.1794 183.166 59.7457 183.276 59.3602 183.496C58.9747 183.709 58.6718 184.012 58.4516 184.405C58.2313 184.79 58.1211 185.224 58.1211 185.706C58.1211 186.187 58.2313 186.625 58.4516 187.017C58.6718 187.402 58.9747 187.705 59.3602 187.926C59.7457 188.139 60.1794 188.246 60.6612 188.246Z" fill="white"/>
<path d="M72.3563 182.092V189.32H71.014V186.222H67.2761V189.32H65.9338V182.092H67.2761V185.076H71.014V182.092H72.3563Z" fill="white"/>
<path d="M80.8894 189.32L80.8791 184.528L78.5042 188.494H77.9053L75.5304 184.59V189.32H74.25V182.092H75.3549L78.2254 186.883L81.0443 182.092H82.1491L82.1594 189.32H80.8894Z" fill="white"/>
<path d="M87.1871 186.769V189.32H85.8448V186.79L83.0052 182.092H84.4405L86.5572 185.613L88.6946 182.092H90.0163L87.1871 186.769Z" fill="white"/>
</g>
<g filter="url(#filter1_d)">
<path d="M129.958 189.51C129.379 189.51 128.863 189.366 128.409 189.077C127.955 188.781 127.597 188.354 127.335 187.796C127.073 187.232 126.943 186.564 126.943 185.793C126.943 185.022 127.073 184.358 127.335 183.8C127.597 183.236 127.955 182.809 128.409 182.52C128.863 182.224 129.379 182.076 129.958 182.076C130.536 182.076 131.052 182.224 131.507 182.52C131.968 182.809 132.329 183.236 132.591 183.8C132.852 184.358 132.983 185.022 132.983 185.793C132.983 186.564 132.852 187.232 132.591 187.796C132.329 188.354 131.968 188.781 131.507 189.077C131.052 189.366 130.536 189.51 129.958 189.51ZM129.958 188.343C130.474 188.343 130.88 188.13 131.176 187.703C131.479 187.276 131.63 186.64 131.63 185.793C131.63 184.946 131.479 184.31 131.176 183.883C130.88 183.456 130.474 183.243 129.958 183.243C129.448 183.243 129.042 183.456 128.739 183.883C128.443 184.31 128.295 184.946 128.295 185.793C128.295 186.64 128.443 187.276 128.739 187.703C129.042 188.13 129.448 188.343 129.958 188.343ZM136.108 184.977C137.127 184.977 137.881 185.177 138.37 185.576C138.859 185.969 139.103 186.505 139.103 187.187C139.103 187.621 138.996 188.013 138.783 188.364C138.569 188.715 138.249 188.994 137.823 189.2C137.396 189.407 136.869 189.51 136.243 189.51C135.726 189.51 135.227 189.438 134.745 189.293C134.264 189.142 133.857 188.935 133.527 188.674L134.095 187.631C134.363 187.851 134.684 188.027 135.055 188.158C135.434 188.281 135.823 188.343 136.222 188.343C136.697 188.343 137.069 188.247 137.337 188.054C137.613 187.855 137.75 187.583 137.75 187.239C137.75 186.867 137.602 186.588 137.306 186.402C137.017 186.209 136.518 186.113 135.809 186.113H134.064L134.436 182.179H138.68V183.305H135.572L135.417 184.977H136.108ZM145.288 180.713H146.445L143.037 190.44H141.881L145.288 180.713ZM154.479 188.271V189.407H149.151V188.509L152.022 185.783C152.345 185.473 152.562 185.204 152.672 184.977C152.789 184.743 152.848 184.513 152.848 184.285C152.848 183.948 152.734 183.69 152.507 183.511C152.28 183.332 151.946 183.243 151.505 183.243C150.769 183.243 150.204 183.494 149.812 183.996L148.872 183.274C149.155 182.895 149.533 182.602 150.008 182.396C150.49 182.183 151.027 182.076 151.619 182.076C152.404 182.076 153.03 182.262 153.498 182.633C153.966 183.005 154.2 183.511 154.2 184.151C154.2 184.544 154.118 184.912 153.953 185.256C153.787 185.6 153.471 185.993 153.003 186.433L151.072 188.271H154.479ZM161.503 187.765H160.222V189.407H158.921V187.765H154.956V186.836L158.519 182.179H159.954L156.598 186.629H158.963V185.173H160.222V186.629H161.503V187.765Z" fill="white"/>
</g>
<path d="M28.7888 141.77C28.4387 142.064 27.9651 142.421 27.9651 142.926C27.9651 143.514 28.3976 144.018 28.9948 144.018C29.4272 144.018 29.7979 143.64 30.1068 143.367L32.022 141.686V144.712C32.022 145.384 32.3103 145.763 33.0517 145.763C33.7931 145.763 34.0814 145.384 34.0814 144.712V141.686L35.9966 143.367C36.3055 143.64 36.6762 144.018 37.1087 144.018C37.7059 144.018 38.1384 143.514 38.1384 142.926C38.1384 142.421 37.6647 142.064 37.3146 141.77L34.6168 139.416L37.5823 136.832C37.85 136.601 38.1384 136.306 38.1384 135.928C38.1384 135.34 37.7059 134.814 37.1087 134.814C36.7792 134.814 36.5115 135.003 36.2849 135.214L34.0814 137.147V134.079C34.0814 133.406 33.7931 133.028 33.0517 133.028C32.3103 133.028 32.022 133.406 32.022 134.079V137.147L29.8185 135.214C29.592 135.003 29.3243 134.814 28.9948 134.814C28.3976 134.814 27.9651 135.34 27.9651 135.928C27.9651 136.306 28.2534 136.601 28.5211 136.832L31.4866 139.416L28.7888 141.77Z" fill="white"/>
<path d="M43.6106 141.77C43.2605 142.064 42.7869 142.421 42.7869 142.926C42.7869 143.514 43.2194 144.018 43.8166 144.018C44.249 144.018 44.6197 143.64 44.9286 143.367L46.8438 141.686V144.712C46.8438 145.384 47.1321 145.763 47.8735 145.763C48.6149 145.763 48.9032 145.384 48.9032 144.712V141.686L50.8184 143.367C51.1273 143.64 51.498 144.018 51.9305 144.018C52.5277 144.018 52.9601 143.514 52.9601 142.926C52.9601 142.421 52.4865 142.064 52.1364 141.77L49.4386 139.416L52.4041 136.832C52.6718 136.601 52.9601 136.306 52.9601 135.928C52.9601 135.34 52.5277 134.814 51.9305 134.814C51.601 134.814 51.3333 135.003 51.1067 135.214L48.9032 137.147V134.079C48.9032 133.406 48.6149 133.028 47.8735 133.028C47.1321 133.028 46.8438 133.406 46.8438 134.079V137.147L44.6403 135.214C44.4138 135.003 44.1461 134.814 43.8166 134.814C43.2194 134.814 42.7869 135.34 42.7869 135.928C42.7869 136.306 43.0752 136.601 43.3429 136.832L46.3084 139.416L43.6106 141.77Z" fill="white"/>
<path d="M58.4324 141.77C58.0823 142.064 57.6087 142.421 57.6087 142.926C57.6087 143.514 58.0411 144.018 58.6384 144.018C59.0708 144.018 59.4415 143.64 59.7504 143.367L61.6656 141.686V144.712C61.6656 145.384 61.9539 145.763 62.6953 145.763C63.4367 145.763 63.725 145.384 63.725 144.712V141.686L65.6402 143.367C65.9491 143.64 66.3198 144.018 66.7523 144.018C67.3495 144.018 67.7819 143.514 67.7819 142.926C67.7819 142.421 67.3083 142.064 66.9582 141.77L64.2604 139.416L67.2259 136.832C67.4936 136.601 67.7819 136.306 67.7819 135.928C67.7819 135.34 67.3495 134.814 66.7523 134.814C66.4228 134.814 66.155 135.003 65.9285 135.214L63.725 137.147V134.079C63.725 133.406 63.4367 133.028 62.6953 133.028C61.9539 133.028 61.6656 133.406 61.6656 134.079V137.147L59.4621 135.214C59.2356 135.003 58.9679 134.814 58.6384 134.814C58.0411 134.814 57.6087 135.34 57.6087 135.928C57.6087 136.306 57.897 136.601 58.1647 136.832L61.1302 139.416L58.4324 141.77Z" fill="white"/>
<path d="M73.2542 141.77C72.9041 142.064 72.4305 142.421 72.4305 142.926C72.4305 143.514 72.8629 144.018 73.4602 144.018C73.8926 144.018 74.2633 143.64 74.5722 143.367L76.4874 141.686V144.712C76.4874 145.384 76.7757 145.763 77.5171 145.763C78.2585 145.763 78.5468 145.384 78.5468 144.712V141.686L80.462 143.367C80.7709 143.64 81.1416 144.018 81.5741 144.018C82.1713 144.018 82.6037 143.514 82.6037 142.926C82.6037 142.421 82.1301 142.064 81.78 141.77L79.0822 139.416L82.0477 136.832C82.3154 136.601 82.6037 136.306 82.6037 135.928C82.6037 135.34 82.1713 134.814 81.5741 134.814C81.2446 134.814 80.9768 135.003 80.7503 135.214L78.5468 137.147V134.079C78.5468 133.406 78.2585 133.028 77.5171 133.028C76.7757 133.028 76.4874 133.406 76.4874 134.079V137.147L74.2839 135.214C74.0574 135.003 73.7897 134.814 73.4602 134.814C72.8629 134.814 72.4305 135.34 72.4305 135.928C72.4305 136.306 72.7188 136.601 72.9865 136.832L75.952 139.416L73.2542 141.77Z" fill="white"/>
<path d="M106.172 133.322H111.218C111.753 133.322 112.247 133.028 112.247 132.272C112.247 131.515 111.753 131.221 111.218 131.221H104.113V140.446H110.188V145.468H105.431C105.101 145.468 104.628 145.174 104.339 145.048L103.722 144.775C103.495 144.67 103.31 144.607 103.063 144.607C102.527 144.607 102.074 145.111 102.074 145.658C102.074 146.393 102.692 146.582 103.248 146.834L104.03 147.192C104.545 147.423 104.854 147.57 105.39 147.57H109.961C110.703 147.57 111.238 147.486 111.753 146.855C112.186 146.33 112.247 145.868 112.247 145.216V140.719C112.247 139.984 112.186 139.479 111.609 138.933C111.115 138.45 110.62 138.345 109.961 138.345H106.172V133.322Z" fill="white"/>
<path d="M118.955 133.322C119.552 133.322 119.985 132.902 119.985 132.272C119.985 131.725 119.552 131.221 119.017 131.221H117.781C117.061 131.221 116.896 131.788 116.896 132.272V146.246C116.896 147.213 117.267 147.57 118.234 147.57H125.731C126.657 147.57 127.069 147.234 127.069 146.246V141.539C127.069 140.572 126.863 140.131 125.834 140.131H118.955V133.322ZM125.01 142.232V145.468H118.955V142.232H125.01Z" fill="white"/>
<path d="M139.832 133.322V136.222C139.832 137.147 139.873 137.126 139.193 137.735L136.351 140.236C135.836 140.698 135.816 140.761 135.816 141.455V146.519C135.816 147.192 136.104 147.57 136.845 147.57C137.587 147.57 137.875 147.192 137.875 146.519V142.442C137.875 141.707 137.916 141.665 138.452 141.182L141.335 138.639C141.912 138.135 141.891 138.05 141.891 137.315V131.221H132.747C132.088 131.221 131.718 131.809 131.718 132.272V133.322C131.718 133.785 132.088 134.373 132.747 134.373C133.406 134.373 133.777 133.785 133.777 133.322H139.832Z" fill="white"/>
<path d="M150.658 138.345V133.322H152.594V138.345H150.658ZM149.629 131.221C148.928 131.221 148.599 131.725 148.599 132.272V138.345C147.96 138.345 147.466 138.576 147.095 138.933C146.725 139.29 146.539 139.816 146.539 140.467V145.468C146.539 146.75 147.322 147.57 148.599 147.57H154.653C155.93 147.57 156.713 146.75 156.713 145.468V140.467C156.713 139.816 156.527 139.29 156.157 138.933C155.786 138.576 155.292 138.345 154.653 138.345V132.272C154.653 131.725 154.324 131.221 153.624 131.221H149.629ZM148.599 145.468V140.446H154.653V145.468H148.599Z" fill="white"/>
<defs>
<filter id="filter0_d" x="27.5349" y="181.988" width="62.9117" height="8.72512" filterUnits="userSpaceOnUse" color-interpolation-filters="sRGB">
<feFlood flood-opacity="0" result="BackgroundImageFix"/>
<feColorMatrix in="SourceAlpha" type="matrix" values="0 0 0 0 0 0 0 0 0 0 0 0 0 0 0 0 0 0 127 0" result="hardAlpha"/>
<feOffset dy="0.860465"/>
<feGaussianBlur stdDeviation="0.215116"/>
<feColorMatrix type="matrix" values="0 0 0 0 1 0 0 0 0 1 0 0 0 0 1 0 0 0 0.21 0"/>
<feBlend mode="normal" in2="BackgroundImageFix" result="effect1_dropShadow"/>
<feBlend mode="normal" in="SourceGraphic" in2="effect1_dropShadow" result="shape"/>
</filter>
<filter id="filter1_d" x="126.512" y="180.713" width="35.4207" height="11.0174" filterUnits="userSpaceOnUse" color-interpolation-filters="sRGB">
<feFlood flood-opacity="0" result="BackgroundImageFix"/>
<feColorMatrix in="SourceAlpha" type="matrix" values="0 0 0 0 0 0 0 0 0 0 0 0 0 0 0 0 0 0 127 0" result="hardAlpha"/>
<feOffset dy="0.860465"/>
<feGaussianBlur stdDeviation="0.215116"/>
<feColorMatrix type="matrix" values="0 0 0 0 1 0 0 0 0 1 0 0 0 0 1 0 0 0 0.21 0"/>
<feBlend mode="normal" in2="BackgroundImageFix" result="effect1_dropShadow"/>
<feBlend mode="normal" in="SourceGraphic" in2="effect1_dropShadow" result="shape"/>
</filter>
<linearGradient id="paint0_linear" x1="488.129" y1="-26.8707" x2="617.129" y2="558.129" gradientUnits="userSpaceOnUse">
<stop stop-color="#FF3D00"/>
<stop offset="1" stop-color="#D50000"/>
</linearGradient>
<linearGradient id="paint1_linear" x1="488.129" y1="0" x2="488.129" y2="370.129" gradientUnits="userSpaceOnUse">
<stop stop-color="#E42C64"/>
<stop offset="1" stop-color="#614AD3"/>
</linearGradient>
<linearGradient id="paint2_linear" x1="26.6192" y1="72" x2="80.6459" y2="107.081" gradientUnits="userSpaceOnUse">
<stop stop-color="#DDD9D6"/>
<stop offset="0.212761" stop-color="#8A868C"/>
<stop offset="0.548384" stop-color="#F2F3F3" stop-opacity="0.8"/>
<stop offset="0.914316" stop-color="#807C80"/>
<stop offset="1" stop-color="#A6A8AB"/>
</linearGradient>
</defs>
</svg>
