<svg width="390" height="249" viewBox="0 0 390 249" fill="none" xmlns="http://www.w3.org/2000/svg">
<rect x="389.111" width="248.103" height="389.111" rx="10.7095" transform="rotate(90 389.111 0)" fill="url(#paint0_linear)"/>
<mask id="mask0" mask-type="alpha" maskUnits="userSpaceOnUse" x="-1" y="0" width="391" height="249">
<rect x="389.111" width="248.103" height="389.111" rx="10.7095" transform="rotate(90 389.111 0)" fill="url(#paint1_linear)"/>
</mask>
<g mask="url(#mask0)">
</g>
<rect x="33.1155" y="76.218" width="47.3066" height="35.7047" rx="3.67949" fill="url(#paint2_linear)" stroke="#666666" stroke-width="1.05128"/>
<path fill-rule="evenodd" clip-rule="evenodd" d="M48.6048 99.5177C48.637 104.082 52.9411 109.524 55.9056 111.283C55.9629 111.313 56.0131 111.354 56.0533 111.405C56.0934 111.455 56.1224 111.514 56.1384 111.576C56.1545 111.638 56.1572 111.703 56.1465 111.767C56.1357 111.83 56.1117 111.891 56.076 111.945C56.0325 112.017 55.9712 112.077 55.8978 112.119C55.8245 112.16 55.7416 112.183 55.6571 112.183C55.5709 112.184 55.4863 112.16 55.4131 112.114C52.2506 110.255 47.9235 104.817 47.6473 99.9494H33.0732C32.9525 99.9377 32.8406 99.8816 32.7591 99.792C32.6777 99.7024 32.6326 99.5858 32.6326 99.4649C32.6326 99.344 32.6777 99.2274 32.7591 99.1378C32.8406 99.0483 32.9525 98.9922 33.0732 98.9804H47.7394C48.6579 95.7687 48.6579 92.3646 47.7394 89.1529H33.0732C32.945 89.1529 32.8221 89.1021 32.7314 89.0116C32.6408 88.9212 32.5898 88.7986 32.5898 88.6707C32.5898 88.5428 32.6408 88.4202 32.7314 88.3297C32.8221 88.2393 32.945 88.1885 33.0732 88.1885H47.6473C47.9235 83.3023 52.269 77.8833 55.4131 76.0235C55.526 75.9583 55.6603 75.9406 55.7863 75.9741C55.9124 76.0077 56.0199 76.0899 56.0852 76.2026C56.1505 76.3152 56.1683 76.4491 56.1346 76.5749C56.1009 76.7006 56.0186 76.8079 55.9056 76.873C52.9411 78.6089 48.637 84.0554 48.6048 88.6248C49.6591 92.1796 49.6591 95.9629 48.6048 99.5177ZM63.5656 83.7616C61.913 80.4689 59.3167 77.8834 57.6089 76.8731C57.4959 76.8079 57.4136 76.7007 57.3799 76.5749C57.3462 76.4492 57.364 76.3153 57.4293 76.2026C57.4946 76.0899 57.6022 76.0078 57.7282 75.9742C57.8542 75.9406 57.9885 75.9583 58.1014 76.0235C60.3386 77.3323 62.9395 80.3357 64.431 83.3023C64.4669 83.3591 64.4899 83.4231 64.4983 83.4897C64.5067 83.5564 64.5004 83.624 64.4798 83.688C64.4591 83.7519 64.4247 83.8105 64.3789 83.8598C64.3331 83.909 64.277 83.9476 64.2146 83.9728C64.1481 84.0086 64.0738 84.0275 63.9983 84.0279C63.9085 84.028 63.8204 84.0031 63.744 83.9561C63.6675 83.909 63.6058 83.8417 63.5656 83.7616ZM80.4643 98.9804H65.7706C64.852 95.7687 64.852 92.3647 65.7706 89.1529H80.4643C80.5925 89.1529 80.7155 89.1021 80.8061 89.0117C80.8968 88.9212 80.9477 88.7986 80.9477 88.6707C80.9477 88.5428 80.8968 88.4202 80.8061 88.3297C80.7155 88.2393 80.5925 88.1885 80.4643 88.1885H65.3977C65.2929 88.1897 65.1914 88.2248 65.1083 88.2886C65.0253 88.3524 64.9653 88.4414 64.9374 88.5421C63.8671 92.1228 63.8671 95.9371 64.9374 99.5177C64.9051 104.083 60.601 109.524 57.6365 111.283C57.5778 111.311 57.5257 111.352 57.4837 111.401C57.4417 111.451 57.4108 111.509 57.3929 111.572C57.3751 111.634 57.3708 111.7 57.3802 111.764C57.3897 111.828 57.4127 111.89 57.4478 111.945C57.4912 112.017 57.5525 112.077 57.6259 112.119C57.6993 112.16 57.7822 112.183 57.8667 112.183C57.9529 112.184 58.0374 112.16 58.1106 112.114C61.2547 110.278 65.6002 104.817 65.8764 99.9494H80.4643C80.585 99.9377 80.6969 99.8816 80.7784 99.792C80.8598 99.7025 80.905 99.5859 80.905 99.4649C80.905 99.344 80.8598 99.2274 80.7784 99.1378C80.6969 99.0483 80.585 98.9922 80.4643 98.9804ZM56.2765 78.6535C56.4188 78.5587 56.5861 78.508 56.7573 78.508C56.9868 78.508 57.2069 78.599 57.3692 78.7609C57.5315 78.9228 57.6227 79.1424 57.6227 79.3714C57.6227 79.5421 57.5719 79.709 57.4768 79.851C57.3817 79.993 57.2466 80.1037 57.0884 80.169C56.9303 80.2344 56.7563 80.2515 56.5884 80.2181C56.4205 80.1848 56.2663 80.1026 56.1453 79.9819C56.0243 79.8611 55.9419 79.7073 55.9085 79.5398C55.8751 79.3723 55.8922 79.1987 55.9577 79.041C56.0232 78.8832 56.1341 78.7484 56.2765 78.6535Z" fill="#666666"/>
<path d="M319.141 45.5011C319.502 45.9534 319.774 46.4961 319.955 47.0389C320.136 47.5816 320.226 48.2149 320.226 48.8481C320.226 49.4813 320.136 50.1145 319.955 50.6573C319.774 51.2 319.502 51.7428 319.141 52.1951C318.688 52.8283 318.779 53.7329 319.412 54.1852C320.045 54.6375 320.95 54.547 321.402 53.9138C321.945 53.1901 322.307 52.4664 322.669 51.5619C323.03 50.6573 323.121 49.7527 323.121 48.8481C323.121 47.9435 322.94 47.0389 322.669 46.1343C322.397 45.3202 321.945 44.506 321.402 43.7824C320.95 43.1491 320.045 43.0587 319.412 43.511C318.779 43.9633 318.688 44.8679 319.141 45.5011Z" fill="white"/>
<path d="M324.116 42.8778C325.201 44.5965 325.835 46.677 325.835 48.8481C325.835 51.0191 325.201 53.0997 324.116 54.8184C323.664 55.4516 323.935 56.3562 324.568 56.8085C325.292 57.2608 326.106 56.9894 326.558 56.3562C327.915 54.1852 328.729 51.6523 328.729 48.8481C328.729 46.1343 327.915 43.511 326.558 41.3399C326.106 40.7067 325.201 40.4354 324.568 40.8877C323.935 41.3399 323.664 42.1541 324.116 42.8778Z" fill="white"/>
<path d="M329.362 40.164C330.9 42.6968 331.714 45.682 331.714 48.8481C331.714 52.0142 330.81 54.9993 329.362 57.5322C329.001 58.2558 329.182 59.07 329.905 59.5223C330.629 59.8841 331.443 59.7032 331.895 58.9795C333.705 55.9944 334.7 52.5569 334.7 48.8481C334.7 45.1392 333.705 41.7018 331.895 38.7166C331.534 37.993 330.629 37.812 329.905 38.1739C329.182 38.6262 329.001 39.4403 329.362 40.164Z" fill="white"/>
<path d="M334.609 37.4502C336.509 40.7972 337.685 44.6869 337.685 48.8481C337.685 53.0092 336.599 56.899 334.609 60.246C334.247 60.9696 334.428 61.7838 335.152 62.2361C335.876 62.5979 336.69 62.417 337.142 61.6933C339.313 57.894 340.579 53.552 340.579 48.8481C340.579 44.1442 339.313 39.8021 337.142 36.0028C336.78 35.2792 335.876 35.0983 335.152 35.4601C334.428 35.8219 334.247 36.7265 334.609 37.4502Z" fill="white"/>
<g filter="url(#filter0_d)">
<path d="M36.1513 191.43V199.029H34.9898L30.7997 193.883V199.029H29.3994V191.43H30.5609L34.751 196.575V191.43H36.1513Z" fill="white"/>
<path d="M38.1422 191.43H39.5533V199.029H38.1422V191.43Z" fill="white"/>
<path d="M45.0804 199.137C44.3133 199.137 43.6186 198.971 42.9962 198.638C42.3811 198.298 41.8963 197.831 41.5417 197.238C41.1943 196.644 41.0206 195.975 41.0206 195.229C41.0206 194.484 41.1979 193.815 41.5525 193.221C41.9071 192.628 42.392 192.165 43.0071 191.832C43.6295 191.492 44.3242 191.322 45.0913 191.322C45.7136 191.322 46.2817 191.43 46.7955 191.647C47.3093 191.864 47.7435 192.179 48.0982 192.592L47.1863 193.449C46.6363 192.856 45.9597 192.559 45.1564 192.559C44.6354 192.559 44.1686 192.675 43.7561 192.906C43.3436 193.131 43.0216 193.446 42.79 193.851C42.5584 194.256 42.4426 194.716 42.4426 195.229C42.4426 195.743 42.5584 196.203 42.79 196.608C43.0216 197.013 43.3436 197.332 43.7561 197.563C44.1686 197.788 44.6354 197.9 45.1564 197.9C45.9597 197.9 46.6363 197.599 47.1863 196.999L48.0982 197.867C47.7435 198.28 47.3057 198.594 46.7847 198.812C46.2709 199.029 45.7028 199.137 45.0804 199.137Z" fill="white"/>
<path d="M52.0211 195.848L50.8162 197.086V199.029H49.4051V191.43H50.8162V195.327L54.5721 191.43H56.1569L52.9655 194.828L56.3523 199.029H54.7024L52.0211 195.848Z" fill="white"/>
<path d="M63.7723 199.137C62.998 199.137 62.2997 198.971 61.6773 198.638C61.055 198.298 60.5665 197.831 60.2119 197.238C59.8573 196.637 59.68 195.968 59.68 195.229C59.68 194.491 59.8573 193.825 60.2119 193.232C60.5665 192.631 61.055 192.165 61.6773 191.832C62.2997 191.492 62.998 191.322 63.7723 191.322C64.5467 191.322 65.245 191.492 65.8674 191.832C66.4897 192.165 66.9782 192.628 67.3328 193.221C67.6874 193.815 67.8647 194.484 67.8647 195.229C67.8647 195.975 67.6874 196.644 67.3328 197.238C66.9782 197.831 66.4897 198.298 65.8674 198.638C65.245 198.971 64.5467 199.137 63.7723 199.137ZM63.7723 197.9C64.2789 197.9 64.7348 197.788 65.1401 197.563C65.5454 197.332 65.8638 197.013 66.0953 196.608C66.3269 196.195 66.4427 195.736 66.4427 195.229C66.4427 194.723 66.3269 194.267 66.0953 193.862C65.8638 193.449 65.5454 193.131 65.1401 192.906C64.7348 192.675 64.2789 192.559 63.7723 192.559C63.2658 192.559 62.8099 192.675 62.4046 192.906C61.9993 193.131 61.6809 193.449 61.4494 193.862C61.2178 194.267 61.102 194.723 61.102 195.229C61.102 195.736 61.2178 196.195 61.4494 196.608C61.6809 197.013 61.9993 197.332 62.4046 197.563C62.8099 197.788 63.2658 197.9 63.7723 197.9Z" fill="white"/>
<path d="M76.0672 191.43V199.029H74.656V195.772H70.7265V199.029H69.3153V191.43H70.7265V194.567H74.656V191.43H76.0672Z" fill="white"/>
<path d="M85.0379 199.029L85.027 193.992L82.5304 198.16H81.9008L79.4041 194.057V199.029H78.0581V191.43H79.2196L82.2373 196.467L85.2007 191.43H86.3622L86.3731 199.029H85.0379Z" fill="white"/>
<path d="M91.6586 196.347V199.029H90.2474V196.369L87.2622 191.43H88.7711L90.9964 195.132L93.2434 191.43H94.6329L91.6586 196.347Z" fill="white"/>
</g>
<g filter="url(#filter1_d)">
<path d="M136.623 198.716C136.015 198.716 135.472 198.564 134.994 198.26C134.517 197.949 134.14 197.5 133.865 196.914C133.59 196.321 133.453 195.619 133.453 194.808C133.453 193.998 133.59 193.3 133.865 192.713C134.14 192.12 134.517 191.671 134.994 191.367C135.472 191.056 136.015 190.901 136.623 190.901C137.231 190.901 137.773 191.056 138.251 191.367C138.736 191.671 139.116 192.12 139.391 192.713C139.666 193.3 139.803 193.998 139.803 194.808C139.803 195.619 139.666 196.321 139.391 196.914C139.116 197.5 138.736 197.949 138.251 198.26C137.773 198.564 137.231 198.716 136.623 198.716ZM136.623 197.49C137.165 197.49 137.592 197.265 137.904 196.817C138.222 196.368 138.381 195.698 138.381 194.808C138.381 193.918 138.222 193.249 137.904 192.8C137.592 192.351 137.165 192.127 136.623 192.127C136.087 192.127 135.66 192.351 135.342 192.8C135.031 193.249 134.875 193.918 134.875 194.808C134.875 195.698 135.031 196.368 135.342 196.817C135.66 197.265 136.087 197.49 136.623 197.49ZM143.089 193.951C144.16 193.951 144.952 194.161 145.466 194.58C145.98 194.993 146.237 195.557 146.237 196.274C146.237 196.73 146.125 197.142 145.9 197.511C145.676 197.88 145.34 198.173 144.891 198.391C144.442 198.608 143.889 198.716 143.23 198.716C142.687 198.716 142.163 198.64 141.656 198.488C141.149 198.329 140.722 198.112 140.375 197.837L140.972 196.741C141.254 196.972 141.591 197.157 141.982 197.294C142.38 197.424 142.789 197.49 143.208 197.49C143.708 197.49 144.098 197.388 144.381 197.186C144.67 196.976 144.815 196.69 144.815 196.328C144.815 195.937 144.659 195.644 144.348 195.449C144.044 195.246 143.519 195.145 142.774 195.145H140.94L141.33 191.009H145.792V192.192H142.524L142.362 193.951H143.089ZM152.739 189.468H153.955L150.373 199.693H149.157L152.739 189.468ZM162.402 197.414V198.608H156.8V197.663L159.818 194.798C160.158 194.472 160.386 194.19 160.502 193.951C160.625 193.705 160.687 193.462 160.687 193.224C160.687 192.869 160.567 192.598 160.328 192.409C160.09 192.221 159.739 192.127 159.275 192.127C158.501 192.127 157.908 192.391 157.495 192.92L156.507 192.16C156.804 191.762 157.202 191.454 157.701 191.237C158.208 191.013 158.773 190.901 159.395 190.901C160.22 190.901 160.878 191.096 161.37 191.487C161.863 191.877 162.109 192.409 162.109 193.082C162.109 193.495 162.022 193.882 161.848 194.244C161.674 194.606 161.342 195.018 160.849 195.481L158.82 197.414H162.402ZM169.786 196.882H168.44V198.608H167.072V196.882H162.903V195.905L166.648 191.009H168.157L164.629 195.688H167.115V194.157H168.44V195.688H169.786V196.882Z" fill="white"/>
</g>
<path d="M30.2654 149.04C29.8974 149.35 29.3994 149.725 29.3994 150.255C29.3994 150.874 29.8541 151.404 30.4819 151.404C30.9365 151.404 31.3262 151.007 31.651 150.719L33.6644 148.952V152.133C33.6644 152.84 33.9675 153.238 34.7469 153.238C35.5263 153.238 35.8294 152.84 35.8294 152.133V148.952L37.8428 150.719C38.1676 151.007 38.5573 151.404 39.0119 151.404C39.6398 151.404 40.0944 150.874 40.0944 150.255C40.0944 149.725 39.5965 149.35 39.2284 149.04L36.3923 146.566L39.5099 143.849C39.7913 143.606 40.0944 143.297 40.0944 142.899C40.0944 142.28 39.6398 141.728 39.0119 141.728C38.6655 141.728 38.3841 141.927 38.1459 142.148L35.8294 144.18V140.955C35.8294 140.248 35.5263 139.85 34.7469 139.85C33.9675 139.85 33.6644 140.248 33.6644 140.955V144.18L31.3479 142.148C31.1097 141.927 30.8283 141.728 30.4819 141.728C29.8541 141.728 29.3994 142.28 29.3994 142.899C29.3994 143.297 29.7025 143.606 29.984 143.849L33.1015 146.566L30.2654 149.04Z" fill="white"/>
<path d="M45.8473 149.04C45.4793 149.35 44.9813 149.725 44.9813 150.255C44.9813 150.874 45.436 151.404 46.0638 151.404C46.5185 151.404 46.9082 151.007 47.2329 150.719L49.2463 148.952V152.133C49.2463 152.84 49.5494 153.238 50.3288 153.238C51.1082 153.238 51.4113 152.84 51.4113 152.133V148.952L53.4247 150.719C53.7495 151.007 54.1392 151.404 54.5938 151.404C55.2217 151.404 55.6763 150.874 55.6763 150.255C55.6763 149.725 55.1784 149.35 54.8103 149.04L51.9742 146.566L55.0918 143.849C55.3732 143.606 55.6763 143.297 55.6763 142.899C55.6763 142.28 55.2217 141.728 54.5938 141.728C54.2474 141.728 53.966 141.927 53.7278 142.148L51.4113 144.18V140.955C51.4113 140.248 51.1082 139.85 50.3288 139.85C49.5494 139.85 49.2463 140.248 49.2463 140.955V144.18L46.9298 142.148C46.6917 141.927 46.4102 141.728 46.0638 141.728C45.436 141.728 44.9813 142.28 44.9813 142.899C44.9813 143.297 45.2844 143.606 45.5659 143.849L48.6834 146.566L45.8473 149.04Z" fill="white"/>
<path d="M61.4292 149.04C61.0612 149.35 60.5633 149.725 60.5633 150.255C60.5633 150.874 61.0179 151.404 61.6457 151.404C62.1004 151.404 62.4901 151.007 62.8148 150.719L64.8283 148.952V152.133C64.8283 152.84 65.1314 153.238 65.9107 153.238C66.6901 153.238 66.9932 152.84 66.9932 152.133V148.952L69.0067 150.719C69.3314 151.007 69.7211 151.404 70.1758 151.404C70.8036 151.404 71.2582 150.874 71.2582 150.255C71.2582 149.725 70.7603 149.35 70.3923 149.04L67.5561 146.566L70.6737 143.849C70.9551 143.606 71.2582 143.297 71.2582 142.899C71.2582 142.28 70.8036 141.728 70.1758 141.728C69.8294 141.728 69.5479 141.927 69.3098 142.148L66.9932 144.18V140.955C66.9932 140.248 66.6901 139.85 65.9107 139.85C65.1314 139.85 64.8283 140.248 64.8283 140.955V144.18L62.5117 142.148C62.2736 141.927 61.9921 141.728 61.6457 141.728C61.0179 141.728 60.5633 142.28 60.5633 142.899C60.5633 143.297 60.8663 143.606 61.1478 143.849L64.2654 146.566L61.4292 149.04Z" fill="white"/>
<path d="M77.0112 149.04C76.6431 149.35 76.1452 149.725 76.1452 150.255C76.1452 150.874 76.5998 151.404 77.2277 151.404C77.6823 151.404 78.072 151.007 78.3968 150.719L80.4102 148.952V152.133C80.4102 152.84 80.7133 153.238 81.4927 153.238C82.2721 153.238 82.5752 152.84 82.5752 152.133V148.952L84.5886 150.719C84.9133 151.007 85.303 151.404 85.7577 151.404C86.3855 151.404 86.8402 150.874 86.8402 150.255C86.8402 149.725 86.3422 149.35 85.9742 149.04L83.1381 146.566L86.2556 143.849C86.5371 143.606 86.8402 143.297 86.8402 142.899C86.8402 142.28 86.3855 141.728 85.7577 141.728C85.4113 141.728 85.1298 141.927 84.8917 142.148L82.5752 144.18V140.955C82.5752 140.248 82.2721 139.85 81.4927 139.85C80.7133 139.85 80.4102 140.248 80.4102 140.955V144.18L78.0937 142.148C77.8555 141.927 77.5741 141.728 77.2277 141.728C76.5998 141.728 76.1452 142.28 76.1452 142.899C76.1452 143.297 76.4483 143.606 76.7297 143.849L79.8473 146.566L77.0112 149.04Z" fill="white"/>
<path d="M111.617 140.16H116.922C117.484 140.16 118.004 139.85 118.004 139.055C118.004 138.26 117.484 137.95 116.922 137.95H109.452V147.649H115.839V152.929H110.838C110.492 152.929 109.994 152.619 109.69 152.487L109.041 152.2C108.803 152.089 108.608 152.023 108.348 152.023C107.785 152.023 107.309 152.553 107.309 153.127C107.309 153.901 107.959 154.099 108.543 154.365L109.366 154.74C109.907 154.983 110.232 155.138 110.795 155.138H115.601C116.38 155.138 116.943 155.049 117.484 154.387C117.939 153.834 118.004 153.348 118.004 152.663V147.936C118.004 147.163 117.939 146.632 117.333 146.058C116.813 145.55 116.294 145.439 115.601 145.439H111.617V140.16Z" fill="white"/>
<path d="M125.056 140.16C125.684 140.16 126.138 139.718 126.138 139.055C126.138 138.481 125.684 137.95 125.121 137.95H123.822C123.064 137.95 122.891 138.547 122.891 139.055V153.746C122.891 154.762 123.281 155.138 124.298 155.138H132.179C133.153 155.138 133.586 154.784 133.586 153.746V148.797C133.586 147.781 133.369 147.317 132.287 147.317H125.056V140.16ZM131.421 149.526V152.929H125.056V149.526H131.421Z" fill="white"/>
<path d="M147.003 140.16V143.208C147.003 144.18 147.046 144.158 146.332 144.799L143.344 147.428C142.803 147.914 142.781 147.98 142.781 148.709V154.033C142.781 154.74 143.084 155.138 143.864 155.138C144.643 155.138 144.946 154.74 144.946 154.033V149.747C144.946 148.974 144.989 148.93 145.552 148.422L148.583 145.749C149.189 145.219 149.168 145.13 149.168 144.357V137.95H139.555C138.863 137.95 138.473 138.569 138.473 139.055V140.16C138.473 140.646 138.863 141.264 139.555 141.264C140.248 141.264 140.638 140.646 140.638 140.16H147.003Z" fill="white"/>
<path d="M158.385 145.439V140.16H160.42V145.439H158.385ZM157.302 137.95C156.566 137.95 156.22 138.481 156.22 139.055V145.439C155.549 145.439 155.029 145.683 154.639 146.058C154.25 146.434 154.055 146.986 154.055 147.671V152.929C154.055 154.276 154.877 155.138 156.22 155.138H162.585C163.927 155.138 164.75 154.276 164.75 152.929V147.671C164.75 146.986 164.555 146.434 164.165 146.058C163.776 145.683 163.256 145.439 162.585 145.439V139.055C162.585 138.481 162.238 137.95 161.502 137.95H157.302ZM156.22 152.929V147.649H162.585V152.929H156.22Z" fill="white"/>
<path d="M339.736 182.081H315.072V222.27H339.736V182.081Z" fill="#FF5F00"/>
<path d="M317.612 202.178C317.609 198.308 318.488 194.489 320.184 191.008C321.879 187.527 324.345 184.477 327.397 182.088C323.618 179.125 319.079 177.282 314.3 176.771C309.52 176.259 304.693 177.099 300.37 179.195C296.047 181.291 292.402 184.558 289.852 188.623C287.302 192.688 285.949 197.386 285.949 202.182C285.949 206.977 287.302 211.675 289.852 215.74C292.402 219.805 296.047 223.072 300.37 225.168C304.693 227.264 309.52 228.104 314.3 227.593C319.079 227.081 323.618 225.239 327.397 222.276C324.345 219.886 321.877 216.834 320.182 213.352C318.487 209.87 317.608 206.049 317.612 202.178Z" fill="#EB001B"/>
<path d="M366.4 218.017V217.194H366.756V217.023H365.909V217.194H366.244V218.017H366.4ZM368.044 218.017V217.023H367.788L367.489 217.733L367.19 217.023H366.934V218.017H367.119V217.265L367.396 217.911H367.589L367.866 217.265V218.017H368.044Z" fill="#F79E1B"/>
<path d="M368.848 202.179C368.848 206.975 367.496 211.674 364.945 215.738C362.395 219.803 358.749 223.07 354.425 225.166C350.101 227.262 345.274 228.101 340.494 227.589C335.715 227.077 331.176 225.234 327.397 222.27C330.447 219.878 332.913 216.827 334.609 213.346C336.304 209.865 337.185 206.046 337.185 202.176C337.185 198.305 336.304 194.486 334.609 191.005C332.913 187.524 330.447 184.473 327.397 182.081C331.176 179.118 335.715 177.274 340.494 176.762C345.274 176.25 350.101 177.089 354.425 179.185C358.749 181.281 362.395 184.548 364.945 188.613C367.496 192.678 368.848 197.376 368.848 202.172V202.179Z" fill="#F79E1B"/>
<defs>
<filter id="filter0_d" x="28.9471" y="191.322" width="66.138" height="9.17258" filterUnits="userSpaceOnUse" color-interpolation-filters="sRGB">
<feFlood flood-opacity="0" result="BackgroundImageFix"/>
<feColorMatrix in="SourceAlpha" type="matrix" values="0 0 0 0 0 0 0 0 0 0 0 0 0 0 0 0 0 0 127 0" result="hardAlpha"/>
<feOffset dy="0.904593"/>
<feGaussianBlur stdDeviation="0.226148"/>
<feColorMatrix type="matrix" values="0 0 0 0 1 0 0 0 0 1 0 0 0 0 1 0 0 0 0.21 0"/>
<feBlend mode="normal" in2="BackgroundImageFix" result="effect1_dropShadow"/>
<feBlend mode="normal" in="SourceGraphic" in2="effect1_dropShadow" result="shape"/>
</filter>
<filter id="filter1_d" x="133.001" y="189.468" width="37.2372" height="11.5824" filterUnits="userSpaceOnUse" color-interpolation-filters="sRGB">
<feFlood flood-opacity="0" result="BackgroundImageFix"/>
<feColorMatrix in="SourceAlpha" type="matrix" values="0 0 0 0 0 0 0 0 0 0 0 0 0 0 0 0 0 0 127 0" result="hardAlpha"/>
<feOffset dy="0.904593"/>
<feGaussianBlur stdDeviation="0.226148"/>
<feColorMatrix type="matrix" values="0 0 0 0 1 0 0 0 0 1 0 0 0 0 1 0 0 0 0.21 0"/>
<feBlend mode="normal" in2="BackgroundImageFix" result="effect1_dropShadow"/>
<feBlend mode="normal" in="SourceGraphic" in2="effect1_dropShadow" result="shape"/>
</filter>
<linearGradient id="paint0_linear" x1="513.162" y1="-3.51594e-06" x2="698.188" y2="654.035" gradientUnits="userSpaceOnUse">
<stop stop-color="#03153D"/>
<stop offset="1" stop-color="#025FEE"/>
</linearGradient>
<linearGradient id="paint1_linear" x1="513.162" y1="0" x2="513.162" y2="389.111" gradientUnits="userSpaceOnUse">
<stop stop-color="#E42C64"/>
<stop offset="1" stop-color="#614AD3"/>
</linearGradient>
<linearGradient id="paint2_linear" x1="27.9843" y1="75.6924" x2="84.7818" y2="112.572" gradientUnits="userSpaceOnUse">
<stop stop-color="#DDD9D6"/>
<stop offset="0.212761" stop-color="#8A868C"/>
<stop offset="0.548384" stop-color="#F2F3F3" stop-opacity="0.8"/>
<stop offset="0.914316" stop-color="#807C80"/>
<stop offset="1" stop-color="#A6A8AB"/>
</linearGradient>
</defs>
</svg>
