<svg width="469" height="328" viewBox="0 0 469 328" fill="none" xmlns="http://www.w3.org/2000/svg">
<g opacity="0.6" filter="url(#filter0_f)">
<rect x="428.757" y="39.9485" width="248.103" height="389.111" rx="10.7095" transform="rotate(90 428.757 39.9485)" fill="url(#paint0_linear)" fill-opacity="0.7"/>
</g>
<rect x="428.757" y="39.9485" width="248.103" height="389.111" rx="10.7095" transform="rotate(90 428.757 39.9485)" fill="url(#paint1_linear)"/>
<mask id="mask0" mask-type="alpha" maskUnits="userSpaceOnUse" x="39" y="39" width="390" height="250">
<rect x="428.757" y="39.9485" width="248.103" height="389.111" rx="10.7095" transform="rotate(90 428.757 39.9485)" fill="url(#paint2_linear)"/>
</mask>
<g mask="url(#mask0)">
</g>
<rect x="72.7615" y="116.167" width="47.3066" height="35.7047" rx="3.67949" fill="url(#paint3_linear)" stroke="#666666" stroke-width="1.05128"/>
<path fill-rule="evenodd" clip-rule="evenodd" d="M88.2508 139.466C88.283 144.031 92.5871 149.473 95.5516 151.232C95.6089 151.262 95.6591 151.303 95.6992 151.353C95.7394 151.404 95.7684 151.462 95.7844 151.525C95.8005 151.587 95.8032 151.652 95.7925 151.715C95.7817 151.779 95.7577 151.839 95.722 151.893C95.6785 151.965 95.6172 152.025 95.5438 152.067C95.4705 152.109 95.3876 152.131 95.3031 152.132C95.2169 152.132 95.1323 152.108 95.0591 152.063C91.8966 150.203 87.5695 144.766 87.2933 139.898H72.7192C72.5985 139.886 72.4866 139.83 72.4051 139.74C72.3237 139.651 72.2786 139.534 72.2786 139.413C72.2786 139.292 72.3237 139.176 72.4051 139.086C72.4866 138.997 72.5985 138.941 72.7192 138.929H87.3854C88.3039 135.717 88.3039 132.313 87.3854 129.101H72.7192C72.591 129.101 72.4681 129.051 72.3774 128.96C72.2868 128.87 72.2358 128.747 72.2358 128.619C72.2358 128.491 72.2868 128.369 72.3774 128.278C72.4681 128.188 72.591 128.137 72.7192 128.137H87.2933C87.5695 123.251 91.915 117.832 95.0591 115.972C95.172 115.907 95.3063 115.889 95.4323 115.923C95.5583 115.956 95.6659 116.038 95.7312 116.151C95.7965 116.264 95.8143 116.398 95.7806 116.523C95.7469 116.649 95.6646 116.756 95.5516 116.822C92.5871 118.557 88.283 124.004 88.2508 128.573C89.3051 132.128 89.3051 135.911 88.2508 139.466ZM103.212 123.71C101.559 120.417 98.9627 117.832 97.2549 116.822C97.1419 116.756 97.0596 116.649 97.0259 116.523C96.9922 116.398 97.01 116.264 97.0753 116.151C97.1406 116.038 97.2481 115.956 97.3742 115.923C97.5002 115.889 97.6345 115.907 97.7474 115.972C99.9846 117.281 102.585 120.284 104.077 123.251C104.113 123.308 104.136 123.372 104.144 123.438C104.153 123.505 104.146 123.573 104.126 123.636C104.105 123.7 104.071 123.759 104.025 123.808C103.979 123.857 103.923 123.896 103.861 123.921C103.794 123.957 103.72 123.976 103.644 123.976C103.554 123.976 103.466 123.952 103.39 123.905C103.314 123.858 103.252 123.79 103.212 123.71ZM120.11 138.929H105.417C104.498 135.717 104.498 132.313 105.417 129.101H120.11C120.239 129.101 120.361 129.051 120.452 128.96C120.543 128.87 120.594 128.747 120.594 128.619C120.594 128.491 120.543 128.369 120.452 128.278C120.361 128.188 120.239 128.137 120.11 128.137H105.044C104.939 128.138 104.837 128.173 104.754 128.237C104.671 128.301 104.611 128.39 104.583 128.491C103.513 132.071 103.513 135.886 104.583 139.466C104.551 144.031 100.247 149.473 97.2825 151.232C97.2238 151.26 97.1717 151.3 97.1297 151.35C97.0877 151.399 97.0568 151.457 97.0389 151.52C97.0211 151.583 97.0168 151.648 97.0262 151.712C97.0357 151.777 97.0587 151.838 97.0938 151.893C97.1372 151.965 97.1985 152.025 97.2719 152.067C97.3453 152.109 97.4282 152.131 97.5127 152.132C97.5988 152.132 97.6834 152.108 97.7566 152.063C100.901 150.226 105.246 144.766 105.522 139.898H120.11C120.231 139.886 120.343 139.83 120.424 139.741C120.506 139.651 120.551 139.534 120.551 139.413C120.551 139.292 120.506 139.176 120.424 139.086C120.343 138.997 120.231 138.941 120.11 138.929ZM95.9225 118.602C96.0648 118.507 96.2321 118.457 96.4033 118.457C96.6328 118.457 96.8529 118.547 97.0152 118.709C97.1775 118.871 97.2687 119.091 97.2687 119.32C97.2687 119.491 97.2179 119.658 97.1228 119.8C97.0277 119.941 96.8926 120.052 96.7344 120.117C96.5763 120.183 96.4023 120.2 96.2344 120.167C96.0665 120.133 95.9123 120.051 95.7913 119.93C95.6703 119.81 95.5879 119.656 95.5545 119.488C95.5211 119.321 95.5382 119.147 95.6037 118.989C95.6692 118.832 95.7801 118.697 95.9225 118.602Z" fill="#666666"/>
<path d="M358.787 85.4496C359.148 85.9019 359.42 86.4446 359.601 86.9874C359.782 87.5301 359.872 88.1633 359.872 88.7966C359.872 89.4298 359.782 90.063 359.601 90.6058C359.42 91.1485 359.148 91.6913 358.787 92.1436C358.334 92.7768 358.425 93.6814 359.058 94.1337C359.691 94.586 360.596 94.4955 361.048 93.8623C361.591 93.1386 361.953 92.4149 362.315 91.5103C362.676 90.6058 362.767 89.7012 362.767 88.7966C362.767 87.892 362.586 86.9874 362.315 86.0828C362.043 85.2687 361.591 84.4545 361.048 83.7308C360.596 83.0976 359.691 83.0072 359.058 83.4595C358.425 83.9118 358.334 84.8164 358.787 85.4496Z" fill="white"/>
<path d="M363.762 82.8262C364.847 84.545 365.481 86.6255 365.481 88.7966C365.481 90.9676 364.847 93.0481 363.762 94.7669C363.31 95.4001 363.581 96.3047 364.214 96.757C364.938 97.2093 365.752 96.9379 366.204 96.3047C367.561 94.1337 368.375 91.6008 368.375 88.7966C368.375 86.0828 367.561 83.4595 366.204 81.2884C365.752 80.6552 364.847 80.3838 364.214 80.8361C363.581 81.2884 363.31 82.1026 363.762 82.8262Z" fill="white"/>
<path d="M369.008 80.1125C370.546 82.6453 371.36 85.6305 371.36 88.7966C371.36 91.9626 370.456 94.9478 369.008 97.4807C368.647 98.2043 368.828 99.0185 369.551 99.4708C370.275 99.8326 371.089 99.6517 371.541 98.928C373.351 95.9429 374.346 92.5054 374.346 88.7966C374.346 85.0877 373.351 81.6503 371.541 78.6651C371.18 77.9414 370.275 77.7605 369.551 78.1224C368.828 78.5747 368.647 79.3888 369.008 80.1125Z" fill="white"/>
<path d="M374.255 77.3987C376.155 80.7457 377.331 84.6354 377.331 88.7966C377.331 92.9577 376.245 96.8474 374.255 100.194C373.893 100.918 374.074 101.732 374.798 102.185C375.522 102.546 376.336 102.365 376.788 101.642C378.959 97.8425 380.225 93.5004 380.225 88.7966C380.225 84.0927 378.959 79.7506 376.788 75.9513C376.426 75.2277 375.522 75.0467 374.798 75.4086C374.074 75.7704 373.893 76.675 374.255 77.3987Z" fill="white"/>
<g filter="url(#filter1_d)">
<path d="M75.7973 231.379V238.977H74.6358L70.4457 233.832V238.977H69.0454V231.379H70.2069L74.397 236.524V231.379H75.7973Z" fill="white"/>
<path d="M77.7882 231.379H79.1993V238.977H77.7882V231.379Z" fill="white"/>
<path d="M84.7264 239.086C83.9593 239.086 83.2646 238.919 82.6422 238.586C82.0271 238.246 81.5423 237.779 81.1877 237.186C80.8403 236.593 80.6666 235.923 80.6666 235.178C80.6666 234.432 80.8439 233.763 81.1985 233.17C81.5531 232.576 82.038 232.113 82.6531 231.78C83.2755 231.44 83.9702 231.27 84.7373 231.27C85.3596 231.27 85.9277 231.379 86.4415 231.596C86.9553 231.813 87.3895 232.128 87.7441 232.54L86.8323 233.398C86.2823 232.804 85.6057 232.508 84.8024 232.508C84.2814 232.508 83.8146 232.623 83.4021 232.855C82.9896 233.079 82.6676 233.394 82.436 233.799C82.2044 234.205 82.0886 234.664 82.0886 235.178C82.0886 235.692 82.2044 236.151 82.436 236.556C82.6676 236.962 82.9896 237.28 83.4021 237.512C83.8146 237.736 84.2814 237.848 84.8024 237.848C85.6057 237.848 86.2823 237.548 86.8323 236.947L87.7441 237.816C87.3895 238.228 86.9517 238.543 86.4307 238.76C85.9169 238.977 85.3488 239.086 84.7264 239.086Z" fill="white"/>
<path d="M91.6671 235.797L90.4622 237.034V238.977H89.0511V231.379H90.4622V235.276L94.2181 231.379H95.8029L92.6115 234.776L95.9983 238.977H94.3484L91.6671 235.797Z" fill="white"/>
<path d="M103.418 239.086C102.644 239.086 101.946 238.919 101.323 238.586C100.701 238.246 100.212 237.779 99.8579 237.186C99.5033 236.585 99.326 235.916 99.326 235.178C99.326 234.44 99.5033 233.774 99.8579 233.181C100.212 232.58 100.701 232.113 101.323 231.78C101.946 231.44 102.644 231.27 103.418 231.27C104.193 231.27 104.891 231.44 105.513 231.78C106.136 232.113 106.624 232.576 106.979 233.17C107.333 233.763 107.511 234.432 107.511 235.178C107.511 235.923 107.333 236.593 106.979 237.186C106.624 237.779 106.136 238.246 105.513 238.586C104.891 238.919 104.193 239.086 103.418 239.086ZM103.418 237.848C103.925 237.848 104.381 237.736 104.786 237.512C105.191 237.28 105.51 236.962 105.741 236.556C105.973 236.144 106.089 235.684 106.089 235.178C106.089 234.671 105.973 234.215 105.741 233.81C105.51 233.398 105.191 233.079 104.786 232.855C104.381 232.623 103.925 232.508 103.418 232.508C102.912 232.508 102.456 232.623 102.051 232.855C101.645 233.079 101.327 233.398 101.095 233.81C100.864 234.215 100.748 234.671 100.748 235.178C100.748 235.684 100.864 236.144 101.095 236.556C101.327 236.962 101.645 237.28 102.051 237.512C102.456 237.736 102.912 237.848 103.418 237.848Z" fill="white"/>
<path d="M115.713 231.379V238.977H114.302V235.721H110.372V238.977H108.961V231.379H110.372V234.516H114.302V231.379H115.713Z" fill="white"/>
<path d="M124.684 238.977L124.673 233.94L122.176 238.109H121.547L119.05 234.006V238.977H117.704V231.379H118.866L121.883 236.415L124.847 231.379H126.008L126.019 238.977H124.684Z" fill="white"/>
<path d="M131.305 236.296V238.977H129.893V236.318L126.908 231.379H128.417L130.642 235.08L132.889 231.379H134.279L131.305 236.296Z" fill="white"/>
</g>
<g filter="url(#filter2_d)">
<path d="M176.268 238.665C175.661 238.665 175.118 238.513 174.64 238.209C174.163 237.898 173.786 237.449 173.511 236.863C173.236 236.269 173.099 235.567 173.099 234.757C173.099 233.946 173.236 233.248 173.511 232.662C173.786 232.068 174.163 231.62 174.64 231.316C175.118 231.005 175.661 230.849 176.268 230.849C176.876 230.849 177.419 231.005 177.897 231.316C178.382 231.62 178.761 232.068 179.036 232.662C179.311 233.248 179.449 233.946 179.449 234.757C179.449 235.567 179.311 236.269 179.036 236.863C178.761 237.449 178.382 237.898 177.897 238.209C177.419 238.513 176.876 238.665 176.268 238.665ZM176.268 237.438C176.811 237.438 177.238 237.214 177.549 236.765C177.868 236.316 178.027 235.647 178.027 234.757C178.027 233.867 177.868 233.197 177.549 232.749C177.238 232.3 176.811 232.076 176.268 232.076C175.733 232.076 175.306 232.3 174.988 232.749C174.676 233.197 174.521 233.867 174.521 234.757C174.521 235.647 174.676 236.316 174.988 236.765C175.306 237.214 175.733 237.438 176.268 237.438ZM182.735 233.899C183.806 233.899 184.598 234.109 185.112 234.529C185.626 234.941 185.883 235.506 185.883 236.222C185.883 236.678 185.77 237.091 185.546 237.46C185.322 237.829 184.985 238.122 184.537 238.339C184.088 238.556 183.534 238.665 182.876 238.665C182.333 238.665 181.808 238.589 181.302 238.437C180.795 238.278 180.368 238.06 180.021 237.785L180.618 236.689C180.9 236.921 181.237 237.105 181.627 237.243C182.025 237.373 182.434 237.438 182.854 237.438C183.353 237.438 183.744 237.337 184.026 237.134C184.316 236.924 184.461 236.638 184.461 236.277C184.461 235.886 184.305 235.593 183.994 235.397C183.69 235.195 183.165 235.093 182.42 235.093H180.585L180.976 230.958H185.438V232.141H182.17L182.007 233.899H182.735ZM192.385 229.416H193.601L190.019 239.642H188.803L192.385 229.416ZM202.047 237.362V238.556H196.446V237.612L199.464 234.746C199.804 234.42 200.032 234.138 200.148 233.899C200.271 233.653 200.332 233.411 200.332 233.172C200.332 232.817 200.213 232.546 199.974 232.358C199.735 232.17 199.384 232.076 198.921 232.076C198.147 232.076 197.553 232.34 197.141 232.868L196.153 232.108C196.45 231.71 196.848 231.403 197.347 231.186C197.854 230.961 198.418 230.849 199.041 230.849C199.866 230.849 200.524 231.044 201.016 231.435C201.508 231.826 201.754 232.358 201.754 233.031C201.754 233.443 201.668 233.831 201.494 234.192C201.32 234.554 200.987 234.967 200.495 235.43L198.465 237.362H202.047ZM209.431 236.83H208.085V238.556H206.718V236.83H202.549V235.853L206.294 230.958H207.803L204.275 235.636H206.761V234.106H208.085V235.636H209.431V236.83Z" fill="white"/>
</g>
<path d="M69.9114 188.989C69.5434 189.298 69.0454 189.674 69.0454 190.204C69.0454 190.823 69.5001 191.353 70.1279 191.353C70.5825 191.353 70.9722 190.955 71.297 190.668L73.3104 188.901V192.082C73.3104 192.789 73.6135 193.186 74.3929 193.186C75.1723 193.186 75.4754 192.789 75.4754 192.082V188.901L77.4888 190.668C77.8136 190.955 78.2033 191.353 78.6579 191.353C79.2858 191.353 79.7404 190.823 79.7404 190.204C79.7404 189.674 79.2425 189.298 78.8744 188.989L76.0383 186.515L79.1559 183.797C79.4373 183.554 79.7404 183.245 79.7404 182.847C79.7404 182.229 79.2858 181.677 78.6579 181.677C78.3115 181.677 78.0301 181.875 77.7919 182.096L75.4754 184.129V180.903C75.4754 180.196 75.1723 179.799 74.3929 179.799C73.6135 179.799 73.3104 180.196 73.3104 180.903V184.129L70.9939 182.096C70.7557 181.875 70.4743 181.677 70.1279 181.677C69.5001 181.677 69.0454 182.229 69.0454 182.847C69.0454 183.245 69.3485 183.554 69.63 183.797L72.7475 186.515L69.9114 188.989Z" fill="white"/>
<path d="M85.4933 188.989C85.1253 189.298 84.6273 189.674 84.6273 190.204C84.6273 190.823 85.082 191.353 85.7098 191.353C86.1645 191.353 86.5542 190.955 86.8789 190.668L88.8923 188.901V192.082C88.8923 192.789 89.1954 193.186 89.9748 193.186C90.7542 193.186 91.0573 192.789 91.0573 192.082V188.901L93.0707 190.668C93.3955 190.955 93.7852 191.353 94.2398 191.353C94.8677 191.353 95.3223 190.823 95.3223 190.204C95.3223 189.674 94.8244 189.298 94.4563 188.989L91.6202 186.515L94.7378 183.797C95.0192 183.554 95.3223 183.245 95.3223 182.847C95.3223 182.229 94.8677 181.677 94.2398 181.677C93.8934 181.677 93.612 181.875 93.3738 182.096L91.0573 184.129V180.903C91.0573 180.196 90.7542 179.799 89.9748 179.799C89.1954 179.799 88.8923 180.196 88.8923 180.903V184.129L86.5758 182.096C86.3377 181.875 86.0562 181.677 85.7098 181.677C85.082 181.677 84.6273 182.229 84.6273 182.847C84.6273 183.245 84.9304 183.554 85.2119 183.797L88.3294 186.515L85.4933 188.989Z" fill="white"/>
<path d="M101.075 188.989C100.707 189.298 100.209 189.674 100.209 190.204C100.209 190.823 100.664 191.353 101.292 191.353C101.746 191.353 102.136 190.955 102.461 190.668L104.474 188.901V192.082C104.474 192.789 104.777 193.186 105.557 193.186C106.336 193.186 106.639 192.789 106.639 192.082V188.901L108.653 190.668C108.977 190.955 109.367 191.353 109.822 191.353C110.45 191.353 110.904 190.823 110.904 190.204C110.904 189.674 110.406 189.298 110.038 188.989L107.202 186.515L110.32 183.797C110.601 183.554 110.904 183.245 110.904 182.847C110.904 182.229 110.45 181.677 109.822 181.677C109.475 181.677 109.194 181.875 108.956 182.096L106.639 184.129V180.903C106.639 180.196 106.336 179.799 105.557 179.799C104.777 179.799 104.474 180.196 104.474 180.903V184.129L102.158 182.096C101.92 181.875 101.638 181.677 101.292 181.677C100.664 181.677 100.209 182.229 100.209 182.847C100.209 183.245 100.512 183.554 100.794 183.797L103.911 186.515L101.075 188.989Z" fill="white"/>
<path d="M116.657 188.989C116.289 189.298 115.791 189.674 115.791 190.204C115.791 190.823 116.246 191.353 116.874 191.353C117.328 191.353 117.718 190.955 118.043 190.668L120.056 188.901V192.082C120.056 192.789 120.359 193.186 121.139 193.186C121.918 193.186 122.221 192.789 122.221 192.082V188.901L124.235 190.668C124.559 190.955 124.949 191.353 125.404 191.353C126.032 191.353 126.486 190.823 126.486 190.204C126.486 189.674 125.988 189.298 125.62 188.989L122.784 186.515L125.902 183.797C126.183 183.554 126.486 183.245 126.486 182.847C126.486 182.229 126.032 181.677 125.404 181.677C125.057 181.677 124.776 181.875 124.538 182.096L122.221 184.129V180.903C122.221 180.196 121.918 179.799 121.139 179.799C120.359 179.799 120.056 180.196 120.056 180.903V184.129L117.74 182.096C117.502 181.875 117.22 181.677 116.874 181.677C116.246 181.677 115.791 182.229 115.791 182.847C115.791 183.245 116.094 183.554 116.376 183.797L119.493 186.515L116.657 188.989Z" fill="white"/>
<path d="M151.263 180.108H156.568C157.13 180.108 157.65 179.799 157.65 179.004C157.65 178.208 157.13 177.899 156.568 177.899H149.098V187.597H155.485V192.877H150.484C150.138 192.877 149.64 192.568 149.336 192.435L148.687 192.148C148.449 192.038 148.254 191.971 147.994 191.971C147.431 191.971 146.955 192.501 146.955 193.076C146.955 193.849 147.604 194.048 148.189 194.313L149.012 194.689C149.553 194.932 149.878 195.086 150.441 195.086H155.247C156.026 195.086 156.589 194.998 157.13 194.335C157.585 193.783 157.65 193.297 157.65 192.612V187.884C157.65 187.111 157.585 186.581 156.979 186.007C156.459 185.498 155.94 185.388 155.247 185.388H151.263V180.108Z" fill="white"/>
<path d="M164.702 180.108C165.33 180.108 165.784 179.666 165.784 179.004C165.784 178.429 165.33 177.899 164.767 177.899H163.468C162.71 177.899 162.537 178.495 162.537 179.004V193.694C162.537 194.711 162.927 195.086 163.944 195.086H171.825C172.799 195.086 173.232 194.733 173.232 193.694V188.746C173.232 187.73 173.015 187.266 171.933 187.266H164.702V180.108ZM171.067 189.475V192.877H164.702V189.475H171.067Z" fill="white"/>
<path d="M186.649 180.108V183.157C186.649 184.129 186.692 184.107 185.978 184.747L182.99 187.376C182.449 187.862 182.427 187.929 182.427 188.658V193.982C182.427 194.689 182.73 195.086 183.51 195.086C184.289 195.086 184.592 194.689 184.592 193.982V189.696C184.592 188.923 184.635 188.878 185.198 188.37L188.229 185.697C188.835 185.167 188.814 185.079 188.814 184.305V177.899H179.201C178.509 177.899 178.119 178.517 178.119 179.004V180.108C178.119 180.594 178.509 181.213 179.201 181.213C179.894 181.213 180.284 180.594 180.284 180.108H186.649Z" fill="white"/>
<path d="M198.031 185.388V180.108H200.066V185.388H198.031ZM196.948 177.899C196.212 177.899 195.866 178.429 195.866 179.004V185.388C195.195 185.388 194.675 185.631 194.285 186.007C193.896 186.382 193.701 186.934 193.701 187.619V192.877C193.701 194.225 194.523 195.086 195.866 195.086H202.231C203.573 195.086 204.396 194.225 204.396 192.877V187.619C204.396 186.934 204.201 186.382 203.811 186.007C203.422 185.631 202.902 185.388 202.231 185.388V179.004C202.231 178.429 201.884 177.899 201.148 177.899H196.948ZM195.866 192.877V187.597H202.231V192.877H195.866Z" fill="white"/>
<path d="M379.382 222.03H354.718V262.218H379.382V222.03Z" fill="#FF5F00"/>
<path d="M357.258 242.127C357.255 238.257 358.134 234.437 359.83 230.956C361.525 227.476 363.991 224.425 367.043 222.036C363.264 219.073 358.725 217.23 353.946 216.719C349.166 216.208 344.339 217.048 340.016 219.144C335.693 221.24 332.048 224.507 329.498 228.572C326.948 232.636 325.595 237.335 325.595 242.13C325.595 246.925 326.948 251.624 329.498 255.689C332.048 259.753 335.693 263.02 340.016 265.116C344.339 267.212 349.166 268.053 353.946 267.541C358.725 267.03 363.264 265.187 367.043 262.224C363.991 259.834 361.523 256.783 359.828 253.301C358.133 249.819 357.254 245.998 357.258 242.127Z" fill="#EB001B"/>
<path d="M406.046 257.966V257.142H406.402V256.972H405.555V257.142H405.89V257.966H406.046ZM407.69 257.966V256.972H407.434L407.135 257.682L406.836 256.972H406.58V257.966H406.765V257.213L407.042 257.859H407.235L407.512 257.213V257.966H407.69Z" fill="#F79E1B"/>
<path d="M408.494 242.128C408.494 246.923 407.142 251.622 404.591 255.687C402.041 259.752 398.395 263.019 394.071 265.114C389.747 267.21 384.92 268.05 380.14 267.538C375.361 267.025 370.822 265.182 367.043 262.218C370.093 259.827 372.559 256.775 374.255 253.295C375.95 249.814 376.831 245.994 376.831 242.124C376.831 238.254 375.95 234.434 374.255 230.953C372.559 227.473 370.093 224.421 367.043 222.03C370.822 219.066 375.361 217.223 380.14 216.71C384.92 216.198 389.747 217.038 394.071 219.134C398.395 221.229 402.041 224.496 404.591 228.561C407.142 232.626 408.494 237.325 408.494 242.12V242.128Z" fill="#F79E1B"/>
<defs>
<filter id="filter0_f" x="0.377659" y="0.680393" width="467.647" height="326.639" filterUnits="userSpaceOnUse" color-interpolation-filters="sRGB">
<feFlood flood-opacity="0" result="BackgroundImageFix"/>
<feBlend mode="normal" in="SourceGraphic" in2="BackgroundImageFix" result="shape"/>
<feGaussianBlur stdDeviation="19.634" result="effect1_foregroundBlur"/>
</filter>
<filter id="filter1_d" x="68.5931" y="231.27" width="66.138" height="9.17258" filterUnits="userSpaceOnUse" color-interpolation-filters="sRGB">
<feFlood flood-opacity="0" result="BackgroundImageFix"/>
<feColorMatrix in="SourceAlpha" type="matrix" values="0 0 0 0 0 0 0 0 0 0 0 0 0 0 0 0 0 0 127 0" result="hardAlpha"/>
<feOffset dy="0.904593"/>
<feGaussianBlur stdDeviation="0.226148"/>
<feColorMatrix type="matrix" values="0 0 0 0 1 0 0 0 0 1 0 0 0 0 1 0 0 0 0.21 0"/>
<feBlend mode="normal" in2="BackgroundImageFix" result="effect1_dropShadow"/>
<feBlend mode="normal" in="SourceGraphic" in2="effect1_dropShadow" result="shape"/>
</filter>
<filter id="filter2_d" x="172.646" y="229.416" width="37.2372" height="11.5824" filterUnits="userSpaceOnUse" color-interpolation-filters="sRGB">
<feFlood flood-opacity="0" result="BackgroundImageFix"/>
<feColorMatrix in="SourceAlpha" type="matrix" values="0 0 0 0 0 0 0 0 0 0 0 0 0 0 0 0 0 0 127 0" result="hardAlpha"/>
<feOffset dy="0.904593"/>
<feGaussianBlur stdDeviation="0.226148"/>
<feColorMatrix type="matrix" values="0 0 0 0 1 0 0 0 0 1 0 0 0 0 1 0 0 0 0.21 0"/>
<feBlend mode="normal" in2="BackgroundImageFix" result="effect1_dropShadow"/>
<feBlend mode="normal" in="SourceGraphic" in2="effect1_dropShadow" result="shape"/>
</filter>
<linearGradient id="paint0_linear" x1="552.808" y1="39.9485" x2="552.808" y2="429.06" gradientUnits="userSpaceOnUse">
<stop stop-color="#ADADAD"/>
<stop offset="1" stop-color="#89919E"/>
</linearGradient>
<linearGradient id="paint1_linear" x1="552.808" y1="39.9485" x2="737.834" y2="693.983" gradientUnits="userSpaceOnUse">
<stop stop-color="#03153D"/>
<stop offset="1" stop-color="#025FEE"/>
</linearGradient>
<linearGradient id="paint2_linear" x1="552.808" y1="39.9485" x2="552.808" y2="429.06" gradientUnits="userSpaceOnUse">
<stop stop-color="#E42C64"/>
<stop offset="1" stop-color="#614AD3"/>
</linearGradient>
<linearGradient id="paint3_linear" x1="67.6303" y1="115.641" x2="124.428" y2="152.521" gradientUnits="userSpaceOnUse">
<stop stop-color="#DDD9D6"/>
<stop offset="0.212761" stop-color="#8A868C"/>
<stop offset="0.548384" stop-color="#F2F3F3" stop-opacity="0.8"/>
<stop offset="0.914316" stop-color="#807C80"/>
<stop offset="1" stop-color="#A6A8AB"/>
</linearGradient>
</defs>
</svg>
