<svg width="556" height="514" viewBox="0 0 556 514" fill="none" xmlns="http://www.w3.org/2000/svg">
<g clip-path="url(#clip0)">
<rect x="0.155029" y="35.4373" width="377.192" height="457.682" rx="30" fill="#F7F9FE" fill-opacity="0.49"/>
<path d="M462.81 275.311C392.797 221.485 324.889 265.353 249.144 249.842C172.851 234.22 142.455 182.202 55.5593 206.213C-21.4159 227.483 -68.122 312.759 -25.8061 384.152C-13.7475 404.497 6.79506 419.846 15.1902 442.609C28.7322 479.331 8.11897 507.523 12.1399 543.612C28.8488 693.556 257.844 635.476 342.104 588.825C474.249 515.662 563.646 352.836 462.81 275.311Z" fill="url(#paint0_linear)"/>
<g clip-path="url(#clip1)">
<path d="M155.669 144.937C166.083 139.386 170.033 126.448 164.49 116.04C158.948 105.632 146.013 101.694 135.598 107.245C125.184 112.796 121.234 125.733 126.777 136.142C132.319 146.55 145.254 150.487 155.669 144.937Z" fill="#FFD666"/>
<path d="M153.214 140.943C161.488 136.533 164.625 126.255 160.222 117.987C155.819 109.718 145.543 106.59 137.269 111C128.996 115.41 125.858 125.687 130.261 133.956C134.664 142.224 144.941 145.353 153.214 140.943Z" fill="#FFC53D"/>
<path d="M149.024 131.045C151.237 129.723 152.585 127.957 153.244 125.441L150.404 124.575C150.047 126.189 149.013 127.608 147.508 128.507C144.616 130.235 141.334 129.433 139.517 126.394C137.701 123.354 138.58 120.066 141.443 118.356C142.859 117.51 144.504 117.247 146.078 117.669L146.696 114.817C144.233 114.246 141.992 114.584 139.897 115.836C135.382 118.533 134.075 123.518 136.773 128.033C139.506 132.608 144.45 133.778 149.024 131.045Z" fill="white"/>
<path d="M142.715 137.436L155.858 129.584L156.739 131.059L143.596 138.912L142.715 137.436Z" fill="white"/>
</g>
<g clip-path="url(#clip2)">
<path d="M170.919 115.615C177.284 122.052 187.659 122.116 194.093 115.758C200.527 109.401 200.583 99.0292 194.218 92.5925C187.853 86.1559 177.477 86.0918 171.043 92.4493C164.609 98.8068 164.554 109.178 170.919 115.615Z" fill="#FFD666"/>
<path d="M173.316 112.935C178.372 118.048 186.615 118.099 191.726 113.049C196.837 107.998 196.882 99.7586 191.825 94.6452C186.769 89.5317 178.526 89.4808 173.415 94.5313C168.303 99.5819 168.259 107.821 173.316 112.935Z" fill="#FFC53D"/>
<path d="M179.716 107.662C181.169 108.981 182.753 109.571 184.731 109.494L184.733 107.234C183.478 107.332 182.216 106.893 181.228 105.997C179.33 104.273 179.187 101.706 180.998 99.7107C182.809 97.7154 185.398 97.6272 187.277 99.3327C188.207 100.177 188.762 101.317 188.803 102.555L191.017 102.374C190.887 100.454 190.145 98.8975 188.77 97.6491C185.806 94.959 181.887 95.1117 179.197 98.0755C176.471 101.078 176.714 104.937 179.716 107.662Z" fill="white"/>
<path d="M173.666 104.484L182.294 112.315L181.414 113.283L172.787 105.452L173.666 104.484Z" fill="white"/>
</g>
<g clip-path="url(#clip3)">
<path d="M193.126 77.9412C204.836 70.1234 208 54.298 200.193 42.5942C192.386 30.8904 176.564 27.7402 164.854 35.558C153.144 43.3758 149.98 59.2012 157.787 70.905C165.594 82.6088 181.416 85.759 193.126 77.9412Z" fill="#FFD666"/>
<path d="M189.741 73.4892C199.044 67.2785 201.557 54.7064 195.355 45.4086C189.153 36.1108 176.584 33.6082 167.281 39.8188C157.978 46.0295 155.464 58.6016 161.666 67.8994C167.869 77.1972 180.438 79.6998 189.741 73.4892Z" fill="#FFC53D"/>
<path d="M183.155 62.781C185.686 61.3138 187.241 59.33 188.027 56.485L184.817 55.4598C184.388 57.2866 183.193 58.881 181.472 59.8788C178.165 61.796 174.453 60.8368 172.438 57.3608C170.423 53.8849 171.469 50.1673 174.742 48.2696C176.362 47.3306 178.233 47.0577 180.012 47.5595L180.756 44.3325C177.97 43.6482 175.422 43.9979 173.026 45.3869C167.863 48.3801 166.306 54.0169 169.299 59.1802C172.332 64.4111 177.924 65.8134 183.155 62.781Z" fill="white"/>
<path d="M175.9 69.9382L190.93 61.225L191.909 62.9124L176.878 71.6256L175.9 69.9382Z" fill="white"/>
</g>
<path d="M212.841 77.0011C227.86 79.4269 242.005 69.2286 244.435 54.2226C246.864 39.2166 236.659 25.0854 221.64 22.6596C206.621 20.2338 192.476 30.4321 190.046 45.4381C187.617 60.4441 197.822 74.5753 212.841 77.0011Z" fill="#FFD666"/>
<path d="M213.437 70.9875C225.369 72.9146 236.606 64.8129 238.536 52.8917C240.466 40.9706 232.359 29.7443 220.427 27.8172C208.496 25.8901 197.259 33.9919 195.328 45.913C193.398 57.8342 201.506 69.0604 213.437 70.9875Z" fill="#FFC53D"/>
<path d="M215.861 56.7699C218.814 57.4519 221.395 57.0524 224.004 55.4563L222.302 52.4086C220.684 53.4868 218.651 53.847 216.643 53.3833C212.784 52.4922 210.655 49.1385 211.591 45.0824C212.528 41.0263 215.951 38.9548 219.771 39.8368C221.661 40.2733 223.27 41.3913 224.26 43.0302L227.108 41.1161C225.484 38.6258 223.309 37.0867 220.514 36.4411C214.488 35.0499 209.32 38.2117 207.929 44.2368C206.519 50.3406 209.757 55.3605 215.861 56.7699Z" fill="white"/>
<path d="M205.306 57.0479L222.845 61.0978L222.39 63.0667L204.851 59.0169L205.306 57.0479Z" fill="white"/>
</g>
<g clip-path="url(#clip4)">
<rect x="65.9331" y="132.33" width="183.916" height="382.365" rx="22.7057" fill="#EEEFF5"/>
<rect x="72.7871" y="139.142" width="170.293" height="368.741" rx="18.1637" fill="white"/>
<mask id="mask0" mask-type="alpha" maskUnits="userSpaceOnUse" x="72" y="139" width="172" height="369">
<rect x="72.7871" y="139.142" width="170.293" height="368.741" rx="18.1646" fill="white"/>
</mask>
<g mask="url(#mask0)">
<path d="M217.95 164.638H97.8918C95.5232 164.638 93.603 166.575 93.603 168.964V252.828C93.603 255.217 95.5232 257.154 97.8918 257.154H217.95C220.319 257.154 222.239 255.217 222.239 252.828V168.964C222.239 166.575 220.319 164.638 217.95 164.638Z" fill="#0068FF"/>
<path d="M198.113 245.959C199.974 245.959 201.482 242.748 201.482 238.787C201.482 234.826 199.974 231.615 198.113 231.615C196.253 231.615 194.745 234.826 194.745 238.787C194.745 242.748 196.253 245.959 198.113 245.959Z" fill="#FF5F00"/>
<path d="M222.178 192.931H93.6641V206.347H222.178V192.931Z" fill="white"/>
<path d="M147.3 220.249H104.208C103.418 220.249 102.778 220.895 102.778 221.691V223.442C102.778 224.238 103.418 224.883 104.208 224.883H147.3C148.089 224.883 148.729 224.238 148.729 223.442V221.691C148.729 220.895 148.089 220.249 147.3 220.249Z" fill="white"/>
<path d="M129.063 234.152H104.208C103.418 234.152 102.778 234.797 102.778 235.594V237.344C102.778 238.141 103.418 238.786 104.208 238.786H129.063C129.853 238.786 130.493 238.141 130.493 237.344V235.594C130.493 234.797 129.853 234.152 129.063 234.152Z" fill="white"/>
<path d="M115.206 173.96H104.208C103.418 173.96 102.778 174.606 102.778 175.402V181.732C102.778 182.528 103.418 183.174 104.208 183.174H115.206C115.995 183.174 116.635 182.528 116.635 181.732V175.402C116.635 174.606 115.995 173.96 115.206 173.96Z" fill="white"/>
<path d="M194.744 238.787C194.741 236.007 195.978 233.374 198.114 231.616C194.37 228.521 188.888 228.886 185.579 232.45C182.271 236.014 182.271 241.555 185.579 245.119C188.888 248.683 194.37 249.048 198.114 245.953C195.98 244.196 194.742 241.565 194.744 238.787Z" fill="#EE340A"/>
<path d="M203.934 229.518C201.811 229.515 199.754 230.257 198.114 231.615C200.244 233.376 201.479 236.007 201.479 238.784C201.479 241.561 200.244 244.192 198.114 245.953C201.244 248.543 205.686 248.761 209.052 246.491C212.417 244.221 213.913 239.997 212.735 236.09C211.557 232.183 207.983 229.514 203.934 229.518Z" fill="#F79E1B"/>
<path d="M203.934 229.518C201.811 229.515 199.754 230.257 198.114 231.615C200.244 233.376 201.479 236.007 201.479 238.784C201.479 241.561 200.244 244.192 198.114 245.953C201.244 248.543 205.686 248.761 209.052 246.491C212.417 244.221 213.913 239.997 212.735 236.09C211.557 232.183 207.983 229.514 203.934 229.518Z" fill="white" fill-opacity="0.2"/>
<rect x="92.5151" y="308.804" width="128.765" height="15.8937" rx="3.07186" fill="#F1F2F8"/>
<rect x="92.5151" y="334.23" width="128.765" height="29.1591" rx="3.07186" fill="#F1F2F8"/>
</g>
</g>
<path d="M409.075 413.554C449.885 366.95 471.1 304.05 462.305 238.225C448.513 134.999 365.32 57.5334 265.076 45.4065" stroke="#DEE1ED" stroke-width="2" stroke-dasharray="12 8"/>
<g filter="url(#filter0_d)">
<rect x="333.155" y="57.3999" width="58" height="58" rx="5.20714" fill="white"/>
</g>
<g filter="url(#filter1_d)">
<path d="M358.918 84.7801C360.071 86.8061 361.749 88.484 363.775 89.6372L364.861 88.1157C365.036 87.871 365.294 87.6989 365.587 87.6319C365.88 87.5648 366.188 87.6075 366.451 87.7519C368.19 88.7018 370.109 89.2731 372.084 89.4283C372.392 89.4527 372.68 89.5924 372.89 89.8195C373.1 90.0466 373.216 90.3444 373.216 90.6536V96.1374C373.216 96.4417 373.103 96.7352 372.899 96.9611C372.695 97.187 372.415 97.3293 372.112 97.3603C371.461 97.4279 370.805 97.4611 370.143 97.4611C359.623 97.4611 351.094 88.9317 351.094 78.4114C351.094 77.7502 351.127 77.0939 351.195 76.4425C351.226 76.1398 351.368 75.8594 351.594 75.6555C351.82 75.4516 352.113 75.3388 352.417 75.3389H357.901C358.21 75.3388 358.508 75.4553 358.735 75.6651C358.962 75.8749 359.102 76.1626 359.127 76.4708C359.282 78.4456 359.853 80.3651 360.803 82.1034C360.947 82.3671 360.99 82.6745 360.923 82.9676C360.856 83.2607 360.684 83.519 360.439 83.6937L358.918 84.7801ZM356.283 85.0463C355.986 84.4255 356.21 83.6926 356.77 83.2925L358.153 82.3049C357.49 80.8745 357.036 79.3563 356.805 77.7969H353.564C353.557 78.0009 353.553 78.2062 353.553 78.4114C353.552 87.5749 360.98 95.0031 370.143 95.0031C370.349 95.0031 370.554 94.9994 370.758 94.9908V91.7499C369.199 91.5184 367.68 91.0643 366.25 90.4016L365.262 91.7844C364.862 92.3447 364.129 92.5693 363.509 92.2716C363.211 92.1289 362.918 91.9767 362.63 91.815L362.559 91.7744C360.149 90.4025 358.152 88.4062 356.78 85.9956L356.74 85.9244C356.578 85.6366 356.426 85.3437 356.283 85.0463Z" fill="#0068FF"/>
</g>
<circle cx="469.939" cy="231.35" r="30.7241" fill="#0068FF"/>
<path d="M476.98 242.871C475.792 242.871 474.652 242.399 473.812 241.559C472.971 240.719 472.499 239.579 472.499 238.391C472.499 237.202 472.971 236.063 473.812 235.222C474.652 234.382 475.792 233.91 476.98 233.91C478.168 233.91 479.308 234.382 480.148 235.222C480.989 236.063 481.461 237.202 481.461 238.391C481.461 239.579 480.989 240.719 480.148 241.559C479.308 242.399 478.168 242.871 476.98 242.871ZM476.98 240.311C477.489 240.311 477.978 240.109 478.338 239.748C478.698 239.388 478.9 238.9 478.9 238.391C478.9 237.881 478.698 237.393 478.338 237.033C477.978 236.673 477.489 236.47 476.98 236.47C476.471 236.47 475.982 236.673 475.622 237.033C475.262 237.393 475.06 237.881 475.06 238.391C475.06 238.9 475.262 239.388 475.622 239.748C475.982 240.109 476.471 240.311 476.98 240.311ZM462.898 228.789C462.31 228.789 461.727 228.673 461.183 228.448C460.64 228.223 460.146 227.893 459.73 227.477C459.314 227.061 458.984 226.567 458.759 226.023C458.533 225.48 458.417 224.897 458.417 224.309C458.417 223.72 458.533 223.138 458.759 222.594C458.984 222.05 459.314 221.557 459.73 221.14C460.146 220.724 460.64 220.394 461.183 220.169C461.727 219.944 462.31 219.828 462.898 219.828C464.086 219.828 465.226 220.3 466.066 221.14C466.907 221.981 467.379 223.12 467.379 224.309C467.379 225.497 466.907 226.637 466.066 227.477C465.226 228.317 464.086 228.789 462.898 228.789ZM462.898 226.229C463.407 226.229 463.896 226.027 464.256 225.667C464.616 225.306 464.818 224.818 464.818 224.309C464.818 223.799 464.616 223.311 464.256 222.951C463.896 222.591 463.407 222.388 462.898 222.388C462.389 222.388 461.9 222.591 461.54 222.951C461.18 223.311 460.978 223.799 460.978 224.309C460.978 224.818 461.18 225.306 461.54 225.667C461.9 226.027 462.389 226.229 462.898 226.229ZM478.086 221.393C478.586 220.893 479.396 220.893 479.896 221.393C480.396 221.892 480.396 222.703 479.896 223.203L461.793 241.307C461.293 241.807 460.483 241.807 459.983 241.307C459.483 240.807 459.483 239.997 459.983 239.497L478.086 221.393Z" fill="white"/>
<g filter="url(#filter2_ddddd)">
<g filter="url(#filter3_i)">
<path d="M396.495 330.55C396.495 324.551 396.495 321.551 398.022 319.448C398.516 318.769 399.113 318.171 399.792 317.678C401.895 316.15 404.895 316.15 410.895 316.15H471.204C477.204 316.15 480.204 316.15 482.307 317.678C482.986 318.171 483.583 318.769 484.077 319.448C485.604 321.551 485.604 324.551 485.604 330.55V389.081C485.604 395.081 485.604 398.081 484.077 400.183C483.583 400.863 482.986 401.46 482.307 401.953C480.204 403.481 477.204 403.481 471.204 403.481H410.895C404.895 403.481 401.895 403.481 399.792 401.953C399.113 401.46 398.516 400.863 398.022 400.183C396.495 398.081 396.495 395.081 396.495 389.081V330.55Z" fill="white"/>
</g>
</g>
<g filter="url(#filter4_d)">
<rect x="378.417" y="92.8511" width="58" height="58" rx="5.23136" fill="white"/>
</g>
<path d="M434.328 121.851C434.328 136.714 422.279 148.762 407.417 148.762C392.554 148.762 380.506 136.714 380.506 121.851C380.506 106.989 392.554 94.9405 407.417 94.9405C422.279 94.9405 434.328 106.989 434.328 121.851Z" stroke="white" stroke-width="0.7867"/>
<path d="M418.794 133.228H396.04C395.705 133.228 395.384 133.095 395.147 132.858C394.91 132.621 394.776 132.299 394.776 131.964V122.467C394.776 122.286 394.815 122.108 394.89 121.943C394.965 121.779 395.074 121.632 395.21 121.514L399.833 117.483V111.739C399.833 111.403 399.966 111.082 400.203 110.845C400.44 110.608 400.761 110.475 401.097 110.475H418.794C419.129 110.475 419.451 110.608 419.688 110.845C419.925 111.082 420.058 111.403 420.058 111.739V131.964C420.058 132.299 419.925 132.621 419.688 132.858C419.451 133.095 419.129 133.228 418.794 133.228ZM403.625 130.7H407.417V123.042L402.361 118.633L397.305 123.042V130.7H401.097V126.908C401.097 126.209 401.663 125.644 402.361 125.644C403.059 125.644 403.625 126.209 403.625 126.908V130.7ZM409.945 130.7H417.53V113.003H402.361V115.691C402.657 115.691 402.954 115.795 403.191 116.004L409.512 121.514C409.648 121.632 409.757 121.779 409.832 121.943C409.907 122.108 409.945 122.286 409.945 122.467V130.7ZM412.473 121.851C412.473 121.153 413.039 120.587 413.737 120.587C414.436 120.587 415.002 121.153 415.002 121.851C415.002 122.549 414.436 123.115 413.737 123.115C413.039 123.115 412.473 122.549 412.473 121.851ZM412.473 126.908C412.473 126.209 413.039 125.644 413.737 125.644C414.436 125.644 415.002 126.209 415.002 126.908C415.002 127.606 414.436 128.172 413.737 128.172C413.039 128.172 412.473 127.606 412.473 126.908ZM412.473 116.795C412.473 116.097 413.039 115.531 413.737 115.531C414.436 115.531 415.002 116.097 415.002 116.795C415.002 117.493 414.436 118.059 413.737 118.059C413.039 118.059 412.473 117.493 412.473 116.795ZM407.417 116.795C407.417 116.097 407.983 115.531 408.681 115.531C409.379 115.531 409.945 116.097 409.945 116.795C409.945 117.493 409.379 118.059 408.681 118.059C407.983 118.059 407.417 117.493 407.417 116.795Z" fill="#27AE60"/>
<path fill-rule="evenodd" clip-rule="evenodd" d="M437.919 105.041C437.918 105.015 437.922 104.989 437.93 104.964C437.955 104.883 438.019 104.819 438.102 104.793L442.515 103.428C442.719 103.365 442.748 103.188 442.752 103.136C442.757 103.083 442.755 102.904 442.563 102.812L430.47 97.0091C430.351 96.9518 430.217 96.9647 430.111 97.0437C430.005 97.1227 429.958 97.2457 429.983 97.373L432.651 110.463C432.693 110.667 432.869 110.715 432.922 110.725C432.974 110.735 433.156 110.754 433.273 110.581L435.899 106.683C435.946 106.613 436.025 106.57 436.111 106.567C436.196 106.564 436.278 106.602 436.329 106.668L440.563 112.105C440.607 112.162 440.688 112.174 440.748 112.132L442.522 110.904C442.563 110.875 442.575 110.836 442.578 110.815C442.58 110.794 442.581 110.753 442.549 110.715L437.977 105.199C437.94 105.154 437.919 105.098 437.919 105.041Z" fill="#05133D"/>
<path d="M427.009 342.468V349.701H417.633L427.009 342.468Z" fill="#0068FF"/>
<path d="M427.009 342.468V349.701H417.633L427.009 342.468Z" fill="black" fill-opacity="0.2"/>
<path d="M455.007 342.468V349.696L464.433 349.701L455.007 342.468Z" fill="#0068FF"/>
<path d="M455.007 342.468V349.696L464.433 349.701L455.007 342.468Z" fill="black" fill-opacity="0.2"/>
<path d="M455.007 342.468L464.433 349.701H417.633L427.009 342.468H455.007Z" fill="#A3ABC2"/>
<path d="M440.559 359.235C447.888 359.235 453.829 353.294 453.829 345.965C453.829 338.636 447.888 332.695 440.559 332.695C433.23 332.695 427.289 338.636 427.289 345.965C427.289 353.294 433.23 359.235 440.559 359.235Z" fill="#FFD666"/>
<path d="M440.38 356.327C446.202 356.327 450.922 351.608 450.922 345.785C450.922 339.963 446.202 335.243 440.38 335.243C434.557 335.243 429.837 339.963 429.837 345.785C429.837 351.608 434.557 356.327 440.38 356.327Z" fill="#FFC53D"/>
<path d="M441.138 349.479C442.798 349.479 444.125 348.948 445.32 347.775L444.037 346.359C443.307 347.133 442.266 347.576 441.138 347.576C438.969 347.576 437.42 346.049 437.42 343.769C437.42 341.49 438.991 339.963 441.138 339.963C442.2 339.963 443.196 340.361 443.926 341.114L445.21 339.742C444.037 338.613 442.687 338.06 441.116 338.06C437.73 338.06 435.362 340.384 435.362 343.769C435.362 347.2 437.708 349.479 441.138 349.479Z" fill="white"/>
<path d="M435.541 350.928H445.397L445.397 352.034H435.541L435.541 350.928Z" fill="white"/>
<path d="M417.747 358.533H464.402V381.838C464.402 382.844 463.618 383.66 462.651 383.66H419.498C418.531 383.66 417.747 382.844 417.747 381.838V358.533Z" fill="#0068FF"/>
<path d="M417.686 349.701L413.134 360.124C412.96 360.5 412.985 360.942 413.198 361.295C413.412 361.648 413.784 361.863 414.185 361.863H467.911C468.32 361.863 468.7 361.64 468.911 361.274C469.122 360.909 469.133 360.456 468.941 360.079L464.483 349.701H417.686Z" fill="#ECEEF3"/>
<defs>
<filter id="filter0_d" x="326.646" y="57.3999" width="71.0178" height="72.3196" filterUnits="userSpaceOnUse" color-interpolation-filters="sRGB">
<feFlood flood-opacity="0" result="BackgroundImageFix"/>
<feColorMatrix in="SourceAlpha" type="matrix" values="0 0 0 0 0 0 0 0 0 0 0 0 0 0 0 0 0 0 127 0" result="hardAlpha"/>
<feMorphology radius="3.25446" operator="erode" in="SourceAlpha" result="effect1_dropShadow"/>
<feOffset dy="7.81071"/>
<feGaussianBlur stdDeviation="4.88169"/>
<feColorMatrix type="matrix" values="0 0 0 0 0.101961 0 0 0 0 0.121569 0 0 0 0 0.443137 0 0 0 0.15 0"/>
<feBlend mode="normal" in2="BackgroundImageFix" result="effect1_dropShadow"/>
<feBlend mode="normal" in="SourceGraphic" in2="effect1_dropShadow" result="shape"/>
</filter>
<filter id="filter1_d" x="304.564" y="50.2306" width="125.893" height="125.893" filterUnits="userSpaceOnUse" color-interpolation-filters="sRGB">
<feFlood flood-opacity="0" result="BackgroundImageFix"/>
<feColorMatrix in="SourceAlpha" type="matrix" values="0 0 0 0 0 0 0 0 0 0 0 0 0 0 0 0 0 0 127 0" result="hardAlpha"/>
<feMorphology radius="3.21323" operator="dilate" in="SourceAlpha" result="effect1_dropShadow"/>
<feOffset dx="5.35538" dy="26.7769"/>
<feGaussianBlur stdDeviation="22.4926"/>
<feColorMatrix type="matrix" values="0 0 0 0 0.243137 0 0 0 0 0.266667 0 0 0 0 0.501961 0 0 0 0.11 0"/>
<feBlend mode="normal" in2="BackgroundImageFix" result="effect1_dropShadow"/>
<feBlend mode="normal" in="SourceGraphic" in2="effect1_dropShadow" result="shape"/>
</filter>
<filter id="filter2_ddddd" x="326.495" y="286.15" width="229.11" height="227.331" filterUnits="userSpaceOnUse" color-interpolation-filters="sRGB">
<feFlood flood-opacity="0" result="BackgroundImageFix"/>
<feColorMatrix in="SourceAlpha" type="matrix" values="0 0 0 0 0 0 0 0 0 0 0 0 0 0 0 0 0 0 127 0" result="hardAlpha"/>
<feOffset dy="6"/>
<feGaussianBlur stdDeviation="4"/>
<feColorMatrix type="matrix" values="0 0 0 0 0.705882 0 0 0 0 0.831373 0 0 0 0 0.921569 0 0 0 0.12 0"/>
<feBlend mode="normal" in2="BackgroundImageFix" result="effect1_dropShadow"/>
<feColorMatrix in="SourceAlpha" type="matrix" values="0 0 0 0 0 0 0 0 0 0 0 0 0 0 0 0 0 0 127 0" result="hardAlpha"/>
<feOffset dy="8"/>
<feGaussianBlur stdDeviation="12"/>
<feColorMatrix type="matrix" values="0 0 0 0 0.705882 0 0 0 0 0.831373 0 0 0 0 0.921569 0 0 0 0.08 0"/>
<feBlend mode="normal" in2="effect1_dropShadow" result="effect2_dropShadow"/>
<feColorMatrix in="SourceAlpha" type="matrix" values="0 0 0 0 0 0 0 0 0 0 0 0 0 0 0 0 0 0 127 0" result="hardAlpha"/>
<feOffset dy="16"/>
<feGaussianBlur stdDeviation="18"/>
<feColorMatrix type="matrix" values="0 0 0 0 0.705882 0 0 0 0 0.831373 0 0 0 0 0.921569 0 0 0 0.04 0"/>
<feBlend mode="normal" in2="effect2_dropShadow" result="effect3_dropShadow"/>
<feColorMatrix in="SourceAlpha" type="matrix" values="0 0 0 0 0 0 0 0 0 0 0 0 0 0 0 0 0 0 127 0" result="hardAlpha"/>
<feOffset dy="40"/>
<feGaussianBlur stdDeviation="35"/>
<feColorMatrix type="matrix" values="0 0 0 0 0.705882 0 0 0 0 0.831373 0 0 0 0 0.921569 0 0 0 0.04 0"/>
<feBlend mode="normal" in2="effect3_dropShadow" result="effect4_dropShadow"/>
<feColorMatrix in="SourceAlpha" type="matrix" values="0 0 0 0 0 0 0 0 0 0 0 0 0 0 0 0 0 0 127 0" result="hardAlpha"/>
<feOffset dy="2"/>
<feGaussianBlur stdDeviation="2"/>
<feColorMatrix type="matrix" values="0 0 0 0 0.87451 0 0 0 0 0.929412 0 0 0 0 0.964706 0 0 0 0.4 0"/>
<feBlend mode="normal" in2="effect4_dropShadow" result="effect5_dropShadow"/>
<feBlend mode="normal" in="SourceGraphic" in2="effect5_dropShadow" result="shape"/>
</filter>
<filter id="filter3_i" x="396.495" y="316.15" width="89.1098" height="87.3311" filterUnits="userSpaceOnUse" color-interpolation-filters="sRGB">
<feFlood flood-opacity="0" result="BackgroundImageFix"/>
<feBlend mode="normal" in="SourceGraphic" in2="BackgroundImageFix" result="shape"/>
<feColorMatrix in="SourceAlpha" type="matrix" values="0 0 0 0 0 0 0 0 0 0 0 0 0 0 0 0 0 0 127 0" result="hardAlpha"/>
<feOffset dy="-1"/>
<feComposite in2="hardAlpha" operator="arithmetic" k2="-1" k3="1"/>
<feColorMatrix type="matrix" values="0 0 0 0 0 0 0 0 0 0 0 0 0 0 0 0 0 0 0.12 0"/>
<feBlend mode="normal" in2="shape" result="effect1_innerShadow"/>
</filter>
<filter id="filter4_d" x="371.224" y="92.8511" width="72.3862" height="73.0402" filterUnits="userSpaceOnUse" color-interpolation-filters="sRGB">
<feFlood flood-opacity="0" result="BackgroundImageFix"/>
<feColorMatrix in="SourceAlpha" type="matrix" values="0 0 0 0 0 0 0 0 0 0 0 0 0 0 0 0 0 0 127 0" result="hardAlpha"/>
<feMorphology radius="2.61568" operator="erode" in="SourceAlpha" result="effect1_dropShadow"/>
<feOffset dy="7.84704"/>
<feGaussianBlur stdDeviation="4.9044"/>
<feColorMatrix type="matrix" values="0 0 0 0 0.101961 0 0 0 0 0.121569 0 0 0 0 0.443137 0 0 0 0.15 0"/>
<feBlend mode="normal" in2="BackgroundImageFix" result="effect1_dropShadow"/>
<feBlend mode="normal" in="SourceGraphic" in2="effect1_dropShadow" result="shape"/>
</filter>
<linearGradient id="paint0_linear" x1="-149.81" y1="233.89" x2="456.969" y2="540.704" gradientUnits="userSpaceOnUse">
<stop stop-color="#D2DEFF" stop-opacity="0"/>
<stop offset="1" stop-color="#4D63A0" stop-opacity="0.27"/>
</linearGradient>
<clipPath id="clip0">
<rect x="0.155029" width="377" height="426" rx="27.7207" fill="white"/>
</clipPath>
<clipPath id="clip1">
<rect width="49.2399" height="49.2004" fill="white" transform="matrix(0.882477 -0.470356 0.470017 0.882657 111.193 115.606)"/>
</clipPath>
<clipPath id="clip2">
<rect width="37.77" height="37.7397" fill="white" transform="matrix(0.703144 0.711048 -0.711318 0.702871 182.717 76.4893)"/>
</clipPath>
<clipPath id="clip3">
<rect width="58.7476" height="58.7004" fill="white" transform="matrix(0.83169 -0.55524 0.554921 0.831903 136.864 48.3616)"/>
</clipPath>
<clipPath id="clip4">
<rect width="246" height="320" fill="white" transform="translate(35.155 106)"/>
</clipPath>
</defs>
</svg>
