<svg width="56" height="55" viewBox="0 0 56 55" fill="none" xmlns="http://www.w3.org/2000/svg">
<g clip-path="url(#clip0)">
<path d="M30.8117 16.7918C31.4894 16.9354 32.1795 17.0051 32.8709 16.9997H32.8715C35.3674 16.9997 39.7585 16.1202 41.1308 10.2324C41.1583 10.1145 41.1624 9.99197 41.1431 9.87232C41.1237 9.75267 41.0812 9.63846 41.0182 9.53671C40.9553 9.43496 40.8731 9.34783 40.7769 9.28069C40.6806 9.21355 40.5723 9.16783 40.4586 9.14633C39.8418 9.04458 39.2181 8.99574 38.5938 9.00029C33.9085 9.00029 30.8369 11.4722 30.1661 15.7823C30.1314 16.0052 30.1788 16.2337 30.2987 16.4212C30.4187 16.6088 30.6021 16.7413 30.8117 16.7918ZM38.5938 10.778C38.8154 10.778 39.0212 10.7847 39.2055 10.7949C38.1277 13.9341 35.8607 14.9531 33.8108 15.1717L36.4055 13.5168C36.5004 13.4562 36.5831 13.3766 36.6488 13.2824C36.7144 13.1883 36.7618 13.0815 36.7882 12.9681C36.8145 12.8547 36.8194 12.737 36.8025 12.6216C36.7855 12.5063 36.7471 12.3956 36.6894 12.2958C36.6318 12.1961 36.556 12.1092 36.4663 12.0403C36.3767 11.9713 36.275 11.9215 36.1671 11.8938C36.0592 11.8661 35.9471 11.861 35.8373 11.8788C35.7275 11.8966 35.6221 11.937 35.5271 11.9975L32.4951 13.9308C33.7769 11.381 36.4022 10.778 38.5938 10.778Z" fill="#34A853"/>
<path d="M2.37841 37.4807C2.46574 37.6811 2.63988 37.8427 2.8625 37.93C3.08513 38.0173 3.338 38.0232 3.56551 37.9462C3.79301 37.8693 3.97649 37.7159 4.0756 37.5198C4.17471 37.3237 4.18133 37.101 4.09399 36.9006C4.04039 36.7777 3.98784 36.6543 3.93632 36.5305C3.85237 36.329 3.68099 36.1651 3.45987 36.0749C3.23875 35.9847 2.98602 35.9756 2.75726 36.0495C2.52851 36.1235 2.34247 36.2745 2.24008 36.4692C2.13769 36.664 2.12733 36.8866 2.21128 37.0881C2.26599 37.2195 2.3217 37.3504 2.37841 37.4807Z" fill="#34A853"/>
<path d="M6.4919 11.8266C6.58182 11.8934 6.68452 11.9426 6.79415 11.9711C6.90377 11.9997 7.01816 12.0072 7.13078 11.9931C7.24339 11.979 7.35203 11.9437 7.45046 11.8891C7.5489 11.8345 7.63522 11.7618 7.70447 11.675C7.79042 11.5679 7.87704 11.4615 7.96434 11.3557C8.03566 11.2702 8.08875 11.1719 8.12057 11.0665C8.15239 10.9612 8.16231 10.8508 8.14976 10.7417C8.13722 10.6326 8.10245 10.527 8.04746 10.4309C7.99247 10.3348 7.91834 10.2501 7.82931 10.1817C7.74029 10.1133 7.63813 10.0625 7.5287 10.0323C7.41927 10.002 7.30472 9.99292 7.19162 10.0055C7.07852 10.018 6.96911 10.0519 6.86965 10.1053C6.77019 10.1587 6.68265 10.2305 6.61205 10.3166C6.5187 10.4296 6.42631 10.5432 6.33487 10.6575C6.26555 10.7442 6.21461 10.8432 6.18498 10.9489C6.15535 11.0546 6.14761 11.1648 6.16219 11.2734C6.17677 11.382 6.21339 11.4867 6.26996 11.5816C6.32654 11.6765 6.40195 11.7598 6.4919 11.8266Z" fill="#34A853"/>
<path d="M11.8507 5.15752C11.7332 5.24342 11.6166 5.33024 11.5006 5.41797C11.322 5.55301 11.2016 5.75723 11.166 5.98569C11.1304 6.21416 11.1824 6.44815 11.3107 6.63621C11.439 6.82427 11.633 6.95098 11.85 6.98848C12.0671 7.02597 12.2894 6.97116 12.468 6.83613C12.5775 6.75341 12.6876 6.67142 12.7983 6.59016C12.8879 6.52477 12.9643 6.44143 13.0233 6.34489C13.0823 6.24835 13.1226 6.14052 13.1419 6.02756C13.1612 5.91461 13.1592 5.79875 13.1359 5.68663C13.1127 5.5745 13.0686 5.4683 13.0063 5.37411C12.944 5.27992 12.8647 5.19959 12.7729 5.13771C12.681 5.07584 12.5785 5.03363 12.4712 5.01351C12.3638 4.9934 12.2538 4.99576 12.1473 5.02047C12.0408 5.04518 11.94 5.09175 11.8507 5.15752Z" fill="#34A853"/>
<path d="M3.13306 33.0248C3.09943 32.8976 3.06703 32.7703 3.03586 32.6427C3.01087 32.5392 2.96199 32.4408 2.892 32.3533C2.82201 32.2658 2.7323 32.1908 2.628 32.1327C2.5237 32.0745 2.40685 32.0343 2.28416 32.0144C2.16147 31.9945 2.03533 31.9952 1.91298 32.0166C1.79063 32.0379 1.67446 32.0795 1.57112 32.1389C1.46778 32.1983 1.37931 32.2743 1.31077 32.3626C1.24223 32.4509 1.19496 32.5498 1.17168 32.6536C1.14839 32.7574 1.14954 32.8641 1.17507 32.9675C1.20823 33.1042 1.2428 33.2403 1.27878 33.3759C1.33484 33.5829 1.48559 33.7628 1.69805 33.8761C1.91052 33.9894 2.1674 34.027 2.41252 33.9806C2.65764 33.9342 2.87105 33.8076 3.00608 33.6284C3.14111 33.4493 3.18676 33.2323 3.13306 33.0248Z" fill="#34A853"/>
<path d="M9.59025 8.75962C9.68841 8.66368 9.78737 8.56872 9.88714 8.47475C10.0509 8.32035 10.147 8.1068 10.1546 7.88102C10.1621 7.65523 10.0803 7.43568 9.92722 7.27058C9.77414 7.10549 9.56226 7.00835 9.33812 7.00051C9.11399 6.99268 8.89593 7.07478 8.73185 7.22879C8.62421 7.33014 8.51768 7.4324 8.41224 7.53557C8.2511 7.69293 8.15862 7.90832 8.15513 8.13436C8.15165 8.36041 8.23745 8.57859 8.39366 8.74091C8.54988 8.90323 8.76371 8.99639 8.98811 8.9999C9.21251 9.00341 9.42911 8.91698 9.59025 8.75962Z" fill="#34A853"/>
<path d="M49.5373 13.6231C49.664 13.8067 49.8629 13.9356 50.0904 13.9815C50.3179 14.0275 50.5556 13.9869 50.7513 13.8685C50.947 13.7501 51.0849 13.5636 51.1348 13.3498C51.1847 13.1361 51.1425 12.9124 51.0176 12.7278C50.9353 12.6076 50.8519 12.4878 50.7675 12.3685C50.638 12.1859 50.4366 12.0591 50.2078 12.0161C49.9789 11.973 49.7412 12.0173 49.5471 12.1391C49.3529 12.2609 49.2181 12.4502 49.1723 12.6655C49.1266 12.8807 49.1736 13.1043 49.3031 13.2869C49.382 13.398 49.46 13.5101 49.5373 13.6231Z" fill="#34A853"/>
<path d="M31.1499 0.683645C31.1608 0.607846 31.1542 0.530948 31.1306 0.457342C31.1069 0.383737 31.0666 0.314866 31.012 0.254663C30.9574 0.19446 30.8896 0.144106 30.8123 0.106475C30.7351 0.0688449 30.6501 0.0446758 30.562 0.0353487C30.446 0.02299 30.3298 0.0114842 30.2133 0.000831442C30.1935 -0.00100056 30.1745 0.000831439 30.155 0.000395248C30.4631 0.312454 30.7391 0.646907 30.98 1C31.0732 0.912176 31.1326 0.801668 31.1499 0.683645Z" fill="#34A853"/>
<path d="M51.2426 16.1637C51.3049 16.2816 51.3659 16.4005 51.4258 16.5205C51.4747 16.618 51.5445 16.7059 51.6311 16.7791C51.7177 16.8524 51.8194 16.9095 51.9306 16.9474C52.0417 16.9852 52.1601 17.003 52.2788 16.9996C52.3976 16.9963 52.5144 16.9719 52.6227 16.9279C52.731 16.8838 52.8286 16.821 52.91 16.7431C52.9913 16.6651 53.0548 16.5734 53.0968 16.4733C53.1388 16.3733 53.1585 16.2667 53.1548 16.1598C53.1511 16.0528 53.124 15.9476 53.0752 15.8501C53.0104 15.7212 52.9445 15.593 52.8773 15.4655C52.7744 15.2703 52.5897 15.1199 52.3637 15.0473C52.1377 14.9748 51.889 14.986 51.6722 15.0786C51.4554 15.1712 51.2884 15.3375 51.2078 15.541C51.1272 15.7445 51.1397 15.9685 51.2426 16.1637Z" fill="#34A853"/>
<path d="M53.9791 23.009C53.8536 23.0245 53.733 23.0603 53.6242 23.1144C53.5154 23.1685 53.4206 23.2398 53.345 23.3243C53.2695 23.4087 53.2148 23.5047 53.1841 23.6067C53.1533 23.7087 53.1471 23.8147 53.1658 23.9187C53.1887 24.0469 53.2105 24.1755 53.2312 24.3043C53.2619 24.4966 53.3758 24.6731 53.5517 24.8011C53.7277 24.9291 53.9538 24.9998 54.1879 25C54.2306 25.0001 54.2732 24.9979 54.3155 24.9934C54.5695 24.9655 54.7998 24.8553 54.9557 24.6868C55.1117 24.5183 55.1805 24.3055 55.147 24.095C55.1251 23.9572 55.1017 23.8202 55.0769 23.6828C55.0586 23.5788 55.0156 23.4787 54.9504 23.3884C54.8852 23.2982 54.7991 23.2195 54.6971 23.1569C54.5951 23.0943 54.4791 23.049 54.3559 23.0236C54.2327 22.9982 54.1047 22.9933 53.9791 23.009Z" fill="#34A853"/>
<path d="M52.1958 20.0396C52.2398 20.1652 52.2828 20.2911 52.3248 20.4174C52.3932 20.6226 52.5533 20.7959 52.7699 20.8993C52.9865 21.0027 53.2419 21.0277 53.4798 20.9687C53.7177 20.9097 53.9187 20.7715 54.0386 20.5847C54.1584 20.3979 54.1873 20.1776 54.1189 19.9724C54.0743 19.8389 54.0287 19.7059 53.9822 19.5733C53.9469 19.4719 53.8888 19.3775 53.8111 19.2956C53.7335 19.2136 53.6379 19.1457 53.5297 19.0956C53.4216 19.0456 53.3031 19.0145 53.181 19.004C53.0589 18.9935 52.9356 19.0039 52.8182 19.0345C52.7007 19.0652 52.5914 19.1155 52.4966 19.1826C52.4017 19.2498 52.3231 19.3324 52.2653 19.4258C52.2075 19.5191 52.1716 19.6214 52.1597 19.7267C52.1478 19.8321 52.16 19.9384 52.1958 20.0396Z" fill="#34A853"/>
<path d="M1.17042 30C1.19442 30 1.21867 29.9994 1.24316 29.9978C1.372 29.9902 1.49772 29.9621 1.61315 29.915C1.72858 29.868 1.83145 29.803 1.91588 29.7237C2.00032 29.6444 2.06467 29.5524 2.10525 29.4529C2.14583 29.3534 2.16185 29.2484 2.15239 29.1439C2.14083 29.0146 2.13034 28.885 2.12091 28.7552C2.11399 28.6502 2.08157 28.5474 2.02553 28.4527C1.96948 28.358 1.89091 28.2731 1.79433 28.2031C1.69775 28.133 1.58507 28.0792 1.46274 28.0445C1.34042 28.0099 1.21086 27.9952 1.08153 28.0013C0.952186 28.0075 0.825608 28.0342 0.70906 28.0801C0.592512 28.126 0.488291 28.1901 0.402382 28.2688C0.316473 28.3474 0.250568 28.4391 0.208452 28.5385C0.166336 28.6378 0.14884 28.743 0.156967 28.8479C0.166803 28.9858 0.177869 29.1231 0.190361 29.2606C0.208526 29.4614 0.319641 29.6492 0.501415 29.7864C0.683188 29.9235 0.922173 29.9998 1.17042 30Z" fill="#34A853"/>
<path d="M1.06718 25.998C1.09042 25.9994 1.11366 26 1.13661 26C1.3847 25.9998 1.62347 25.9229 1.80482 25.7849C1.98617 25.6469 2.09662 25.458 2.11392 25.2562C2.12496 25.1272 2.13741 24.9982 2.15129 24.8691C2.16253 24.7646 2.14839 24.6592 2.10968 24.5591C2.07098 24.459 2.00846 24.366 1.9257 24.2856C1.84294 24.2052 1.74156 24.1389 1.62735 24.0904C1.51313 24.0419 1.38832 24.0122 1.26005 24.0031C1.13177 23.9939 1.00253 24.0054 0.879716 24.037C0.756901 24.0685 0.642912 24.1195 0.544258 24.187C0.445603 24.2544 0.364216 24.3371 0.304742 24.4302C0.245268 24.5233 0.208872 24.625 0.197633 24.7296C0.182776 24.8676 0.169374 25.0059 0.157426 25.1446C0.139261 25.3561 0.224899 25.5648 0.395505 25.7249C0.56611 25.8849 0.807713 25.9832 1.06718 25.998Z" fill="#34A853"/>
<path d="M1.89832 21.9812C1.96554 21.9936 2.03412 21.9999 2.10292 22C2.31853 21.9998 2.5276 21.9371 2.69558 21.8225C2.86355 21.7078 2.98039 21.548 3.02678 21.3694C3.05983 21.2418 3.09412 21.1146 3.12966 20.9878C3.18738 20.7806 3.1457 20.5624 3.0138 20.3812C2.8819 20.2 2.67056 20.0707 2.42625 20.0216C2.18193 19.9725 1.92464 20.0078 1.71093 20.1195C1.49723 20.2313 1.34459 20.4105 1.28658 20.6176C1.24889 20.7527 1.21244 20.8882 1.17721 21.0241C1.15045 21.1271 1.14788 21.2336 1.16964 21.3374C1.1914 21.4413 1.23706 21.5404 1.30402 21.6293C1.37099 21.7182 1.45794 21.795 1.55991 21.8554C1.66188 21.9157 1.77687 21.9585 1.89832 21.9812Z" fill="#34A853"/>
<path d="M23.2241 0.0138912C23.087 0.0415187 22.9501 0.070359 22.8134 0.100412C22.6161 0.143909 22.4396 0.273512 22.3184 0.463819C22.1972 0.654126 22.1401 0.891416 22.1584 1.12918C22.1766 1.36694 22.2688 1.58804 22.4169 1.74912C22.565 1.91021 22.7584 1.99968 22.959 2C23.0085 1.99993 23.0579 1.99453 23.1066 1.98386C23.2354 1.95533 23.3643 1.92805 23.4934 1.90204C23.5592 1.88778 23.6232 1.86374 23.684 1.8305C23.8345 1.47838 23.9925 1.14992 24.155 0.847406C24.1535 0.830791 24.1546 0.814416 24.1523 0.797801C24.1349 0.673671 24.097 0.55486 24.0409 0.448196C23.9848 0.341532 23.9115 0.249119 23.8252 0.176271C23.739 0.103422 23.6414 0.0515739 23.5383 0.0237072C23.4351 -0.00415955 23.3284 -0.00749545 23.2241 0.0138912Z" fill="#34A853"/>
<path d="M2.74557 18.9471C2.85798 18.9849 2.97773 19.0028 3.09797 18.9997C3.2182 18.9965 3.33656 18.9725 3.44627 18.9289C3.55597 18.8853 3.65487 18.823 3.73729 18.7456C3.81971 18.6682 3.88403 18.5772 3.92658 18.4778C3.97937 18.355 4.03339 18.2328 4.08865 18.1113C4.13366 18.0126 4.1562 17.9071 4.15498 17.8007C4.15377 17.6943 4.12882 17.5892 4.08156 17.4914C4.03431 17.3936 3.96567 17.3049 3.87959 17.2306C3.79351 17.1562 3.69167 17.0976 3.5799 17.058C3.46814 17.0185 3.34864 16.9988 3.22825 17.0001C3.10785 17.0014 2.98894 17.0236 2.8783 17.0656C2.76766 17.1075 2.66747 17.1684 2.58348 17.2446C2.49948 17.3208 2.43332 17.4109 2.38879 17.5097C2.32954 17.6405 2.27145 17.7714 2.21468 17.9035C2.12846 18.1041 2.13596 18.3267 2.23552 18.5224C2.33508 18.7181 2.51855 18.8709 2.74557 18.9471Z" fill="#34A853"/>
<path d="M3.6092 14.8948C3.71099 14.9477 3.82307 14.9814 3.93902 14.9942C4.05498 15.007 4.17253 14.9985 4.28494 14.9693C4.39734 14.9401 4.5024 14.8907 4.5941 14.824C4.68579 14.7573 4.76231 14.6745 4.81928 14.5804C4.89004 14.4643 4.96164 14.3481 5.03413 14.2334C5.15283 14.0454 5.18576 13.8216 5.12566 13.6112C5.06557 13.4008 4.91738 13.2211 4.71368 13.1116C4.50999 13.002 4.26749 12.9716 4.03952 13.0271C3.81155 13.0826 3.61679 13.2193 3.49809 13.4073C3.4204 13.5302 3.34386 13.6539 3.26848 13.7783C3.15326 13.9681 3.12442 14.1923 3.18831 14.4017C3.25221 14.6111 3.4036 14.7885 3.6092 14.8948Z" fill="#34A853"/>
<path d="M14.2467 4.51502C14.296 4.61974 14.3637 4.71275 14.4457 4.78874C14.5278 4.86473 14.6227 4.92221 14.725 4.9579C14.8273 4.99359 14.9349 5.00678 15.0419 4.99673C15.1488 4.98668 15.2529 4.95359 15.3482 4.89933C15.4655 4.83225 15.5834 4.76648 15.7019 4.70203C15.896 4.59591 16.0437 4.40944 16.1126 4.18362C16.1815 3.95781 16.166 3.71116 16.0694 3.49793C15.9729 3.2847 15.8032 3.12236 15.5977 3.04662C15.3922 2.97088 15.1677 2.98794 14.9737 3.09406C14.8474 3.16312 14.7216 3.23329 14.5964 3.30456C14.5011 3.35879 14.4164 3.43312 14.3473 3.52331C14.2781 3.6135 14.2258 3.71777 14.1933 3.83018C14.1609 3.94258 14.1489 4.06092 14.158 4.17843C14.1672 4.29593 14.1973 4.41031 14.2467 4.51502Z" fill="#34A853"/>
<path d="M46.4383 9.21653C46.3547 9.29049 46.2868 9.37989 46.2385 9.47962C46.1901 9.57935 46.1622 9.68745 46.1564 9.79776C46.1506 9.90808 46.167 10.0184 46.2046 10.1225C46.2423 10.2266 46.3004 10.3224 46.3757 10.4044C46.4688 10.5061 46.5609 10.6082 46.652 10.7108C46.7259 10.7943 46.8159 10.8626 46.9167 10.9119C47.0175 10.9611 47.1273 10.9904 47.2396 10.998C47.352 11.0056 47.4647 10.9914 47.5715 10.9561C47.6782 10.9209 47.7769 10.8654 47.8617 10.7927C47.9466 10.72 48.016 10.6315 48.0661 10.5325C48.1161 10.4334 48.1458 10.3256 48.1533 10.2153C48.1609 10.105 48.1463 9.99424 48.1102 9.88947C48.0742 9.7847 48.0175 9.68793 47.9433 9.60471C47.8459 9.49501 47.7475 9.38609 47.6482 9.27794C47.5729 9.19588 47.4818 9.1292 47.3803 9.0817C47.2787 9.03421 47.1686 9.00682 47.0562 9.00112C46.9439 8.99542 46.8314 9.01151 46.7254 9.04847C46.6194 9.08543 46.5218 9.14254 46.4383 9.21653Z" fill="#34A853"/>
<path d="M45.3163 8C45.4877 8.00007 45.655 7.94625 45.7957 7.84579C45.9364 7.74532 46.0437 7.60304 46.1032 7.4381C46.1627 7.27316 46.1714 7.09349 46.1283 6.92328C46.0852 6.75307 45.9923 6.6005 45.8621 6.48611C45.752 6.38927 45.6411 6.29335 45.5295 6.19835C45.4447 6.12619 45.347 6.07186 45.2418 6.03846C45.1366 6.00506 45.026 5.99324 44.9163 6.00368C44.8067 6.01413 44.7001 6.04663 44.6027 6.09933C44.5053 6.15203 44.4189 6.2239 44.3486 6.31083C44.2783 6.39776 44.2253 6.49805 44.1928 6.60599C44.1602 6.71392 44.1487 6.82737 44.1589 6.93987C44.169 7.05236 44.2007 7.1617 44.2521 7.26164C44.3035 7.36157 44.3735 7.45015 44.4582 7.52231C44.5633 7.61201 44.6676 7.70219 44.7713 7.79286C44.9229 7.9267 45.1163 8.00021 45.3163 8Z" fill="#34A853"/>
<path d="M54.1569 27C53.8922 27 53.6384 27.0811 53.4512 27.2252C53.264 27.3694 53.1589 27.5649 53.1588 27.7688L53.1591 27.8444C53.1591 27.9696 53.1578 28.0944 53.1554 28.2188C53.1532 28.3198 53.1769 28.4201 53.2251 28.514C53.2733 28.6079 53.345 28.6935 53.4362 28.7661C53.5274 28.8386 53.6362 28.8966 53.7565 28.9367C53.8768 28.9768 54.0061 28.9983 54.1372 28.9998L54.1535 29C54.4154 29 54.6668 28.9207 54.8534 28.7792C55.04 28.6377 55.147 28.4453 55.1511 28.2436C55.1541 28.1108 55.1553 27.9777 55.1553 27.8388L55.155 27.7688C55.155 27.5649 55.0498 27.3694 54.8626 27.2252C54.6755 27.081 54.4216 27 54.1569 27Z" fill="#34A853"/>
<path d="M42.0284 5.58798C42.1449 5.38993 42.1832 5.15043 42.1349 4.92212C42.0867 4.6938 41.9558 4.49538 41.7711 4.37046C41.6505 4.28899 41.5292 4.2084 41.4072 4.1287C41.2206 4.00697 40.9965 3.96968 40.7842 4.02502C40.572 4.08037 40.3889 4.22382 40.2754 4.42381C40.1618 4.62381 40.127 4.86397 40.1786 5.09147C40.2303 5.31896 40.3641 5.51515 40.5507 5.63688C40.6653 5.71146 40.7792 5.78711 40.8925 5.86381C40.9839 5.92569 41.0859 5.96764 41.1925 5.98726C41.2991 6.00689 41.4083 6.00381 41.5138 5.97819C41.6193 5.95258 41.719 5.90493 41.8073 5.83797C41.8956 5.77102 41.9708 5.68607 42.0284 5.58798Z" fill="#34A853"/>
<path d="M55.0689 32.3276C55.0957 32.1909 55.1211 32.0537 55.1451 31.9163C55.1634 31.8122 55.1569 31.7062 55.1259 31.6042C55.0949 31.5023 55.04 31.4064 54.9644 31.322C54.8888 31.2377 54.7939 31.1666 54.6852 31.1128C54.5765 31.0589 54.456 31.0234 54.3308 31.0083C54.2056 30.9932 54.078 30.9987 53.9553 31.0246C53.8327 31.0505 53.7173 31.0962 53.616 31.1592C53.5146 31.2221 53.4291 31.3011 53.3645 31.3915C53.2998 31.4819 53.2573 31.582 53.2392 31.6861C53.2167 31.8147 53.1929 31.943 53.1677 32.0709C53.1268 32.2804 53.1876 32.4949 53.3369 32.6671C53.4862 32.8393 53.7118 32.9552 53.9639 32.9893C54.0153 32.9963 54.0674 32.9999 54.1195 33C54.348 32.9996 54.5689 32.9318 54.7428 32.8087C54.9167 32.6855 55.0323 32.5151 55.0689 32.3276Z" fill="#34A853"/>
<path d="M53.4931 34.0343C53.3761 34.0037 53.2533 33.9935 53.1317 34.004C53.0101 34.0146 52.8921 34.0458 52.7844 34.0958C52.6768 34.1459 52.5816 34.2138 52.5042 34.2957C52.4269 34.3776 52.369 34.4719 52.3338 34.5732C52.2898 34.6996 52.2448 34.8256 52.1989 34.9511C52.1619 35.0519 52.1482 35.1581 52.1587 35.2635C52.1691 35.3689 52.2035 35.4715 52.2598 35.5655C52.316 35.6594 52.3932 35.7428 52.4867 35.8109C52.5803 35.879 52.6884 35.9305 52.805 35.9625C52.9215 35.9944 53.0442 36.0061 53.166 35.997C53.2878 35.9879 53.4063 35.9581 53.5148 35.9093C53.6233 35.8605 53.7196 35.7937 53.7982 35.7126C53.8769 35.6316 53.9363 35.538 53.9731 35.4371C54.0217 35.3044 54.0693 35.1712 54.1158 35.0376C54.1869 34.833 54.1613 34.6125 54.0445 34.4243C53.9277 34.2362 53.7294 34.0959 53.4931 34.0343Z" fill="#34A853"/>
<path d="M19.0978 1.04549C18.9647 1.09522 18.8322 1.14607 18.7001 1.19805C18.4975 1.27786 18.331 1.44668 18.237 1.66736C18.143 1.88805 18.1293 2.14253 18.1988 2.37482C18.2684 2.60711 18.4156 2.79818 18.608 2.906C18.8004 3.01382 19.0222 3.02956 19.2247 2.94975C19.3485 2.90095 19.4728 2.85325 19.5976 2.80667C19.6984 2.76903 19.7918 2.70897 19.8724 2.62994C19.9529 2.5509 20.0192 2.45444 20.0672 2.34604C20.1153 2.23765 20.1443 2.11946 20.1526 1.99822C20.1608 1.87697 20.1482 1.75505 20.1154 1.63941C20.0826 1.52376 20.0302 1.41667 19.9613 1.32424C19.8924 1.23181 19.8083 1.15585 19.7138 1.1007C19.6193 1.04555 19.5163 1.01229 19.4106 1.00281C19.3049 0.993341 19.1986 1.00784 19.0978 1.04549Z" fill="#34A853"/>
<path d="M38.6734 2.26004C38.544 2.19588 38.4142 2.13307 38.2839 2.07158C38.0854 1.97779 37.8617 1.9761 37.662 2.0669C37.4623 2.1577 37.3031 2.33354 37.2192 2.55574C37.1354 2.77794 37.1339 3.0283 37.2151 3.25174C37.2962 3.47518 37.4533 3.65341 37.6519 3.7472C37.7735 3.80449 37.8946 3.86303 38.0151 3.92283C38.2121 4.01993 38.4354 4.02562 38.6361 3.93866C38.8368 3.8517 38.9985 3.67919 39.0856 3.45898C39.1728 3.23878 39.1784 2.98887 39.1011 2.7641C39.0238 2.53932 38.8699 2.35804 38.6734 2.26004Z" fill="#34A853"/>
<path d="M34.1633 1.02985C33.9562 0.96753 33.7364 1.00364 33.5521 1.13024C33.3679 1.25684 33.2344 1.46355 33.1809 1.7049C33.1274 1.94625 33.1584 2.20248 33.267 2.4172C33.3756 2.63193 33.553 2.78757 33.7601 2.84989C33.8871 2.888 34.0136 2.92732 34.1397 2.96784C34.3454 3.03222 34.5646 2.99913 34.7495 2.8758C34.9344 2.75247 35.0698 2.5489 35.1264 2.30956C35.1829 2.07021 35.1559 1.81452 35.0512 1.59831C34.9465 1.3821 34.7727 1.22293 34.5677 1.15555C34.4334 1.11241 34.2986 1.07051 34.1633 1.02985Z" fill="#34A853"/>
<path d="M14.2918 9.53671C14.2288 9.63848 14.1864 9.7527 14.167 9.87234C14.1476 9.99198 14.1518 10.1145 14.1792 10.2324C15.5517 16.1206 19.9434 16.9997 22.4392 16.9997C23.1306 17.0051 23.8206 16.9354 24.4984 16.7918C24.708 16.7413 24.8914 16.6088 25.0113 16.4212C25.1312 16.2337 25.1786 16.0052 25.1439 15.7823C24.4732 11.4722 21.4015 9.00029 16.7162 9.00029C16.0919 8.99574 15.4682 9.04458 14.8514 9.14633C14.7377 9.16779 14.6294 9.2135 14.5331 9.28064C14.4368 9.34779 14.3547 9.43493 14.2918 9.53671ZM16.7162 10.778C18.9079 10.778 21.5331 11.381 22.815 13.9308L19.7829 11.9975C19.6879 11.937 19.5826 11.8966 19.4727 11.8788C19.3629 11.861 19.2509 11.8661 19.1429 11.8938C19.035 11.9215 18.9333 11.9713 18.8437 12.0403C18.7541 12.1092 18.6783 12.1961 18.6206 12.2958C18.5629 12.3956 18.5245 12.5063 18.5076 12.6217C18.4906 12.737 18.4955 12.8547 18.5218 12.9681C18.5482 13.0815 18.5956 13.1883 18.6612 13.2824C18.7269 13.3766 18.8096 13.4562 18.9046 13.5168L21.499 15.1714C19.4493 14.9527 17.1825 13.9332 16.1045 10.7949C16.289 10.7847 16.4946 10.778 16.7162 10.778Z" fill="#34A853"/>
<path d="M41.4252 30.9923C41.652 31.0465 41.8601 31.1524 42.0302 31.3001C42.2003 31.4478 42.3268 31.6325 42.3981 31.837C42.4282 31.9408 42.4803 32.0382 42.5516 32.1236C42.6228 32.209 42.7117 32.2807 42.8132 32.3346C42.9146 32.3886 43.0267 32.4237 43.143 32.4379C43.2593 32.4522 43.3776 32.4454 43.491 32.4178C43.6044 32.3902 43.7108 32.3425 43.804 32.2773C43.8973 32.2121 43.9756 32.1307 44.0345 32.0377C44.0934 31.9448 44.1318 31.8422 44.1474 31.7357C44.1629 31.6292 44.1555 31.5209 44.1254 31.4171C43.975 30.9401 43.6934 30.5065 43.3075 30.1578C42.9216 29.8091 42.4443 29.5569 41.9214 29.4255V28.8181C41.9214 28.6011 41.8273 28.3931 41.6597 28.2396C41.4922 28.0862 41.2649 28 41.0279 28C40.7909 28 40.5637 28.0862 40.3961 28.2396C40.2285 28.3931 40.1344 28.6011 40.1344 28.8181V29.4295C39.4661 29.5714 38.8864 29.9498 38.522 30.4819C38.2838 30.8514 38.1572 31.2722 38.1553 31.7012C38.1534 32.1302 38.2762 32.552 38.5111 32.9232C39.067 33.8162 40.0569 34.0904 40.8523 34.3109C41.6531 34.5328 42.0047 34.6638 42.1367 35C42.7079 34.8422 43.2916 34.7251 43.8825 34.6498C43.8745 34.6213 43.8732 34.5925 43.8638 34.5642C43.4541 33.3224 42.2495 32.9886 41.3699 32.7448C40.6837 32.5546 40.253 32.4172 40.0632 32.112C39.9867 31.9962 39.9445 31.8641 39.941 31.7288C39.9375 31.5935 39.9727 31.4598 40.0432 31.3408C40.2908 30.9719 40.9177 30.8996 41.4252 30.9923Z" fill="#34A853"/>
<path d="M45.6553 36C43.7764 36 41.9396 36.5572 40.3774 37.601C38.8151 38.6449 37.5975 40.1286 36.8784 41.8645C36.1594 43.6004 35.9713 45.5105 36.3378 47.3534C36.7044 49.1962 37.6092 50.8889 38.9378 52.2175C40.2664 53.5461 41.9591 54.4509 43.8019 54.8175C45.6447 55.184 47.5549 54.9959 49.2908 54.2768C51.0267 53.5578 52.5104 52.3402 53.5542 50.7779C54.5981 49.2156 55.1553 47.3789 55.1553 45.5C55.1553 44.2524 54.9096 43.0171 54.4322 41.8645C53.9548 40.7119 53.255 39.6646 52.3729 38.7824C51.4907 37.9003 50.4434 37.2005 49.2908 36.7231C48.1382 36.2457 46.9028 36 45.6553 36ZM45.6553 53.2727C44.118 53.2727 42.6152 52.8169 41.337 51.9628C40.0588 51.1087 39.0625 49.8948 38.4742 48.4745C37.8859 47.0542 37.732 45.4914 38.0319 43.9836C38.3318 42.4759 39.0721 41.0909 40.1591 40.0039C41.2462 38.9168 42.6311 38.1765 44.1389 37.8766C45.6467 37.5767 47.2095 37.7306 48.6298 38.3189C50.05 38.9072 51.264 39.9035 52.1181 41.1817C52.9721 42.4599 53.428 43.9627 53.428 45.5C53.4257 47.5607 52.606 49.5364 51.1489 50.9936C49.6917 52.4508 47.716 53.2704 45.6553 53.2727Z" fill="#34A853"/>
<path d="M46.5365 43.0948C46.7541 43.1509 46.9537 43.2604 47.1169 43.4132C47.28 43.5659 47.4014 43.7569 47.4698 43.9684C47.4986 44.0758 47.5487 44.1766 47.617 44.2649C47.6853 44.3532 47.7706 44.4274 47.8679 44.4831C47.9653 44.5389 48.0728 44.5752 48.1843 44.59C48.2959 44.6047 48.4093 44.5977 48.5181 44.5691C48.6269 44.5406 48.7289 44.4912 48.8184 44.4238C48.9078 44.3564 48.9829 44.2722 49.0395 44.1761C49.096 44.08 49.1327 43.9738 49.1477 43.8637C49.1626 43.7535 49.1555 43.6416 49.1266 43.5342C48.9824 43.0409 48.7122 42.5924 48.3421 42.2317C47.9719 41.871 47.5141 41.6103 47.0126 41.4744V40.8462C47.0126 40.6217 46.9223 40.4065 46.7615 40.2478C46.6008 40.0891 46.3828 40 46.1555 40C45.9282 40 45.7102 40.0891 45.5494 40.2478C45.3887 40.4065 45.2984 40.6217 45.2984 40.8462V41.4785C44.6574 41.6252 44.1013 42.0165 43.7519 42.567C43.5233 42.949 43.4019 43.3843 43.4001 43.828C43.3982 44.2717 43.516 44.7079 43.7414 45.0918C44.2745 46.0152 45.2241 46.2991 45.987 46.5271C46.7832 46.7651 47.1188 46.8996 47.2344 47.2768C47.2635 47.4291 47.2368 47.5867 47.1591 47.7214C47.0814 47.8561 46.9577 47.9592 46.8102 48.0122C46.6255 48.0881 46.4267 48.1247 46.2266 48.1199C46.0266 48.1151 45.8299 48.0688 45.6491 47.9841C45.4586 47.905 45.2871 47.7873 45.1456 47.6385C45.0042 47.4897 44.8961 47.3132 44.8282 47.1204C44.7937 47.0146 44.7383 46.9164 44.6653 46.8317C44.5923 46.747 44.5031 46.6773 44.4028 46.6266C44.3025 46.5759 44.1931 46.5453 44.0808 46.5364C43.9685 46.5275 43.8555 46.5406 43.7483 46.5748C43.6411 46.6091 43.5418 46.6639 43.4561 46.7361C43.3704 46.8083 43.2999 46.8965 43.2488 46.9956C43.1976 47.0947 43.1667 47.2027 43.1579 47.3136C43.1491 47.4245 43.1625 47.5361 43.1974 47.6418C43.3396 48.0611 43.5698 48.446 43.8727 48.7716C44.1757 49.0973 44.5448 49.3562 44.9559 49.5316C45.0676 49.5802 45.182 49.6228 45.2984 49.6591V50.1538C45.2984 50.3783 45.3887 50.5935 45.5494 50.7522C45.7102 50.9109 45.9282 51 46.1555 51C46.3828 51 46.6008 50.9109 46.7615 50.7522C46.9223 50.5935 47.0126 50.3783 47.0126 50.1538V49.7221C47.1859 49.6813 47.355 49.6249 47.5179 49.5535C48.0473 49.3361 48.4777 48.9348 48.7278 48.4255C48.978 47.9162 49.0306 47.3341 48.8757 46.7891C48.4827 45.5047 47.3273 45.1595 46.4836 44.9073C45.8253 44.7107 45.4122 44.5685 45.2302 44.2529C45.1567 44.1331 45.1163 43.9965 45.1129 43.8566C45.1095 43.7167 45.1433 43.5783 45.2109 43.4553C45.4484 43.0735 46.0498 42.9987 46.5365 43.0948Z" fill="#34A853"/>
<path d="M9.65503 55C11.5339 55 13.3707 54.4428 14.9329 53.399C16.4952 52.3551 17.7128 50.8714 18.4319 49.1355C19.1509 47.3996 19.339 45.4895 18.9725 43.6466C18.6059 41.8038 17.7011 40.1111 16.3725 38.7825C15.0439 37.4539 13.3512 36.5491 11.5084 36.1825C9.66557 35.816 7.75543 36.0041 6.01954 36.7231C4.28364 37.4422 2.79994 38.6598 1.75607 40.2221C0.712194 41.7844 0.155029 43.6211 0.155029 45.5C0.155156 48.0195 1.15609 50.4358 2.93765 52.2174C4.71922 53.9989 7.13551 54.9999 9.65503 55ZM9.65503 37.7273C11.1923 37.7273 12.6951 38.1831 13.9733 39.0372C15.2515 39.8913 16.2478 41.1052 16.8361 42.5255C17.4244 43.9458 17.5783 45.5086 17.2784 47.0164C16.9785 48.5241 16.2382 49.9091 15.1512 50.9961C14.0641 52.0832 12.6792 52.8235 11.1714 53.1234C9.66365 53.4233 8.10081 53.2694 6.68053 52.6811C5.26025 52.0928 4.04632 51.0965 3.19224 49.8183C2.33816 48.5401 1.8823 47.0373 1.8823 45.5C1.88462 43.4393 2.70428 41.4636 4.16144 40.0064C5.61861 38.5493 7.59429 37.7296 9.65503 37.7273Z" fill="#34A853"/>
<path d="M9.80996 48.0122C9.62522 48.0881 9.42641 48.1247 9.2264 48.1199C9.02639 48.1151 8.82964 48.0688 8.64888 47.9841C8.45836 47.905 8.28682 47.7873 8.1454 47.6385C8.00397 47.4897 7.89583 47.3132 7.82798 47.1204C7.79343 47.0146 7.73808 46.9164 7.66509 46.8317C7.5921 46.747 7.50291 46.6773 7.40261 46.6266C7.30231 46.5759 7.19287 46.5453 7.08056 46.5364C6.96825 46.5275 6.85527 46.5406 6.74808 46.5748C6.64089 46.6091 6.54159 46.6639 6.45588 46.7361C6.37016 46.8083 6.2997 46.8965 6.24853 46.9956C6.19736 47.0947 6.16648 47.2027 6.15766 47.3136C6.14884 47.4245 6.16225 47.5361 6.19713 47.6418C6.3394 48.0611 6.56951 48.446 6.8725 48.7716C7.17548 49.0973 7.54454 49.3562 7.95564 49.5316C8.06738 49.5802 8.18173 49.6228 8.29817 49.6591V50.1538C8.29817 50.3783 8.38847 50.5935 8.5492 50.7522C8.70993 50.9109 8.92794 51 9.15525 51C9.38256 51 9.60056 50.9109 9.76129 50.7522C9.92202 50.5935 10.0123 50.3783 10.0123 50.1538V49.7221C10.1856 49.6813 10.3548 49.6249 10.5176 49.5535C11.047 49.3361 11.4774 48.9348 11.7276 48.4255C11.9777 47.9162 12.0303 47.3341 11.8755 46.7891C11.4825 45.5047 10.327 45.1595 9.48333 44.9073C8.82505 44.7107 8.41199 44.5685 8.22994 44.2529C8.15648 44.1331 8.11604 43.9965 8.11267 43.8566C8.10929 43.7167 8.14309 43.5783 8.2107 43.4553C8.44798 43.0735 9.04935 42.9987 9.5363 43.0948C9.75384 43.1509 9.95348 43.2604 10.1166 43.4132C10.2798 43.5659 10.4012 43.7569 10.4695 43.9684C10.4984 44.0758 10.5484 44.1766 10.6167 44.2649C10.6851 44.3532 10.7703 44.4274 10.8677 44.4831C10.965 44.5389 11.0725 44.5752 11.1841 44.59C11.2957 44.6047 11.4091 44.5977 11.5179 44.5691C11.6266 44.5406 11.7287 44.4912 11.8181 44.4238C11.9076 44.3564 11.9827 44.2722 12.0392 44.1761C12.0957 44.08 12.1325 43.9738 12.1474 43.8637C12.1624 43.7535 12.1552 43.6416 12.1263 43.5342C11.9821 43.0409 11.712 42.5924 11.3418 42.2317C10.9716 41.871 10.5139 41.6103 10.0123 41.4744V40.8462C10.0123 40.6217 9.92202 40.4065 9.76129 40.2478C9.60056 40.0891 9.38256 40 9.15525 40C8.92794 40 8.70993 40.0891 8.5492 40.2478C8.38847 40.4065 8.29817 40.6217 8.29817 40.8462V41.4785C7.65712 41.6251 7.10102 42.0165 6.75162 42.567C6.52309 42.949 6.40167 43.3843 6.39983 43.828C6.39799 44.2717 6.5158 44.7079 6.74116 45.0918C7.2743 46.0152 8.2239 46.2991 8.98678 46.5271C9.78296 46.7651 10.1186 46.8996 10.2341 47.2768C10.2632 47.4291 10.2365 47.5867 10.1588 47.7214C10.0812 47.8561 9.9575 47.9592 9.80996 48.0122Z" fill="#34A853"/>
<path d="M38.155 37.0408C37.3821 35.5429 36.5041 34.1029 35.5276 32.7318C34.2177 30.854 32.688 29.3879 31.4221 27.5139C31.6128 27.4607 31.779 27.3417 31.8919 27.1776C32.0049 27.0135 32.0575 26.8147 32.0405 26.6155C32.0236 26.4163 31.9382 26.2294 31.7992 26.0872C31.6602 25.945 31.4763 25.8565 31.2795 25.837C31.5059 24.5963 31.9018 22.6804 32.3414 21.7234C32.6928 20.9608 33.8235 19.61 33.5241 18.6284C33.4449 18.4502 33.3126 18.3015 33.1457 18.2032C32.9787 18.1048 32.7856 18.0617 32.5932 18.0798C32.5274 18.0796 32.4616 18.0849 32.3967 18.0958C31.1766 18.3129 30.4262 20.242 29.178 20.242C29.0532 20.2414 28.929 20.2229 28.8093 20.1871C28.5516 20.0815 28.3396 19.8866 28.2111 19.6373V12.4495C28.838 11.7201 30.8836 9.08436 30.7607 5.85733C30.6811 3.7639 29.715 1.86671 27.8895 0.219059C27.7382 0.0822996 27.5436 0.00468044 27.3407 0.000204916C27.1379 -0.0042706 26.9401 0.0646922 26.7831 0.194652C25.1908 1.60545 24.1862 3.57352 23.9715 5.70284C23.8108 7.93106 24.6652 10.1519 26.5078 12.3097V19.3197C26.3342 19.5341 26.1734 19.767 26.0204 19.9298C25.8927 20.0892 25.734 20.2204 25.5542 20.3153C25.3743 20.4102 25.1771 20.4668 24.9747 20.4816C24.8012 20.4795 24.6303 20.4383 24.4745 20.3612C23.9104 20.0934 23.4513 19.5524 22.8612 19.3607C22.7999 19.3412 22.736 19.3313 22.6718 19.3314C22.5821 19.3322 22.4934 19.3508 22.4109 19.3863C22.3284 19.4218 22.2536 19.4735 22.1909 19.5383C22.1282 19.6032 22.0789 19.6799 22.0457 19.7642C22.0125 19.8484 21.9961 19.9384 21.9974 20.0291C21.9752 20.6016 22.4125 21.1399 22.6692 21.5514C22.6692 21.5514 23.4804 22.7432 24.1227 25.8279H23.9528C23.7273 25.828 23.511 25.9184 23.3514 26.0794C23.1918 26.2404 23.1019 26.4588 23.1014 26.6868C23.1009 26.9147 23.1899 27.1335 23.3488 27.2952C23.5077 27.457 23.7236 27.5484 23.949 27.5494C22.721 29.312 21.2408 31.0135 20.0429 32.7318C18.9469 34.2625 17.9808 35.8842 17.155 37.5796C17.6045 38.0174 18.0168 38.4925 18.3878 39C19.2196 37.139 20.2409 35.3707 21.4352 33.7237C22.0024 32.9104 22.6358 32.1018 23.3063 31.2457C24.1416 30.1795 25.0051 29.0771 25.7582 27.9307L26.0082 27.5498H29.4125L29.6387 27.9141C30.4176 29.1164 31.2852 30.2576 32.2339 31.328C32.9101 32.1275 33.5486 32.8829 34.1354 33.7237C35.1761 35.1723 36.093 36.7078 36.8762 38.3135C37.268 37.8553 37.6957 37.4297 38.155 37.0408ZM25.669 5.84683C25.8054 4.43942 26.3882 3.11429 27.3305 2.06911C28.3555 3.09114 28.9708 4.45996 29.0582 5.91265C29.0742 7.10441 28.7903 8.28073 28.2332 9.33114L28.2111 5.16583C28.2111 4.9375 28.1214 4.71852 27.9617 4.55707C27.802 4.39561 27.5853 4.3049 27.3595 4.3049C27.1336 4.3049 26.917 4.39561 26.7572 4.55707C26.5975 4.71852 26.5078 4.9375 26.5078 5.16583V9.32925C25.9008 8.27493 25.6094 7.06522 25.669 5.84683ZM29.5489 25.8279H25.8613C25.632 24.5918 25.2964 23.3782 24.8585 22.2009C24.8974 22.2026 24.9361 22.2035 24.9747 22.2035C25.4012 22.1938 25.821 22.0952 26.208 21.9138C26.595 21.7324 26.9407 21.4721 27.2235 21.1493C27.5257 21.4755 27.9088 21.714 28.333 21.84C29.0698 22.0599 29.862 21.985 30.5457 21.6309C30.1141 23.0039 29.7809 24.4065 29.5489 25.8279Z" fill="#34A853"/>
<path d="M11.7023 34.0647C11.4845 34.1474 11.2935 34.3066 11.155 34.5208C11.8304 34.6251 12.4988 34.7853 13.155 35C13.1462 34.9715 13.1313 34.9462 13.1233 34.9181C13.0778 34.7523 13.0049 34.5987 12.9088 34.4661C12.8127 34.3335 12.6953 34.2244 12.5634 34.1451C12.4314 34.0659 12.2874 34.018 12.1397 34.0042C11.9919 33.9904 11.8433 34.0109 11.7023 34.0647Z" fill="#34A853"/>
<path d="M20.0409 29.7613C20.1104 29.6704 20.1805 29.5787 20.2497 29.4882C20.551 29.0952 20.8555 28.697 21.155 28.297C19.9446 26.4041 18.1231 25.0169 16.0152 24.3823C13.9073 23.7477 11.6498 23.907 9.645 24.8318C7.64015 25.7567 6.01814 27.387 5.06795 29.4323C4.11775 31.4776 3.90108 33.805 4.45654 36C4.9696 35.7439 5.50141 35.53 6.04701 35.3603C5.62746 33.5211 5.8659 31.5871 6.71833 29.9154C7.57075 28.2436 8.97962 26.9469 10.6849 26.2647C12.3902 25.5824 14.2767 25.5606 15.9963 26.2032C17.7159 26.8459 19.1525 28.1097 20.0409 29.7613Z" fill="#34A853"/>
<path d="M14.4249 31.2041C14.6517 31.2622 14.8598 31.3756 15.0299 31.5338C15.2 31.6919 15.3266 31.8896 15.3978 32.1086C15.4279 32.2198 15.4801 32.3241 15.5513 32.4155C15.6225 32.507 15.7114 32.5837 15.8129 32.6415C15.9144 32.6993 16.0265 32.7368 16.1428 32.7521C16.2591 32.7674 16.3773 32.7601 16.4908 32.7306C16.6042 32.701 16.7105 32.6499 16.8038 32.5801C16.8971 32.5102 16.9754 32.4231 17.0343 32.3236C17.0932 32.2241 17.1315 32.1142 17.1471 32.0002C17.1627 31.8861 17.1552 31.7702 17.1251 31.659C16.9748 31.1483 16.6931 30.684 16.3072 30.3105C15.9213 29.9371 15.4441 29.6671 14.9212 29.5265V28.876C14.9212 28.6437 14.827 28.4209 14.6595 28.2566C14.4919 28.0923 14.2646 28 14.0277 28C13.7907 28 13.5634 28.0923 13.3958 28.2566C13.2283 28.4209 13.1341 28.6437 13.1341 28.876V29.5307C12.4659 29.6827 11.8862 30.0878 11.5218 30.6577C11.2835 31.0532 11.157 31.5038 11.1551 31.9632C11.1531 32.4226 11.276 32.8742 11.5109 33.2717C12.0667 34.2279 13.0567 34.5216 13.852 34.7577C14.6821 35.0041 15.032 35.1433 15.1524 35.5339C15.1842 35.6726 15.1676 35.8179 15.1052 35.9463C15.0428 36.0747 14.9383 36.1789 14.8084 36.2422C15.2538 36.4673 15.6839 36.7204 16.0959 37C16.3645 36.4726 16.6498 35.9595 16.9454 35.4582C16.9323 35.3128 16.9049 35.1691 16.8636 35.0289C16.4539 33.6992 15.2493 33.3418 14.3697 33.0807C13.6834 32.8771 13.2528 32.7299 13.063 32.4031C12.9864 32.2791 12.9443 32.1377 12.9407 31.9928C12.9372 31.848 12.9725 31.7047 13.0429 31.5773C13.2903 31.1823 13.9173 31.1049 14.4249 31.2041Z" fill="#34A853"/>
<path d="M39.3008 34.0441C39.2506 34.0614 39.2019 34.0828 39.1553 34.1083C39.5242 34.7197 39.879 35.3497 40.2124 36C40.5185 35.8103 40.8313 35.6307 41.1553 35.4695C40.819 35.2892 40.5623 34.9885 40.4362 34.627C40.3998 34.5138 40.3416 34.4089 40.2648 34.3183C40.188 34.2278 40.0942 34.1533 39.9887 34.0991C39.8833 34.045 39.7683 34.0123 39.6502 34.0029C39.5322 33.9934 39.4134 34.0074 39.3008 34.0441Z" fill="#34A853"/>
<path d="M50.8467 36C51.4018 33.8533 51.2038 31.5778 50.2866 29.5628C49.3694 27.5477 47.7899 25.9182 45.8184 24.953C43.8469 23.9877 41.6058 23.7467 39.4783 24.2712C37.3508 24.7956 35.4692 26.0529 34.1553 27.8281C34.5162 28.2978 34.896 28.7577 35.288 29.2239C36.2893 27.6919 37.791 26.5663 39.5294 26.0444C41.2678 25.5226 43.132 25.6379 44.795 26.37C46.458 27.1022 47.8134 28.4045 48.6236 30.0485C49.4338 31.6925 49.647 33.5731 49.2258 35.3605C49.7819 35.5302 50.3238 35.744 50.8467 36Z" fill="#34A853"/>
<path d="M30.006 45.4323C29.5931 45.5763 29.1535 45.6429 28.7126 45.6283C28.2717 45.6136 27.8384 45.5179 27.4378 45.3468C27.0914 45.2156 26.7771 45.0212 26.5134 44.7753C26.2498 44.5293 26.0422 44.2368 25.903 43.9152C25.8634 43.8121 25.8022 43.7172 25.723 43.636C25.6437 43.5548 25.548 43.4888 25.4412 43.4419C25.3344 43.3949 25.2187 43.3679 25.1007 43.3624C24.9826 43.3568 24.8646 43.3729 24.7532 43.4096C24.6418 43.4463 24.5394 43.503 24.4517 43.5763C24.364 43.6497 24.2928 43.7383 24.242 43.8372C24.1913 43.9361 24.1622 44.0432 24.1562 44.1525C24.1502 44.2618 24.1675 44.3711 24.2072 44.4742C24.4252 45.0101 24.7592 45.499 25.1888 45.9109C25.6184 46.3227 26.1345 46.6489 26.7052 46.8692C27.0425 47.0083 27.3943 47.115 27.7551 47.1877V48.1667C27.7551 48.3877 27.8499 48.5996 28.0187 48.7559C28.1875 48.9122 28.4164 49 28.6551 49C28.8938 49 29.1227 48.9122 29.2915 48.7559C29.4603 48.5996 29.5551 48.3877 29.5551 48.1667V47.2513C29.945 47.203 30.3268 47.1096 30.6915 46.9732C32.3601 46.3358 33.2054 44.8478 32.7009 43.4338C32.1122 41.7938 30.4023 41.358 29.0284 41.008C28.0049 40.7472 27.0383 40.501 26.6123 39.8714C26.4543 39.6555 26.3678 39.4016 26.3633 39.1408C26.3587 38.8801 26.4364 38.6238 26.5868 38.4033C27.121 37.671 28.3952 37.5162 29.4182 37.6859C29.8613 37.7671 30.2748 37.9512 30.6199 38.221C30.965 38.4908 31.2304 38.8374 31.3911 39.2283C31.4242 39.3333 31.4793 39.4313 31.5533 39.5167C31.6273 39.602 31.7188 39.673 31.8224 39.7256C31.926 39.7782 32.0398 39.8114 32.1573 39.8233C32.2748 39.8352 32.3937 39.8255 32.5071 39.7949C32.6206 39.7642 32.7264 39.7132 32.8185 39.6447C32.9107 39.5762 32.9874 39.4915 33.0442 39.3956C33.101 39.2996 33.1369 39.1942 33.1497 39.0854C33.1625 38.9767 33.1521 38.8666 33.119 38.7615C32.8681 38.0713 32.4226 37.4557 31.8287 36.9784C31.2347 36.501 30.5138 36.1792 29.7405 36.0463C29.6797 36.0361 29.6161 36.0282 29.5533 36.0197C29.5533 36.0142 29.5551 36.0085 29.5551 36.0028V34.8333C29.5551 34.6123 29.4603 34.4004 29.2915 34.2441C29.1227 34.0878 28.8938 34 28.6551 34C28.4164 34 28.1875 34.0878 28.0187 34.2441C27.8499 34.4004 27.7551 34.6123 27.7551 34.8333V36.0028C27.7551 36.0113 27.7575 36.0195 27.7577 36.028C27.2307 36.0841 26.722 36.2411 26.264 36.4889C25.806 36.7368 25.4087 37.0702 25.0973 37.4678C24.7502 37.9559 24.5644 38.5271 24.5627 39.1114C24.5611 39.6958 24.7436 40.2679 25.0879 40.7576C25.8852 41.9358 27.3014 42.2965 28.5507 42.6149C29.8879 42.9557 30.7212 43.2027 30.9923 43.9579C31.2289 44.6215 30.6465 45.1875 30.006 45.4323Z" fill="#34A853"/>
<path d="M30.1342 53.0295C29.5738 53.066 29.0697 53.0962 28.5761 53.0962C28.4957 53.0962 27.2418 53.0648 26.7626 53.0337L26.6998 53.0295C24.2634 52.8696 21.7746 51.8752 20.049 50C19.7907 50.5835 19.4918 51.1433 19.155 51.6742C21.2504 53.6472 23.867 54.792 26.6006 54.9316C27.1163 54.9653 27.6238 55 28.1428 55C28.1955 55 29.6883 54.9674 30.233 54.9316C32.7334 54.7942 35.1417 53.831 37.155 52.1632C36.8024 51.6609 36.4848 51.129 36.2051 50.572C34.4512 52.0637 32.3336 52.9209 30.1342 53.0295Z" fill="#34A853"/>
</g>
<defs>
<clipPath id="clip0">
<rect width="55" height="55" fill="white" transform="translate(0.155029)"/>
</clipPath>
</defs>
</svg>
