<svg width="56" height="55" viewBox="0 0 56 55" fill="none" xmlns="http://www.w3.org/2000/svg">
<g clip-path="url(#clip0)">
<path d="M40.1553 8H42.1553C42.4205 8 42.6748 7.89464 42.8624 7.70711C43.0499 7.51957 43.1553 7.26522 43.1553 7C43.1553 6.73478 43.0499 6.48043 42.8624 6.29289C42.6748 6.10536 42.4205 6 42.1553 6H40.1553C39.8901 6 39.6357 6.10536 39.4482 6.29289C39.2606 6.48043 39.1553 6.73478 39.1553 7C39.1553 7.26522 39.2606 7.51957 39.4482 7.70711C39.6357 7.89464 39.8901 8 40.1553 8Z" fill="#FF3A44"/>
<path d="M10.0884 17C10.3359 17 10.5733 16.9034 10.7483 16.7315C10.9234 16.5596 11.0217 16.3264 11.0217 16.0833V12.4167C11.0232 11.2015 11.5153 10.0366 12.3902 9.17737C13.265 8.31814 14.4511 7.83479 15.6884 7.83333H36.2217C36.4692 7.83333 36.7066 7.73676 36.8817 7.56485C37.0567 7.39294 37.155 7.15978 37.155 6.91667C37.155 6.67355 37.0567 6.44039 36.8817 6.26849C36.7066 6.09658 36.4692 6 36.2217 6H15.6884C13.9562 6.00194 12.2956 6.6786 11.0708 7.88154C9.84597 9.08448 9.15701 10.7155 9.15503 12.4167V16.0833C9.15503 16.3264 9.25336 16.5596 9.4284 16.7315C9.60343 16.9034 9.84083 17 10.0884 17Z" fill="#FF3A44"/>
<path d="M48.7386 6H45.0719C44.8288 6 44.5957 6.09606 44.4238 6.26705C44.2518 6.43804 44.1553 6.66995 44.1553 6.91176C44.1553 7.15358 44.2518 7.38549 44.4238 7.55648C44.5957 7.72747 44.8288 7.82353 45.0719 7.82353H48.7386C49.9537 7.82498 51.1187 8.30575 51.9779 9.16038C52.8371 10.015 53.3205 11.1737 53.3219 12.3824V30.6176C53.3205 31.8263 52.8371 32.985 51.9779 33.8396C51.1187 34.6943 49.9537 35.175 48.7386 35.1765C48.4955 35.1765 48.2623 35.2725 48.0904 35.4435C47.9185 35.6145 47.8219 35.8464 47.8219 36.0882C47.8219 36.33 47.9185 36.562 48.0904 36.733C48.2623 36.9039 48.4955 37 48.7386 37C50.4398 36.9981 52.0708 36.325 53.2737 35.1285C54.4767 33.932 55.1533 32.3098 55.1553 30.6176V12.3824C55.1533 10.6902 54.4767 9.06799 53.2737 7.87148C52.0708 6.67498 50.4398 6.00193 48.7386 6Z" fill="#FF3A44"/>
<path d="M6.59503 50H39.715C41.4224 49.9981 43.0593 49.325 44.2666 48.1285C45.474 46.932 46.1531 45.3098 46.155 43.6176V25.3824C46.1531 23.6902 45.474 22.068 44.2666 20.8715C43.0593 19.675 41.4224 19.0019 39.715 19H6.59503C4.88763 19.0019 3.25073 19.675 2.04341 20.8715C0.836101 22.068 0.156977 23.6902 0.155029 25.3824V32.6765C0.155029 32.9183 0.251958 33.1502 0.424491 33.3212C0.597025 33.4922 0.83103 33.5882 1.07503 33.5882C1.31903 33.5882 1.55303 33.4922 1.72557 33.3212C1.8981 33.1502 1.99503 32.9183 1.99503 32.6765V31.7647H44.315V43.6176C44.3136 44.8263 43.8285 45.985 42.9661 46.8396C42.1038 47.6943 40.9346 48.175 39.715 48.1765H6.59503C5.37548 48.175 4.2063 47.6943 3.34395 46.8396C2.4816 45.985 1.99649 44.8263 1.99503 43.6176V41.7941C1.99503 41.5523 1.8981 41.3204 1.72557 41.1494C1.55303 40.9784 1.31903 40.8824 1.07503 40.8824C0.83103 40.8824 0.597025 40.9784 0.424491 41.1494C0.251958 41.3204 0.155029 41.5523 0.155029 41.7941V43.6176C0.156977 45.3098 0.836101 46.932 2.04341 48.1285C3.25073 49.325 4.88763 49.9981 6.59503 50ZM6.59503 20.8235H39.715C40.7751 20.8249 41.8022 21.1883 42.6234 21.8527C43.4445 22.517 44.0095 23.4416 44.223 24.4706H2.08703C2.30056 23.4416 2.86551 22.517 3.68668 21.8527C4.50784 21.1883 5.535 20.8249 6.59503 20.8235ZM1.99503 29.9412V26.2941H44.315V29.9412H1.99503Z" fill="#FF3A44"/>
<path d="M1.15503 39C1.42025 39 1.6746 38.8946 1.86214 38.7071C2.04967 38.5196 2.15503 38.2652 2.15503 38V36C2.15503 35.7348 2.04967 35.4804 1.86214 35.2929C1.6746 35.1054 1.42025 35 1.15503 35C0.889813 35 0.635459 35.1054 0.447922 35.2929C0.260386 35.4804 0.155029 35.7348 0.155029 36V38C0.155029 38.2652 0.260386 38.5196 0.447922 38.7071C0.635459 38.8946 0.889813 39 1.15503 39Z" fill="#FF3A44"/>
<path d="M33.655 40.7907C34.149 41.3303 34.8056 41.7142 35.5369 41.891C36.2681 42.0677 37.039 42.0289 37.7463 41.7796C38.4535 41.5304 39.0632 41.0826 39.4938 40.4965C39.9243 39.9103 40.155 39.2137 40.155 38.5C40.155 37.7863 39.9243 37.0897 39.4938 36.5035C39.0632 35.9174 38.4535 35.4696 37.7463 35.2204C37.039 34.9711 36.2681 34.9323 35.5369 35.109C34.8056 35.2858 34.149 35.6697 33.655 36.2093C33.161 35.6697 32.5044 35.2858 31.7732 35.109C31.0419 34.9323 30.271 34.9711 29.5638 35.2204C28.8566 35.4696 28.2468 35.9174 27.8163 36.5035C27.3858 37.0897 27.155 37.7863 27.155 38.5C27.155 39.2137 27.3858 39.9103 27.8163 40.4965C28.2468 41.0826 28.8566 41.5304 29.5638 41.7796C30.271 42.0289 31.0419 42.0677 31.7732 41.891C32.5044 41.7142 33.161 41.3303 33.655 40.7907ZM36.4311 36.75C36.7972 36.75 37.155 36.8526 37.4593 37.0449C37.7637 37.2372 38.0009 37.5105 38.141 37.8303C38.2811 38.1501 38.3177 38.5019 38.2463 38.8414C38.1749 39.1809 37.9986 39.4927 37.7398 39.7374C37.481 39.9822 37.1512 40.1488 36.7922 40.2164C36.4332 40.2839 36.0611 40.2492 35.7229 40.1168C35.3847 39.9843 35.0957 39.76 34.8923 39.4722C34.6889 39.1845 34.5804 38.8461 34.5804 38.5C34.5804 38.0359 34.7754 37.5908 35.1225 37.2626C35.4695 36.9344 35.9403 36.75 36.4311 36.75ZM29.0282 38.5C29.0282 38.1539 29.1367 37.8155 29.3401 37.5278C29.5435 37.24 29.8325 37.0157 30.1707 36.8832C30.5089 36.7508 30.881 36.7161 31.24 36.7836C31.599 36.8512 31.9288 37.0178 32.1876 37.2626C32.4464 37.5073 32.6227 37.8191 32.6941 38.1586C32.7655 38.4981 32.7289 38.8499 32.5888 39.1697C32.4487 39.4895 32.2115 39.7628 31.9071 39.9551C31.6028 40.1474 31.245 40.25 30.8789 40.25C30.3881 40.25 29.9173 40.0656 29.5703 39.7374C29.2232 39.4092 29.0282 38.9641 29.0282 38.5Z" fill="#FF3A44"/>
<path d="M7.0717 43H16.2384C16.4815 43 16.7146 42.8946 16.8865 42.7071C17.0585 42.5196 17.155 42.2652 17.155 42C17.155 41.7348 17.0585 41.4804 16.8865 41.2929C16.7146 41.1054 16.4815 41 16.2384 41H7.0717C6.82858 41 6.59542 41.1054 6.42351 41.2929C6.25161 41.4804 6.15503 41.7348 6.15503 42C6.15503 42.2652 6.25161 42.5196 6.42351 42.7071C6.59542 42.8946 6.82858 43 7.0717 43Z" fill="#FF3A44"/>
<path d="M18.155 42C18.155 42.2652 18.2604 42.5196 18.4479 42.7071C18.6355 42.8946 18.8898 43 19.155 43H23.155C23.4202 43 23.6746 42.8946 23.8621 42.7071C24.0497 42.5196 24.155 42.2652 24.155 42C24.155 41.7348 24.0497 41.4804 23.8621 41.2929C23.6746 41.1054 23.4202 41 23.155 41H19.155C18.8898 41 18.6355 41.1054 18.4479 41.2929C18.2604 41.4804 18.155 41.7348 18.155 42Z" fill="#FF3A44"/>
<path d="M20.2175 37H7.09253C6.84389 37 6.60543 37.1054 6.42962 37.2929C6.2538 37.4804 6.15503 37.7348 6.15503 38C6.15503 38.2652 6.2538 38.5196 6.42962 38.7071C6.60543 38.8946 6.84389 39 7.09253 39H20.2175C20.4662 39 20.7046 38.8946 20.8804 38.7071C21.0563 38.5196 21.155 38.2652 21.155 38C21.155 37.7348 21.0563 37.4804 20.8804 37.2929C20.7046 37.1054 20.4662 37 20.2175 37Z" fill="#FF3A44"/>
</g>
<defs>
<clipPath id="clip0">
<rect width="55" height="55" fill="white" transform="translate(0.155029)"/>
</clipPath>
</defs>
</svg>
