<svg width="66" height="66" viewBox="0 0 66 66" fill="none" xmlns="http://www.w3.org/2000/svg">
<path d="M32.6551 5.59668C17.429 5.59668 5.07178 17.9539 5.07178 33.18H6.07178C6.07178 18.5062 17.9813 6.59668 32.6551 6.59668V5.59668ZM5.07178 33.18C5.07178 48.4062 17.429 60.7634 32.6551 60.7634V59.7634C17.9813 59.7634 6.07178 47.8539 6.07178 33.18H5.07178ZM32.6551 60.7634C47.8813 60.7634 60.2384 48.4062 60.2384 33.18H59.2384C59.2384 47.8539 47.329 59.7634 32.6551 59.7634V60.7634ZM60.2384 33.18C60.2384 17.9539 47.8813 5.59668 32.6551 5.59668V6.59668C47.329 6.59668 59.2384 18.5062 59.2384 33.18H60.2384Z" fill="white"/>
<path d="M29.1553 41.6802V24.6802L40.4886 33.1802L29.1553 41.6802Z" fill="white"/>
</svg>
