<svg width="56" height="55" viewBox="0 0 56 55" fill="none" xmlns="http://www.w3.org/2000/svg">
<path d="M10.3987 11.2416C10.3215 11.3187 10.2602 11.4103 10.2184 11.5112C10.1766 11.612 10.155 11.7201 10.155 11.8293C10.155 11.9385 10.1766 12.0466 10.2184 12.1474C10.2602 12.2483 10.3215 12.3399 10.3987 12.4171L17.7358 19.7565C17.8917 19.9124 18.1031 20 18.3236 20C18.5441 20 18.7556 19.9124 18.9115 19.7565C19.0674 19.6007 19.155 19.3893 19.155 19.1688C19.155 18.9484 19.0674 18.7369 18.9115 18.5811L11.5703 11.2416C11.4146 11.0868 11.204 11 10.9845 11C10.765 11 10.5544 11.0868 10.3987 11.2416Z" fill="#FFA500"/>
<path d="M35.1553 15.1629V4.83711C35.1553 4.6151 35.0499 4.40217 34.8624 4.24518C34.6748 4.0882 34.4205 4 34.1553 4C33.8901 4 33.6357 4.0882 33.4482 4.24518C33.2606 4.40217 33.1553 4.6151 33.1553 4.83711V15.1629C33.1553 15.3849 33.2606 15.5978 33.4482 15.7548C33.6357 15.9118 33.8901 16 34.1553 16C34.4205 16 34.6748 15.9118 34.8624 15.7548C35.0499 15.5978 35.1553 15.3849 35.1553 15.1629Z" fill="#FFA500"/>
<path d="M21.7313 0.644157C21.7051 0.534999 21.659 0.43245 21.5958 0.342368C21.5326 0.252285 21.4534 0.176431 21.3629 0.119138C21.2723 0.0618451 21.1721 0.0242343 21.068 0.00845331C20.9638 -0.00732772 20.8578 -0.000969948 20.756 0.0271636C20.6541 0.0552972 20.5585 0.104656 20.4744 0.172421C20.3904 0.240186 20.3196 0.32503 20.2662 0.42211C20.2127 0.51919 20.1776 0.626605 20.1629 0.73822C20.1482 0.849835 20.1541 0.963466 20.1804 1.07262L22.5787 11.3558C22.605 11.465 22.651 11.5675 22.7143 11.6576C22.7775 11.7477 22.8566 11.8236 22.9472 11.8809C23.0378 11.9382 23.138 11.9758 23.2421 11.9915C23.3462 12.0073 23.4522 12.001 23.5541 11.9728C23.6559 11.9447 23.7516 11.8953 23.8356 11.8276C23.9197 11.7598 23.9904 11.675 24.0439 11.5779C24.0973 11.4808 24.1324 11.3734 24.1471 11.2618C24.1619 11.1502 24.1559 11.0365 24.1297 10.9274L21.7313 0.644157Z" fill="#FFA500"/>
<path d="M10.9932 31.5112C13.695 35.3352 13.6735 37.0602 13.6563 38.7342C13.5272 50.903 22.067 54.6632 27.1392 54.9649C27.5264 54.9861 27.9007 54.9988 28.275 54.9988C30.6205 55.0264 32.9453 54.5623 35.0959 53.6373C37.2465 52.7123 39.174 51.3473 40.7512 49.6325L43.5691 46.5649L43.6165 46.5096L45.0147 44.9843C45.5097 44.495 45.8621 43.8829 46.0347 43.2125C46.2074 42.5422 46.194 41.8382 45.9959 41.1748C45.7978 40.5113 45.4223 39.9128 44.909 39.4422C44.3956 38.9716 43.7634 38.6463 43.0787 38.5006C43.2131 38.0183 43.2399 37.513 43.1574 37.0194C43.0749 36.5259 42.885 36.056 42.6007 35.642C42.3165 35.228 41.9447 34.8798 41.511 34.6214C41.0773 34.3631 40.5921 34.2007 40.0887 34.1455C40.2285 33.7639 40.3013 33.3616 40.3038 32.9558C40.3062 32.0697 39.9969 31.2103 39.4287 30.5244C38.8606 29.8386 38.069 29.3689 37.189 29.1956L41.8569 24.5686C42.2231 24.2081 42.5129 23.7791 42.7095 23.3068C42.906 22.8344 43.0053 22.3282 43.0016 21.8175C42.9979 21.3069 42.8912 20.8021 42.6878 20.3326C42.4844 19.8631 42.1883 19.4383 41.8169 19.083C41.4454 18.7278 41.0061 18.4491 40.5244 18.2634C40.0428 18.0776 39.5285 17.9885 39.0116 18.0012C38.4946 18.0139 37.9855 18.1281 37.5137 18.3373C37.042 18.5464 36.6172 18.8462 36.2641 19.2193C31.1488 24.6111 24.7902 30.7464 22.2821 31.7534C20.8194 32.3482 20.4666 31.8851 19.3351 30.0538C18.5493 28.6191 17.5055 27.3377 16.2548 26.2724C14.7662 25.0784 13.0152 25.0444 11.5654 26.1789C9.9263 27.4578 9.68968 29.6587 10.9932 31.5112ZM42.2484 40.1194C42.5338 40.1183 42.8166 40.1733 43.0803 40.2813C43.344 40.3893 43.5833 40.548 43.7842 40.7482C43.987 40.9511 44.1472 41.1917 44.2555 41.456C44.3638 41.7203 44.4181 42.0031 44.4153 42.2882C44.4125 42.5733 44.3526 42.8551 44.2392 43.1172C44.1257 43.3794 43.9609 43.6168 43.7541 43.8159L42.3904 45.2987C42.0251 45.4691 41.6158 45.525 41.2174 45.4589C40.819 45.3928 40.4507 45.2079 40.1618 44.9291L40.0844 44.8483C39.7326 44.5076 39.5211 44.0501 39.4909 43.5643C39.4607 43.0786 39.6139 42.599 39.9209 42.2183L42.072 40.0939L42.2484 40.1194ZM40.9577 36.3209C41.2763 36.6329 41.4639 37.0522 41.483 37.4948C41.5022 37.9375 41.3515 38.3711 41.061 38.7087C41.025 38.7413 40.9919 38.7769 40.962 38.815L38.4926 41.2538C38.1439 41.3798 37.7664 41.4067 37.4029 41.3316C37.0394 41.2565 36.7045 41.0824 36.4362 40.8289L36.3329 40.727C35.9943 40.3796 35.7953 39.9224 35.7731 39.4407C35.7509 38.9591 35.9071 38.4859 36.2125 38.1097C36.5566 37.8462 37.9979 36.7203 38.7636 36.0702C39.1044 35.8664 39.5041 35.7804 39.8999 35.8258C40.2956 35.8712 40.6647 36.0454 40.9491 36.3209H40.9577ZM37.9462 31.4305C38.149 31.6289 38.3097 31.8653 38.419 32.1257C38.5283 32.3861 38.584 32.6654 38.5829 32.9473C38.5267 33.6376 38.2031 34.2798 37.6795 34.7403C37.1546 35.1907 36.0232 36.0872 35.1885 36.733C34.8327 36.8334 34.456 36.8374 34.0981 36.7447C33.7401 36.652 33.4139 36.466 33.1536 36.2062L33.0977 36.1509C32.706 35.7637 32.486 35.2388 32.486 34.6915C32.486 34.1441 32.706 33.6192 33.0977 33.232L35.1197 31.235C35.534 30.9246 36.0482 30.7729 36.5671 30.808C37.086 30.8432 37.5744 31.0628 37.9419 31.4262L37.9462 31.4305ZM12.6367 27.4918C13.4627 26.846 14.293 26.8715 15.1706 27.5725C16.2657 28.5155 17.1782 29.6471 17.8638 30.9121C18.2629 31.6497 18.7639 32.3289 19.3523 32.9303C19.3684 32.9538 19.3856 32.9765 19.4039 32.9983C19.4771 33.0748 21.1248 34.855 19.447 37.4426C19.3339 37.6323 19.2998 37.8579 19.3518 38.0719C19.4038 38.2859 19.5378 38.4717 19.7257 38.59C19.9136 38.7084 20.1406 38.7502 20.3591 38.7065C20.5775 38.6629 20.7703 38.5373 20.8968 38.3561C21.3716 37.6839 21.6889 36.9157 21.8259 36.1073C21.9628 35.2989 21.9158 34.4706 21.6884 33.6824C22.1145 33.6248 22.5311 33.5119 22.9274 33.3467C26.3132 31.9743 34.2507 23.8378 37.5117 20.4005C37.7098 20.1895 37.9492 20.0204 38.2154 19.9035C38.4817 19.7867 38.7692 19.7245 39.0605 19.7206C39.3522 19.7161 39.6418 19.7695 39.9123 19.8775C40.1828 19.9855 40.4285 20.146 40.6351 20.3495C40.8373 20.5488 40.9978 20.7855 41.1073 21.0462C41.2168 21.3068 41.2732 21.5862 41.2732 21.8684C41.2732 22.1506 41.2168 22.43 41.1073 22.6907C40.9978 22.9513 40.8373 23.1881 40.6351 23.3874L31.8759 32.0211C31.52 32.3709 31.2376 32.7866 31.0449 33.2446C30.8522 33.7025 30.753 34.1935 30.753 34.6893C30.753 35.1852 30.8522 35.6762 31.0449 36.1341C31.2376 36.592 31.52 37.0078 31.8759 37.3576L31.9232 37.4044C32.5157 37.9911 33.2892 38.3663 34.1216 38.4708C33.9716 39.084 33.983 39.7249 34.1547 40.3325C34.3264 40.9401 34.6527 41.4943 35.1025 41.9421L35.1369 41.9719L35.1713 42.0059C35.8693 42.689 36.813 43.0709 37.7957 43.0681C37.7369 43.6111 37.8022 44.1602 37.9869 44.6749C38.1715 45.1897 38.4708 45.6569 38.8626 46.0423L38.9271 46.1145C39.4249 46.6049 40.0527 46.9466 40.7383 47.1002L39.4477 48.5066L39.4133 48.5448C37.8728 50.1827 35.9792 51.4573 33.8724 52.2744C31.7656 53.0915 29.4997 53.4302 27.2425 53.2653C25.0257 53.0755 22.8912 52.3455 21.0302 51.1409C21.1635 51.1409 21.3012 51.1409 21.4389 51.1409H21.8045C23.9556 51.0049 25.9217 49.7175 27.677 47.3169C27.8037 47.1336 27.8527 46.9086 27.8136 46.69C27.7744 46.4714 27.6503 46.2766 27.4676 46.1473C27.2849 46.018 27.0583 45.9644 26.8361 45.9979C26.614 46.0315 26.4139 46.1496 26.2788 46.3269C24.8462 48.2984 23.3103 49.3521 21.7099 49.4583C19.4771 49.6028 17.7605 47.8395 17.7347 47.814C17.6967 47.7748 17.6549 47.7392 17.6099 47.7078C16.2634 45.6089 15.3384 42.7282 15.3814 38.747C15.4072 36.4993 15.2007 34.4684 12.4086 30.5255C11.759 29.6247 11.5826 28.3246 12.6367 27.4918Z" fill="#FFA500"/>
<path d="M25.8843 17.6447L24.155 17.9079L25.407 19.1908L25.1096 21L26.655 20.1447L28.2004 21L27.9031 19.1908L29.155 17.9079L27.4258 17.6447L26.655 16L25.8843 17.6447Z" fill="#FFA500"/>
<path d="M28.5303 7.67682L29.0963 9L29.7672 7.7247L31.155 7.57671L30.1949 6.52339L30.4884 5.10446L29.2263 5.72688L28.0146 5L28.1949 6.4407L27.155 7.41132L28.5303 7.67682Z" fill="#FFA500"/>
<path d="M16.636 6.96017L15.587 6L15.4303 7.38784L14.155 8.05451L15.4782 8.62474L15.7437 10L16.7143 8.96017L18.155 9.14465L17.4282 7.93291L18.0549 6.67505L16.636 6.96017Z" fill="#FFA500"/>
</svg>
