<svg width="227" height="59" viewBox="0 0 227 59" fill="none" xmlns="http://www.w3.org/2000/svg">
<g filter="url(#filter0_d)">
<rect x="0.0991211" y="16.7358" width="226.179" height="35.1833" fill="#0068FF"/>
<path d="M16.4341 34.3272L22.7168 40.6099V28.0444L16.4341 34.3272Z" fill="#FFC200"/>
<path d="M10.1519 28.0444V40.6099L22.7173 28.0444H10.1519Z" fill="#0068FF"/>
<path d="M22.7168 40.6099H10.1514L16.4341 34.3271L22.7168 40.6099Z" fill="#0029D3"/>
<path d="M10.3403 40.4214V28.2329H22.5288V40.4214H10.3403Z" stroke="white" stroke-width="0.376964"/>
<path d="M39.4023 28.0449H36.0009L31.8075 33.2327V28.0449H29V40.6104H31.8075V35.2431L36.4688 40.6104H39.8522V40.4488L34.2911 34.1482L39.4023 28.1167V28.0449Z" fill="white"/>
<path d="M51.5117 28.0449H48.1102L43.9169 33.2327V28.0449H41.1094V40.6104H43.9169V35.2431L48.5781 40.6104H51.9616V40.4488L46.4005 34.1482L51.5117 28.1167V28.0449Z" fill="white"/>
<path d="M55.9723 35.2611C57.0881 35.2611 58.2759 35.2611 59.3917 35.2611C60.6335 35.2611 61.2814 35.8535 61.2814 36.7331C61.2814 37.6126 60.6875 38.1691 59.4277 38.1691H55.9723V35.2611ZM55.9723 30.4683H59.4277C60.4895 30.4683 61.0294 31.0068 61.0294 31.7428C61.0294 32.4787 60.4895 32.9275 59.3917 32.9275H55.9723V30.4683ZM53.2187 28.0449V40.6104C55.2704 40.6104 57.502 40.6104 59.5357 40.6104C62.0553 40.6104 63.747 39.6949 64.1249 37.6665C64.3949 36.2125 63.729 34.5969 62.1273 34.0225C63.3331 33.466 63.801 32.4967 63.801 31.4556C63.801 29.122 61.8213 28.0449 59.4277 28.0449H53.2187Z" fill="white"/>
<g clip-path="url(#clip0)">
<path d="M214.131 36.9447H214.654C214.943 36.9447 215.178 37.1791 215.178 37.4683C215.178 37.7574 214.943 37.9919 214.654 37.9919H205.23C204.941 37.9919 204.707 37.7574 204.707 37.4683C204.707 37.1791 204.941 36.9447 205.23 36.9447H205.754V33.2798C205.754 32.1689 206.195 31.1036 206.98 30.3181C207.766 29.5326 208.831 29.0913 209.942 29.0913C211.053 29.0913 212.118 29.5326 212.904 30.3181C213.689 31.1036 214.131 32.1689 214.131 33.2798V36.9447ZM213.084 36.9447V33.2798C213.084 32.4467 212.753 31.6476 212.163 31.0585C211.574 30.4694 210.775 30.1384 209.942 30.1384C209.109 30.1384 208.31 30.4694 207.721 31.0585C207.132 31.6476 206.801 32.4467 206.801 33.2798V36.9447H213.084ZM208.371 39.5625C208.371 39.2734 208.606 39.039 208.895 39.039H210.989C211.278 39.039 211.513 39.2734 211.513 39.5625C211.513 39.8517 211.278 40.0861 210.989 40.0861H208.895C208.606 40.0861 208.371 39.8517 208.371 39.5625Z" fill="white"/>
</g>
</g>
<rect width="226.179" height="18.8482" transform="translate(0.0991211 -0.942383)" fill="#0068FF"/>
<g opacity="0.9" clip-path="url(#clip1)">
<path d="M193.806 12.1699H192.767V7.14925L191.234 7.67322V6.79278L193.673 5.89516H193.806V12.1699ZM200.184 12.1699H195.98V11.4527L198.063 9.18071C198.363 8.84572 198.577 8.56655 198.702 8.34322C198.831 8.11702 198.896 7.89083 198.896 7.66463C198.896 7.36686 198.811 7.12635 198.642 6.9431C198.476 6.75985 198.252 6.66823 197.968 6.66823C197.63 6.66823 197.368 6.77131 197.182 6.97746C196.996 7.18361 196.903 7.46564 196.903 7.82354H195.859C195.859 7.44273 195.945 7.10058 196.117 6.79708C196.292 6.49071 196.539 6.25306 196.86 6.08413C197.184 5.9152 197.556 5.83074 197.977 5.83074C198.584 5.83074 199.062 5.98392 199.411 6.29029C199.763 6.59379 199.939 7.01468 199.939 7.55297C199.939 7.86506 199.851 8.1929 199.673 8.53649C199.498 8.87721 199.211 9.26518 198.81 9.70039L197.281 11.3367H200.184V12.1699ZM201.675 11.0704C201.869 11.0704 202.02 11.1263 202.125 11.2379C202.231 11.3467 202.284 11.4842 202.284 11.6502C202.284 11.8135 202.231 11.9495 202.125 12.0583C202.02 12.1642 201.869 12.2172 201.675 12.2172C201.488 12.2172 201.341 12.1642 201.232 12.0583C201.123 11.9523 201.069 11.8163 201.069 11.6502C201.069 11.4842 201.122 11.3467 201.228 11.2379C201.334 11.1263 201.483 11.0704 201.675 11.0704ZM201.675 7.42412C201.869 7.42412 202.02 7.47996 202.125 7.59162C202.231 7.70042 202.284 7.83786 202.284 8.00393C202.284 8.16713 202.231 8.30313 202.125 8.41194C202.02 8.51788 201.869 8.57085 201.675 8.57085C201.488 8.57085 201.341 8.51788 201.232 8.41194C201.123 8.306 201.069 8.16999 201.069 8.00393C201.069 7.83786 201.122 7.70042 201.228 7.59162C201.334 7.47996 201.483 7.42412 201.675 7.42412ZM204.522 8.56655H205.158C205.478 8.56369 205.732 8.48065 205.918 8.31745C206.107 8.15425 206.201 7.91803 206.201 7.6088C206.201 7.31103 206.123 7.08054 205.965 6.91733C205.81 6.75126 205.573 6.66823 205.252 6.66823C204.972 6.66823 204.741 6.74983 204.561 6.91304C204.38 7.07338 204.29 7.28382 204.29 7.54438H203.246C203.246 7.2237 203.331 6.93165 203.5 6.66823C203.672 6.40481 203.909 6.20009 204.213 6.05407C204.519 5.90518 204.861 5.83074 205.239 5.83074C205.863 5.83074 206.353 5.98821 206.708 6.30317C207.066 6.61526 207.245 7.05047 207.245 7.6088C207.245 7.8894 207.155 8.15425 206.974 8.40335C206.797 8.64958 206.566 8.83569 206.283 8.96168C206.626 9.07907 206.887 9.26375 207.065 9.51571C207.245 9.76767 207.335 10.0683 207.335 10.4176C207.335 10.9788 207.142 11.4255 206.755 11.7576C206.372 12.0898 205.866 12.2558 205.239 12.2558C204.638 12.2558 204.145 12.0955 203.762 11.7748C203.378 11.4541 203.186 11.0275 203.186 10.4949H204.23C204.23 10.7698 204.322 10.9931 204.505 11.1649C204.691 11.3367 204.94 11.4226 205.252 11.4226C205.576 11.4226 205.83 11.3367 206.017 11.1649C206.203 10.9931 206.296 10.744 206.296 10.4176C206.296 10.0884 206.198 9.83496 206.004 9.65744C205.809 9.47992 205.52 9.39116 205.136 9.39116H204.522V8.56655ZM212.39 9.53718C212.39 10.4362 212.221 11.1148 211.883 11.5729C211.548 12.0282 211.037 12.2558 210.35 12.2558C209.674 12.2558 209.165 12.0339 208.821 11.5901C208.48 11.1435 208.306 10.4835 208.297 9.6102V8.5279C208.297 7.62884 208.465 6.95455 208.8 6.50503C209.138 6.0555 209.651 5.83074 210.342 5.83074C211.026 5.83074 211.535 6.04977 211.87 6.48785C212.208 6.92592 212.382 7.5816 212.39 8.45488V9.53718ZM211.346 8.36899C211.346 7.78203 211.266 7.35254 211.106 7.08054C210.946 6.80567 210.691 6.66823 210.342 6.66823C210.001 6.66823 209.75 6.79851 209.59 7.05906C209.43 7.31675 209.345 7.72047 209.337 8.27021V9.6875C209.337 10.2716 209.418 10.7068 209.581 10.9931C209.745 11.2795 210.001 11.4226 210.35 11.4226C210.685 11.4226 210.933 11.2909 211.093 11.0275C211.253 10.7612 211.338 10.346 211.346 9.78199V8.36899Z" fill="white"/>
</g>
<path fill-rule="evenodd" clip-rule="evenodd" d="M183.945 5.34808V4.79834L182.06 4.79834V5.34808H180.175V13.5942H185.83V5.34808H183.945Z" fill="white"/>
<path fill-rule="evenodd" clip-rule="evenodd" d="M165.725 13.5942H174.52V4.79834L165.725 13.5942Z" fill="white"/>
<path fill-rule="evenodd" clip-rule="evenodd" d="M153.145 6.69362L158.814 13.5947L164.482 6.6937C162.905 5.50412 160.942 4.79883 158.814 4.79883C156.686 4.79883 154.723 5.50409 153.145 6.69362Z" fill="white"/>
<defs>
<filter id="filter0_d" x="-4.92707" y="12.9662" width="236.231" height="45.2357" filterUnits="userSpaceOnUse" color-interpolation-filters="sRGB">
<feFlood flood-opacity="0" result="BackgroundImageFix"/>
<feColorMatrix in="SourceAlpha" type="matrix" values="0 0 0 0 0 0 0 0 0 0 0 0 0 0 0 0 0 0 127 0"/>
<feOffset dy="1.25655"/>
<feGaussianBlur stdDeviation="2.5131"/>
<feColorMatrix type="matrix" values="0 0 0 0 0.0117647 0 0 0 0 0.0823529 0 0 0 0 0.239216 0 0 0 0.1 0"/>
<feBlend mode="normal" in2="BackgroundImageFix" result="effect1_dropShadow"/>
<feBlend mode="normal" in="SourceGraphic" in2="effect1_dropShadow" result="shape"/>
</filter>
<clipPath id="clip0">
<rect width="12.5655" height="12.5655" fill="white" transform="translate(203.66 28.0444)"/>
</clipPath>
<clipPath id="clip1">
<rect width="22.6179" height="10.0524" fill="white" transform="translate(190.228 4.16992)"/>
</clipPath>
</defs>
</svg>
