<svg width="227" height="38" viewBox="0 0 227 38" fill="none" xmlns="http://www.w3.org/2000/svg">
<g filter="url(#filter0_d)">
<rect x="-2.50049" y="7.38721" width="231.378" height="30.8504" fill="white"/>
<path d="M13.3061 28.3988H11.3882L11.3933 31.6689H11.018V28.0697H13.3061V28.3988ZM15.2755 28.9644V31.6689H14.9105V29.2883H13.6148L13.5788 29.9567C13.5513 30.5189 13.4862 30.9508 13.3834 31.2525C13.2805 31.5541 13.0972 31.7049 12.8332 31.7049C12.7612 31.7049 12.6738 31.6912 12.571 31.6638L12.5967 31.3502C12.6584 31.3639 12.7012 31.3707 12.7252 31.3707C12.8658 31.3707 12.972 31.3056 13.044 31.1753C13.116 31.0451 13.164 30.884 13.188 30.692C13.212 30.5001 13.2326 30.2464 13.2497 29.931L13.296 28.9644H15.2755ZM17.244 28.9438C17.597 28.9438 17.8678 29.0329 18.0564 29.2112C18.2449 29.386 18.3392 29.6465 18.3392 29.9927V31.6689H17.9895V31.2473C17.9073 31.3879 17.7856 31.4976 17.6245 31.5764C17.4668 31.6552 17.2783 31.6947 17.0589 31.6947C16.7572 31.6947 16.5173 31.6227 16.339 31.4787C16.1608 31.3347 16.0717 31.1445 16.0717 30.908C16.0717 30.6783 16.1539 30.4932 16.3185 30.3527C16.4864 30.2121 16.7521 30.1418 17.1154 30.1418H17.9741V29.9773C17.9741 29.7442 17.909 29.5677 17.7787 29.4477C17.6485 29.3243 17.4582 29.2626 17.208 29.2626C17.0366 29.2626 16.8721 29.2917 16.7144 29.35C16.5567 29.4049 16.4213 29.482 16.3082 29.5814L16.1437 29.3089C16.2808 29.1923 16.4453 29.1032 16.6373 29.0415C16.8292 28.9764 17.0315 28.9438 17.244 28.9438ZM17.1154 31.4067C17.3211 31.4067 17.4976 31.3604 17.645 31.2679C17.7924 31.1719 17.9021 31.0348 17.9741 30.8566V30.4144H17.1257C16.663 30.4144 16.4316 30.5755 16.4316 30.8977C16.4316 31.0554 16.4916 31.1805 16.6115 31.273C16.7315 31.3622 16.8995 31.4067 17.1154 31.4067ZM21.0335 30.2704C21.4003 30.3561 21.5836 30.5772 21.5836 30.9337C21.5836 31.1702 21.4962 31.3519 21.3214 31.4787C21.1466 31.6055 20.8861 31.6689 20.5399 31.6689H19.311V28.9644H20.5039C20.8124 28.9644 21.054 29.0244 21.2289 29.1444C21.4037 29.2643 21.4911 29.4357 21.4911 29.6585C21.4911 29.8059 21.45 29.9328 21.3677 30.039C21.2889 30.1418 21.1775 30.219 21.0335 30.2704ZM19.6658 30.1676H20.4782C20.6873 30.1676 20.8467 30.1281 20.9564 30.0493C21.0695 29.9705 21.126 29.8556 21.126 29.7048C21.126 29.554 21.0695 29.4409 20.9564 29.3654C20.8467 29.29 20.6873 29.2523 20.4782 29.2523H19.6658V30.1676ZM20.5245 31.381C20.7575 31.381 20.9324 31.3433 21.0489 31.2679C21.1655 31.1925 21.2237 31.0742 21.2237 30.9131C21.2237 30.752 21.1706 30.6337 21.0643 30.5583C20.9581 30.4795 20.7901 30.4401 20.5604 30.4401H19.6658V31.381H20.5245ZM22.4392 28.9644H22.8043V30.1624H24.5062V28.9644H24.8713V31.6689H24.5062V30.4761H22.8043V31.6689H22.4392V28.9644ZM26.8395 28.9438C27.1926 28.9438 27.4634 29.0329 27.6519 29.2112C27.8405 29.386 27.9347 29.6465 27.9347 29.9927V31.6689H27.5851V31.2473C27.5028 31.3879 27.3811 31.4976 27.22 31.5764C27.0624 31.6552 26.8738 31.6947 26.6544 31.6947C26.3528 31.6947 26.1128 31.6227 25.9346 31.4787C25.7564 31.3347 25.6672 31.1445 25.6672 30.908C25.6672 30.6783 25.7495 30.4932 25.914 30.3527C26.082 30.2121 26.3477 30.1418 26.711 30.1418H27.5697V29.9773C27.5697 29.7442 27.5045 29.5677 27.3743 29.4477C27.244 29.3243 27.0538 29.2626 26.8036 29.2626C26.6322 29.2626 26.4676 29.2917 26.3099 29.35C26.1523 29.4049 26.0169 29.482 25.9038 29.5814L25.7392 29.3089C25.8763 29.1923 26.0409 29.1032 26.2328 29.0415C26.4248 28.9764 26.627 28.9438 26.8395 28.9438ZM26.711 31.4067C26.9167 31.4067 27.0932 31.3604 27.2406 31.2679C27.388 31.1719 27.4977 31.0348 27.5697 30.8566V30.4144H26.7213C26.2585 30.4144 26.0272 30.5755 26.0272 30.8977C26.0272 31.0554 26.0871 31.1805 26.2071 31.273C26.3271 31.3622 26.4951 31.4067 26.711 31.4067ZM30.9838 28.9644V31.6689H30.6496V30.7743H29.8012H29.6984L29.0711 31.6689H28.6752L29.3488 30.7229C29.1397 30.6646 28.9785 30.5652 28.8654 30.4246C28.7523 30.2841 28.6958 30.1059 28.6958 29.8899C28.6958 29.5883 28.7986 29.3586 29.0043 29.2009C29.2099 29.0432 29.491 28.9644 29.8475 28.9644H30.9838ZM29.066 29.9002C29.066 30.3012 29.3213 30.5018 29.8321 30.5018H30.6496V29.2883H29.8578C29.3299 29.2883 29.066 29.4923 29.066 29.9002Z" fill="#0068FF"/>
<path d="M24.3864 23.777H16.888C16.7459 23.777 16.6097 23.7206 16.5093 23.6202C16.4088 23.5197 16.3524 23.3835 16.3524 23.2414V18.4211C15.7846 18.4211 15.5144 17.7222 15.9345 17.3402L20.2767 13.3929C20.3753 13.3031 20.5039 13.2534 20.6372 13.2534C20.7705 13.2534 20.899 13.3031 20.9976 13.3929L25.3398 17.3402C25.7599 17.7222 25.4897 18.4211 24.922 18.4211V23.2414C24.922 23.3835 24.8655 23.5197 24.7651 23.6202C24.6646 23.7206 24.5284 23.777 24.3864 23.777ZM21.1728 22.7058H23.8508V17.7183C23.8508 17.5372 23.7744 17.3645 23.6404 17.2427L20.6372 14.5128L17.634 17.2427C17.5 17.3645 17.4236 17.5372 17.4236 17.7183V22.7058H20.1016V20.0278C20.1016 19.732 20.3414 19.4922 20.6372 19.4922C20.933 19.4922 21.1728 19.732 21.1728 20.0278V22.7058Z" fill="#0068FF"/>
<g opacity="0.35">
<path d="M61.5159 31.6993C61.1594 31.6993 60.8372 31.6205 60.5492 31.4628C60.2647 31.3051 60.0402 31.0874 59.8757 30.8098C59.7145 30.5287 59.634 30.2151 59.634 29.8688C59.634 29.5226 59.7145 29.2107 59.8757 28.9331C60.0402 28.652 60.2664 28.4326 60.5544 28.2749C60.8423 28.1172 61.1645 28.0384 61.521 28.0384C61.7884 28.0384 62.0352 28.083 62.2614 28.1721C62.4877 28.2612 62.6796 28.3915 62.8373 28.5628L62.5956 28.8045C62.3145 28.52 61.9598 28.3777 61.5313 28.3777C61.2468 28.3777 60.988 28.4429 60.7549 28.5731C60.5218 28.7034 60.3384 28.8816 60.2047 29.1079C60.0745 29.3341 60.0093 29.5878 60.0093 29.8688C60.0093 30.1499 60.0745 30.4036 60.2047 30.6298C60.3384 30.8561 60.5218 31.0343 60.7549 31.1646C60.988 31.2948 61.2468 31.36 61.5313 31.36C61.9632 31.36 62.318 31.216 62.5956 30.928L62.8373 31.1697C62.6796 31.3411 62.4859 31.4731 62.2563 31.5656C62.03 31.6547 61.7832 31.6993 61.5159 31.6993ZM65.4865 28.9639V31.6685H65.1215V30.5424C64.8095 30.6795 64.5027 30.7481 64.2011 30.7481C63.8755 30.7481 63.6218 30.6744 63.4401 30.527C63.2584 30.3762 63.1676 30.1516 63.1676 29.8534V28.9639H63.5327V29.8329C63.5327 30.0351 63.5978 30.1894 63.7281 30.2956C63.8583 30.3984 64.0383 30.4499 64.2679 30.4499C64.5216 30.4499 64.8061 30.383 65.1215 30.2493V28.9639H65.4865ZM68.8885 30.4293H66.6261C66.6467 30.7104 66.7546 30.9383 66.95 31.1131C67.1454 31.2845 67.3922 31.3702 67.6904 31.3702C67.8584 31.3702 68.0127 31.3411 68.1532 31.2828C68.2937 31.2211 68.4154 31.132 68.5183 31.0155L68.7239 31.252C68.604 31.3959 68.4531 31.5056 68.2715 31.581C68.0932 31.6565 67.8961 31.6942 67.6802 31.6942C67.4025 31.6942 67.1557 31.6359 66.9398 31.5193C66.7272 31.3994 66.561 31.2348 66.441 31.0257C66.321 30.8166 66.261 30.5801 66.261 30.3162C66.261 30.0522 66.3176 29.8157 66.4307 29.6066C66.5473 29.3975 66.7049 29.2347 66.9038 29.1182C67.106 29.0016 67.3322 28.9433 67.5825 28.9433C67.8327 28.9433 68.0572 29.0016 68.256 29.1182C68.4548 29.2347 68.6108 29.3975 68.7239 29.6066C68.8371 29.8123 68.8936 30.0488 68.8936 30.3162L68.8885 30.4293ZM67.5825 29.257C67.322 29.257 67.1026 29.341 66.9243 29.5089C66.7495 29.6735 66.6501 29.8894 66.6261 30.1568H68.544C68.52 29.8894 68.4189 29.6735 68.2406 29.5089C68.0658 29.341 67.8464 29.257 67.5825 29.257ZM71.4836 29.2878H70.4604V31.6685H70.0954V29.2878H69.0722V28.9639H71.4836V29.2878ZM72.9421 28.9433C73.2952 28.9433 73.566 29.0325 73.7545 29.2107C73.9431 29.3855 74.0373 29.646 74.0373 29.9923V31.6685H73.6877V31.2468C73.6054 31.3874 73.4837 31.4971 73.3226 31.5759C73.1649 31.6547 72.9764 31.6942 72.757 31.6942C72.4554 31.6942 72.2154 31.6222 72.0372 31.4782C71.8589 31.3342 71.7698 31.144 71.7698 30.9075C71.7698 30.6778 71.8521 30.4927 72.0166 30.3522C72.1846 30.2116 72.4502 30.1414 72.8136 30.1414H73.6723V29.9768C73.6723 29.7437 73.6071 29.5672 73.4769 29.4472C73.3466 29.3238 73.1564 29.2621 72.9061 29.2621C72.7347 29.2621 72.5702 29.2913 72.4125 29.3495C72.2548 29.4044 72.1194 29.4815 72.0063 29.5809L71.8418 29.3084C71.9789 29.1919 72.1434 29.1027 72.3354 29.041C72.5274 28.9759 72.7296 28.9433 72.9421 28.9433ZM72.8136 31.4062C73.0193 31.4062 73.1958 31.36 73.3432 31.2674C73.4906 31.1714 73.6003 31.0343 73.6723 30.8561V30.4139H72.8239C72.3611 30.4139 72.1297 30.575 72.1297 30.8972C72.1297 31.0549 72.1897 31.18 72.3097 31.2725C72.4297 31.3617 72.5976 31.4062 72.8136 31.4062Z" fill="#03153D"/>
<path d="M62.0927 14.6714H71.7335C71.8755 14.6714 72.0118 14.7215 72.1122 14.8108C72.2127 14.9001 72.2691 15.0212 72.2691 15.1475V22.7649C72.2691 22.8911 72.2127 23.0122 72.1122 23.1015C72.0118 23.1908 71.8755 23.2409 71.7335 23.2409H62.0927C61.9507 23.2409 61.8144 23.1908 61.714 23.1015C61.6136 23.0122 61.5571 22.8911 61.5571 22.7649V15.1475C61.5571 15.0212 61.6136 14.9001 61.714 14.8108C61.8144 14.7215 61.9507 14.6714 62.0927 14.6714ZM71.1979 18.4801H62.6283V22.2888H71.1979V18.4801ZM71.1979 17.5279V15.6236H62.6283V17.5279H71.1979ZM67.9843 20.8605C67.9843 20.5976 68.1975 20.3844 68.4604 20.3844H69.6506C69.9135 20.3844 70.1267 20.5976 70.1267 20.8605C70.1267 21.1234 69.9135 21.3366 69.6506 21.3366H68.4604C68.1975 21.3366 67.9843 21.1234 67.9843 20.8605Z" fill="#03153D"/>
</g>
<g opacity="0.35">
<path d="M105.303 28.0692V31.6685H104.927V28.3983H102.649V31.6685H102.274V28.0692H105.303ZM108.641 28.9639V31.6685H108.275V29.2878H106.98L106.944 29.9563C106.916 30.5184 106.851 30.9503 106.748 31.252C106.646 31.5536 106.462 31.7044 106.198 31.7044C106.126 31.7044 106.039 31.6907 105.936 31.6633L105.962 31.3497C106.023 31.3634 106.066 31.3702 106.09 31.3702C106.231 31.3702 106.337 31.3051 106.409 31.1749C106.481 31.0446 106.529 30.8835 106.553 30.6915C106.577 30.4996 106.598 30.2459 106.615 29.9306L106.661 28.9639H108.641ZM110.609 28.9433C110.962 28.9433 111.233 29.0325 111.421 29.2107C111.61 29.3855 111.704 29.646 111.704 29.9923V31.6685H111.355V31.2468C111.272 31.3874 111.151 31.4971 110.989 31.5759C110.832 31.6547 110.643 31.6942 110.424 31.6942C110.122 31.6942 109.882 31.6222 109.704 31.4782C109.526 31.3342 109.437 31.144 109.437 30.9075C109.437 30.6778 109.519 30.4927 109.683 30.3522C109.851 30.2116 110.117 30.1414 110.48 30.1414H111.339V29.9768C111.339 29.7437 111.274 29.5672 111.144 29.4472C111.013 29.3238 110.823 29.2621 110.573 29.2621C110.402 29.2621 110.237 29.2913 110.079 29.3495C109.922 29.4044 109.786 29.4815 109.673 29.5809L109.509 29.3084C109.646 29.1919 109.81 29.1027 110.002 29.041C110.194 28.9759 110.396 28.9433 110.609 28.9433ZM110.48 31.4062C110.686 31.4062 110.863 31.36 111.01 31.2674C111.157 31.1714 111.267 31.0343 111.339 30.8561V30.4139H110.491C110.028 30.4139 109.797 30.575 109.797 30.8972C109.797 31.0549 109.857 31.18 109.977 31.2725C110.097 31.3617 110.264 31.4062 110.48 31.4062ZM114.578 29.2878H113.555V31.6685H113.19V29.2878H112.167V28.9639H114.578V29.2878ZM117.346 30.4293H115.084C115.104 30.7104 115.212 30.9383 115.407 31.1131C115.603 31.2845 115.85 31.3702 116.148 31.3702C116.316 31.3702 116.47 31.3411 116.611 31.2828C116.751 31.2211 116.873 31.132 116.976 31.0155L117.181 31.252C117.061 31.3959 116.911 31.5056 116.729 31.581C116.551 31.6565 116.354 31.6942 116.138 31.6942C115.86 31.6942 115.613 31.6359 115.397 31.5193C115.185 31.3994 115.018 31.2348 114.898 31.0257C114.778 30.8166 114.719 30.5801 114.719 30.3162C114.719 30.0522 114.775 29.8157 114.888 29.6066C115.005 29.3975 115.162 29.2347 115.361 29.1182C115.563 29.0016 115.79 28.9433 116.04 28.9433C116.29 28.9433 116.515 29.0016 116.713 29.1182C116.912 29.2347 117.068 29.3975 117.181 29.6066C117.295 29.8123 117.351 30.0488 117.351 30.3162L117.346 30.4293ZM116.04 29.257C115.779 29.257 115.56 29.341 115.382 29.5089C115.207 29.6735 115.108 29.8894 115.084 30.1568H117.001C116.977 29.8894 116.876 29.6735 116.698 29.5089C116.523 29.341 116.304 29.257 116.04 29.257ZM120.454 30.4653H119.868V31.6685H119.503V30.4653H118.917L118.089 31.6685H117.652L118.624 30.275L117.729 28.9639H118.125L118.917 30.1516H119.503V28.9639H119.868V30.1516H120.454L121.251 28.9639H121.647L120.752 30.2802L121.724 31.6685H121.287L120.454 30.4653ZM122.332 28.9639H122.697V31.1131L124.502 28.9639H124.826V31.6685H124.46V29.5192L122.661 31.6685H122.332V28.9639Z" fill="#03153D"/>
<path d="M116.938 24.312H109.439C109.013 24.312 108.604 24.1428 108.303 23.8414C108.002 23.5401 107.833 23.1314 107.833 22.7053V14.1357C107.833 13.9936 107.889 13.8574 107.989 13.757C108.09 13.6565 108.226 13.6001 108.368 13.6001H115.866C116.009 13.6001 116.145 13.6565 116.245 13.757C116.346 13.8574 116.402 13.9936 116.402 14.1357V20.5629H117.902C118.257 20.5629 118.544 20.8506 118.544 21.2056V22.7053C118.544 23.1314 118.375 23.5401 118.074 23.8414C117.773 24.1428 117.364 24.312 116.938 24.312ZM116.402 21.6341V22.7053C116.402 22.8473 116.459 22.9835 116.559 23.084C116.659 23.1844 116.796 23.2409 116.938 23.2409C117.08 23.2409 117.216 23.1844 117.316 23.084C117.417 22.9835 117.473 22.8473 117.473 22.7053V21.6341H116.402ZM115.331 23.2409V14.6713H108.904V22.7053C108.904 22.8473 108.96 22.9835 109.061 23.084C109.161 23.1844 109.297 23.2409 109.439 23.2409H115.331ZM109.975 16.8137C109.975 16.5179 110.215 16.2781 110.511 16.2781H113.724C114.02 16.2781 114.26 16.5179 114.26 16.8137C114.26 17.1095 114.02 17.3493 113.724 17.3493H110.511C110.215 17.3493 109.975 17.1095 109.975 16.8137ZM109.975 18.9561C109.975 18.6603 110.215 18.4205 110.511 18.4205H113.724C114.02 18.4205 114.26 18.6603 114.26 18.9561C114.26 19.2519 114.02 19.4917 113.724 19.4917H110.511C110.215 19.4917 109.975 19.2519 109.975 18.9561ZM109.975 21.0985C109.975 20.8027 110.215 20.5629 110.511 20.5629H112.117C112.413 20.5629 112.653 20.8027 112.653 21.0985C112.653 21.3943 112.413 21.6341 112.117 21.6341H110.511C110.215 21.6341 109.975 21.3943 109.975 21.0985Z" fill="#03153D"/>
</g>
<g opacity="0.35">
<path d="M149.153 28.0692V31.6685H148.778V28.3983H146.5V31.6685H146.125V28.0692H149.153ZM152.645 30.4293H150.383C150.404 30.7104 150.512 30.9383 150.707 31.1131C150.902 31.2845 151.149 31.3702 151.447 31.3702C151.615 31.3702 151.77 31.3411 151.91 31.2828C152.051 31.2211 152.172 31.132 152.275 31.0155L152.481 31.252C152.361 31.3959 152.21 31.5056 152.028 31.581C151.85 31.6565 151.653 31.6942 151.437 31.6942C151.16 31.6942 150.913 31.6359 150.697 31.5193C150.484 31.3994 150.318 31.2348 150.198 31.0257C150.078 30.8166 150.018 30.5801 150.018 30.3162C150.018 30.0522 150.075 29.8157 150.188 29.6066C150.304 29.3975 150.462 29.2347 150.661 29.1182C150.863 29.0016 151.089 28.9433 151.339 28.9433C151.59 28.9433 151.814 29.0016 152.013 29.1182C152.212 29.2347 152.368 29.3975 152.481 29.6066C152.594 29.8123 152.651 30.0488 152.651 30.3162L152.645 30.4293ZM151.339 29.257C151.079 29.257 150.86 29.341 150.681 29.5089C150.507 29.6735 150.407 29.8894 150.383 30.1568H152.301C152.277 29.8894 152.176 29.6735 151.998 29.5089C151.823 29.341 151.603 29.257 151.339 29.257ZM154.852 28.9433C155.106 28.9433 155.335 29.0016 155.541 29.1182C155.747 29.2313 155.908 29.3924 156.024 29.6015C156.141 29.8106 156.199 30.0488 156.199 30.3162C156.199 30.587 156.141 30.8269 156.024 31.036C155.908 31.2451 155.747 31.4079 155.541 31.5245C155.339 31.6376 155.109 31.6942 154.852 31.6942C154.633 31.6942 154.434 31.6496 154.256 31.5605C154.081 31.4679 153.937 31.3342 153.824 31.1594V32.666H153.459V28.9639H153.808V29.4986C153.918 29.3204 154.062 29.1833 154.24 29.0873C154.422 28.9913 154.626 28.9433 154.852 28.9433ZM154.826 31.3702C155.015 31.3702 155.186 31.3274 155.341 31.2417C155.495 31.1526 155.615 31.0275 155.701 30.8663C155.79 30.7052 155.834 30.5218 155.834 30.3162C155.834 30.1105 155.79 29.9288 155.701 29.7712C155.615 29.61 155.495 29.4849 155.341 29.3958C155.186 29.3067 155.015 29.2621 154.826 29.2621C154.634 29.2621 154.461 29.3067 154.307 29.3958C154.156 29.4849 154.036 29.61 153.947 29.7712C153.861 29.9288 153.819 30.1105 153.819 30.3162C153.819 30.5218 153.861 30.7052 153.947 30.8663C154.036 31.0275 154.156 31.1526 154.307 31.2417C154.461 31.3274 154.634 31.3702 154.826 31.3702ZM159.349 30.4293H157.086C157.107 30.7104 157.215 30.9383 157.41 31.1131C157.606 31.2845 157.853 31.3702 158.151 31.3702C158.319 31.3702 158.473 31.3411 158.614 31.2828C158.754 31.2211 158.876 31.132 158.979 31.0155L159.184 31.252C159.064 31.3959 158.913 31.5056 158.732 31.581C158.554 31.6565 158.356 31.6942 158.141 31.6942C157.863 31.6942 157.616 31.6359 157.4 31.5193C157.188 31.3994 157.021 31.2348 156.901 31.0257C156.781 30.8166 156.721 30.5801 156.721 30.3162C156.721 30.0522 156.778 29.8157 156.891 29.6066C157.008 29.3975 157.165 29.2347 157.364 29.1182C157.566 29.0016 157.793 28.9433 158.043 28.9433C158.293 28.9433 158.518 29.0016 158.716 29.1182C158.915 29.2347 159.071 29.3975 159.184 29.6066C159.297 29.8123 159.354 30.0488 159.354 30.3162L159.349 30.4293ZM158.043 29.257C157.782 29.257 157.563 29.341 157.385 29.5089C157.21 29.6735 157.11 29.8894 157.086 30.1568H159.004C158.98 29.8894 158.879 29.6735 158.701 29.5089C158.526 29.341 158.307 29.257 158.043 29.257ZM161.885 30.2699C162.251 30.3556 162.435 30.5767 162.435 30.9332C162.435 31.1697 162.347 31.3514 162.172 31.4782C161.998 31.605 161.737 31.6685 161.391 31.6685H160.162V28.9639H161.355C161.663 28.9639 161.905 29.0239 162.08 29.1439C162.255 29.2638 162.342 29.4352 162.342 29.658C162.342 29.8054 162.301 29.9323 162.219 30.0385C162.14 30.1414 162.028 30.2185 161.885 30.2699ZM160.517 30.1671H161.329C161.538 30.1671 161.698 30.1277 161.807 30.0488C161.921 29.97 161.977 29.8551 161.977 29.7043C161.977 29.5535 161.921 29.4404 161.807 29.365C161.698 29.2895 161.538 29.2518 161.329 29.2518H160.517V30.1671ZM161.375 31.3805C161.609 31.3805 161.783 31.3428 161.9 31.2674C162.016 31.192 162.075 31.0737 162.075 30.9126C162.075 30.7515 162.022 30.6333 161.915 30.5578C161.809 30.479 161.641 30.4396 161.411 30.4396H160.517V31.3805H161.375ZM164.406 31.6942C164.146 31.6942 163.911 31.6359 163.702 31.5193C163.493 31.3994 163.328 31.2348 163.208 31.0257C163.088 30.8166 163.028 30.5801 163.028 30.3162C163.028 30.0522 163.088 29.8157 163.208 29.6066C163.328 29.3975 163.493 29.2347 163.702 29.1182C163.911 29.0016 164.146 28.9433 164.406 28.9433C164.667 28.9433 164.901 29.0016 165.11 29.1182C165.32 29.2347 165.482 29.3975 165.599 29.6066C165.719 29.8157 165.779 30.0522 165.779 30.3162C165.779 30.5801 165.719 30.8166 165.599 31.0257C165.482 31.2348 165.32 31.3994 165.11 31.5193C164.901 31.6359 164.667 31.6942 164.406 31.6942ZM164.406 31.3702C164.598 31.3702 164.769 31.3274 164.92 31.2417C165.074 31.1526 165.194 31.0275 165.28 30.8663C165.366 30.7052 165.409 30.5218 165.409 30.3162C165.409 30.1105 165.366 29.9271 165.28 29.766C165.194 29.6049 165.074 29.4815 164.92 29.3958C164.769 29.3067 164.598 29.2621 164.406 29.2621C164.214 29.2621 164.041 29.3067 163.887 29.3958C163.736 29.4815 163.616 29.6049 163.527 29.766C163.441 29.9271 163.398 30.1105 163.398 30.3162C163.398 30.5218 163.441 30.7052 163.527 30.8663C163.616 31.0275 163.736 31.1526 163.887 31.2417C164.041 31.3274 164.214 31.3702 164.406 31.3702ZM169.182 31.3497V32.3215H168.837V31.6685H166.415V32.3215H166.071V31.3497H166.225C166.407 31.3394 166.53 31.2057 166.595 30.9486C166.661 30.6915 166.705 30.3316 166.729 29.8688L166.765 28.9639H168.76V31.3497H169.182ZM167.063 29.8894C167.046 30.2733 167.014 30.5904 166.966 30.8406C166.918 31.0874 166.832 31.2571 166.709 31.3497H168.395V29.2878H167.094L167.063 29.8894ZM171.03 29.9203C171.369 29.9237 171.628 29.9991 171.806 30.1465C171.984 30.2939 172.073 30.5064 172.073 30.7841C172.073 31.072 171.977 31.2931 171.785 31.4474C171.593 31.6016 171.319 31.677 170.963 31.6736L169.893 31.6685V28.9639H170.258V29.91L171.03 29.9203ZM172.526 28.9639H172.891V31.6685H172.526V28.9639ZM170.942 31.3959C171.192 31.3994 171.381 31.3497 171.508 31.2468C171.638 31.1406 171.703 30.9863 171.703 30.7841C171.703 30.5853 171.64 30.4379 171.513 30.3419C171.386 30.2459 171.196 30.1962 170.942 30.1928L170.258 30.1825V31.3857L170.942 31.3959Z" fill="#03153D"/>
<path d="M155.18 15.2069V22.7053H163.749V15.2069H155.18ZM154.644 14.1357H164.285C164.427 14.1357 164.563 14.1922 164.663 14.2926C164.764 14.3931 164.82 14.5293 164.82 14.6713V23.2409C164.82 23.3829 164.764 23.5192 164.663 23.6196C164.563 23.7201 164.427 23.7765 164.285 23.7765H154.644C154.502 23.7765 154.366 23.7201 154.265 23.6196C154.165 23.5192 154.108 23.3829 154.108 23.2409V14.6713C154.108 14.5293 154.165 14.3931 154.265 14.2926C154.366 14.1922 154.502 14.1357 154.644 14.1357ZM161.071 16.9768C161.071 16.7023 161.393 16.5542 161.602 16.7328L162.661 17.6409C162.811 17.7692 162.811 18.0007 162.661 18.1289L161.602 19.037C161.393 19.2157 161.071 19.0676 161.071 18.793V18.4205H159.25C159.073 18.4205 158.929 18.2766 158.929 18.0992V17.6707C158.929 17.4932 159.073 17.3493 159.25 17.3493H161.071V16.9768ZM157.858 20.9354C157.858 21.21 157.536 21.3581 157.327 21.1794L156.268 20.2713C156.118 20.1431 156.118 19.9116 156.268 19.7833L157.327 18.8752C157.536 18.6966 157.858 18.8447 157.858 19.1192V19.4917H159.679C159.856 19.4917 160 19.6356 160 19.8131V20.2416C160 20.419 159.856 20.5629 159.679 20.5629H157.858V20.9354Z" fill="#03153D"/>
</g>
<g opacity="0.35">
<path d="M202.382 28.0692V31.6685H202.017V28.7891L200.603 31.2108H200.423L199.009 28.8045V31.6685H198.644V28.0692H198.958L200.521 30.7378L202.069 28.0692H202.382ZM205.873 30.4293H203.61C203.631 30.7104 203.739 30.9383 203.934 31.1131C204.13 31.2845 204.377 31.3702 204.675 31.3702C204.843 31.3702 204.997 31.3411 205.138 31.2828C205.278 31.2211 205.4 31.132 205.503 31.0155L205.708 31.252C205.588 31.3959 205.437 31.5056 205.256 31.581C205.078 31.6565 204.88 31.6942 204.665 31.6942C204.387 31.6942 204.14 31.6359 203.924 31.5193C203.712 31.3994 203.545 31.2348 203.425 31.0257C203.305 30.8166 203.245 30.5801 203.245 30.3162C203.245 30.0522 203.302 29.8157 203.415 29.6066C203.532 29.3975 203.689 29.2347 203.888 29.1182C204.09 29.0016 204.317 28.9433 204.567 28.9433C204.817 28.9433 205.042 29.0016 205.24 29.1182C205.439 29.2347 205.595 29.3975 205.708 29.6066C205.821 29.8123 205.878 30.0488 205.878 30.3162L205.873 30.4293ZM204.567 29.257C204.306 29.257 204.087 29.341 203.909 29.5089C203.734 29.6735 203.634 29.8894 203.61 30.1568H205.528C205.504 29.8894 205.403 29.6735 205.225 29.5089C205.05 29.341 204.831 29.257 204.567 29.257ZM206.686 28.9639H207.051V30.1619H208.753V28.9639H209.118V31.6685H208.753V30.4756H207.051V31.6685H206.686V28.9639ZM212.48 28.9433C212.733 28.9433 212.961 29.0016 213.164 29.1182C213.369 29.2347 213.53 29.3975 213.647 29.6066C213.764 29.8157 213.822 30.0522 213.822 30.3162C213.822 30.5801 213.764 30.8166 213.647 31.0257C213.53 31.2348 213.369 31.3994 213.164 31.5193C212.961 31.6359 212.733 31.6942 212.48 31.6942C212.24 31.6942 212.022 31.6427 211.827 31.5399C211.631 31.4337 211.472 31.288 211.349 31.1029C211.229 30.9178 211.158 30.7052 211.138 30.4653H210.521V31.6685H210.156V28.9639H210.521V30.1311H211.143C211.17 29.898 211.244 29.6923 211.364 29.5141C211.487 29.3324 211.645 29.1919 211.837 29.0924C212.029 28.993 212.243 28.9433 212.48 28.9433ZM212.48 31.3754C212.665 31.3754 212.831 31.3308 212.979 31.2417C213.129 31.1526 213.248 31.0275 213.333 30.8663C213.419 30.7052 213.462 30.5218 213.462 30.3162C213.462 30.1105 213.419 29.9271 213.333 29.766C213.248 29.6049 213.129 29.4815 212.979 29.3958C212.831 29.3067 212.665 29.2621 212.48 29.2621C212.295 29.2621 212.127 29.3067 211.976 29.3958C211.829 29.4815 211.712 29.6049 211.626 29.766C211.541 29.9271 211.498 30.1105 211.498 30.3162C211.498 30.5218 211.541 30.7052 211.626 30.8663C211.712 31.0275 211.829 31.1526 211.976 31.2417C212.127 31.3308 212.295 31.3754 212.48 31.3754Z" fill="#03153D"/>
<path d="M200.919 15.207C200.919 14.9112 201.159 14.6714 201.455 14.6714H210.025C210.32 14.6714 210.56 14.9112 210.56 15.207C210.56 15.5028 210.32 15.7426 210.025 15.7426H201.455C201.159 15.7426 200.919 15.5028 200.919 15.207ZM200.919 18.9562C200.919 18.6604 201.159 18.4206 201.455 18.4206H210.025C210.32 18.4206 210.56 18.6604 210.56 18.9562C210.56 19.252 210.32 19.4918 210.025 19.4918H201.455C201.159 19.4918 200.919 19.252 200.919 18.9562ZM200.919 22.7053C200.919 22.4095 201.159 22.1697 201.455 22.1697H210.025C210.32 22.1697 210.56 22.4095 210.56 22.7053C210.56 23.0011 210.32 23.2409 210.025 23.2409H201.455C201.159 23.2409 200.919 23.0011 200.919 22.7053Z" fill="black"/>
</g>
</g>
<defs>
<filter id="filter0_d" x="-7.64222" y="0.960038" width="241.662" height="41.1339" filterUnits="userSpaceOnUse" color-interpolation-filters="sRGB">
<feFlood flood-opacity="0" result="BackgroundImageFix"/>
<feColorMatrix in="SourceAlpha" type="matrix" values="0 0 0 0 0 0 0 0 0 0 0 0 0 0 0 0 0 0 127 0"/>
<feOffset dy="-1.28543"/>
<feGaussianBlur stdDeviation="2.57087"/>
<feColorMatrix type="matrix" values="0 0 0 0 0.0117647 0 0 0 0 0.0823529 0 0 0 0 0.239216 0 0 0 0.1 0"/>
<feBlend mode="normal" in2="BackgroundImageFix" result="effect1_dropShadow"/>
<feBlend mode="normal" in="SourceGraphic" in2="effect1_dropShadow" result="shape"/>
</filter>
</defs>
</svg>
