<svg width="144" height="34" viewBox="0 0 144 34" fill="none" xmlns="http://www.w3.org/2000/svg">
<path d="M33.9158 34L17.0354 16.9988L33.9158 0V34Z" fill="#FFD400"/>
<path d="M33.9159 34H0.155029L17.0355 16.9988L33.9159 34Z" fill="#0029D3"/>
<path d="M0.155029 34V0H33.9159L0.155029 34Z" fill="#0068FF"/>
<path d="M79.3837 0.0821114H70.4061L58.2451 14.8202V0.0821114H50.7939V33.7561H58.2451V19.0252L70.4061 33.7633H79.3837L65.4886 16.9215L79.3837 0.0821114Z" fill="white"/>
<path d="M111.452 0.0821114H102.472L90.313 14.8202V0.0821114H82.8618V33.7561H90.313V19.0252L102.472 33.7633H111.452L97.554 16.9215L111.452 0.0821114Z" fill="white"/>
<path d="M122.219 19.3682V27.143H131.368C134.638 27.143 136.274 25.8629 136.276 23.3027C136.299 22.7558 136.195 22.211 135.972 21.7114C135.748 21.2117 135.412 20.7708 134.989 20.4237C134.132 19.72 132.893 19.3682 131.272 19.3682H122.219ZM122.219 6.55267V13.1295H131.272C134.17 13.1295 135.619 12.0732 135.619 9.96064C135.635 9.49264 135.545 9.02705 135.355 8.59902C135.165 8.17099 134.88 7.79171 134.522 7.4898C133.79 6.86505 132.743 6.55267 131.383 6.55267H122.219ZM114.93 0.0821114H131.371C134.737 0.0821114 137.509 0.858223 139.684 2.41045C141.859 3.96267 142.947 6.2266 142.947 9.20224C142.947 12.4033 141.47 14.6914 138.515 16.0665C140.456 16.7217 142.058 18.119 142.971 19.9527C143.901 21.7555 144.194 23.8193 143.804 25.8098C142.853 31.059 138.802 33.6828 131.653 33.6812H114.93V0.0821114Z" fill="white"/>
</svg>
