<svg width="75" height="16" viewBox="0 0 75 16" fill="none" xmlns="http://www.w3.org/2000/svg">
<g opacity="0.9" clip-path="url(#clip0)">
<path d="M50.8064 11.1699H49.767V6.14925L48.2338 6.67322V5.79278L50.6732 4.89516H50.8064V11.1699ZM57.1842 11.1699H52.9796V10.4527L55.0626 8.18071C55.3632 7.84572 55.5765 7.56655 55.7025 7.34322C55.8313 7.11702 55.8958 6.89083 55.8958 6.66463C55.8958 6.36686 55.8113 6.12635 55.6424 5.9431C55.4763 5.75985 55.2515 5.66823 54.9681 5.66823C54.6302 5.66823 54.3682 5.77131 54.1821 5.97746C53.996 6.18361 53.903 6.46564 53.903 6.82354H52.8593C52.8593 6.44273 52.9452 6.10058 53.117 5.79708C53.2917 5.49071 53.5393 5.25306 53.86 5.08413C54.1835 4.9152 54.5558 4.83074 54.9767 4.83074C55.5837 4.83074 56.0618 4.98392 56.4111 5.29029C56.7633 5.59379 56.9394 6.01468 56.9394 6.55297C56.9394 6.86506 56.8506 7.1929 56.6731 7.53649C56.4985 7.87721 56.2107 8.26518 55.8099 8.70039L54.2809 10.3367H57.1842V11.1699ZM58.6745 10.0704C58.8692 10.0704 59.0195 10.1263 59.1255 10.2379C59.2314 10.3467 59.2844 10.4842 59.2844 10.6502C59.2844 10.8135 59.2314 10.9495 59.1255 11.0583C59.0195 11.1642 58.8692 11.2172 58.6745 11.2172C58.4884 11.2172 58.341 11.1642 58.2322 11.0583C58.1233 10.9523 58.0689 10.8163 58.0689 10.6502C58.0689 10.4842 58.1219 10.3467 58.2279 10.2379C58.3338 10.1263 58.4827 10.0704 58.6745 10.0704ZM58.6745 6.42412C58.8692 6.42412 59.0195 6.47996 59.1255 6.59162C59.2314 6.70042 59.2844 6.83786 59.2844 7.00393C59.2844 7.16713 59.2314 7.30313 59.1255 7.41194C59.0195 7.51788 58.8692 7.57085 58.6745 7.57085C58.4884 7.57085 58.341 7.51788 58.2322 7.41194C58.1233 7.306 58.0689 7.16999 58.0689 7.00393C58.0689 6.83786 58.1219 6.70042 58.2279 6.59162C58.3338 6.47996 58.4827 6.42412 58.6745 6.42412ZM61.522 7.56655H62.1576C62.4783 7.56369 62.7317 7.48065 62.9178 7.31745C63.1068 7.15425 63.2013 6.91803 63.2013 6.6088C63.2013 6.31103 63.1225 6.08054 62.9651 5.91733C62.8105 5.75126 62.5728 5.66823 62.2521 5.66823C61.9715 5.66823 61.741 5.74983 61.5607 5.91304C61.3803 6.07338 61.2901 6.28382 61.2901 6.54438H60.2464C60.2464 6.2237 60.3309 5.93165 60.4998 5.66823C60.6716 5.40481 60.9093 5.20009 61.2128 5.05407C61.5191 4.90518 61.8613 4.83074 62.2392 4.83074C62.8634 4.83074 63.353 4.98821 63.7081 5.30317C64.066 5.61526 64.2449 6.05047 64.2449 6.6088C64.2449 6.8894 64.1547 7.15425 63.9744 7.40335C63.7968 7.64958 63.5663 7.83569 63.2829 7.96168C63.6265 8.07907 63.887 8.26375 64.0645 8.51571C64.2449 8.76767 64.3351 9.06831 64.3351 9.41763C64.3351 9.97882 64.1419 10.4255 63.7553 10.7576C63.3716 11.0898 62.8663 11.2558 62.2392 11.2558C61.638 11.2558 61.1455 11.0955 60.7618 10.7748C60.3781 10.4541 60.1863 10.0275 60.1863 9.49493H61.2299C61.2299 9.7698 61.3216 9.99314 61.5048 10.1649C61.6909 10.3367 61.94 10.4226 62.2521 10.4226C62.5757 10.4226 62.8305 10.3367 63.0166 10.1649C63.2027 9.99314 63.2958 9.74403 63.2958 9.41763C63.2958 9.08836 63.1984 8.83496 63.0037 8.65744C62.809 8.47992 62.5198 8.39116 62.1362 8.39116H61.522V7.56655ZM69.3901 8.53718C69.3901 9.43624 69.2212 10.1148 68.8834 10.5729C68.5484 11.0282 68.0373 11.2558 67.3501 11.2558C66.6744 11.2558 66.1647 11.0339 65.8211 10.5901C65.4804 10.1435 65.3058 9.48348 65.2972 8.6102V7.5279C65.2972 6.62884 65.4647 5.95455 65.7997 5.50503C66.1375 5.0555 66.6515 4.83074 67.3415 4.83074C68.0258 4.83074 68.5355 5.04977 68.8705 5.48785C69.2083 5.92592 69.3816 6.5816 69.3901 7.45488V8.53718ZM68.3465 7.36899C68.3465 6.78203 68.2663 6.35254 68.106 6.08054C67.9456 5.80567 67.6908 5.66823 67.3415 5.66823C67.0008 5.66823 66.7503 5.79851 66.5899 6.05906C66.4296 6.31675 66.3451 6.72047 66.3365 7.27021V8.6875C66.3365 9.2716 66.4181 9.70681 66.5813 9.99314C66.7445 10.2795 67.0008 10.4226 67.3501 10.4226C67.6851 10.4226 67.9328 10.2909 68.0931 10.0275C68.2534 9.76121 68.3379 9.34605 68.3465 8.78199V7.36899Z" fill="white"/>
</g>
<path fill-rule="evenodd" clip-rule="evenodd" d="M40.9449 4.34808V3.79834L39.0601 3.79834V4.34808H37.1753V12.5942H42.8298V4.34808H40.9449Z" fill="white"/>
<path fill-rule="evenodd" clip-rule="evenodd" d="M22.7246 12.5942H31.5204V3.79834L22.7246 12.5942Z" fill="white"/>
<path fill-rule="evenodd" clip-rule="evenodd" d="M10.145 5.69362L15.8137 12.5947L21.4824 5.6937C19.9049 4.50412 17.9416 3.79883 15.8136 3.79883C13.6857 3.79883 11.7225 4.50409 10.145 5.69362Z" fill="white"/>
<defs>
<clipPath id="clip0">
<rect width="22.6179" height="10.0524" fill="white" transform="translate(47.2275 3.16992)"/>
</clipPath>
</defs>
</svg>
