<svg width="348" height="47" viewBox="0 0 348 47" fill="none" xmlns="http://www.w3.org/2000/svg">
<path d="M20.4759 32.9016H17.5251L17.533 37.9331H16.9555V32.3953H20.4759V32.9016ZM23.5062 33.7719V37.9331H22.9445V34.2703H20.9509L20.8955 35.2987C20.8533 36.1637 20.7531 36.8282 20.5949 37.2923C20.4367 37.7564 20.1545 37.9885 19.7484 37.9885C19.6376 37.9885 19.5031 37.9674 19.3449 37.9252L19.3845 37.4426C19.4794 37.4637 19.5453 37.4743 19.5823 37.4743C19.7985 37.4743 19.962 37.3741 20.0727 37.1736C20.1835 36.9732 20.2573 36.7253 20.2943 36.43C20.3312 36.1346 20.3628 35.7444 20.3892 35.2591L20.4604 33.7719H23.5062ZM26.5348 33.7402C27.0781 33.7402 27.4947 33.8773 27.7848 34.1516C28.0749 34.4206 28.2199 34.8214 28.2199 35.3541V37.9331H27.6819V37.2844C27.5554 37.5006 27.3681 37.6694 27.1203 37.7907C26.8776 37.912 26.5876 37.9727 26.25 37.9727C25.7859 37.9727 25.4167 37.8619 25.1425 37.6404C24.8682 37.4189 24.7311 37.1262 24.7311 36.7623C24.7311 36.4089 24.8577 36.1241 25.1108 35.9079C25.3693 35.6916 25.778 35.5835 26.3371 35.5835H27.6582V35.3303C27.6582 34.9717 27.558 34.7001 27.3576 34.5155C27.1572 34.3256 26.8645 34.2307 26.4795 34.2307C26.2157 34.2307 25.9626 34.2755 25.72 34.3652C25.4774 34.4496 25.2691 34.5682 25.095 34.7212L24.8419 34.3019C25.0528 34.1226 25.306 33.9855 25.6013 33.8905C25.8967 33.7903 26.2078 33.7402 26.5348 33.7402ZM26.3371 37.5296C26.6535 37.5296 26.9251 37.4584 27.1519 37.316C27.3787 37.1684 27.5475 36.9574 27.6582 36.6831V36.0028H26.3529C25.6409 36.0028 25.2849 36.2507 25.2849 36.7464C25.2849 36.989 25.3772 37.1815 25.5618 37.3239C25.7464 37.4611 26.0048 37.5296 26.3371 37.5296ZM32.3654 35.7813C32.9297 35.9131 33.2119 36.2533 33.2119 36.8018C33.2119 37.1657 33.0774 37.4453 32.8084 37.6404C32.5394 37.8355 32.1386 37.9331 31.6059 37.9331H29.7152V33.7719H31.5505C32.0252 33.7719 32.397 33.8642 32.666 34.0487C32.935 34.2333 33.0695 34.497 33.0695 34.8399C33.0695 35.0666 33.0062 35.2618 32.8796 35.4253C32.7583 35.5835 32.5869 35.7022 32.3654 35.7813ZM30.261 35.6231H31.511C31.8327 35.6231 32.0779 35.5624 32.2467 35.4411C32.4208 35.3198 32.5078 35.1431 32.5078 34.9111C32.5078 34.679 32.4208 34.505 32.2467 34.3889C32.0779 34.2729 31.8327 34.2149 31.511 34.2149H30.261V35.6231ZM31.5822 37.4901C31.9408 37.4901 32.2098 37.4321 32.3891 37.316C32.5684 37.2 32.6581 37.0181 32.6581 36.7702C32.6581 36.5223 32.5763 36.3403 32.4128 36.2243C32.2494 36.103 31.9909 36.0423 31.6376 36.0423H30.261V37.4901H31.5822ZM34.5283 33.7719H35.09V35.6151H37.7085V33.7719H38.2702V37.9331H37.7085V36.0977H35.09V37.9331H34.5283V33.7719ZM41.2986 33.7402C41.8419 33.7402 42.2585 33.8773 42.5486 34.1516C42.8387 34.4206 42.9837 34.8214 42.9837 35.3541V37.9331H42.4457V37.2844C42.3192 37.5006 42.1319 37.6694 41.8841 37.7907C41.6414 37.912 41.3514 37.9727 41.0138 37.9727C40.5497 37.9727 40.1805 37.8619 39.9063 37.6404C39.632 37.4189 39.4949 37.1262 39.4949 36.7623C39.4949 36.4089 39.6215 36.1241 39.8746 35.9079C40.1331 35.6916 40.5418 35.5835 41.1009 35.5835H42.422V35.3303C42.422 34.9717 42.3218 34.7001 42.1214 34.5155C41.921 34.3256 41.6283 34.2307 41.2433 34.2307C40.9795 34.2307 40.7264 34.2755 40.4838 34.3652C40.2412 34.4496 40.0329 34.5682 39.8588 34.7212L39.6057 34.3019C39.8166 34.1226 40.0698 33.9855 40.3651 33.8905C40.6605 33.7903 40.9716 33.7402 41.2986 33.7402ZM41.1009 37.5296C41.4173 37.5296 41.6889 37.4584 41.9157 37.316C42.1425 37.1684 42.3113 36.9574 42.422 36.6831V36.0028H41.1167C40.4047 36.0028 40.0487 36.2507 40.0487 36.7464C40.0487 36.989 40.141 37.1815 40.3256 37.3239C40.5102 37.4611 40.7686 37.5296 41.1009 37.5296ZM47.675 33.7719V37.9331H47.1608V36.5566H45.8555H45.6973L44.7321 37.9331H44.123L45.1593 36.4775C44.8376 36.3878 44.5897 36.2349 44.4157 36.0186C44.2416 35.8024 44.1546 35.5281 44.1546 35.1959C44.1546 34.7317 44.3128 34.3784 44.6293 34.1358C44.9457 33.8932 45.3782 33.7719 45.9267 33.7719H47.675ZM44.7242 35.2117C44.7242 35.8287 45.1171 36.1373 45.903 36.1373H47.1608V34.2703H45.9425C45.1303 34.2703 44.7242 34.5841 44.7242 35.2117Z" fill="#0068FF"/>
<path d="M37.5238 25.4832H25.9867C25.7682 25.4832 25.5586 25.3964 25.404 25.2418C25.2495 25.0873 25.1627 24.8777 25.1627 24.6591V17.2425C24.289 17.2425 23.8733 16.1671 24.5197 15.5795L31.2006 9.50606C31.3524 9.36801 31.5501 9.2915 31.7552 9.2915C31.9604 9.2915 32.1581 9.36801 32.3098 9.50606L38.9907 15.5795C39.6372 16.1671 39.2214 17.2425 38.3478 17.2425V24.6591C38.3478 24.8777 38.261 25.0873 38.1065 25.2418C37.9519 25.3964 37.7423 25.4832 37.5238 25.4832ZM32.5793 23.8351H36.6997V16.1612C36.6997 15.8825 36.5821 15.6168 36.376 15.4294L31.7552 11.2292L27.1345 15.4294C26.9283 15.6168 26.8108 15.8825 26.8108 16.1612V23.8351H30.9312V19.7147C30.9312 19.2596 31.3001 18.8906 31.7552 18.8906C32.2104 18.8906 32.5793 19.2596 32.5793 19.7147V23.8351Z" fill="#0068FF"/>
<g opacity="0.35">
<path d="M94.6518 37.9806C94.1033 37.9806 93.6075 37.8593 93.1645 37.6167C92.7267 37.3741 92.3813 37.0391 92.1281 36.6119C91.8802 36.1795 91.7563 35.6969 91.7563 35.1642C91.7563 34.6315 91.8802 34.1516 92.1281 33.7244C92.3813 33.2919 92.7294 32.9544 93.1724 32.7118C93.6154 32.4692 94.1112 32.3479 94.6597 32.3479C95.0711 32.3479 95.4508 32.4164 95.7989 32.5536C96.147 32.6907 96.4423 32.8911 96.6849 33.1548L96.3131 33.5266C95.8806 33.0889 95.3348 32.87 94.6755 32.87C94.2378 32.87 93.8396 32.9702 93.4809 33.1706C93.1223 33.371 92.8401 33.6453 92.6344 33.9934C92.434 34.3415 92.3338 34.7317 92.3338 35.1642C92.3338 35.5967 92.434 35.987 92.6344 36.3351C92.8401 36.6831 93.1223 36.9574 93.4809 37.1578C93.8396 37.3582 94.2378 37.4584 94.6755 37.4584C95.34 37.4584 95.8859 37.2369 96.3131 36.7939L96.6849 37.1657C96.4423 37.4294 96.1443 37.6325 95.791 37.7749C95.4429 37.912 95.0632 37.9806 94.6518 37.9806ZM100.761 33.7719V37.9331H100.199V36.2006C99.7194 36.4115 99.2474 36.517 98.7833 36.517C98.2823 36.517 97.892 36.4036 97.6124 36.1768C97.3329 35.9448 97.1932 35.5993 97.1932 35.1405V33.7719H97.7548V35.1088C97.7548 35.42 97.8551 35.6573 98.0555 35.8208C98.2559 35.9791 98.5328 36.0582 98.8861 36.0582C99.2764 36.0582 99.7142 35.9553 100.199 35.7496V33.7719H100.761ZM105.995 36.0265H102.514C102.546 36.459 102.712 36.8097 103.013 37.0787C103.313 37.3424 103.693 37.4743 104.152 37.4743C104.41 37.4743 104.648 37.4294 104.864 37.3398C105.08 37.2448 105.267 37.1077 105.426 36.9284L105.742 37.2923C105.558 37.5138 105.326 37.6826 105.046 37.7986C104.772 37.9146 104.468 37.9727 104.136 37.9727C103.709 37.9727 103.329 37.883 102.997 37.7037C102.67 37.5191 102.414 37.2659 102.23 36.9442C102.045 36.6225 101.953 36.2586 101.953 35.8525C101.953 35.4464 102.04 35.0825 102.214 34.7607C102.393 34.439 102.636 34.1885 102.942 34.0092C103.253 33.8299 103.601 33.7402 103.986 33.7402C104.371 33.7402 104.716 33.8299 105.022 34.0092C105.328 34.1885 105.568 34.439 105.742 34.7607C105.916 35.0772 106.003 35.4411 106.003 35.8525L105.995 36.0265ZM103.986 34.2228C103.585 34.2228 103.248 34.352 102.973 34.6104C102.704 34.8636 102.551 35.1959 102.514 35.6072H105.465C105.428 35.1959 105.273 34.8636 104.999 34.6104C104.73 34.352 104.392 34.2228 103.986 34.2228ZM109.988 34.2703H108.414V37.9331H107.852V34.2703H106.278V33.7719H109.988V34.2703ZM112.232 33.7402C112.776 33.7402 113.192 33.8773 113.482 34.1516C113.772 34.4206 113.917 34.8214 113.917 35.3541V37.9331H113.379V37.2844C113.253 37.5006 113.066 37.6694 112.818 37.7907C112.575 37.912 112.285 37.9727 111.947 37.9727C111.483 37.9727 111.114 37.8619 110.84 37.6404C110.566 37.4189 110.429 37.1262 110.429 36.7623C110.429 36.4089 110.555 36.1241 110.808 35.9079C111.067 35.6916 111.475 35.5835 112.035 35.5835H113.356V35.3303C113.356 34.9717 113.255 34.7001 113.055 34.5155C112.855 34.3256 112.562 34.2307 112.177 34.2307C111.913 34.2307 111.66 34.2755 111.417 34.3652C111.175 34.4496 110.967 34.5682 110.792 34.7212L110.539 34.3019C110.75 34.1226 111.003 33.9855 111.299 33.8905C111.594 33.7903 111.905 33.7402 112.232 33.7402ZM112.035 37.5296C112.351 37.5296 112.623 37.4584 112.849 37.316C113.076 37.1684 113.245 36.9574 113.356 36.6831V36.0028H112.05C111.338 36.0028 110.982 36.2507 110.982 36.7464C110.982 36.989 111.075 37.1815 111.259 37.3239C111.444 37.4611 111.702 37.5296 112.035 37.5296Z" fill="#03153D"/>
<path d="M95.5384 11.4741H110.372C110.59 11.4741 110.8 11.5513 110.954 11.6887C111.109 11.826 111.196 12.0124 111.196 12.2066V23.9268C111.196 24.1211 111.109 24.3074 110.954 24.4448C110.8 24.5821 110.59 24.6593 110.372 24.6593H95.5384C95.3199 24.6593 95.1103 24.5821 94.9557 24.4448C94.8012 24.3074 94.7144 24.1211 94.7144 23.9268V12.2066C94.7144 12.0124 94.8012 11.826 94.9557 11.6887C95.1103 11.5513 95.3199 11.4741 95.5384 11.4741ZM109.548 17.3342H96.3625V23.1943H109.548V17.3342ZM109.548 15.8692V12.9391H96.3625V15.8692H109.548ZM104.603 20.9968C104.603 20.5922 104.931 20.2642 105.336 20.2642H107.167C107.572 20.2642 107.9 20.5922 107.9 20.9968C107.9 21.4013 107.572 21.7293 107.167 21.7293H105.336C104.931 21.7293 104.603 21.4013 104.603 20.9968Z" fill="#03153D"/>
</g>
<g opacity="0.35">
<path d="M162.022 32.3953V37.9331H161.444V32.9016H157.939V37.9331H157.362V32.3953H162.022ZM167.157 33.7719V37.9331H166.596V34.2703H164.602L164.547 35.2987C164.505 36.1637 164.404 36.8282 164.246 37.2923C164.088 37.7564 163.806 37.9885 163.4 37.9885C163.289 37.9885 163.154 37.9674 162.996 37.9252L163.036 37.4426C163.131 37.4637 163.197 37.4743 163.233 37.4743C163.45 37.4743 163.613 37.3741 163.724 37.1736C163.835 36.9732 163.909 36.7253 163.945 36.43C163.982 36.1346 164.014 35.7444 164.04 35.2591L164.112 33.7719H167.157ZM170.186 33.7402C170.729 33.7402 171.146 33.8773 171.436 34.1516C171.726 34.4206 171.871 34.8214 171.871 35.3541V37.9331H171.333V37.2844C171.207 37.5006 171.019 37.6694 170.771 37.7907C170.529 37.912 170.239 37.9727 169.901 37.9727C169.437 37.9727 169.068 37.8619 168.794 37.6404C168.519 37.4189 168.382 37.1262 168.382 36.7623C168.382 36.4089 168.509 36.1241 168.762 35.9079C169.02 35.6916 169.429 35.5835 169.988 35.5835H171.309V35.3303C171.309 34.9717 171.209 34.7001 171.009 34.5155C170.808 34.3256 170.516 34.2307 170.131 34.2307C169.867 34.2307 169.614 34.2755 169.371 34.3652C169.129 34.4496 168.92 34.5682 168.746 34.7212L168.493 34.3019C168.704 34.1226 168.957 33.9855 169.253 33.8905C169.548 33.7903 169.859 33.7402 170.186 33.7402ZM169.988 37.5296C170.305 37.5296 170.576 37.4584 170.803 37.316C171.03 37.1684 171.199 36.9574 171.309 36.6831V36.0028H170.004C169.292 36.0028 168.936 36.2507 168.936 36.7464C168.936 36.989 169.028 37.1815 169.213 37.3239C169.398 37.4611 169.656 37.5296 169.988 37.5296ZM176.293 34.2703H174.719V37.9331H174.157V34.2703H172.583V33.7719H176.293V34.2703ZM180.552 36.0265H177.071C177.102 36.459 177.268 36.8097 177.569 37.0787C177.87 37.3424 178.249 37.4743 178.708 37.4743C178.967 37.4743 179.204 37.4294 179.42 37.3398C179.637 37.2448 179.824 37.1077 179.982 36.9284L180.298 37.2923C180.114 37.5138 179.882 37.6826 179.602 37.7986C179.328 37.9146 179.025 37.9727 178.692 37.9727C178.265 37.9727 177.886 37.883 177.553 37.7037C177.226 37.5191 176.97 37.2659 176.786 36.9442C176.601 36.6225 176.509 36.2586 176.509 35.8525C176.509 35.4464 176.596 35.0825 176.77 34.7607C176.949 34.439 177.192 34.1885 177.498 34.0092C177.809 33.8299 178.157 33.7402 178.542 33.7402C178.927 33.7402 179.273 33.8299 179.579 34.0092C179.884 34.1885 180.124 34.439 180.298 34.7607C180.472 35.0772 180.559 35.4411 180.559 35.8525L180.552 36.0265ZM178.542 34.2228C178.141 34.2228 177.804 34.352 177.53 34.6104C177.261 34.8636 177.108 35.1959 177.071 35.6072H180.022C179.985 35.1959 179.829 34.8636 179.555 34.6104C179.286 34.352 178.948 34.2228 178.542 34.2228ZM185.334 36.0819H184.432V37.9331H183.87V36.0819H182.969L181.695 37.9331H181.022L182.518 35.7892L181.141 33.7719H181.75L182.969 35.5993H183.87V33.7719H184.432V35.5993H185.334L186.56 33.7719H187.169L185.793 35.7971L187.288 37.9331H186.616L185.334 36.0819ZM188.223 33.7719H188.785V37.0787L191.561 33.7719H192.06V37.9331H191.498V34.6263L188.729 37.9331H188.223V33.7719Z" fill="#03153D"/>
<path d="M179.923 26.3072H168.386C167.731 26.3072 167.102 26.0467 166.638 25.5831C166.175 25.1194 165.914 24.4906 165.914 23.8349V10.6498C165.914 10.4312 166.001 10.2216 166.155 10.067C166.31 9.91251 166.52 9.82568 166.738 9.82568H178.275C178.494 9.82568 178.703 9.91251 178.858 10.067C179.012 10.2216 179.099 10.4312 179.099 10.6498V20.5386H181.407C181.953 20.5386 182.396 20.9814 182.396 21.5275V23.8349C182.396 24.4906 182.135 25.1194 181.671 25.5831C181.208 26.0467 180.579 26.3072 179.923 26.3072ZM179.099 22.1868V23.8349C179.099 24.0535 179.186 24.2631 179.341 24.4177C179.495 24.5722 179.705 24.659 179.923 24.659C180.142 24.659 180.351 24.5722 180.506 24.4177C180.661 24.2631 180.747 24.0535 180.747 23.8349V22.1868H179.099ZM177.451 24.659V11.4738H167.562V23.8349C167.562 24.0535 167.649 24.2631 167.804 24.4177C167.958 24.5722 168.168 24.659 168.386 24.659H177.451ZM169.21 14.7701C169.21 14.315 169.579 13.9461 170.034 13.9461H174.979C175.434 13.9461 175.803 14.315 175.803 14.7701C175.803 15.2253 175.434 15.5942 174.979 15.5942H170.034C169.579 15.5942 169.21 15.2253 169.21 14.7701ZM169.21 18.0664C169.21 17.6113 169.579 17.2424 170.034 17.2424H174.979C175.434 17.2424 175.803 17.6113 175.803 18.0664C175.803 18.5216 175.434 18.8905 174.979 18.8905H170.034C169.579 18.8905 169.21 18.5216 169.21 18.0664ZM169.21 21.3627C169.21 20.9076 169.579 20.5386 170.034 20.5386H172.507C172.962 20.5386 173.331 20.9076 173.331 21.3627C173.331 21.8178 172.962 22.1868 172.507 22.1868H170.034C169.579 22.1868 169.21 21.8178 169.21 21.3627Z" fill="#03153D"/>
</g>
<g opacity="0.35">
<path d="M229.49 32.3953V37.9331H228.913V32.9016H225.408V37.9331H224.831V32.3953H229.49ZM234.863 36.0265H231.383C231.414 36.459 231.58 36.8097 231.881 37.0787C232.182 37.3424 232.561 37.4743 233.02 37.4743C233.279 37.4743 233.516 37.4294 233.732 37.3398C233.948 37.2448 234.136 37.1077 234.294 36.9284L234.61 37.2923C234.426 37.5138 234.194 37.6826 233.914 37.7986C233.64 37.9146 233.337 37.9727 233.004 37.9727C232.577 37.9727 232.197 37.883 231.865 37.7037C231.538 37.5191 231.282 37.2659 231.098 36.9442C230.913 36.6225 230.821 36.2586 230.821 35.8525C230.821 35.4464 230.908 35.0825 231.082 34.7607C231.261 34.439 231.504 34.1885 231.81 34.0092C232.121 33.8299 232.469 33.7402 232.854 33.7402C233.239 33.7402 233.584 33.8299 233.89 34.0092C234.196 34.1885 234.436 34.439 234.61 34.7607C234.784 35.0772 234.871 35.4411 234.871 35.8525L234.863 36.0265ZM232.854 34.2228C232.453 34.2228 232.116 34.352 231.841 34.6104C231.572 34.8636 231.419 35.1959 231.383 35.6072H234.333C234.296 35.1959 234.141 34.8636 233.867 34.6104C233.598 34.352 233.26 34.2228 232.854 34.2228ZM238.259 33.7402C238.649 33.7402 239.002 33.8299 239.319 34.0092C239.635 34.1832 239.883 34.4311 240.062 34.7528C240.242 35.0746 240.331 35.4411 240.331 35.8525C240.331 36.2691 240.242 36.6383 240.062 36.96C239.883 37.2818 239.635 37.5323 239.319 37.7116C239.007 37.8856 238.654 37.9727 238.259 37.9727C237.921 37.9727 237.615 37.9041 237.341 37.767C237.072 37.6246 236.85 37.4189 236.676 37.1499V39.4679H236.115V33.7719H236.653V34.5946C236.821 34.3204 237.043 34.1094 237.317 33.9617C237.597 33.8141 237.91 33.7402 238.259 33.7402ZM238.219 37.4743C238.509 37.4743 238.773 37.4083 239.01 37.2765C239.247 37.1394 239.432 36.9469 239.564 36.699C239.701 36.4511 239.77 36.1689 239.77 35.8525C239.77 35.536 239.701 35.2565 239.564 35.0139C239.432 34.766 239.247 34.5735 239.01 34.4364C238.773 34.2993 238.509 34.2307 238.219 34.2307C237.924 34.2307 237.657 34.2993 237.42 34.4364C237.188 34.5735 237.003 34.766 236.866 35.0139C236.734 35.2565 236.668 35.536 236.668 35.8525C236.668 36.1689 236.734 36.4511 236.866 36.699C237.003 36.9469 237.188 37.1394 237.42 37.2765C237.657 37.4083 237.924 37.4743 238.219 37.4743ZM245.177 36.0265H241.696C241.728 36.459 241.894 36.8097 242.195 37.0787C242.495 37.3424 242.875 37.4743 243.334 37.4743C243.592 37.4743 243.83 37.4294 244.046 37.3398C244.262 37.2448 244.449 37.1077 244.608 36.9284L244.924 37.2923C244.739 37.5138 244.507 37.6826 244.228 37.7986C243.954 37.9146 243.65 37.9727 243.318 37.9727C242.891 37.9727 242.511 37.883 242.179 37.7037C241.852 37.5191 241.596 37.2659 241.412 36.9442C241.227 36.6225 241.135 36.2586 241.135 35.8525C241.135 35.4464 241.222 35.0825 241.396 34.7607C241.575 34.439 241.818 34.1885 242.124 34.0092C242.435 33.8299 242.783 33.7402 243.168 33.7402C243.553 33.7402 243.898 33.8299 244.204 34.0092C244.51 34.1885 244.75 34.439 244.924 34.7607C245.098 35.0772 245.185 35.4411 245.185 35.8525L245.177 36.0265ZM243.168 34.2228C242.767 34.2228 242.429 34.352 242.155 34.6104C241.886 34.8636 241.733 35.1959 241.696 35.6072H244.647C244.61 35.1959 244.455 34.8636 244.18 34.6104C243.911 34.352 243.574 34.2228 243.168 34.2228ZM249.079 35.7813C249.643 35.9131 249.925 36.2533 249.925 36.8018C249.925 37.1657 249.791 37.4453 249.522 37.6404C249.253 37.8355 248.852 37.9331 248.319 37.9331H246.428V33.7719H248.264C248.738 33.7719 249.11 33.8642 249.379 34.0487C249.648 34.2333 249.783 34.497 249.783 34.8399C249.783 35.0666 249.719 35.2618 249.593 35.4253C249.472 35.5835 249.3 35.7022 249.079 35.7813ZM246.974 35.6231H248.224C248.546 35.6231 248.791 35.5624 248.96 35.4411C249.134 35.3198 249.221 35.1431 249.221 34.9111C249.221 34.679 249.134 34.505 248.96 34.3889C248.791 34.2729 248.546 34.2149 248.224 34.2149H246.974V35.6231ZM248.295 37.4901C248.654 37.4901 248.923 37.4321 249.102 37.316C249.282 37.2 249.371 37.0181 249.371 36.7702C249.371 36.5223 249.29 36.3403 249.126 36.2243C248.963 36.103 248.704 36.0423 248.351 36.0423H246.974V37.4901H248.295ZM252.958 37.9727C252.557 37.9727 252.196 37.883 251.874 37.7037C251.553 37.5191 251.3 37.2659 251.115 36.9442C250.93 36.6225 250.838 36.2586 250.838 35.8525C250.838 35.4464 250.93 35.0825 251.115 34.7607C251.3 34.439 251.553 34.1885 251.874 34.0092C252.196 33.8299 252.557 33.7402 252.958 33.7402C253.359 33.7402 253.72 33.8299 254.042 34.0092C254.364 34.1885 254.614 34.439 254.794 34.7607C254.978 35.0825 255.071 35.4464 255.071 35.8525C255.071 36.2586 254.978 36.6225 254.794 36.9442C254.614 37.2659 254.364 37.5191 254.042 37.7037C253.72 37.883 253.359 37.9727 252.958 37.9727ZM252.958 37.4743C253.254 37.4743 253.517 37.4083 253.749 37.2765C253.987 37.1394 254.171 36.9469 254.303 36.699C254.435 36.4511 254.501 36.1689 254.501 35.8525C254.501 35.536 254.435 35.2539 254.303 35.006C254.171 34.7581 253.987 34.5682 253.749 34.4364C253.517 34.2993 253.254 34.2307 252.958 34.2307C252.663 34.2307 252.397 34.2993 252.159 34.4364C251.927 34.5682 251.743 34.7581 251.605 35.006C251.474 35.2539 251.408 35.536 251.408 35.8525C251.408 36.1689 251.474 36.4511 251.605 36.699C251.743 36.9469 251.927 37.1394 252.159 37.2765C252.397 37.4083 252.663 37.4743 252.958 37.4743ZM260.306 37.4426V38.9378H259.776V37.9331H256.05V38.9378H255.52V37.4426H255.757C256.037 37.4268 256.227 37.2211 256.327 36.8255C256.427 36.43 256.496 35.8762 256.533 35.1642L256.588 33.7719H259.657V37.4426H260.306ZM257.047 35.1959C257.02 35.7866 256.97 36.2744 256.897 36.6594C256.823 37.0391 256.691 37.3002 256.501 37.4426H259.096V34.2703H257.094L257.047 35.1959ZM263.149 35.2433C263.671 35.2486 264.07 35.3646 264.344 35.5914C264.618 35.8182 264.755 36.1452 264.755 36.5724C264.755 37.0154 264.607 37.3556 264.312 37.5929C264.017 37.8303 263.595 37.9463 263.046 37.941L261.401 37.9331V33.7719H261.963V35.2275L263.149 35.2433ZM265.451 33.7719H266.013V37.9331H265.451V33.7719ZM263.015 37.5138C263.4 37.5191 263.69 37.4426 263.885 37.2844C264.085 37.1209 264.186 36.8836 264.186 36.5724C264.186 36.2665 264.088 36.0397 263.893 35.892C263.698 35.7444 263.405 35.6679 263.015 35.6626L261.963 35.6468V37.498L263.015 37.5138Z" fill="#03153D"/>
<path d="M238.762 12.2981V23.8351H251.948V12.2981H238.762ZM237.938 10.6499H252.772C252.99 10.6499 253.2 10.7367 253.354 10.8913C253.509 11.0458 253.596 11.2554 253.596 11.474V24.6592C253.596 24.8777 253.509 25.0873 253.354 25.2419C253.2 25.3964 252.99 25.4832 252.772 25.4832H237.938C237.72 25.4832 237.51 25.3964 237.356 25.2419C237.201 25.0873 237.114 24.8777 237.114 24.6592V11.474C237.114 11.2554 237.201 11.0458 237.356 10.8913C237.51 10.7367 237.72 10.6499 237.938 10.6499ZM247.827 15.0212C247.827 14.5988 248.323 14.3709 248.643 14.6458L250.274 16.043C250.504 16.2403 250.504 16.5965 250.274 16.7938L248.643 18.191C248.323 18.4659 247.827 18.238 247.827 17.8156V17.2425H245.025C244.752 17.2425 244.531 17.0211 244.531 16.7481V16.0888C244.531 15.8157 244.752 15.5943 245.025 15.5943H247.827V15.0212ZM242.883 21.1119C242.883 21.5343 242.387 21.7622 242.067 21.4873L240.436 20.0901C240.206 19.8928 240.206 19.5366 240.436 19.3393L242.067 17.9421C242.387 17.6672 242.883 17.8951 242.883 18.3175V18.8906H245.685C245.958 18.8906 246.179 19.112 246.179 19.3851V20.0443C246.179 20.3174 245.958 20.5388 245.685 20.5388H242.883V21.1119Z" fill="#03153D"/>
</g>
<g opacity="0.35">
<path d="M311.389 32.3953V37.9331H310.827V33.5029L308.652 37.229H308.375L306.199 33.5266V37.9331H305.637V32.3953H306.12L308.525 36.5012L310.906 32.3953H311.389ZM316.76 36.0265H313.279C313.31 36.459 313.476 36.8097 313.777 37.0787C314.078 37.3424 314.457 37.4743 314.916 37.4743C315.175 37.4743 315.412 37.4294 315.628 37.3398C315.845 37.2448 316.032 37.1077 316.19 36.9284L316.506 37.2923C316.322 37.5138 316.09 37.6826 315.81 37.7986C315.536 37.9146 315.233 37.9727 314.9 37.9727C314.473 37.9727 314.094 37.883 313.761 37.7037C313.434 37.5191 313.178 37.2659 312.994 36.9442C312.809 36.6225 312.717 36.2586 312.717 35.8525C312.717 35.4464 312.804 35.0825 312.978 34.7607C313.157 34.439 313.4 34.1885 313.706 34.0092C314.017 33.8299 314.365 33.7402 314.75 33.7402C315.135 33.7402 315.481 33.8299 315.787 34.0092C316.092 34.1885 316.332 34.439 316.506 34.7607C316.68 35.0772 316.768 35.4411 316.768 35.8525L316.76 36.0265ZM314.75 34.2228C314.349 34.2228 314.012 34.352 313.738 34.6104C313.469 34.8636 313.316 35.1959 313.279 35.6072H316.23C316.193 35.1959 316.037 34.8636 315.763 34.6104C315.494 34.352 315.156 34.2228 314.75 34.2228ZM318.011 33.7719H318.573V35.6151H321.191V33.7719H321.753V37.9331H321.191V36.0977H318.573V37.9331H318.011V33.7719ZM326.925 33.7402C327.315 33.7402 327.666 33.8299 327.977 34.0092C328.294 34.1885 328.542 34.439 328.721 34.7607C328.9 35.0825 328.99 35.4464 328.99 35.8525C328.99 36.2586 328.9 36.6225 328.721 36.9442C328.542 37.2659 328.294 37.5191 327.977 37.7037C327.666 37.883 327.315 37.9727 326.925 37.9727C326.556 37.9727 326.221 37.8935 325.92 37.7353C325.62 37.5718 325.375 37.3477 325.185 37.0629C325 36.7781 324.892 36.4511 324.86 36.0819H323.911V37.9331H323.349V33.7719H323.911V35.5677H324.868C324.91 35.209 325.024 34.8926 325.208 34.6183C325.398 34.3388 325.641 34.1226 325.936 33.9696C326.232 33.8167 326.561 33.7402 326.925 33.7402ZM326.925 37.4822C327.21 37.4822 327.466 37.4136 327.693 37.2765C327.925 37.1394 328.107 36.9469 328.238 36.699C328.37 36.4511 328.436 36.1689 328.436 35.8525C328.436 35.536 328.37 35.2539 328.238 35.006C328.107 34.7581 327.925 34.5682 327.693 34.4364C327.466 34.2993 327.21 34.2307 326.925 34.2307C326.64 34.2307 326.382 34.2993 326.15 34.4364C325.923 34.5682 325.744 34.7581 325.612 35.006C325.48 35.2539 325.414 35.536 325.414 35.8525C325.414 36.1689 325.48 36.4511 325.612 36.699C325.744 36.9469 325.923 37.1394 326.15 37.2765C326.382 37.4136 326.64 37.4822 326.925 37.4822Z" fill="#03153D"/>
<path d="M309.138 12.2982C309.138 11.8431 309.507 11.4741 309.962 11.4741H323.147C323.603 11.4741 323.972 11.8431 323.972 12.2982C323.972 12.7533 323.603 13.1223 323.147 13.1223H309.962C309.507 13.1223 309.138 12.7533 309.138 12.2982ZM309.138 18.0667C309.138 17.6116 309.507 17.2426 309.962 17.2426H323.147C323.603 17.2426 323.972 17.6116 323.972 18.0667C323.972 18.5218 323.603 18.8908 323.147 18.8908H309.962C309.507 18.8908 309.138 18.5218 309.138 18.0667ZM309.138 23.8352C309.138 23.3801 309.507 23.0112 309.962 23.0112H323.147C323.603 23.0112 323.972 23.3801 323.972 23.8352C323.972 24.2904 323.603 24.6593 323.147 24.6593H309.962C309.507 24.6593 309.138 24.2904 309.138 23.8352Z" fill="black"/>
</g>
</svg>
