<svg width="14" height="13" viewBox="0 0 14 13" fill="none" xmlns="http://www.w3.org/2000/svg">
<g clip-path="url(#clip0)">
<path d="M11.1306 8.94473H11.6542C11.9434 8.94473 12.1778 9.17914 12.1778 9.46829C12.1778 9.75745 11.9434 9.99186 11.6542 9.99186H2.2301C1.94095 9.99186 1.70654 9.75745 1.70654 9.46829C1.70654 9.17914 1.94095 8.94473 2.2301 8.94473H2.75367V5.2798C2.75367 4.16894 3.19495 3.10358 3.98045 2.31809C4.76594 1.5326 5.8313 1.09131 6.94216 1.09131C8.05301 1.09131 9.11837 1.5326 9.90387 2.31809C10.6894 3.10358 11.1306 4.16894 11.1306 5.2798V8.94473ZM10.0835 8.94473V5.2798C10.0835 4.44666 9.75256 3.64764 9.16344 3.05852C8.57432 2.4694 7.7753 2.13843 6.94216 2.13843C6.10901 2.13843 5.31 2.4694 4.72087 3.05852C4.13175 3.64764 3.80079 4.44666 3.80079 5.2798V8.94473H10.0835ZM5.37147 11.5625C5.37147 11.2734 5.60588 11.039 5.89503 11.039H7.98928C8.27844 11.039 8.51284 11.2734 8.51284 11.5625C8.51284 11.8517 8.27844 12.0861 7.98928 12.0861H5.89503C5.60588 12.0861 5.37147 11.8517 5.37147 11.5625Z" fill="white"/>
</g>
<defs>
<clipPath id="clip0">
<rect width="12.5655" height="12.5655" fill="white" transform="translate(0.659668 0.0444336)"/>
</clipPath>
</defs>
</svg>
