<svg width="348" height="90" viewBox="0 0 348 90" fill="none" xmlns="http://www.w3.org/2000/svg">
<g filter="url(#filter0_d)">
<rect x="0.155273" y="26.2002" width="348" height="54.1333" fill="#0068FF"/>
<path d="M25.2886 53.2663L34.9552 62.9329V43.5996L25.2886 53.2663Z" fill="#FFC200"/>
<path d="M15.6221 43.5996V62.9329L34.9554 43.5996H15.6221Z" fill="#0068FF"/>
<path d="M34.9554 62.9333H15.6221L25.2887 53.2666L34.9554 62.9333Z" fill="#0029D3"/>
<path d="M15.9121 62.6429V43.8896H34.6654V62.6429H15.9121Z" stroke="white" stroke-width="0.58"/>
<path d="M60.6271 43.5996H55.3936L48.9418 51.5815V43.5996H44.6221V62.9329H48.9418V54.6748L56.1136 62.9329H61.3194V62.6844L52.7631 52.9901L60.6271 43.7101V43.5996Z" fill="white"/>
<path d="M79.2587 43.5996H74.0252L67.5733 51.5815V43.5996H63.2536V62.9329H67.5733V54.6748L74.7451 62.9329H79.9509V62.6844L71.3946 52.9901L79.2587 43.7101V43.5996Z" fill="white"/>
<path d="M86.1218 54.7025C87.8386 54.7025 89.6662 54.7025 91.383 54.7025C93.2936 54.7025 94.2905 55.6139 94.2905 56.9672C94.2905 58.3206 93.3767 59.1768 91.4383 59.1768H86.1218V54.7025ZM86.1218 47.3282H91.4383C93.0721 47.3282 93.9028 48.1568 93.9028 49.2891C93.9028 50.4215 93.0721 51.112 91.383 51.112H86.1218V47.3282ZM81.8851 43.5996V62.9329C85.0419 62.9329 88.4755 62.9329 91.6045 62.9329C95.4811 62.9329 98.084 61.5244 98.6655 58.4034C99.0809 56.1663 98.0564 53.6806 95.5919 52.7968C97.4472 51.9406 98.1671 50.4491 98.1671 48.8472C98.1671 45.2568 95.1212 43.5996 91.4383 43.5996H81.8851Z" fill="white"/>
<g clip-path="url(#clip0)">
<path d="M329.467 57.2938H330.272C330.717 57.2938 331.078 57.6544 331.078 58.0993C331.078 58.5442 330.717 58.9049 330.272 58.9049H315.772C315.327 58.9049 314.967 58.5442 314.967 58.0993C314.967 57.6544 315.327 57.2938 315.772 57.2938H316.578V51.6549C316.578 49.9457 317.257 48.3066 318.465 47.098C319.674 45.8894 321.313 45.2104 323.022 45.2104C324.732 45.2104 326.371 45.8894 327.579 47.098C328.788 48.3066 329.467 49.9457 329.467 51.6549V57.2938ZM327.856 57.2938V51.6549C327.856 50.373 327.346 49.1436 326.44 48.2372C325.534 47.3308 324.304 46.8216 323.022 46.8216C321.74 46.8216 320.511 47.3308 319.605 48.2372C318.698 49.1436 318.189 50.373 318.189 51.6549V57.2938H327.856ZM320.606 61.3216C320.606 60.8767 320.966 60.516 321.411 60.516H324.633C325.078 60.516 325.439 60.8767 325.439 61.3216C325.439 61.7665 325.078 62.1271 324.633 62.1271H321.411C320.966 62.1271 320.606 61.7665 320.606 61.3216Z" fill="white"/>
</g>
</g>
<rect width="348" height="29" transform="translate(0.155273 -1)" fill="#0068FF"/>
<g opacity="0.9">
<path d="M298.195 19.8662H296.596V12.1414L294.237 12.9476V11.5929L297.99 10.2118H298.195V19.8662ZM308.008 19.8662H301.539V18.7627L304.743 15.267C305.206 14.7516 305.534 14.322 305.728 13.9784C305.926 13.6304 306.025 13.2824 306.025 12.9343C306.025 12.4762 305.896 12.1061 305.636 11.8242C305.38 11.5422 305.034 11.4013 304.598 11.4013C304.078 11.4013 303.675 11.5599 303.389 11.8771C303.102 12.1942 302.959 12.6282 302.959 13.1788H301.354C301.354 12.5929 301.486 12.0665 301.75 11.5995C302.019 11.1281 302.4 10.7625 302.893 10.5026C303.391 10.2427 303.964 10.1127 304.611 10.1127C305.545 10.1127 306.281 10.3484 306.818 10.8198C307.36 11.2867 307.631 11.9343 307.631 12.7625C307.631 13.2427 307.495 13.7471 307.222 14.2758C306.953 14.8 306.51 15.397 305.893 16.0666L303.541 18.5842H308.008V19.8662ZM310.301 18.1745C310.6 18.1745 310.832 18.2604 310.995 18.4323C311.158 18.5997 311.239 18.8111 311.239 19.0666C311.239 19.3177 311.158 19.527 310.995 19.6944C310.832 19.8574 310.6 19.9389 310.301 19.9389C310.015 19.9389 309.788 19.8574 309.62 19.6944C309.453 19.5314 309.369 19.3221 309.369 19.0666C309.369 18.8111 309.451 18.5997 309.614 18.4323C309.777 18.2604 310.006 18.1745 310.301 18.1745ZM310.301 12.5643C310.6 12.5643 310.832 12.6502 310.995 12.822C311.158 12.9894 311.239 13.2009 311.239 13.4564C311.239 13.7075 311.158 13.9167 310.995 14.0841C310.832 14.2471 310.6 14.3286 310.301 14.3286C310.015 14.3286 309.788 14.2471 309.62 14.0841C309.453 13.9211 309.369 13.7119 309.369 13.4564C309.369 13.2009 309.451 12.9894 309.614 12.822C309.777 12.6502 310.006 12.5643 310.301 12.5643ZM314.682 14.322H315.66C316.153 14.3176 316.543 14.1899 316.83 13.9388C317.12 13.6877 317.266 13.3242 317.266 12.8484C317.266 12.3903 317.145 12.0356 316.902 11.7845C316.664 11.529 316.299 11.4013 315.805 11.4013C315.374 11.4013 315.019 11.5268 314.742 11.7779C314.464 12.0246 314.325 12.3484 314.325 12.7493H312.719C312.719 12.2559 312.849 11.8066 313.109 11.4013C313.374 10.996 313.739 10.681 314.206 10.4563C314.678 10.2272 315.204 10.1127 315.786 10.1127C316.746 10.1127 317.499 10.355 318.046 10.8396C318.596 11.3198 318.872 11.9894 318.872 12.8484C318.872 13.2802 318.733 13.6877 318.455 14.0709C318.182 14.4498 317.827 14.7361 317.391 14.93C317.92 15.1106 318.321 15.3947 318.594 15.7824C318.872 16.1701 319.01 16.6327 319.01 17.1701C319.01 18.0336 318.713 18.7208 318.118 19.2318C317.528 19.7429 316.75 19.9984 315.786 19.9984C314.86 19.9984 314.103 19.7517 313.512 19.2583C312.922 18.7649 312.627 18.1085 312.627 17.2891H314.233C314.233 17.712 314.374 18.0556 314.656 18.3199C314.942 18.5842 315.325 18.7164 315.805 18.7164C316.303 18.7164 316.695 18.5842 316.982 18.3199C317.268 18.0556 317.411 17.6723 317.411 17.1701C317.411 16.6635 317.261 16.2736 316.962 16.0005C316.662 15.7274 316.217 15.5908 315.627 15.5908H314.682V14.322ZM326.788 15.8155C326.788 17.1988 326.528 18.2428 326.008 18.9477C325.493 19.6481 324.706 19.9984 323.649 19.9984C322.61 19.9984 321.825 19.657 321.297 18.9741C320.772 18.2869 320.504 17.2714 320.491 15.9278V14.2626C320.491 12.8793 320.748 11.8418 321.264 11.1502C321.784 10.4585 322.574 10.1127 323.636 10.1127C324.689 10.1127 325.473 10.4497 325.988 11.1237C326.508 11.7978 326.775 12.8066 326.788 14.1502V15.8155ZM325.182 14.0181C325.182 13.115 325.059 12.4542 324.812 12.0356C324.566 11.6127 324.173 11.4013 323.636 11.4013C323.112 11.4013 322.726 11.6017 322.48 12.0026C322.233 12.3991 322.103 13.0202 322.09 13.8661V16.0467C322.09 16.9454 322.215 17.6151 322.466 18.0556C322.717 18.4961 323.112 18.7164 323.649 18.7164C324.165 18.7164 324.546 18.5138 324.792 18.1085C325.039 17.6988 325.169 17.06 325.182 16.1921V14.0181Z" fill="white"/>
</g>
<path fill-rule="evenodd" clip-rule="evenodd" d="M283.022 8.67884V7.83301L280.122 7.83301V8.67884H277.222V21.3663H285.922V8.67884H283.022Z" fill="white"/>
<path fill-rule="evenodd" clip-rule="evenodd" d="M254.989 21.3663H268.522V7.83301L254.989 21.3663Z" fill="white"/>
<path fill-rule="evenodd" clip-rule="evenodd" d="M235.633 10.7494L244.355 21.3673L253.077 10.7494C250.65 8.91913 247.629 7.83398 244.355 7.83398C241.081 7.83398 238.06 8.91913 235.633 10.7494Z" fill="white"/>
<defs>
<filter id="filter0_d" x="-7.57806" y="20.4002" width="363.467" height="69.6" filterUnits="userSpaceOnUse" color-interpolation-filters="sRGB">
<feFlood flood-opacity="0" result="BackgroundImageFix"/>
<feColorMatrix in="SourceAlpha" type="matrix" values="0 0 0 0 0 0 0 0 0 0 0 0 0 0 0 0 0 0 127 0"/>
<feOffset dy="1.93333"/>
<feGaussianBlur stdDeviation="3.86667"/>
<feColorMatrix type="matrix" values="0 0 0 0 0.0117647 0 0 0 0 0.0823529 0 0 0 0 0.239216 0 0 0 0.1 0"/>
<feBlend mode="normal" in2="BackgroundImageFix" result="effect1_dropShadow"/>
<feBlend mode="normal" in="SourceGraphic" in2="effect1_dropShadow" result="shape"/>
</filter>
<clipPath id="clip0">
<rect width="19.3333" height="19.3333" fill="white" transform="translate(313.355 43.5996)"/>
</clipPath>
</defs>
</svg>
