<svg width="55" height="13" viewBox="0 0 55 13" fill="none" xmlns="http://www.w3.org/2000/svg">
<path d="M6.43408 6.32717L12.7168 12.6099V0.0444336L6.43408 6.32717Z" fill="#FFC200"/>
<path d="M0.151855 0.0444336V12.6099L12.7173 0.0444336H0.151855Z" fill="#0068FF"/>
<path d="M12.7168 12.6099H0.151367L6.4341 6.32715L12.7168 12.6099Z" fill="#0029D3"/>
<path d="M0.340338 12.4214V0.232916H12.5288V12.4214H0.340338Z" stroke="white" stroke-width="0.376964"/>
<path d="M29.4023 0.0449219H26.0009L21.8075 5.23267V0.0449219H19V12.6104H21.8075V7.24314L26.4688 12.6104H29.8522V12.4488L24.2911 6.14815L29.4023 0.116725V0.0449219Z" fill="white"/>
<path d="M41.5117 0.0449219H38.1102L33.9169 5.23267V0.0449219H31.1094V12.6104H33.9169V7.24314L38.5781 12.6104H41.9616V12.4488L36.4005 6.14815L41.5117 0.116725V0.0449219Z" fill="white"/>
<path d="M45.9723 7.2611C47.0881 7.2611 48.2759 7.2611 49.3917 7.2611C50.6335 7.2611 51.2814 7.85347 51.2814 8.73305C51.2814 9.61263 50.6875 10.1691 49.4277 10.1691H45.9723V7.2611ZM45.9723 2.46826H49.4277C50.4895 2.46826 51.0294 3.00678 51.0294 3.74276C51.0294 4.47874 50.4895 4.92751 49.3917 4.92751H45.9723V2.46826ZM43.2187 0.0449219V12.6104C45.2704 12.6104 47.502 12.6104 49.5357 12.6104C52.0553 12.6104 53.747 11.6949 54.1249 9.66649C54.3949 8.21248 53.729 6.59692 52.1273 6.0225C53.3331 5.46603 53.801 4.49669 53.801 3.45555C53.801 1.12196 51.8213 0.0449219 49.4277 0.0449219H43.2187Z" fill="white"/>
</svg>
