<svg width="41" height="40" viewBox="0 0 41 40" fill="none" xmlns="http://www.w3.org/2000/svg">
<path d="M0.655273 20C0.655273 12.6436 2.20414 7.8112 5.3382 4.80285C8.47664 1.79029 13.3145 0.5 20.1553 0.5C27.5117 0.5 32.3441 2.04887 35.3524 5.18292C38.365 8.32137 39.6553 13.1592 39.6553 20C39.6553 27.3564 38.1064 32.1888 34.9724 35.1971C31.8339 38.2097 26.996 39.5 20.1553 39.5C12.7989 39.5 7.96648 37.9511 4.95813 34.8171C1.94556 31.6786 0.655273 26.8408 0.655273 20Z" fill="#05133D" stroke="#DEE1ED"/>
<g clip-path="url(#clip0)">
<path d="M28.1553 15.539C27.5603 15.8 26.9263 15.973 26.2653 16.057C26.9453 15.651 27.4643 15.013 27.7083 14.244C27.0743 14.622 26.3743 14.889 25.6283 15.038C25.0263 14.397 24.1683 14 23.2323 14C21.4163 14 19.9543 15.474 19.9543 17.281C19.9543 17.541 19.9763 17.791 20.0303 18.029C17.3033 17.896 14.8903 16.589 13.2693 14.598C12.9863 15.089 12.8203 15.651 12.8203 16.256C12.8203 17.392 13.4053 18.399 14.2773 18.982C13.7503 18.972 13.2333 18.819 12.7953 18.578C12.7953 18.588 12.7953 18.601 12.7953 18.614C12.7953 20.208 13.9323 21.532 15.4233 21.837C15.1563 21.91 14.8653 21.945 14.5633 21.945C14.3533 21.945 14.1413 21.933 13.9423 21.889C14.3673 23.188 15.5733 24.143 17.0073 24.174C15.8913 25.047 14.4743 25.573 12.9403 25.573C12.6713 25.573 12.4133 25.561 12.1553 25.528C13.6083 26.465 15.3303 27 17.1873 27C23.2233 27 26.5233 22 26.5233 17.666C26.5233 17.521 26.5183 17.381 26.5113 17.242C27.1623 16.78 27.7093 16.203 28.1553 15.539Z" fill="#DEE1ED"/>
</g>
<defs>
<clipPath id="clip0">
<rect width="16" height="16" fill="white" transform="translate(12.1553 12)"/>
</clipPath>
</defs>
</svg>
