<svg width="41" height="40" viewBox="0 0 41 40" fill="none" xmlns="http://www.w3.org/2000/svg">
<path d="M0.655273 20C0.655273 12.6436 2.20414 7.8112 5.3382 4.80285C8.47664 1.79029 13.3145 0.5 20.1553 0.5C27.5117 0.5 32.3441 2.04887 35.3524 5.18292C38.365 8.32137 39.6553 13.1592 39.6553 20C39.6553 27.3564 38.1064 32.1888 34.9724 35.1971C31.8339 38.2097 26.996 39.5 20.1553 39.5C12.7989 39.5 7.96648 37.9511 4.95813 34.8171C1.94556 31.6786 0.655273 26.8408 0.655273 20Z" fill="#05133D" stroke="#DEE1ED"/>
<path d="M16.7953 12H23.5153C26.0753 12 28.1553 14.08 28.1553 16.64V23.36C28.1553 24.5906 27.6664 25.7708 26.7962 26.641C25.9261 27.5111 24.7459 28 23.5153 28H16.7953C14.2353 28 12.1553 25.92 12.1553 23.36V16.64C12.1553 15.4094 12.6441 14.2292 13.5143 13.359C14.3845 12.4889 15.5647 12 16.7953 12ZM16.6353 13.6C15.8714 13.6 15.1389 13.9034 14.5988 14.4435C14.0587 14.9836 13.7553 15.7162 13.7553 16.48V23.52C13.7553 25.112 15.0433 26.4 16.6353 26.4H23.6753C24.4391 26.4 25.1716 26.0966 25.7117 25.5565C26.2518 25.0164 26.5553 24.2838 26.5553 23.52V16.48C26.5553 14.888 25.2673 13.6 23.6753 13.6H16.6353ZM24.3553 14.8C24.6205 14.8 24.8748 14.9054 25.0624 15.0929C25.2499 15.2804 25.3553 15.5348 25.3553 15.8C25.3553 16.0652 25.2499 16.3196 25.0624 16.5071C24.8748 16.6946 24.6205 16.8 24.3553 16.8C24.0901 16.8 23.8357 16.6946 23.6482 16.5071C23.4606 16.3196 23.3553 16.0652 23.3553 15.8C23.3553 15.5348 23.4606 15.2804 23.6482 15.0929C23.8357 14.9054 24.0901 14.8 24.3553 14.8ZM20.1553 16C21.2161 16 22.2336 16.4214 22.9837 17.1716C23.7338 17.9217 24.1553 18.9391 24.1553 20C24.1553 21.0609 23.7338 22.0783 22.9837 22.8284C22.2336 23.5786 21.2161 24 20.1553 24C19.0944 24 18.077 23.5786 17.3268 22.8284C16.5767 22.0783 16.1553 21.0609 16.1553 20C16.1553 18.9391 16.5767 17.9217 17.3268 17.1716C18.077 16.4214 19.0944 16 20.1553 16ZM20.1553 17.6C19.5188 17.6 18.9083 17.8529 18.4582 18.3029C18.0081 18.753 17.7553 19.3635 17.7553 20C17.7553 20.6365 18.0081 21.247 18.4582 21.6971C18.9083 22.1471 19.5188 22.4 20.1553 22.4C20.7918 22.4 21.4022 22.1471 21.8523 21.6971C22.3024 21.247 22.5553 20.6365 22.5553 20C22.5553 19.3635 22.3024 18.753 21.8523 18.3029C21.4022 17.8529 20.7918 17.6 20.1553 17.6Z" fill="#DEE1ED"/>
</svg>
