<svg width="41" height="40" viewBox="0 0 41 40" fill="none" xmlns="http://www.w3.org/2000/svg">
<path d="M0.655273 20C0.655273 12.6436 2.20414 7.8112 5.3382 4.80285C8.47664 1.79029 13.3145 0.5 20.1553 0.5C27.5117 0.5 32.3441 2.04887 35.3524 5.18292C38.365 8.32137 39.6553 13.1592 39.6553 20C39.6553 27.3564 38.1064 32.1888 34.9724 35.1971C31.8339 38.2097 26.996 39.5 20.1553 39.5C12.7989 39.5 7.96648 37.9511 4.95813 34.8171C1.94556 31.6786 0.655273 26.8408 0.655273 20Z" stroke="#DEE1ED"/>
<path d="M29.7178 15.1778C29.4678 14.3067 28.7803 13.6222 27.9678 13.4356C26.4053 13 20.1553 13 20.1553 13C20.1553 13 13.9053 13 12.3428 13.4356C11.5303 13.6844 10.7803 14.3689 10.5928 15.24C10.1553 16.7956 10.1553 20.0311 10.1553 20.0311C10.1553 20.0311 10.1553 23.2667 10.5928 24.8222C10.8428 25.6933 11.5303 26.3778 12.3428 26.5644C13.9053 27 20.1553 27 20.1553 27C20.1553 27 26.4053 27 27.9678 26.5644C28.8428 26.3156 29.5303 25.6311 29.7178 24.8222C30.1553 23.2667 30.1553 20.0311 30.1553 20.0311C30.1553 20.0311 30.1553 16.7333 29.7178 15.1778Z" fill="#DEE1ED"/>
<path d="M18.1553 23L23.1553 20L18.1553 17V23Z" fill="#05133D"/>
</svg>
