<svg width="41" height="40" viewBox="0 0 41 40" fill="none" xmlns="http://www.w3.org/2000/svg">
<path d="M0.655273 20C0.655273 12.6436 2.20414 7.8112 5.3382 4.80285C8.47664 1.79029 13.3145 0.5 20.1553 0.5C27.5117 0.5 32.3441 2.04887 35.3524 5.18292C38.365 8.32137 39.6553 13.1592 39.6553 20C39.6553 27.3564 38.1064 32.1888 34.9724 35.1971C31.8339 38.2097 26.996 39.5 20.1553 39.5C12.7989 39.5 7.96648 37.9511 4.95813 34.8171C1.94556 31.6786 0.655273 26.8408 0.655273 20Z" fill="#05133D" stroke="#DEE1ED"/>
<path d="M21.6301 28V19.7695H24.5797L25.0114 16.5576H21.6301V14.5502C21.6301 13.6134 21.9179 13.0112 23.3567 13.0112H25.1553V10.1338C24.8675 10.0669 23.7884 10 22.4934 10C19.9035 10 18.1049 11.4721 18.1049 14.2156V16.5576H15.1553V19.7695H18.1049V27.9331H21.6301V28Z" fill="#DEE1ED"/>
</svg>
